<?xml version="1.0" encoding="utf-8"?>
<!-- Generator: Adobe Illustrator 30.1.0, SVG Export Plug-In . SVG Version: 9.03 Build 0)  -->
<svg version="1.1" id="Layer_1" xmlns="http://www.w3.org/2000/svg" xmlns:xlink="http://www.w3.org/1999/xlink" x="0px" y="0px"
	 viewBox="0 0 432 128.9" style="enable-background:new 0 0 432 128.9;" xml:space="preserve">
<g>
	<path d="M423,129.4H9c-5.2,0-9.5-4.3-9.5-9.5V9c0-5.2,4.3-9.5,9.5-9.5h414c5.2,0,9.5,4.3,9.5,9.5v110.9
		C432.5,125.1,428.2,129.4,423,129.4z M9,0.5C4.3,0.5,0.5,4.3,0.5,9v110.9c0,4.7,3.8,8.5,8.5,8.5h414c4.7,0,8.5-3.8,8.5-8.5V9
		c0-4.7-3.8-8.5-8.5-8.5H9z"/>
</g>
<g>
	<polygon points="51.7,71.3 33.4,71.3 33.4,21.6 22.2,21.6 22.2,80.7 51.7,80.7 	"/>
	<polygon points="89.7,71.3 81.2,71.3 81.2,31 89.7,31 89.7,21.6 61.5,21.6 61.5,31 70,31 70,71.3 61.5,71.3 61.5,80.7 89.7,80.7 	
		"/>
	<path d="M120,45.3c0,2.9,0.1,5.9,0.4,8.8L110,21.6H100v59h11.2c-0.1-6.5,0.3-26.2-0.4-32.4l10.4,32.4h10.1v-59H120V45.3z"/>
	<path d="M140.8,72.3c6.3,15.6,32.4,9.7,30.6-7.5h-11.2c0.1,10.7-10.9,8.2-9.7-1.5c0.4-4.2-0.9-26.4,0.8-29.9c2.6-6.4,9.9-1.6,8.8,4
		h11.2c1.9-17.2-24.3-23.1-30.6-7.5c-2.9,5.9-1,26.8-1.5,33.3C139.3,66.3,139.6,69.5,140.8,72.3z"/>
	<polygon points="23.3,88.5 21.5,88.5 21.5,105.2 32.1,105.2 32.1,103.5 23.3,103.5 	"/>
	<path d="M43.2,104c-1.3,0.3-0.4-6.8-0.7-7.4c0.5-5.3-9.5-5-9.2,0.2H35c-0.4-4.2,8.4-2.9,5.4,0.9c-12.9,0.2-7.1,12.4,0.6,5.9
		c0,1.6,1.7,2.1,3,1.5v-1.2C43.7,103.9,43.1,104,43.2,104z M37.1,104.1c-2.5,0.2-3.2-2.2-1.9-3.7c1.4-1,4.5-0.8,5.8-1.6
		C41.3,101.4,40.2,104.2,37.1,104.1z"/>
	<path d="M50.6,92.8c-1.7,0-3,0.7-3.9,2.1v-6.4h-1.7v16.7h1.7v-1.6C54.3,111.7,60.2,93.3,50.6,92.8z M50.4,94.2c4.7,0,4.8,9.8,0,9.8
		C45.1,104.3,45.2,94.1,50.4,94.2z"/>
	<path d="M62.2,92.8c-7.5-0.3-7.5,13,0,12.7C69.6,105.7,69.6,92.5,62.2,92.8z M62.2,104c-5.3,0.1-5.3-9.9,0-9.8
		C67.4,94.1,67.4,104.2,62.2,104z"/>
	<path d="M74.5,93c-1.5,0-2.7,0.7-3.6,2v-1.9h-1.7v12.1H71c0.3-3.1-1.5-11.5,4.1-10.5V93C74.9,93,74.7,93,74.5,93z"/>
	<path d="M85.5,104c-1.3,0.3-0.4-6.8-0.7-7.4c0.5-5.3-9.5-5-9.2,0.2h1.7c-0.4-4.2,8.4-2.9,5.4,0.9c-12.9,0.2-7.1,12.4,0.6,5.9
		c0,1.6,1.7,2.1,3,1.5v-1.2C86,103.9,85.5,104,85.5,104z M79.4,104.1c-2.5,0.2-3.2-2.2-1.9-3.7c1.4-1,4.5-0.8,5.8-1.6
		C83.6,101.4,82.6,104.2,79.4,104.1z"/>
	<path d="M89.6,89.4h-1.7v3.7h-1.8v1.4h1.8c0.6,2.7-2.2,12.9,3.8,10.6v-1.4c-0.8,0.2-2.3,0.5-2.2-0.8c0,0,0-8.3,0-8.3h2.2v-1.4h-2.2
		V89.4z"/>
	<path d="M98.2,92.8c-7.5-0.3-7.5,13,0,12.7C105.7,105.7,105.7,92.5,98.2,92.8z M98.2,104c-5.3,0.1-5.3-9.9,0-9.8
		C103.5,94.1,103.5,104.2,98.2,104z"/>
	<path d="M110.6,93c-1.5,0-2.7,0.7-3.6,2v-1.9h-1.7v12.1h1.7c0.3-3.1-1.5-11.5,4.1-10.5V93C110.9,93,110.8,93,110.6,93z"/>
	<path d="M117.8,100.8c-0.2,0.7-0.5,1.5-0.8,2.4c-0.5-1.6-3.1-8.5-3.7-10.2h-1.8l4.6,12c-0.4,1.9-1.7,3-3.5,2.4v1.5
		c2.2,0.7,4-0.2,4.7-2.6c0,0,5-13.3,5-13.3h-1.7L117.8,100.8z"/>
	<rect x="127.1" y="88.5" width="1.8" height="16.7"/>
	<path d="M137,92.8c-1.6,0-3,0.6-3.9,1.9v-1.6h-1.7v12.1h1.7c0.4-3-1.7-11.3,3.6-10.9c4.4-0.5,2,8.7,2.6,10.9h1.7
		C140.4,101.9,143,92.4,137,92.8z"/>
	<path d="M150.8,99.3c-0.9-0.9-4.8-1.4-5.8-2c-3.1-3.2,5.1-4.5,4.8-0.7h1.7c0-6.8-13.2-3.2-7.5,2.1c13.8,3.1,0.5,8.9-0.1,2.6h-1.7
		C142.1,108.5,155.9,105.5,150.8,99.3z"/>
	<path d="M155.7,89.4H154v3.7h-1.8v1.4h1.8c0.6,2.7-2.2,12.9,3.8,10.6v-1.4c-0.8,0.2-2.3,0.5-2.2-0.8c0,0,0-8.3,0-8.3h2.2v-1.4h-2.2
		V89.4z"/>
	<path d="M164.7,93c-1.5,0-2.7,0.7-3.6,2v-1.9h-1.7v12.1h1.7c0.3-3.1-1.5-11.5,4.1-10.5V93C165.1,93,164.9,93,164.7,93z"/>
	<path d="M174.2,100.6c0.4,3.7-6,5-6,0.9c0,0,0-8.4,0-8.4h-1.7c0.3,2.2-0.9,9.9,1.1,11.4c1.8,1.7,5.2,1.3,6.6-0.8v1.6h1.7V93.1h-1.7
		V100.6z"/>
	<path d="M190.2,92.8c-1.7,0-3,0.7-3.8,2c-1.1-2.8-5.3-2.6-6.8-0.2v-1.6H178v12.1h1.7c0.1-3.1-1.4-13.7,4.9-10.3
		c1.2,0.9,0.4,8.9,0.6,10.3h1.7c0.2-3.1-1.5-13.8,4.8-10.3c1.3,0.9,0.4,8.9,0.7,10.3h1.7C193.4,102,195.9,92.5,190.2,92.8z"/>
	<path d="M205.1,94.8c-5.4-6.6-13.2,3.5-8.2,8.9c2.5,3.1,8.7,2,9.2-2.4h-1.6c-1.2,4.7-7.8,2.6-7.3-1.8h9.1
		C206.2,97.8,205.9,96.2,205.1,94.8z M200.9,94.2c2.3,0,3.4,1.8,3.5,3.9h-7.3C197.4,95.9,198.6,94.2,200.9,94.2z"/>
	<path d="M213.3,92.8c-1.6,0-3,0.6-3.9,1.9v-1.6h-1.7v12.1h1.7c0.4-3-1.7-11.3,3.6-10.9c4.4-0.5,2,8.7,2.6,10.9h1.7
		C216.7,101.9,219.2,92.4,213.3,92.8z"/>
	<path d="M221.7,89.4H220v3.7h-1.8v1.4h1.8c0.6,2.7-2.2,12.9,3.8,10.6v-1.4c-0.8,0.2-2.3,0.5-2.2-0.8c0,0,0-8.3,0-8.3h2.2v-1.4h-2.2
		V89.4z"/>
	<path d="M240.1,102.5c-0.8-1.5-8-12.3-9.1-14h-1.9v16.7h1.7v-14c0.9,1.6,8,12.2,9.1,14h1.8V88.5h-1.7V102.5z"/>
	<path d="M253.3,94.8c-5.4-6.6-13.2,3.5-8.2,8.9c2.5,3.1,8.7,2,9.2-2.4h-1.6c-1.2,4.7-7.8,2.6-7.3-1.8h9.1
		C254.5,97.8,254.2,96.2,253.3,94.8z M249.2,94.2c2.3,0,3.4,1.8,3.5,3.9h-7.3C245.7,95.9,246.9,94.2,249.2,94.2z"/>
	<path d="M258.3,89.4h-1.7v3.7h-1.8v1.4h1.8c0.6,2.7-2.2,12.9,3.8,10.6v-1.4c-0.8,0.2-2.3,0.5-2.2-0.8c0,0,0-8.3,0-8.3h2.2v-1.4
		h-2.2V89.4z"/>
	<path d="M273.5,100.5c-0.2,0.7-0.5,1.6-0.7,2.7c-0.4-1.7-2.1-8.3-2.6-10.2h-1.7c-0.6,2.1-2.2,8.1-2.7,10.2
		c-0.4-1.8-2.2-8.3-2.8-10.2h-1.8c0,0.1,3.6,12.1,3.6,12.1h1.8c0.5-1.8,2.3-8.2,2.6-9.9c0.3,1.6,2.1,8.3,2.6,9.9h1.8
		c0.1-0.2,3.8-11.9,3.8-12.1h-1.7L273.5,100.5z"/>
	<path d="M283.3,92.8c-7.5-0.3-7.5,13,0,12.7C290.7,105.7,290.7,92.5,283.3,92.8z M283.3,104c-5.3,0.1-5.3-9.9,0-9.8
		C288.5,94.1,288.5,104.2,283.3,104z"/>
	<path d="M295.6,93c-1.5,0-2.7,0.7-3.6,2v-1.9h-1.7v12.1h1.7c0.3-3.1-1.5-11.5,4.1-10.5V93C296,93,295.8,93,295.6,93z"/>
	<polygon points="307.1,93.1 304.9,93.1 299.2,98.6 299.2,88.5 297.5,88.5 297.5,105.2 299.2,105.2 299.2,100.5 301.2,98.6 
		305.6,105.2 307.6,105.2 302.4,97.5 	"/>
	<path d="M324.1,99.1c-0.8,7.8-11.8,5.2-10.7-2.2c-1.1-6.6,8.6-10.4,10.4-3.5h1.8c-1.8-9.1-15.3-5.2-14.1,3.5
		c-1.2,9.6,13.9,12.1,14.3,2.1h-1.7L324.1,99.1z"/>
	<path d="M332.5,92.8c-7.5-0.3-7.5,13,0,12.7C339.9,105.7,339.9,92.5,332.5,92.8z M332.5,104c-5.3,0.1-5.3-9.9,0-9.8
		C337.7,94.1,337.7,104.2,332.5,104z"/>
	<path d="M345.2,92.8c-1.6,0-3,0.6-3.9,1.9v-1.6h-1.7v12.1h1.7c0.4-3-1.7-11.3,3.6-10.9c4.4-0.5,2,8.7,2.6,10.9h1.7
		C348.6,101.9,351.1,92.4,345.2,92.8z"/>
	<path d="M353.6,89.4h-1.7v3.7h-1.8v1.4h1.8c0.6,2.7-2.2,12.9,3.8,10.6v-1.4c-0.8,0.2-2.3,0.5-2.2-0.8c0,0,0-8.3,0-8.3h2.2v-1.4
		h-2.2V89.4z"/>
	<path d="M362.7,93c-1.5,0-2.7,0.7-3.6,2v-1.9h-1.7v12.1h1.7c0.3-3.1-1.5-11.5,4.1-10.5V93C363,93,362.8,93,362.7,93z"/>
	<path d="M369,92.8c-7.5-0.3-7.5,13,0,12.7C376.4,105.7,376.4,92.5,369,92.8z M369,104c-5.3,0.1-5.3-9.9,0-9.8
		C374.2,94.1,374.2,104.2,369,104z"/>
	<rect x="376.2" y="88.5" width="1.7" height="16.7"/>
	<rect x="380.1" y="88.5" width="1.7" height="16.7"/>
	<path d="M393.1,94.8c-5.4-6.6-13.2,3.5-8.2,8.9c2.5,3.1,8.7,2,9.2-2.4h-1.6c-1.2,4.7-7.8,2.6-7.3-1.8h9.1
		C394.2,97.8,393.9,96.2,393.1,94.8z M388.9,94.2c2.3,0,3.4,1.8,3.5,3.9h-7.3C385.4,95.9,386.6,94.2,388.9,94.2z"/>
	<path d="M401.3,93c-1.6-0.2-3.1,0.5-4,2v-1.9h-1.7v12.1h1.7c0.3-3.1-1.5-11.5,4.1-10.5L401.3,93L401.3,93z"/>
	<path d="M185.9,79.1l4.5-12.2h-2.3c-0.4,1.3-3,8.6-3.4,9.7c-0.4-1.2-2.9-8.4-3.4-9.7H179l4.5,12.2H185.9z"/>
	<path d="M197.2,79.2c3.3,0.8,6.9-1.4,6.6-5c-0.4-3.2,1.4-10.2-2.5-11.8c-3.4-1.7-8.3,0.4-7.9,4.6C193.7,70.6,191.7,78.5,197.2,79.2
		z M195.5,71.5c0-0.6-0.1-4.9,0.1-5.4c0.7-3.9,6.9-2.5,6,1.4L195.5,71.5z M195.5,74.2v-0.5l6.1-4c-0.1,1.2,0.3,5.1-0.3,6.2
		C199.9,78.7,195.1,77.4,195.5,74.2z"/>
	<path d="M210.9,78.8c1.9,1.7,4.5-0.9,2.8-2.8C211.9,74.3,209.2,76.9,210.9,78.8z"/>
	<polygon points="221.6,65.3 221.5,65.4 222.8,66.8 225.8,64.4 225.8,79.1 227.9,79.1 227.9,62 225.9,62 	"/>
	<path d="M238.5,78.8c1.9,1.7,4.5-0.9,2.8-2.8C239.5,74.3,236.8,76.9,238.5,78.8z"/>
	<path d="M249.1,76.9c2,3.8,9.1,3.2,9.7-1.3c-0.1-3.2,1.2-9.8-1.3-12.4c-3.1-3-9.5-1-9,3.8C248.7,68.9,248.1,75.1,249.1,76.9z
		 M250.7,71.5c0-0.6-0.1-4.9,0.1-5.4c0.7-3.9,6.9-2.5,6,1.4L250.7,71.5z M250.7,74.2v-0.5l6.1-4c-0.1,1.2,0.3,5.1-0.3,6.2
		C255.1,78.7,250.3,77.4,250.7,74.2z"/>
</g>
</svg>
