%TF.GenerationSoftware,KiCad,Pcbnew,10.0.0*%
%TF.CreationDate,2026-03-27T23:16:44-05:00*%
%TF.ProjectId,LINC,4c494e43-2e6b-4696-9361-645f70636258,rev?*%
%TF.SameCoordinates,Original*%
%TF.FileFunction,Copper,L4,Bot*%
%TF.FilePolarity,Positive*%
%FSLAX45Y45*%
G04 Gerber Fmt 4.5, Leading zero omitted, Abs format (unit mm)*
G04 Created by KiCad (PCBNEW 10.0.0) date 2026-03-27 23:16:44*
%MOMM*%
%LPD*%
G01*
G04 APERTURE LIST*
%TA.AperFunction,ComponentPad*%
%ADD10C,0.700000*%
%TD*%
%TA.AperFunction,ComponentPad*%
%ADD11O,0.900000X2.400000*%
%TD*%
%TA.AperFunction,ComponentPad*%
%ADD12O,0.900000X1.700000*%
%TD*%
%TA.AperFunction,ComponentPad*%
%ADD13C,0.500000*%
%TD*%
%TA.AperFunction,ComponentPad*%
%ADD14C,1.498600*%
%TD*%
%TA.AperFunction,ComponentPad*%
%ADD15R,1.500000X1.500000*%
%TD*%
%TA.AperFunction,ComponentPad*%
%ADD16C,1.500000*%
%TD*%
%TA.AperFunction,ComponentPad*%
%ADD17C,2.300000*%
%TD*%
%TA.AperFunction,ViaPad*%
%ADD18C,0.600000*%
%TD*%
%TA.AperFunction,Conductor*%
%ADD19C,0.500000*%
%TD*%
%TA.AperFunction,Conductor*%
%ADD20C,0.200000*%
%TD*%
G04 APERTURE END LIST*
D10*
%TO.P,J4,A1,GND_A1*%
%TO.N,GND*%
X17180550Y-11757140D03*
%TO.P,J4,A4,VBUS_A4*%
%TO.N,+5V*%
X17265550Y-11757140D03*
%TO.P,J4,A5,CC1_A5*%
%TO.N,Net-(J4-CC1)*%
X17350550Y-11757140D03*
%TO.P,J4,A6,D+_A6*%
%TO.N,/Overview/Connectors/USB_DP*%
X17435550Y-11757140D03*
%TO.P,J4,A7,D-_A7*%
%TO.N,/Overview/Connectors/USB_DM*%
X17520550Y-11757140D03*
%TO.P,J4,A8,SBU1_A8*%
%TO.N,unconnected-(J4-SBU1-PadA8)*%
X17605550Y-11757140D03*
%TO.P,J4,A9,VBUS_A9*%
%TO.N,+5V*%
X17690550Y-11757140D03*
%TO.P,J4,A12,GND_A12*%
%TO.N,GND*%
X17775550Y-11757140D03*
%TO.P,J4,B1,GND_B1*%
X17775550Y-11892140D03*
%TO.P,J4,B4,VBUS_B4*%
%TO.N,+5V*%
X17690550Y-11892140D03*
%TO.P,J4,B5,CC2_B5*%
%TO.N,Net-(J4-CC2)*%
X17605550Y-11892140D03*
%TO.P,J4,B6,D+_B6*%
%TO.N,/Overview/Connectors/USB_DP*%
X17520550Y-11892140D03*
%TO.P,J4,B7,D-_B7*%
%TO.N,/Overview/Connectors/USB_DM*%
X17435550Y-11892140D03*
%TO.P,J4,B8,SBU2_B8*%
%TO.N,unconnected-(J4-SBU2-PadB8)*%
X17350550Y-11892140D03*
%TO.P,J4,B9,VBUS_B9*%
%TO.N,+5V*%
X17265550Y-11892140D03*
%TO.P,J4,B12,GND_B12*%
%TO.N,GND*%
X17180550Y-11892140D03*
D11*
%TO.P,J4,SH,SHIELD_SH*%
X17045550Y-11855140D03*
D12*
X17045550Y-12193140D03*
D11*
X17910550Y-11855140D03*
D12*
X17910550Y-12193140D03*
%TD*%
D13*
%TO.P,U9,2,SW_2*%
%TO.N,unconnected-(U9-SW-Pad2)_4*%
X18479050Y-11246640D03*
%TO.N,unconnected-(U9-SW-Pad2)_3*%
X18429050Y-11246640D03*
%TO.N,unconnected-(U9-SW-Pad2)_5*%
X18379050Y-11246640D03*
%TO.N,unconnected-(U9-SW-Pad2)*%
X18479050Y-11346640D03*
%TO.N,unconnected-(U9-SW-Pad2)_2*%
X18429050Y-11346640D03*
%TO.N,unconnected-(U9-SW-Pad2)_1*%
X18379050Y-11346640D03*
%TO.P,U9,3,VOUT_3*%
%TO.N,+3V3*%
X18479050Y-11476640D03*
X18429050Y-11476640D03*
X18379050Y-11476640D03*
X18479050Y-11576640D03*
X18429050Y-11576640D03*
X18379050Y-11576640D03*
%TD*%
D14*
%TO.P,J1,1,Pin_1_1*%
%TO.N,/Overview/Connectors/DIO1*%
X17664560Y-7574370D03*
%TO.P,J1,2,Pin_2_2*%
%TO.N,/Overview/Connectors/DIO2*%
X17448560Y-7574370D03*
%TO.P,J1,3,Pin_3_3*%
%TO.N,/Overview/Connectors/DIO3*%
X17232560Y-7574370D03*
%TO.P,J1,4,Pin_4_4*%
%TO.N,/Overview/Connectors/DIO4*%
X17016560Y-7574370D03*
%TO.P,J1,5,Pin_5_5*%
%TO.N,/Overview/Connectors/EOI*%
X16800560Y-7574370D03*
%TO.P,J1,6,Pin_6_6*%
%TO.N,/Overview/Connectors/DAV*%
X16584560Y-7574370D03*
%TO.P,J1,7,Pin_7_7*%
%TO.N,/Overview/Connectors/NRFD*%
X16368560Y-7574370D03*
%TO.P,J1,8,Pin_8_8*%
%TO.N,/Overview/Connectors/NDAC*%
X16152560Y-7574370D03*
%TO.P,J1,9,Pin_9_9*%
%TO.N,/Overview/Connectors/IFC*%
X15936560Y-7574370D03*
%TO.P,J1,10,Pin_10_10*%
%TO.N,/Overview/Connectors/SRQ*%
X15720560Y-7574370D03*
%TO.P,J1,11,Pin_11_11*%
%TO.N,/Overview/Connectors/ATN*%
X15504560Y-7574370D03*
%TO.P,J1,12,Pin_12_12*%
%TO.N,GND*%
X15288560Y-7574370D03*
%TO.P,J1,13,Pin_13_13*%
%TO.N,/Overview/Connectors/DIO5*%
X17664560Y-7145370D03*
%TO.P,J1,14,Pin_14_14*%
%TO.N,/Overview/Connectors/DIO6*%
X17448560Y-7145370D03*
%TO.P,J1,15,Pin_15_15*%
%TO.N,/Overview/Connectors/DIO7*%
X17232560Y-7145370D03*
%TO.P,J1,16,Pin_16_16*%
%TO.N,/Overview/Connectors/DIO8*%
X17016560Y-7145370D03*
%TO.P,J1,17,Pin_17_17*%
%TO.N,/Overview/Connectors/REN*%
X16800560Y-7145370D03*
%TO.P,J1,18,Pin_18_18*%
%TO.N,GND*%
X16584560Y-7145370D03*
%TO.P,J1,19,Pin_19_19*%
X16368560Y-7145370D03*
%TO.P,J1,20,Pin_20_20*%
X16152560Y-7145370D03*
%TO.P,J1,21,Pin_21_21*%
X15936560Y-7145370D03*
%TO.P,J1,22,Pin_22_22*%
X15720560Y-7145370D03*
%TO.P,J1,23,Pin_23_23*%
X15504560Y-7145370D03*
%TO.P,J1,24,Pin_24_24*%
X15288560Y-7145370D03*
%TD*%
D15*
%TO.P,J3,1*%
%TO.N,GND*%
X16005050Y-11810640D03*
D16*
%TO.P,J3,2*%
X15903450Y-11632640D03*
%TO.P,J3,3*%
%TO.N,/Overview/Connectors/CTRL_TX_N*%
X15801850Y-11810640D03*
%TO.P,J3,4*%
%TO.N,/Overview/Connectors/CTRL_TX_P*%
X15700250Y-11632640D03*
%TO.P,J3,5*%
%TO.N,/Overview/Connectors/CTRL_RX_N*%
X15598650Y-11810640D03*
%TO.P,J3,6*%
%TO.N,/Overview/Connectors/CTRL_RX_P*%
X15497050Y-11632640D03*
%TO.P,J3,7*%
%TO.N,+5V*%
X15395450Y-11810640D03*
%TO.P,J3,8*%
X15293850Y-11632640D03*
D17*
%TO.P,J3,SH*%
%TO.N,GND*%
X16462050Y-11721640D03*
X14836050Y-11721640D03*
%TD*%
D18*
%TO.N,GND*%
X17829050Y-8826640D03*
X17353050Y-9668640D03*
X14129050Y-10146640D03*
X15919050Y-9346640D03*
X16904050Y-8401640D03*
X18800455Y-11590545D03*
X15666800Y-8498890D03*
X18796360Y-11104640D03*
X16809050Y-8865140D03*
X16549050Y-10076640D03*
%TO.N,+5V*%
X14439050Y-8266640D03*
X17829050Y-8126640D03*
%TO.N,Net-(J2-NRST)*%
X16619050Y-9846640D03*
X14729050Y-9746640D03*
%TO.N,+3V3*%
X15779050Y-9346640D03*
X15409050Y-7986640D03*
X17369050Y-8206640D03*
X16459050Y-9346640D03*
X16609050Y-10136640D03*
X14899050Y-10033440D03*
X14649050Y-10916640D03*
X16099050Y-8166640D03*
X18794050Y-11276640D03*
%TO.N,/Overview/GPIB Transceiver/EOI_SENSE*%
X14709050Y-8436640D03*
X16359050Y-8966640D03*
%TO.N,/Overview/Microcontroller/CTRL_TX*%
X15799050Y-9446640D03*
X13979050Y-9606640D03*
%TO.N,/Overview/Microcontroller/CTRL_RX*%
X15859050Y-9486640D03*
X14069050Y-9666640D03*
%TO.N,/Overview/GPIB Transceiver/iDIO7*%
X15839050Y-9606640D03*
X16919050Y-9146640D03*
%TO.N,/Overview/GPIB Transceiver/iDIO8*%
X15839050Y-9676640D03*
X16919050Y-9216640D03*
%TO.N,/Overview/Microcontroller/iUSB_DM*%
X15909050Y-10076640D03*
X17539050Y-11136640D03*
%TO.N,/Overview/Microcontroller/iUSB_DP*%
X17339050Y-11136640D03*
X15854050Y-10131640D03*
%TO.N,/Overview/Connectors/DAV*%
X15489050Y-7936640D03*
%TO.N,/Overview/Connectors/NRFD*%
X15569050Y-7906640D03*
%TD*%
%TO.N,+5V*%
D19*
X17305553Y-11981640D02*
X17214053Y-12073140D01*
X17214053Y-12073140D02*
X16576070Y-12073140D01*
D20*
X14439050Y-8266640D02*
X17689050Y-8266640D01*
D19*
X15293850Y-11632640D02*
X15293850Y-11709040D01*
D20*
X18399050Y-11048640D02*
X18399050Y-8696640D01*
D19*
X17650548Y-11981640D02*
X17690550Y-11941637D01*
X16576070Y-12073140D02*
X16372070Y-12277140D01*
D20*
X17689050Y-8266640D02*
X17829050Y-8126640D01*
D19*
X15293850Y-11709040D02*
X15395450Y-11810640D01*
X17265550Y-11941637D02*
X17305553Y-11981640D01*
X17690550Y-11941637D02*
X17690550Y-11892140D01*
X15861950Y-12277140D02*
X15395450Y-11810640D01*
X17265550Y-11892140D02*
X17265550Y-11941637D01*
X17305553Y-11981640D02*
X17650548Y-11981640D01*
X16372070Y-12277140D02*
X15861950Y-12277140D01*
D20*
X17690550Y-11757140D02*
X18399050Y-11048640D01*
X18399050Y-8696640D02*
X17829050Y-8126640D01*
%TO.N,/Overview/Connectors/USB_DM*%
X17435550Y-11892140D02*
X17435550Y-11842140D01*
X17435550Y-11842140D02*
X17520550Y-11757140D01*
%TO.N,Net-(J2-NRST)*%
X14829050Y-9846640D02*
X14729050Y-9746640D01*
X16619050Y-9846640D02*
X14829050Y-9846640D01*
%TO.N,/Overview/GPIB Transceiver/EOI_SENSE*%
X16359050Y-8966640D02*
X15829050Y-8436640D01*
X15829050Y-8436640D02*
X14709050Y-8436640D01*
%TO.N,/Overview/Microcontroller/CTRL_TX*%
X15639050Y-9606640D02*
X13979050Y-9606640D01*
X15799050Y-9446640D02*
X15639050Y-9606640D01*
%TO.N,/Overview/Microcontroller/CTRL_RX*%
X14099050Y-9636640D02*
X15709050Y-9636640D01*
X14069050Y-9666640D02*
X14099050Y-9636640D01*
X15709050Y-9636640D02*
X15859050Y-9486640D01*
%TO.N,/Overview/GPIB Transceiver/iDIO7*%
X15839050Y-9606640D02*
X16299050Y-9146640D01*
X16299050Y-9146640D02*
X16919050Y-9146640D01*
%TO.N,/Overview/GPIB Transceiver/iDIO8*%
X16859050Y-9176640D02*
X16899050Y-9216640D01*
X16339050Y-9176640D02*
X16859050Y-9176640D01*
X15839761Y-9676640D02*
X16339050Y-9177351D01*
X15839050Y-9676640D02*
X15839761Y-9676640D01*
X16899050Y-9216640D02*
X16919050Y-9216640D01*
X16339050Y-9177351D02*
X16339050Y-9176640D01*
%TO.N,/Overview/Microcontroller/iUSB_DM*%
X17489050Y-11086640D02*
X17539050Y-11136640D01*
X15909050Y-10076640D02*
X15909050Y-10144213D01*
X15909050Y-10144213D02*
X16851477Y-11086640D01*
X16851477Y-11086640D02*
X17489050Y-11086640D01*
%TO.N,/Overview/Microcontroller/iUSB_DP*%
X15854050Y-10131640D02*
X16859050Y-11136640D01*
X16859050Y-11136640D02*
X17339050Y-11136640D01*
%TO.N,/Overview/Connectors/DAV*%
X15509050Y-7956640D02*
X16202290Y-7956640D01*
X16202290Y-7956640D02*
X16584560Y-7574370D01*
X15489050Y-7936640D02*
X15509050Y-7956640D01*
%TO.N,/Overview/Connectors/NRFD*%
X16036290Y-7906640D02*
X16368560Y-7574370D01*
X15569050Y-7906640D02*
X16036290Y-7906640D01*
%TD*%
M02*
