M48
; DRILL file KiCad 10.0.3 date 2026-06-04T13:01:47
; FORMAT={-:-/ absolute / metric / decimal}
; #@! TF.CreationDate,2026-06-04T13:01:47-04:00
; #@! TF.GenerationSoftware,Kicad,Pcbnew,10.0.3
; #@! TF.FileFunction,Plated,1,4,PTH
FMAT,2
METRIC
; #@! TA.AperFunction,Plated,PTH,ViaDrill
T1C0.300
; #@! TA.AperFunction,Plated,PTH,ComponentDrill
T2C0.400
; #@! TA.AperFunction,Plated,PTH,ComponentDrill
T3C0.600
; #@! TA.AperFunction,Plated,PTH,ComponentDrill
T4C0.890
; #@! TA.AperFunction,Plated,PTH,ComponentDrill
T5C0.991
; #@! TA.AperFunction,Plated,PTH,ComponentDrill
T6C1.570
%
G90
G05
T1
X141.291Y-101.466
X143.881Y-108.136
X144.391Y-82.666
X144.861Y-108.376
X146.491Y-109.166
X147.091Y-84.366
X148.991Y-100.334
X154.091Y-79.866
X154.891Y-79.366
X155.291Y-105.466
X155.691Y-79.066
X156.668Y-84.989
X157.791Y-93.466
X157.991Y-94.466
X158.391Y-96.066
X158.391Y-96.766
X158.541Y-101.316
X158.591Y-94.866
X159.091Y-100.766
X159.191Y-93.466
X160.991Y-81.666
X163.591Y-89.666
X164.591Y-93.466
X165.491Y-100.766
X166.091Y-101.366
X166.191Y-98.466
X168.091Y-88.651
X169.041Y-84.016
X169.191Y-91.466
X169.191Y-92.166
X169.291Y-94.966
X173.391Y-111.366
X173.531Y-96.686
X173.691Y-82.066
X175.391Y-111.366
X178.291Y-81.266
X178.291Y-88.266
X179.091Y-87.066
X189.391Y-113.166
X189.391Y-113.866
T2
X171.806Y-117.571
X171.806Y-118.921
X172.656Y-117.571
X172.656Y-118.921
X173.506Y-117.571
X173.506Y-118.921
X174.356Y-117.571
X174.356Y-118.921
X175.206Y-117.571
X175.206Y-118.921
X176.056Y-117.571
X176.056Y-118.921
X176.906Y-117.571
X176.906Y-118.921
X177.756Y-117.571
X177.756Y-118.921
T4
X152.939Y-116.326
X153.955Y-118.106
X154.971Y-116.326
X155.987Y-118.106
X157.003Y-116.326
X158.019Y-118.106
X159.035Y-116.326
X160.051Y-118.106
T5
X152.886Y-71.454
X152.886Y-75.744
X155.046Y-71.454
X155.046Y-75.744
X157.206Y-71.454
X157.206Y-75.744
X159.366Y-71.454
X159.366Y-75.744
X161.526Y-71.454
X161.526Y-75.744
X163.686Y-71.454
X163.686Y-75.744
X165.846Y-71.454
X165.846Y-75.744
X168.006Y-71.454
X168.006Y-75.744
X170.166Y-71.454
X170.166Y-75.744
X172.326Y-71.454
X172.326Y-75.744
X174.486Y-71.454
X174.486Y-75.744
X176.646Y-71.454
X176.646Y-75.744
T6
X148.361Y-117.216
X164.621Y-117.216
T3
X170.456Y-117.801G85X170.456Y-119.301
G05
X170.456Y-121.531G85X170.456Y-122.331
G05
X179.106Y-117.801G85X179.106Y-119.301
G05
X179.106Y-121.531G85X179.106Y-122.331
G05
M30
