%TF.GenerationSoftware,KiCad,Pcbnew,10.0.0*%
%TF.CreationDate,2026-03-28T09:19:36-05:00*%
%TF.ProjectId,LINC,4c494e43-2e6b-4696-9361-645f70636258,rev?*%
%TF.SameCoordinates,Original*%
%TF.FileFunction,Legend,Bot*%
%TF.FilePolarity,Positive*%
%FSLAX45Y45*%
G04 Gerber Fmt 4.5, Leading zero omitted, Abs format (unit mm)*
G04 Created by KiCad (PCBNEW 10.0.0) date 2026-03-28 09:19:36*
%MOMM*%
%LPD*%
G01*
G04 APERTURE LIST*
%ADD10C,0.100000*%
%ADD11C,0.508000*%
G04 APERTURE END LIST*
D10*
G36*
X15339218Y-7932570D02*
G01*
X15338572Y-7923263D01*
X15336730Y-7915167D01*
X15333784Y-7908091D01*
X15330255Y-7902655D01*
X15325865Y-7898156D01*
X15320531Y-7894509D01*
X15314107Y-7891697D01*
X15306392Y-7889773D01*
X15306392Y-7903243D01*
X15311655Y-7904891D01*
X15315942Y-7907147D01*
X15319408Y-7909983D01*
X15322158Y-7913428D01*
X15324819Y-7918790D01*
X15326503Y-7925206D01*
X15327104Y-7932912D01*
X15326442Y-7939664D01*
X15324508Y-7945737D01*
X15321296Y-7951281D01*
X15316687Y-7956396D01*
X15312450Y-7959619D01*
X15307382Y-7962230D01*
X15301345Y-7964205D01*
X15294168Y-7965474D01*
X15285656Y-7965928D01*
X15276693Y-7965379D01*
X15268986Y-7963827D01*
X15262348Y-7961374D01*
X15256621Y-7958069D01*
X15252724Y-7954672D01*
X15249663Y-7950547D01*
X15247393Y-7945584D01*
X15245946Y-7939616D01*
X15245429Y-7932430D01*
X15245953Y-7925709D01*
X15247459Y-7919801D01*
X15249895Y-7914569D01*
X15253275Y-7909905D01*
X15257467Y-7906214D01*
X15262887Y-7903407D01*
X15269821Y-7901538D01*
X15278646Y-7900782D01*
X15278646Y-7932228D01*
X15289979Y-7932228D01*
X15289979Y-7888137D01*
X15236050Y-7888137D01*
X15236050Y-7896887D01*
X15249300Y-7900166D01*
X15242336Y-7907105D01*
X15238505Y-7912402D01*
X15235730Y-7918585D01*
X15233953Y-7926079D01*
X15233314Y-7935166D01*
X15234059Y-7943893D01*
X15236232Y-7951821D01*
X15239816Y-7959105D01*
X15244892Y-7965861D01*
X15250900Y-7970748D01*
X15257750Y-7974608D01*
X15265566Y-7977455D01*
X15274506Y-7979245D01*
X15284758Y-7979874D01*
X15294983Y-7979263D01*
X15303955Y-7977520D01*
X15311851Y-7974742D01*
X15318818Y-7970973D01*
X15324973Y-7966203D01*
X15330100Y-7960702D01*
X15334040Y-7954680D01*
X15336874Y-7948061D01*
X15338616Y-7940737D01*
X15339218Y-7932570D01*
G37*
G36*
X15336483Y-7867144D02*
G01*
X15336483Y-7851079D01*
X15255125Y-7800356D01*
X15336483Y-7800356D01*
X15336483Y-7787435D01*
X15236050Y-7787435D01*
X15236050Y-7802676D01*
X15317871Y-7854150D01*
X15236050Y-7854150D01*
X15236050Y-7867144D01*
X15336483Y-7867144D01*
G37*
G36*
X15298147Y-7683220D02*
G01*
X15307124Y-7685209D01*
X15314946Y-7688381D01*
X15321785Y-7692706D01*
X15327051Y-7697616D01*
X15331101Y-7703173D01*
X15334030Y-7709464D01*
X15335848Y-7716626D01*
X15336483Y-7724836D01*
X15336483Y-7765508D01*
X15236050Y-7765508D01*
X15236050Y-7727565D01*
X15248164Y-7727565D01*
X15248164Y-7751837D01*
X15324368Y-7751837D01*
X15324368Y-7727706D01*
X15323896Y-7721038D01*
X15322576Y-7715486D01*
X15320504Y-7710858D01*
X15317712Y-7707001D01*
X15314165Y-7703813D01*
X15308965Y-7700758D01*
X15302615Y-7698438D01*
X15294889Y-7696936D01*
X15285521Y-7696394D01*
X15280642Y-7696639D01*
X15275117Y-7697420D01*
X15268965Y-7698939D01*
X15263884Y-7700894D01*
X15259717Y-7703233D01*
X15255191Y-7706992D01*
X15251853Y-7711295D01*
X15249581Y-7716220D01*
X15248556Y-7720986D01*
X15248164Y-7727565D01*
X15236050Y-7727565D01*
X15236050Y-7724970D01*
X15236733Y-7716488D01*
X15238678Y-7709192D01*
X15241801Y-7702874D01*
X15246119Y-7697375D01*
X15251746Y-7692603D01*
X15258887Y-7688535D01*
X15267682Y-7685240D01*
X15277275Y-7683217D01*
X15287805Y-7682521D01*
X15298147Y-7683220D01*
G37*
G36*
X15349218Y-6972570D02*
G01*
X15348572Y-6963263D01*
X15346730Y-6955167D01*
X15343784Y-6948091D01*
X15340255Y-6942655D01*
X15335865Y-6938156D01*
X15330531Y-6934509D01*
X15324107Y-6931697D01*
X15316392Y-6929773D01*
X15316392Y-6943243D01*
X15321655Y-6944891D01*
X15325942Y-6947147D01*
X15329408Y-6949983D01*
X15332158Y-6953428D01*
X15334819Y-6958790D01*
X15336503Y-6965206D01*
X15337104Y-6972912D01*
X15336442Y-6979664D01*
X15334508Y-6985737D01*
X15331296Y-6991281D01*
X15326687Y-6996396D01*
X15322450Y-6999619D01*
X15317382Y-7002230D01*
X15311345Y-7004205D01*
X15304168Y-7005474D01*
X15295656Y-7005928D01*
X15286693Y-7005379D01*
X15278986Y-7003827D01*
X15272348Y-7001374D01*
X15266621Y-6998069D01*
X15262724Y-6994672D01*
X15259663Y-6990547D01*
X15257393Y-6985584D01*
X15255946Y-6979616D01*
X15255429Y-6972430D01*
X15255953Y-6965709D01*
X15257459Y-6959801D01*
X15259895Y-6954569D01*
X15263275Y-6949905D01*
X15267467Y-6946214D01*
X15272887Y-6943407D01*
X15279821Y-6941538D01*
X15288646Y-6940782D01*
X15288646Y-6972228D01*
X15299979Y-6972228D01*
X15299979Y-6928137D01*
X15246050Y-6928137D01*
X15246050Y-6936887D01*
X15259300Y-6940166D01*
X15252336Y-6947105D01*
X15248505Y-6952402D01*
X15245730Y-6958585D01*
X15243953Y-6966079D01*
X15243314Y-6975166D01*
X15244059Y-6983893D01*
X15246232Y-6991821D01*
X15249816Y-6999105D01*
X15254892Y-7005861D01*
X15260900Y-7010748D01*
X15267750Y-7014608D01*
X15275566Y-7017455D01*
X15284506Y-7019245D01*
X15294758Y-7019874D01*
X15304983Y-7019263D01*
X15313955Y-7017520D01*
X15321851Y-7014742D01*
X15328818Y-7010973D01*
X15334973Y-7006203D01*
X15340100Y-7000702D01*
X15344040Y-6994680D01*
X15346874Y-6988061D01*
X15348616Y-6980737D01*
X15349218Y-6972570D01*
G37*
G36*
X15346483Y-6907144D02*
G01*
X15346483Y-6891079D01*
X15265125Y-6840356D01*
X15346483Y-6840356D01*
X15346483Y-6827435D01*
X15246050Y-6827435D01*
X15246050Y-6842676D01*
X15327871Y-6894150D01*
X15246050Y-6894150D01*
X15246050Y-6907144D01*
X15346483Y-6907144D01*
G37*
G36*
X15308147Y-6723220D02*
G01*
X15317124Y-6725209D01*
X15324946Y-6728381D01*
X15331785Y-6732706D01*
X15337051Y-6737616D01*
X15341101Y-6743173D01*
X15344030Y-6749464D01*
X15345848Y-6756626D01*
X15346483Y-6764836D01*
X15346483Y-6805508D01*
X15246050Y-6805508D01*
X15246050Y-6767565D01*
X15258164Y-6767565D01*
X15258164Y-6791837D01*
X15334368Y-6791837D01*
X15334368Y-6767706D01*
X15333896Y-6761038D01*
X15332576Y-6755486D01*
X15330504Y-6750858D01*
X15327712Y-6747001D01*
X15324165Y-6743813D01*
X15318965Y-6740758D01*
X15312615Y-6738438D01*
X15304889Y-6736936D01*
X15295521Y-6736394D01*
X15290642Y-6736639D01*
X15285117Y-6737420D01*
X15278965Y-6738939D01*
X15273884Y-6740894D01*
X15269717Y-6743233D01*
X15265191Y-6746992D01*
X15261853Y-6751295D01*
X15259581Y-6756220D01*
X15258556Y-6760986D01*
X15258164Y-6767565D01*
X15246050Y-6767565D01*
X15246050Y-6764970D01*
X15246733Y-6756488D01*
X15248678Y-6749192D01*
X15251801Y-6742874D01*
X15256119Y-6737375D01*
X15261746Y-6732603D01*
X15268887Y-6728535D01*
X15277682Y-6725240D01*
X15287275Y-6723217D01*
X15297805Y-6722521D01*
X15308147Y-6723220D01*
G37*
G36*
X15559218Y-6972570D02*
G01*
X15558572Y-6963263D01*
X15556730Y-6955167D01*
X15553784Y-6948091D01*
X15550255Y-6942655D01*
X15545865Y-6938156D01*
X15540531Y-6934509D01*
X15534107Y-6931697D01*
X15526392Y-6929773D01*
X15526392Y-6943243D01*
X15531655Y-6944891D01*
X15535942Y-6947147D01*
X15539408Y-6949983D01*
X15542158Y-6953428D01*
X15544819Y-6958790D01*
X15546503Y-6965206D01*
X15547104Y-6972912D01*
X15546442Y-6979664D01*
X15544508Y-6985737D01*
X15541296Y-6991281D01*
X15536687Y-6996396D01*
X15532450Y-6999619D01*
X15527382Y-7002230D01*
X15521345Y-7004205D01*
X15514168Y-7005474D01*
X15505656Y-7005928D01*
X15496693Y-7005379D01*
X15488986Y-7003827D01*
X15482348Y-7001374D01*
X15476621Y-6998069D01*
X15472724Y-6994672D01*
X15469663Y-6990547D01*
X15467393Y-6985584D01*
X15465946Y-6979616D01*
X15465429Y-6972430D01*
X15465953Y-6965709D01*
X15467459Y-6959801D01*
X15469895Y-6954569D01*
X15473275Y-6949905D01*
X15477467Y-6946214D01*
X15482887Y-6943407D01*
X15489821Y-6941538D01*
X15498646Y-6940782D01*
X15498646Y-6972228D01*
X15509979Y-6972228D01*
X15509979Y-6928137D01*
X15456050Y-6928137D01*
X15456050Y-6936887D01*
X15469300Y-6940166D01*
X15462336Y-6947105D01*
X15458505Y-6952402D01*
X15455730Y-6958585D01*
X15453953Y-6966079D01*
X15453314Y-6975166D01*
X15454059Y-6983893D01*
X15456232Y-6991821D01*
X15459816Y-6999105D01*
X15464892Y-7005861D01*
X15470900Y-7010748D01*
X15477750Y-7014608D01*
X15485566Y-7017455D01*
X15494506Y-7019245D01*
X15504758Y-7019874D01*
X15514983Y-7019263D01*
X15523955Y-7017520D01*
X15531851Y-7014742D01*
X15538818Y-7010973D01*
X15544973Y-7006203D01*
X15550100Y-7000702D01*
X15554040Y-6994680D01*
X15556874Y-6988061D01*
X15558616Y-6980737D01*
X15559218Y-6972570D01*
G37*
G36*
X15556483Y-6907144D02*
G01*
X15556483Y-6891079D01*
X15475125Y-6840356D01*
X15556483Y-6840356D01*
X15556483Y-6827435D01*
X15456050Y-6827435D01*
X15456050Y-6842676D01*
X15537871Y-6894150D01*
X15456050Y-6894150D01*
X15456050Y-6907144D01*
X15556483Y-6907144D01*
G37*
G36*
X15518147Y-6723220D02*
G01*
X15527124Y-6725209D01*
X15534946Y-6728381D01*
X15541785Y-6732706D01*
X15547051Y-6737616D01*
X15551101Y-6743173D01*
X15554030Y-6749464D01*
X15555848Y-6756626D01*
X15556483Y-6764836D01*
X15556483Y-6805508D01*
X15456050Y-6805508D01*
X15456050Y-6767565D01*
X15468164Y-6767565D01*
X15468164Y-6791837D01*
X15544368Y-6791837D01*
X15544368Y-6767706D01*
X15543896Y-6761038D01*
X15542576Y-6755486D01*
X15540504Y-6750858D01*
X15537712Y-6747001D01*
X15534165Y-6743813D01*
X15528965Y-6740758D01*
X15522615Y-6738438D01*
X15514889Y-6736936D01*
X15505521Y-6736394D01*
X15500642Y-6736639D01*
X15495117Y-6737420D01*
X15488965Y-6738939D01*
X15483884Y-6740894D01*
X15479717Y-6743233D01*
X15475191Y-6746992D01*
X15471853Y-6751295D01*
X15469581Y-6756220D01*
X15468556Y-6760986D01*
X15468164Y-6767565D01*
X15456050Y-6767565D01*
X15456050Y-6764970D01*
X15456733Y-6756488D01*
X15458678Y-6749192D01*
X15461801Y-6742874D01*
X15466119Y-6737375D01*
X15471746Y-6732603D01*
X15478887Y-6728535D01*
X15487682Y-6725240D01*
X15497275Y-6723217D01*
X15507805Y-6722521D01*
X15518147Y-6723220D01*
G37*
G36*
X15556483Y-7891404D02*
G01*
X15556483Y-7906785D01*
X15456050Y-7944588D01*
X15456050Y-7930642D01*
X15486141Y-7919773D01*
X15486141Y-7915877D01*
X15497083Y-7915877D01*
X15541443Y-7899678D01*
X15497083Y-7884431D01*
X15497083Y-7915877D01*
X15486141Y-7915877D01*
X15486141Y-7880059D01*
X15456050Y-7869874D01*
X15456050Y-7854969D01*
X15556483Y-7891404D01*
G37*
G36*
X15556483Y-7774681D02*
G01*
X15544368Y-7774681D01*
X15544368Y-7808514D01*
X15456050Y-7808514D01*
X15456050Y-7822326D01*
X15544368Y-7822326D01*
X15544368Y-7856166D01*
X15556483Y-7856166D01*
X15556483Y-7774681D01*
G37*
G36*
X15556483Y-7767451D02*
G01*
X15556483Y-7751386D01*
X15475125Y-7700663D01*
X15556483Y-7700663D01*
X15556483Y-7687742D01*
X15456050Y-7687742D01*
X15456050Y-7702983D01*
X15537871Y-7754457D01*
X15456050Y-7754457D01*
X15456050Y-7767451D01*
X15556483Y-7767451D01*
G37*
G36*
X15769218Y-6972570D02*
G01*
X15768572Y-6963263D01*
X15766730Y-6955167D01*
X15763784Y-6948091D01*
X15760255Y-6942655D01*
X15755865Y-6938156D01*
X15750531Y-6934509D01*
X15744107Y-6931697D01*
X15736392Y-6929773D01*
X15736392Y-6943243D01*
X15741655Y-6944891D01*
X15745942Y-6947147D01*
X15749408Y-6949983D01*
X15752158Y-6953428D01*
X15754819Y-6958790D01*
X15756503Y-6965206D01*
X15757104Y-6972912D01*
X15756442Y-6979664D01*
X15754508Y-6985737D01*
X15751296Y-6991281D01*
X15746687Y-6996396D01*
X15742450Y-6999619D01*
X15737382Y-7002230D01*
X15731345Y-7004205D01*
X15724168Y-7005474D01*
X15715656Y-7005928D01*
X15706693Y-7005379D01*
X15698986Y-7003827D01*
X15692348Y-7001374D01*
X15686621Y-6998069D01*
X15682724Y-6994672D01*
X15679663Y-6990547D01*
X15677393Y-6985584D01*
X15675946Y-6979616D01*
X15675429Y-6972430D01*
X15675953Y-6965709D01*
X15677459Y-6959801D01*
X15679895Y-6954569D01*
X15683275Y-6949905D01*
X15687467Y-6946214D01*
X15692887Y-6943407D01*
X15699821Y-6941538D01*
X15708646Y-6940782D01*
X15708646Y-6972228D01*
X15719979Y-6972228D01*
X15719979Y-6928137D01*
X15666050Y-6928137D01*
X15666050Y-6936887D01*
X15679300Y-6940166D01*
X15672336Y-6947105D01*
X15668505Y-6952402D01*
X15665730Y-6958585D01*
X15663953Y-6966079D01*
X15663314Y-6975166D01*
X15664059Y-6983893D01*
X15666232Y-6991821D01*
X15669816Y-6999105D01*
X15674892Y-7005861D01*
X15680900Y-7010748D01*
X15687750Y-7014608D01*
X15695566Y-7017455D01*
X15704506Y-7019245D01*
X15714758Y-7019874D01*
X15724983Y-7019263D01*
X15733955Y-7017520D01*
X15741851Y-7014742D01*
X15748818Y-7010973D01*
X15754973Y-7006203D01*
X15760100Y-7000702D01*
X15764040Y-6994680D01*
X15766874Y-6988061D01*
X15768616Y-6980737D01*
X15769218Y-6972570D01*
G37*
G36*
X15766483Y-6907144D02*
G01*
X15766483Y-6891079D01*
X15685125Y-6840356D01*
X15766483Y-6840356D01*
X15766483Y-6827435D01*
X15666050Y-6827435D01*
X15666050Y-6842676D01*
X15747871Y-6894150D01*
X15666050Y-6894150D01*
X15666050Y-6907144D01*
X15766483Y-6907144D01*
G37*
G36*
X15728147Y-6723220D02*
G01*
X15737124Y-6725209D01*
X15744946Y-6728381D01*
X15751785Y-6732706D01*
X15757051Y-6737616D01*
X15761101Y-6743173D01*
X15764030Y-6749464D01*
X15765848Y-6756626D01*
X15766483Y-6764836D01*
X15766483Y-6805508D01*
X15666050Y-6805508D01*
X15666050Y-6767565D01*
X15678164Y-6767565D01*
X15678164Y-6791837D01*
X15754368Y-6791837D01*
X15754368Y-6767706D01*
X15753896Y-6761038D01*
X15752576Y-6755486D01*
X15750504Y-6750858D01*
X15747712Y-6747001D01*
X15744165Y-6743813D01*
X15738965Y-6740758D01*
X15732615Y-6738438D01*
X15724889Y-6736936D01*
X15715521Y-6736394D01*
X15710642Y-6736639D01*
X15705117Y-6737420D01*
X15698965Y-6738939D01*
X15693884Y-6740894D01*
X15689717Y-6743233D01*
X15685191Y-6746992D01*
X15681853Y-6751295D01*
X15679581Y-6756220D01*
X15678556Y-6760986D01*
X15678164Y-6767565D01*
X15666050Y-6767565D01*
X15666050Y-6764970D01*
X15666733Y-6756488D01*
X15668678Y-6749192D01*
X15671801Y-6742874D01*
X15676119Y-6737375D01*
X15681746Y-6732603D01*
X15688887Y-6728535D01*
X15697682Y-6725240D01*
X15707275Y-6723217D01*
X15717805Y-6722521D01*
X15728147Y-6723220D01*
G37*
G36*
X15708485Y-7967088D02*
G01*
X15702892Y-7966375D01*
X15698331Y-7965003D01*
X15694619Y-7963052D01*
X15691207Y-7960127D01*
X15688492Y-7956439D01*
X15686448Y-7951856D01*
X15685126Y-7946188D01*
X15684647Y-7939196D01*
X15685211Y-7931765D01*
X15686827Y-7925255D01*
X15688939Y-7920599D01*
X15691475Y-7917249D01*
X15694423Y-7914953D01*
X15697858Y-7913568D01*
X15701928Y-7913086D01*
X15707112Y-7913725D01*
X15710868Y-7915457D01*
X15713566Y-7918209D01*
X15716437Y-7924231D01*
X15719342Y-7934482D01*
X15722334Y-7948086D01*
X15724632Y-7956999D01*
X15726844Y-7963056D01*
X15728922Y-7966954D01*
X15732482Y-7971126D01*
X15736735Y-7974067D01*
X15741813Y-7975881D01*
X15747943Y-7976522D01*
X15754630Y-7975909D01*
X15760511Y-7974141D01*
X15765741Y-7971246D01*
X15770432Y-7967155D01*
X15774118Y-7962252D01*
X15776852Y-7956341D01*
X15778594Y-7949220D01*
X15779218Y-7940630D01*
X15778705Y-7932767D01*
X15777229Y-7925753D01*
X15774850Y-7919465D01*
X15771579Y-7913800D01*
X15768267Y-7909926D01*
X15764292Y-7906903D01*
X15759558Y-7904675D01*
X15753916Y-7903263D01*
X15747174Y-7902761D01*
X15747174Y-7915547D01*
X15752377Y-7916576D01*
X15756359Y-7918060D01*
X15759361Y-7919919D01*
X15762548Y-7923288D01*
X15764949Y-7927737D01*
X15766524Y-7933537D01*
X15767104Y-7941046D01*
X15766715Y-7947200D01*
X15765666Y-7951956D01*
X15764090Y-7955594D01*
X15762054Y-7958338D01*
X15758431Y-7961311D01*
X15754563Y-7963027D01*
X15750324Y-7963601D01*
X15746800Y-7963195D01*
X15743914Y-7962043D01*
X15741521Y-7960161D01*
X15739547Y-7957447D01*
X15737474Y-7952107D01*
X15734094Y-7939196D01*
X15730889Y-7925115D01*
X15729009Y-7918405D01*
X15726877Y-7913259D01*
X15724557Y-7909392D01*
X15720698Y-7905239D01*
X15716129Y-7902292D01*
X15710707Y-7900467D01*
X15704211Y-7899824D01*
X15697607Y-7900367D01*
X15692107Y-7901894D01*
X15687504Y-7904317D01*
X15683650Y-7907639D01*
X15680459Y-7911956D01*
X15677387Y-7918136D01*
X15675160Y-7924841D01*
X15673787Y-7932149D01*
X15673314Y-7940154D01*
X15673986Y-7949527D01*
X15675869Y-7957373D01*
X15678833Y-7963956D01*
X15682840Y-7969482D01*
X15687909Y-7974048D01*
X15693756Y-7977286D01*
X15700540Y-7979253D01*
X15708485Y-7979874D01*
X15708485Y-7967088D01*
G37*
G36*
X15679575Y-7799429D02*
G01*
X15681512Y-7800889D01*
X15684446Y-7802010D01*
X15687571Y-7802583D01*
X15692854Y-7802969D01*
X15706367Y-7803445D01*
X15712185Y-7804057D01*
X15716264Y-7805214D01*
X15719037Y-7806761D01*
X15722451Y-7810316D01*
X15725320Y-7815615D01*
X15727952Y-7811409D01*
X15731026Y-7807962D01*
X15734564Y-7805192D01*
X15738564Y-7803193D01*
X15743429Y-7801918D01*
X15749359Y-7801461D01*
X15756169Y-7802087D01*
X15761743Y-7803842D01*
X15766330Y-7806633D01*
X15770101Y-7810502D01*
X15773124Y-7815615D01*
X15774903Y-7820694D01*
X15776063Y-7826930D01*
X15776483Y-7834550D01*
X15776483Y-7881035D01*
X15676050Y-7881035D01*
X15676050Y-7867431D01*
X15719037Y-7867431D01*
X15719037Y-7836467D01*
X15719003Y-7835985D01*
X15730370Y-7835985D01*
X15730370Y-7867431D01*
X15764368Y-7867431D01*
X15764368Y-7834208D01*
X15763804Y-7827638D01*
X15762335Y-7823064D01*
X15760041Y-7819718D01*
X15756986Y-7817332D01*
X15753014Y-7815822D01*
X15747845Y-7815273D01*
X15742892Y-7815690D01*
X15739123Y-7816817D01*
X15736274Y-7818540D01*
X15734161Y-7820848D01*
X15732153Y-7824742D01*
X15730847Y-7829699D01*
X15730370Y-7835985D01*
X15719003Y-7835985D01*
X15718491Y-7828710D01*
X15717193Y-7824230D01*
X15715201Y-7821298D01*
X15712465Y-7819115D01*
X15708827Y-7817627D01*
X15704028Y-7816915D01*
X15687310Y-7816091D01*
X15679390Y-7815413D01*
X15676050Y-7814314D01*
X15676050Y-7797638D01*
X15678395Y-7797638D01*
X15679575Y-7799429D01*
G37*
G36*
X15738485Y-7689648D02*
G01*
X15747480Y-7691600D01*
X15755316Y-7694709D01*
X15762164Y-7698940D01*
X15767242Y-7703445D01*
X15771401Y-7708638D01*
X15774697Y-7714595D01*
X15777138Y-7721428D01*
X15778677Y-7729279D01*
X15779218Y-7738318D01*
X15778653Y-7746816D01*
X15777032Y-7754304D01*
X15774432Y-7760932D01*
X15770871Y-7766825D01*
X15766310Y-7772074D01*
X15760656Y-7776731D01*
X15753222Y-7781079D01*
X15745033Y-7784229D01*
X15735963Y-7786175D01*
X15725857Y-7786849D01*
X15716845Y-7786340D01*
X15708718Y-7784873D01*
X15701364Y-7782509D01*
X15694684Y-7779275D01*
X15688598Y-7775162D01*
X15683170Y-7769545D01*
X15678957Y-7763196D01*
X15675891Y-7756014D01*
X15673982Y-7747850D01*
X15673314Y-7738519D01*
X15673419Y-7736883D01*
X15685429Y-7736883D01*
X15685913Y-7743995D01*
X15687281Y-7750080D01*
X15689451Y-7755301D01*
X15692393Y-7759792D01*
X15696139Y-7763646D01*
X15701704Y-7767498D01*
X15708231Y-7770337D01*
X15715899Y-7772132D01*
X15724935Y-7772768D01*
X15733863Y-7772307D01*
X15741301Y-7771025D01*
X15747473Y-7769045D01*
X15752574Y-7766448D01*
X15756766Y-7763267D01*
X15761220Y-7758193D01*
X15764419Y-7752322D01*
X15766406Y-7745498D01*
X15767104Y-7737500D01*
X15766380Y-7729636D01*
X15764319Y-7722932D01*
X15760986Y-7717162D01*
X15756314Y-7712172D01*
X15750703Y-7708238D01*
X15744205Y-7705357D01*
X15736656Y-7703547D01*
X15727848Y-7702909D01*
X15719732Y-7703448D01*
X15710989Y-7705132D01*
X15705332Y-7707047D01*
X15700048Y-7709843D01*
X15695083Y-7713570D01*
X15705286Y-7726692D01*
X15696878Y-7733531D01*
X15688299Y-7722528D01*
X15686893Y-7725444D01*
X15686009Y-7728957D01*
X15685429Y-7736883D01*
X15673419Y-7736883D01*
X15673795Y-7730980D01*
X15675177Y-7724268D01*
X15677360Y-7717928D01*
X15680129Y-7712135D01*
X15668167Y-7696620D01*
X15676520Y-7689781D01*
X15687261Y-7703587D01*
X15693401Y-7698504D01*
X15700748Y-7694421D01*
X15709499Y-7691356D01*
X15718574Y-7689568D01*
X15728123Y-7688963D01*
X15738485Y-7689648D01*
G37*
G36*
X15989218Y-6972570D02*
G01*
X15988572Y-6963263D01*
X15986730Y-6955167D01*
X15983784Y-6948091D01*
X15980255Y-6942655D01*
X15975865Y-6938156D01*
X15970531Y-6934509D01*
X15964107Y-6931697D01*
X15956392Y-6929773D01*
X15956392Y-6943243D01*
X15961655Y-6944891D01*
X15965942Y-6947147D01*
X15969408Y-6949983D01*
X15972158Y-6953428D01*
X15974819Y-6958790D01*
X15976503Y-6965206D01*
X15977104Y-6972912D01*
X15976442Y-6979664D01*
X15974508Y-6985737D01*
X15971296Y-6991281D01*
X15966687Y-6996396D01*
X15962450Y-6999619D01*
X15957382Y-7002230D01*
X15951345Y-7004205D01*
X15944168Y-7005474D01*
X15935656Y-7005928D01*
X15926693Y-7005379D01*
X15918986Y-7003827D01*
X15912348Y-7001374D01*
X15906621Y-6998069D01*
X15902724Y-6994672D01*
X15899663Y-6990547D01*
X15897393Y-6985584D01*
X15895946Y-6979616D01*
X15895429Y-6972430D01*
X15895953Y-6965709D01*
X15897459Y-6959801D01*
X15899895Y-6954569D01*
X15903275Y-6949905D01*
X15907467Y-6946214D01*
X15912887Y-6943407D01*
X15919821Y-6941538D01*
X15928646Y-6940782D01*
X15928646Y-6972228D01*
X15939979Y-6972228D01*
X15939979Y-6928137D01*
X15886050Y-6928137D01*
X15886050Y-6936887D01*
X15899300Y-6940166D01*
X15892336Y-6947105D01*
X15888505Y-6952402D01*
X15885730Y-6958585D01*
X15883953Y-6966079D01*
X15883314Y-6975166D01*
X15884059Y-6983893D01*
X15886232Y-6991821D01*
X15889816Y-6999105D01*
X15894892Y-7005861D01*
X15900900Y-7010748D01*
X15907750Y-7014608D01*
X15915566Y-7017455D01*
X15924506Y-7019245D01*
X15934758Y-7019874D01*
X15944983Y-7019263D01*
X15953955Y-7017520D01*
X15961851Y-7014742D01*
X15968818Y-7010973D01*
X15974973Y-7006203D01*
X15980100Y-7000702D01*
X15984040Y-6994680D01*
X15986874Y-6988061D01*
X15988616Y-6980737D01*
X15989218Y-6972570D01*
G37*
G36*
X15986483Y-6907144D02*
G01*
X15986483Y-6891079D01*
X15905125Y-6840356D01*
X15986483Y-6840356D01*
X15986483Y-6827435D01*
X15886050Y-6827435D01*
X15886050Y-6842676D01*
X15967871Y-6894150D01*
X15886050Y-6894150D01*
X15886050Y-6907144D01*
X15986483Y-6907144D01*
G37*
G36*
X15948147Y-6723220D02*
G01*
X15957124Y-6725209D01*
X15964946Y-6728381D01*
X15971785Y-6732706D01*
X15977051Y-6737616D01*
X15981101Y-6743173D01*
X15984030Y-6749464D01*
X15985848Y-6756626D01*
X15986483Y-6764836D01*
X15986483Y-6805508D01*
X15886050Y-6805508D01*
X15886050Y-6767565D01*
X15898164Y-6767565D01*
X15898164Y-6791837D01*
X15974368Y-6791837D01*
X15974368Y-6767706D01*
X15973896Y-6761038D01*
X15972576Y-6755486D01*
X15970504Y-6750858D01*
X15967712Y-6747001D01*
X15964165Y-6743813D01*
X15958965Y-6740758D01*
X15952615Y-6738438D01*
X15944889Y-6736936D01*
X15935521Y-6736394D01*
X15930642Y-6736639D01*
X15925117Y-6737420D01*
X15918965Y-6738939D01*
X15913884Y-6740894D01*
X15909717Y-6743233D01*
X15905191Y-6746992D01*
X15901853Y-6751295D01*
X15899581Y-6756220D01*
X15898556Y-6760986D01*
X15898164Y-6767565D01*
X15886050Y-6767565D01*
X15886050Y-6764970D01*
X15886733Y-6756488D01*
X15888678Y-6749192D01*
X15891801Y-6742874D01*
X15896119Y-6737375D01*
X15901746Y-6732603D01*
X15908887Y-6728535D01*
X15917682Y-6725240D01*
X15927275Y-6723217D01*
X15937805Y-6722521D01*
X15948147Y-6723220D01*
G37*
G36*
X15996483Y-7902901D02*
G01*
X15996483Y-7889156D01*
X15896050Y-7889156D01*
X15896050Y-7902901D01*
X15996483Y-7902901D01*
G37*
G36*
X15996483Y-7865794D02*
G01*
X15996483Y-7796136D01*
X15984368Y-7796136D01*
X15984368Y-7852190D01*
X15953496Y-7852190D01*
X15953496Y-7802902D01*
X15941381Y-7802902D01*
X15941381Y-7852190D01*
X15896050Y-7852190D01*
X15896050Y-7865794D01*
X15996483Y-7865794D01*
G37*
G36*
X15999218Y-7739295D02*
G01*
X15998511Y-7729766D01*
X15996529Y-7721834D01*
X15993410Y-7715216D01*
X15989186Y-7709693D01*
X15983826Y-7704883D01*
X15978287Y-7701414D01*
X15972505Y-7699143D01*
X15966392Y-7698006D01*
X15966392Y-7711268D01*
X15972444Y-7713326D01*
X15977432Y-7716318D01*
X15981523Y-7720256D01*
X15983845Y-7723736D01*
X15985585Y-7727944D01*
X15986703Y-7733027D01*
X15987104Y-7739161D01*
X15986421Y-7746388D01*
X15984458Y-7752676D01*
X15981250Y-7758211D01*
X15976711Y-7763121D01*
X15971338Y-7766840D01*
X15964478Y-7769688D01*
X15955793Y-7771559D01*
X15944868Y-7772243D01*
X15936063Y-7771671D01*
X15928498Y-7770050D01*
X15921983Y-7767482D01*
X15916359Y-7764006D01*
X15912493Y-7760465D01*
X15909491Y-7756340D01*
X15907295Y-7751548D01*
X15905916Y-7745964D01*
X15905429Y-7739429D01*
X15905922Y-7733505D01*
X15907330Y-7728376D01*
X15909602Y-7723901D01*
X15912762Y-7719973D01*
X15916902Y-7716532D01*
X15921094Y-7714110D01*
X15926325Y-7712017D01*
X15932784Y-7710309D01*
X15932784Y-7697047D01*
X15925020Y-7698491D01*
X15918079Y-7700939D01*
X15911843Y-7704367D01*
X15906223Y-7708807D01*
X15901641Y-7713840D01*
X15898079Y-7719480D01*
X15895488Y-7725814D01*
X15893877Y-7732962D01*
X15893314Y-7741072D01*
X15894013Y-7749678D01*
X15896031Y-7757340D01*
X15899322Y-7764226D01*
X15903927Y-7770460D01*
X15908722Y-7775001D01*
X15914320Y-7778792D01*
X15920825Y-7781848D01*
X15928371Y-7784141D01*
X15937121Y-7785600D01*
X15947262Y-7786116D01*
X15956231Y-7785600D01*
X15964248Y-7784117D01*
X15971438Y-7781736D01*
X15977908Y-7778487D01*
X15983745Y-7774362D01*
X15989281Y-7768930D01*
X15993548Y-7762823D01*
X15996636Y-7755948D01*
X15998550Y-7748165D01*
X15999218Y-7739295D01*
G37*
G36*
X16199218Y-6972570D02*
G01*
X16198572Y-6963263D01*
X16196730Y-6955167D01*
X16193784Y-6948091D01*
X16190255Y-6942655D01*
X16185865Y-6938156D01*
X16180531Y-6934509D01*
X16174107Y-6931697D01*
X16166392Y-6929773D01*
X16166392Y-6943243D01*
X16171655Y-6944891D01*
X16175942Y-6947147D01*
X16179408Y-6949983D01*
X16182158Y-6953428D01*
X16184819Y-6958790D01*
X16186503Y-6965206D01*
X16187104Y-6972912D01*
X16186442Y-6979664D01*
X16184508Y-6985737D01*
X16181296Y-6991281D01*
X16176687Y-6996396D01*
X16172450Y-6999619D01*
X16167382Y-7002230D01*
X16161345Y-7004205D01*
X16154168Y-7005474D01*
X16145656Y-7005928D01*
X16136693Y-7005379D01*
X16128986Y-7003827D01*
X16122348Y-7001374D01*
X16116621Y-6998069D01*
X16112724Y-6994672D01*
X16109663Y-6990547D01*
X16107393Y-6985584D01*
X16105946Y-6979616D01*
X16105429Y-6972430D01*
X16105953Y-6965709D01*
X16107459Y-6959801D01*
X16109895Y-6954569D01*
X16113275Y-6949905D01*
X16117467Y-6946214D01*
X16122887Y-6943407D01*
X16129821Y-6941538D01*
X16138646Y-6940782D01*
X16138646Y-6972228D01*
X16149979Y-6972228D01*
X16149979Y-6928137D01*
X16096050Y-6928137D01*
X16096050Y-6936887D01*
X16109300Y-6940166D01*
X16102336Y-6947105D01*
X16098505Y-6952402D01*
X16095730Y-6958585D01*
X16093953Y-6966079D01*
X16093314Y-6975166D01*
X16094059Y-6983893D01*
X16096232Y-6991821D01*
X16099816Y-6999105D01*
X16104892Y-7005861D01*
X16110900Y-7010748D01*
X16117750Y-7014608D01*
X16125566Y-7017455D01*
X16134506Y-7019245D01*
X16144758Y-7019874D01*
X16154983Y-7019263D01*
X16163955Y-7017520D01*
X16171851Y-7014742D01*
X16178818Y-7010973D01*
X16184973Y-7006203D01*
X16190100Y-7000702D01*
X16194040Y-6994680D01*
X16196874Y-6988061D01*
X16198616Y-6980737D01*
X16199218Y-6972570D01*
G37*
G36*
X16196483Y-6907144D02*
G01*
X16196483Y-6891079D01*
X16115125Y-6840356D01*
X16196483Y-6840356D01*
X16196483Y-6827435D01*
X16096050Y-6827435D01*
X16096050Y-6842676D01*
X16177871Y-6894150D01*
X16096050Y-6894150D01*
X16096050Y-6907144D01*
X16196483Y-6907144D01*
G37*
G36*
X16158147Y-6723220D02*
G01*
X16167124Y-6725209D01*
X16174946Y-6728381D01*
X16181785Y-6732706D01*
X16187051Y-6737616D01*
X16191101Y-6743173D01*
X16194030Y-6749464D01*
X16195848Y-6756626D01*
X16196483Y-6764836D01*
X16196483Y-6805508D01*
X16096050Y-6805508D01*
X16096050Y-6767565D01*
X16108164Y-6767565D01*
X16108164Y-6791837D01*
X16184368Y-6791837D01*
X16184368Y-6767706D01*
X16183896Y-6761038D01*
X16182576Y-6755486D01*
X16180504Y-6750858D01*
X16177712Y-6747001D01*
X16174165Y-6743813D01*
X16168965Y-6740758D01*
X16162615Y-6738438D01*
X16154889Y-6736936D01*
X16145521Y-6736394D01*
X16140642Y-6736639D01*
X16135117Y-6737420D01*
X16128965Y-6738939D01*
X16123884Y-6740894D01*
X16119717Y-6743233D01*
X16115191Y-6746992D01*
X16111853Y-6751295D01*
X16109581Y-6756220D01*
X16108556Y-6760986D01*
X16108164Y-6767565D01*
X16096050Y-6767565D01*
X16096050Y-6764970D01*
X16096733Y-6756488D01*
X16098678Y-6749192D01*
X16101801Y-6742874D01*
X16106119Y-6737375D01*
X16111746Y-6732603D01*
X16118887Y-6728535D01*
X16127682Y-6725240D01*
X16137275Y-6723217D01*
X16147805Y-6722521D01*
X16158147Y-6723220D01*
G37*
G36*
X16206483Y-8055978D02*
G01*
X16206483Y-8039913D01*
X16125125Y-7989190D01*
X16206483Y-7989190D01*
X16206483Y-7976270D01*
X16106050Y-7976270D01*
X16106050Y-7991511D01*
X16187871Y-8042985D01*
X16106050Y-8042985D01*
X16106050Y-8055978D01*
X16206483Y-8055978D01*
G37*
G36*
X16168147Y-7872054D02*
G01*
X16177124Y-7874043D01*
X16184946Y-7877215D01*
X16191785Y-7881540D01*
X16197051Y-7886450D01*
X16201101Y-7892008D01*
X16204030Y-7898299D01*
X16205848Y-7905461D01*
X16206483Y-7913670D01*
X16206483Y-7954343D01*
X16106050Y-7954343D01*
X16106050Y-7916400D01*
X16118164Y-7916400D01*
X16118164Y-7940671D01*
X16194368Y-7940671D01*
X16194368Y-7916540D01*
X16193896Y-7909873D01*
X16192576Y-7904321D01*
X16190504Y-7899693D01*
X16187712Y-7895836D01*
X16184165Y-7892647D01*
X16178965Y-7889592D01*
X16172615Y-7887273D01*
X16164889Y-7885770D01*
X16155521Y-7885228D01*
X16150642Y-7885473D01*
X16145117Y-7886254D01*
X16138965Y-7887773D01*
X16133884Y-7889728D01*
X16129717Y-7892067D01*
X16125191Y-7895826D01*
X16121853Y-7900129D01*
X16119581Y-7905055D01*
X16118556Y-7909821D01*
X16118164Y-7916400D01*
X16106050Y-7916400D01*
X16106050Y-7913805D01*
X16106733Y-7905323D01*
X16108678Y-7898027D01*
X16111801Y-7891708D01*
X16116119Y-7886210D01*
X16121746Y-7881437D01*
X16128887Y-7877370D01*
X16137682Y-7874075D01*
X16147275Y-7872052D01*
X16157805Y-7871355D01*
X16168147Y-7872054D01*
G37*
G36*
X16206483Y-7809366D02*
G01*
X16206483Y-7824748D01*
X16106050Y-7862550D01*
X16106050Y-7848604D01*
X16136141Y-7837735D01*
X16136141Y-7833840D01*
X16147083Y-7833840D01*
X16191443Y-7817640D01*
X16147083Y-7802393D01*
X16147083Y-7833840D01*
X16136141Y-7833840D01*
X16136141Y-7798021D01*
X16106050Y-7787836D01*
X16106050Y-7772932D01*
X16206483Y-7809366D01*
G37*
G36*
X16209218Y-7718325D02*
G01*
X16208511Y-7708796D01*
X16206529Y-7700864D01*
X16203410Y-7694246D01*
X16199186Y-7688723D01*
X16193826Y-7683913D01*
X16188287Y-7680444D01*
X16182505Y-7678173D01*
X16176392Y-7677036D01*
X16176392Y-7690298D01*
X16182444Y-7692356D01*
X16187432Y-7695348D01*
X16191523Y-7699286D01*
X16193845Y-7702766D01*
X16195585Y-7706974D01*
X16196703Y-7712057D01*
X16197104Y-7718191D01*
X16196421Y-7725418D01*
X16194458Y-7731706D01*
X16191250Y-7737241D01*
X16186711Y-7742151D01*
X16181338Y-7745870D01*
X16174478Y-7748718D01*
X16165793Y-7750589D01*
X16154868Y-7751273D01*
X16146063Y-7750701D01*
X16138498Y-7749080D01*
X16131983Y-7746512D01*
X16126359Y-7743036D01*
X16122493Y-7739495D01*
X16119491Y-7735370D01*
X16117295Y-7730578D01*
X16115916Y-7724994D01*
X16115429Y-7718459D01*
X16115922Y-7712535D01*
X16117330Y-7707406D01*
X16119602Y-7702931D01*
X16122762Y-7699003D01*
X16126902Y-7695562D01*
X16131094Y-7693140D01*
X16136325Y-7691047D01*
X16142784Y-7689339D01*
X16142784Y-7676077D01*
X16135020Y-7677521D01*
X16128079Y-7679969D01*
X16121843Y-7683397D01*
X16116223Y-7687837D01*
X16111641Y-7692870D01*
X16108079Y-7698510D01*
X16105488Y-7704844D01*
X16103877Y-7711992D01*
X16103314Y-7720102D01*
X16104013Y-7728708D01*
X16106031Y-7736370D01*
X16109322Y-7743256D01*
X16113927Y-7749490D01*
X16118722Y-7754031D01*
X16124320Y-7757822D01*
X16130825Y-7760878D01*
X16138371Y-7763171D01*
X16147121Y-7764630D01*
X16157262Y-7765146D01*
X16166231Y-7764630D01*
X16174248Y-7763147D01*
X16181438Y-7760766D01*
X16187908Y-7757517D01*
X16193745Y-7753392D01*
X16199281Y-7747960D01*
X16203548Y-7741853D01*
X16206636Y-7734978D01*
X16208550Y-7727195D01*
X16209218Y-7718325D01*
G37*
G36*
X16419218Y-6972570D02*
G01*
X16418572Y-6963263D01*
X16416730Y-6955167D01*
X16413784Y-6948091D01*
X16410255Y-6942655D01*
X16405865Y-6938156D01*
X16400531Y-6934509D01*
X16394107Y-6931697D01*
X16386392Y-6929773D01*
X16386392Y-6943243D01*
X16391655Y-6944891D01*
X16395942Y-6947147D01*
X16399408Y-6949983D01*
X16402158Y-6953428D01*
X16404819Y-6958790D01*
X16406503Y-6965206D01*
X16407104Y-6972912D01*
X16406442Y-6979664D01*
X16404508Y-6985737D01*
X16401296Y-6991281D01*
X16396687Y-6996396D01*
X16392450Y-6999619D01*
X16387382Y-7002230D01*
X16381345Y-7004205D01*
X16374168Y-7005474D01*
X16365656Y-7005928D01*
X16356693Y-7005379D01*
X16348986Y-7003827D01*
X16342348Y-7001374D01*
X16336621Y-6998069D01*
X16332724Y-6994672D01*
X16329663Y-6990547D01*
X16327393Y-6985584D01*
X16325946Y-6979616D01*
X16325429Y-6972430D01*
X16325953Y-6965709D01*
X16327459Y-6959801D01*
X16329895Y-6954569D01*
X16333275Y-6949905D01*
X16337467Y-6946214D01*
X16342887Y-6943407D01*
X16349821Y-6941538D01*
X16358646Y-6940782D01*
X16358646Y-6972228D01*
X16369979Y-6972228D01*
X16369979Y-6928137D01*
X16316050Y-6928137D01*
X16316050Y-6936887D01*
X16329300Y-6940166D01*
X16322336Y-6947105D01*
X16318505Y-6952402D01*
X16315730Y-6958585D01*
X16313953Y-6966079D01*
X16313314Y-6975166D01*
X16314059Y-6983893D01*
X16316232Y-6991821D01*
X16319816Y-6999105D01*
X16324892Y-7005861D01*
X16330900Y-7010748D01*
X16337750Y-7014608D01*
X16345566Y-7017455D01*
X16354506Y-7019245D01*
X16364758Y-7019874D01*
X16374983Y-7019263D01*
X16383955Y-7017520D01*
X16391851Y-7014742D01*
X16398818Y-7010973D01*
X16404973Y-7006203D01*
X16410100Y-7000702D01*
X16414040Y-6994680D01*
X16416874Y-6988061D01*
X16418616Y-6980737D01*
X16419218Y-6972570D01*
G37*
G36*
X16416483Y-6907144D02*
G01*
X16416483Y-6891079D01*
X16335125Y-6840356D01*
X16416483Y-6840356D01*
X16416483Y-6827435D01*
X16316050Y-6827435D01*
X16316050Y-6842676D01*
X16397871Y-6894150D01*
X16316050Y-6894150D01*
X16316050Y-6907144D01*
X16416483Y-6907144D01*
G37*
G36*
X16378147Y-6723220D02*
G01*
X16387124Y-6725209D01*
X16394946Y-6728381D01*
X16401785Y-6732706D01*
X16407051Y-6737616D01*
X16411101Y-6743173D01*
X16414030Y-6749464D01*
X16415848Y-6756626D01*
X16416483Y-6764836D01*
X16416483Y-6805508D01*
X16316050Y-6805508D01*
X16316050Y-6767565D01*
X16328164Y-6767565D01*
X16328164Y-6791837D01*
X16404368Y-6791837D01*
X16404368Y-6767706D01*
X16403896Y-6761038D01*
X16402576Y-6755486D01*
X16400504Y-6750858D01*
X16397712Y-6747001D01*
X16394165Y-6743813D01*
X16388965Y-6740758D01*
X16382615Y-6738438D01*
X16374889Y-6736936D01*
X16365521Y-6736394D01*
X16360642Y-6736639D01*
X16355117Y-6737420D01*
X16348965Y-6738939D01*
X16343884Y-6740894D01*
X16339717Y-6743233D01*
X16335191Y-6746992D01*
X16331853Y-6751295D01*
X16329581Y-6756220D01*
X16328556Y-6760986D01*
X16328164Y-6767565D01*
X16316050Y-6767565D01*
X16316050Y-6764970D01*
X16316733Y-6756488D01*
X16318678Y-6749192D01*
X16321801Y-6742874D01*
X16326119Y-6737375D01*
X16331746Y-6732603D01*
X16338887Y-6728535D01*
X16347682Y-6725240D01*
X16357275Y-6723217D01*
X16367805Y-6722521D01*
X16378147Y-6723220D01*
G37*
G36*
X16416483Y-8055978D02*
G01*
X16416483Y-8039913D01*
X16335125Y-7989190D01*
X16416483Y-7989190D01*
X16416483Y-7976270D01*
X16316050Y-7976270D01*
X16316050Y-7991511D01*
X16397871Y-8042985D01*
X16316050Y-8042985D01*
X16316050Y-8055978D01*
X16416483Y-8055978D01*
G37*
G36*
X16319575Y-7871711D02*
G01*
X16321512Y-7873171D01*
X16324446Y-7874292D01*
X16327571Y-7874865D01*
X16332854Y-7875251D01*
X16346367Y-7875727D01*
X16352185Y-7876339D01*
X16356264Y-7877496D01*
X16359037Y-7879043D01*
X16362451Y-7882598D01*
X16365320Y-7887897D01*
X16367952Y-7883691D01*
X16371026Y-7880244D01*
X16374564Y-7877474D01*
X16378564Y-7875475D01*
X16383429Y-7874200D01*
X16389359Y-7873743D01*
X16396169Y-7874369D01*
X16401743Y-7876124D01*
X16406330Y-7878915D01*
X16410101Y-7882784D01*
X16413124Y-7887897D01*
X16414903Y-7892976D01*
X16416063Y-7899212D01*
X16416483Y-7906832D01*
X16416483Y-7953317D01*
X16316050Y-7953317D01*
X16316050Y-7939713D01*
X16359037Y-7939713D01*
X16359037Y-7908749D01*
X16359003Y-7908267D01*
X16370370Y-7908267D01*
X16370370Y-7939713D01*
X16404368Y-7939713D01*
X16404368Y-7906490D01*
X16403804Y-7899920D01*
X16402335Y-7895346D01*
X16400041Y-7892000D01*
X16396986Y-7889614D01*
X16393014Y-7888104D01*
X16387845Y-7887555D01*
X16382892Y-7887972D01*
X16379123Y-7889099D01*
X16376274Y-7890822D01*
X16374161Y-7893130D01*
X16372153Y-7897024D01*
X16370847Y-7901981D01*
X16370370Y-7908267D01*
X16359003Y-7908267D01*
X16358491Y-7900992D01*
X16357193Y-7896512D01*
X16355201Y-7893580D01*
X16352465Y-7891397D01*
X16348827Y-7889909D01*
X16344028Y-7889197D01*
X16327310Y-7888373D01*
X16319390Y-7887695D01*
X16316050Y-7886596D01*
X16316050Y-7869920D01*
X16318395Y-7869920D01*
X16319575Y-7871711D01*
G37*
G36*
X16416483Y-7852640D02*
G01*
X16416483Y-7782982D01*
X16404368Y-7782982D01*
X16404368Y-7839036D01*
X16373496Y-7839036D01*
X16373496Y-7789748D01*
X16361381Y-7789748D01*
X16361381Y-7839036D01*
X16316050Y-7839036D01*
X16316050Y-7852640D01*
X16416483Y-7852640D01*
G37*
G36*
X16378147Y-7685550D02*
G01*
X16387124Y-7687539D01*
X16394946Y-7690712D01*
X16401785Y-7695036D01*
X16407051Y-7699946D01*
X16411101Y-7705504D01*
X16414030Y-7711795D01*
X16415848Y-7718957D01*
X16416483Y-7727167D01*
X16416483Y-7767839D01*
X16316050Y-7767839D01*
X16316050Y-7729896D01*
X16328164Y-7729896D01*
X16328164Y-7754168D01*
X16404368Y-7754168D01*
X16404368Y-7730036D01*
X16403896Y-7723369D01*
X16402576Y-7717817D01*
X16400504Y-7713189D01*
X16397712Y-7709332D01*
X16394165Y-7706143D01*
X16388965Y-7703089D01*
X16382615Y-7700769D01*
X16374889Y-7699266D01*
X16365521Y-7698724D01*
X16360642Y-7698969D01*
X16355117Y-7699750D01*
X16348965Y-7701269D01*
X16343884Y-7703225D01*
X16339717Y-7705563D01*
X16335191Y-7709322D01*
X16331853Y-7713626D01*
X16329581Y-7718551D01*
X16328556Y-7723317D01*
X16328164Y-7729896D01*
X16316050Y-7729896D01*
X16316050Y-7727301D01*
X16316733Y-7718819D01*
X16318678Y-7711523D01*
X16321801Y-7705205D01*
X16326119Y-7699706D01*
X16331746Y-7694934D01*
X16338887Y-7690866D01*
X16347682Y-7687571D01*
X16357275Y-7685548D01*
X16367805Y-7684851D01*
X16378147Y-7685550D01*
G37*
G36*
X16639218Y-6972570D02*
G01*
X16638572Y-6963263D01*
X16636730Y-6955167D01*
X16633784Y-6948091D01*
X16630255Y-6942655D01*
X16625865Y-6938156D01*
X16620531Y-6934509D01*
X16614107Y-6931697D01*
X16606392Y-6929773D01*
X16606392Y-6943243D01*
X16611655Y-6944891D01*
X16615942Y-6947147D01*
X16619408Y-6949983D01*
X16622158Y-6953428D01*
X16624819Y-6958790D01*
X16626503Y-6965206D01*
X16627104Y-6972912D01*
X16626442Y-6979664D01*
X16624508Y-6985737D01*
X16621296Y-6991281D01*
X16616687Y-6996396D01*
X16612450Y-6999619D01*
X16607382Y-7002230D01*
X16601345Y-7004205D01*
X16594168Y-7005474D01*
X16585656Y-7005928D01*
X16576693Y-7005379D01*
X16568986Y-7003827D01*
X16562348Y-7001374D01*
X16556621Y-6998069D01*
X16552724Y-6994672D01*
X16549663Y-6990547D01*
X16547393Y-6985584D01*
X16545946Y-6979616D01*
X16545429Y-6972430D01*
X16545953Y-6965709D01*
X16547459Y-6959801D01*
X16549895Y-6954569D01*
X16553275Y-6949905D01*
X16557467Y-6946214D01*
X16562887Y-6943407D01*
X16569821Y-6941538D01*
X16578646Y-6940782D01*
X16578646Y-6972228D01*
X16589979Y-6972228D01*
X16589979Y-6928137D01*
X16536050Y-6928137D01*
X16536050Y-6936887D01*
X16549300Y-6940166D01*
X16542336Y-6947105D01*
X16538505Y-6952402D01*
X16535730Y-6958585D01*
X16533953Y-6966079D01*
X16533314Y-6975166D01*
X16534059Y-6983893D01*
X16536232Y-6991821D01*
X16539816Y-6999105D01*
X16544892Y-7005861D01*
X16550900Y-7010748D01*
X16557750Y-7014608D01*
X16565566Y-7017455D01*
X16574506Y-7019245D01*
X16584758Y-7019874D01*
X16594983Y-7019263D01*
X16603955Y-7017520D01*
X16611851Y-7014742D01*
X16618818Y-7010973D01*
X16624973Y-7006203D01*
X16630100Y-7000702D01*
X16634040Y-6994680D01*
X16636874Y-6988061D01*
X16638616Y-6980737D01*
X16639218Y-6972570D01*
G37*
G36*
X16636483Y-6907144D02*
G01*
X16636483Y-6891079D01*
X16555125Y-6840356D01*
X16636483Y-6840356D01*
X16636483Y-6827435D01*
X16536050Y-6827435D01*
X16536050Y-6842676D01*
X16617871Y-6894150D01*
X16536050Y-6894150D01*
X16536050Y-6907144D01*
X16636483Y-6907144D01*
G37*
G36*
X16598147Y-6723220D02*
G01*
X16607124Y-6725209D01*
X16614946Y-6728381D01*
X16621785Y-6732706D01*
X16627051Y-6737616D01*
X16631101Y-6743173D01*
X16634030Y-6749464D01*
X16635848Y-6756626D01*
X16636483Y-6764836D01*
X16636483Y-6805508D01*
X16536050Y-6805508D01*
X16536050Y-6767565D01*
X16548164Y-6767565D01*
X16548164Y-6791837D01*
X16624368Y-6791837D01*
X16624368Y-6767706D01*
X16623896Y-6761038D01*
X16622576Y-6755486D01*
X16620504Y-6750858D01*
X16617712Y-6747001D01*
X16614165Y-6743813D01*
X16608965Y-6740758D01*
X16602615Y-6738438D01*
X16594889Y-6736936D01*
X16585521Y-6736394D01*
X16580642Y-6736639D01*
X16575117Y-6737420D01*
X16568965Y-6738939D01*
X16563884Y-6740894D01*
X16559717Y-6743233D01*
X16555191Y-6746992D01*
X16551853Y-6751295D01*
X16549581Y-6756220D01*
X16548556Y-6760986D01*
X16548164Y-6767565D01*
X16536050Y-6767565D01*
X16536050Y-6764970D01*
X16536733Y-6756488D01*
X16538678Y-6749192D01*
X16541801Y-6742874D01*
X16546119Y-6737375D01*
X16551746Y-6732603D01*
X16558887Y-6728535D01*
X16567682Y-6725240D01*
X16577275Y-6723217D01*
X16587805Y-6722521D01*
X16598147Y-6723220D01*
G37*
G36*
X16598147Y-7873073D02*
G01*
X16607124Y-7875062D01*
X16614946Y-7878234D01*
X16621785Y-7882559D01*
X16627051Y-7887469D01*
X16631101Y-7893026D01*
X16634030Y-7899318D01*
X16635848Y-7906480D01*
X16636483Y-7914689D01*
X16636483Y-7955362D01*
X16536050Y-7955362D01*
X16536050Y-7917419D01*
X16548164Y-7917419D01*
X16548164Y-7941690D01*
X16624368Y-7941690D01*
X16624368Y-7917559D01*
X16623896Y-7910892D01*
X16622576Y-7905340D01*
X16620504Y-7900711D01*
X16617712Y-7896855D01*
X16614165Y-7893666D01*
X16608965Y-7890611D01*
X16602615Y-7888292D01*
X16594889Y-7886789D01*
X16585521Y-7886247D01*
X16580642Y-7886492D01*
X16575117Y-7887273D01*
X16568965Y-7888792D01*
X16563884Y-7890747D01*
X16559717Y-7893086D01*
X16555191Y-7896845D01*
X16551853Y-7901148D01*
X16549581Y-7906074D01*
X16548556Y-7910840D01*
X16548164Y-7917419D01*
X16536050Y-7917419D01*
X16536050Y-7914824D01*
X16536733Y-7906342D01*
X16538678Y-7899046D01*
X16541801Y-7892727D01*
X16546119Y-7887229D01*
X16551746Y-7882456D01*
X16558887Y-7878389D01*
X16567682Y-7875094D01*
X16577275Y-7873070D01*
X16587805Y-7872374D01*
X16598147Y-7873073D01*
G37*
G36*
X16636483Y-7810385D02*
G01*
X16636483Y-7825767D01*
X16536050Y-7863569D01*
X16536050Y-7849623D01*
X16566141Y-7838754D01*
X16566141Y-7834858D01*
X16577083Y-7834858D01*
X16621443Y-7818659D01*
X16577083Y-7803412D01*
X16577083Y-7834858D01*
X16566141Y-7834858D01*
X16566141Y-7799040D01*
X16536050Y-7788855D01*
X16536050Y-7773950D01*
X16636483Y-7810385D01*
G37*
G36*
X16636483Y-7758807D02*
G01*
X16550955Y-7729956D01*
X16636483Y-7701453D01*
X16636483Y-7686206D01*
X16536050Y-7722849D01*
X16536050Y-7737271D01*
X16636483Y-7773847D01*
X16636483Y-7758807D01*
G37*
G36*
X16759575Y-6932730D02*
G01*
X16761512Y-6934190D01*
X16764446Y-6935311D01*
X16767571Y-6935884D01*
X16772854Y-6936270D01*
X16786367Y-6936746D01*
X16792185Y-6937358D01*
X16796264Y-6938515D01*
X16799037Y-6940062D01*
X16802451Y-6943616D01*
X16805320Y-6948916D01*
X16807952Y-6944710D01*
X16811027Y-6941263D01*
X16814565Y-6938492D01*
X16818564Y-6936494D01*
X16823430Y-6935219D01*
X16829360Y-6934762D01*
X16836169Y-6935388D01*
X16841743Y-6937143D01*
X16846330Y-6939934D01*
X16850101Y-6943803D01*
X16853124Y-6948916D01*
X16854903Y-6953995D01*
X16856063Y-6960231D01*
X16856483Y-6967850D01*
X16856483Y-7014336D01*
X16756050Y-7014336D01*
X16756050Y-7000732D01*
X16799037Y-7000732D01*
X16799037Y-6969768D01*
X16799003Y-6969285D01*
X16810370Y-6969285D01*
X16810370Y-7000732D01*
X16844368Y-7000732D01*
X16844368Y-6967509D01*
X16843804Y-6960939D01*
X16842335Y-6956365D01*
X16840041Y-6953018D01*
X16836986Y-6950633D01*
X16833014Y-6949123D01*
X16827845Y-6948574D01*
X16822892Y-6948990D01*
X16819123Y-6950118D01*
X16816275Y-6951841D01*
X16814162Y-6954148D01*
X16812153Y-6958043D01*
X16810847Y-6962999D01*
X16810370Y-6969285D01*
X16799003Y-6969285D01*
X16798492Y-6962011D01*
X16797193Y-6957531D01*
X16795201Y-6954599D01*
X16792465Y-6952416D01*
X16788827Y-6950928D01*
X16784028Y-6950216D01*
X16767310Y-6949392D01*
X16759390Y-6948714D01*
X16756050Y-6947615D01*
X16756050Y-6930939D01*
X16758395Y-6930939D01*
X16759575Y-6932730D01*
G37*
G36*
X16856483Y-6913659D02*
G01*
X16856483Y-6840447D01*
X16844368Y-6840447D01*
X16844368Y-6900397D01*
X16813496Y-6900397D01*
X16813496Y-6844960D01*
X16801382Y-6844960D01*
X16801382Y-6900397D01*
X16768164Y-6900397D01*
X16768164Y-6839421D01*
X16756050Y-6839421D01*
X16756050Y-6913659D01*
X16856483Y-6913659D01*
G37*
G36*
X16856483Y-6821659D02*
G01*
X16856483Y-6805594D01*
X16775125Y-6754871D01*
X16856483Y-6754871D01*
X16856483Y-6741950D01*
X16756050Y-6741950D01*
X16756050Y-6757191D01*
X16837871Y-6808665D01*
X16756050Y-6808665D01*
X16756050Y-6821659D01*
X16856483Y-6821659D01*
G37*
G36*
X16856483Y-7924678D02*
G01*
X16856483Y-7851466D01*
X16844368Y-7851466D01*
X16844368Y-7911416D01*
X16813496Y-7911416D01*
X16813496Y-7855978D01*
X16801382Y-7855978D01*
X16801382Y-7911416D01*
X16768164Y-7911416D01*
X16768164Y-7850440D01*
X16756050Y-7850440D01*
X16756050Y-7924678D01*
X16856483Y-7924678D01*
G37*
G36*
X16818477Y-7740667D02*
G01*
X16827473Y-7742619D01*
X16835310Y-7745728D01*
X16842158Y-7749959D01*
X16847238Y-7754464D01*
X16851398Y-7759658D01*
X16854696Y-7765615D01*
X16857138Y-7772447D01*
X16858677Y-7780298D01*
X16859218Y-7789337D01*
X16858653Y-7797835D01*
X16857032Y-7805322D01*
X16854432Y-7811951D01*
X16850871Y-7817844D01*
X16846310Y-7823093D01*
X16840656Y-7827750D01*
X16833222Y-7832097D01*
X16825033Y-7835248D01*
X16815963Y-7837194D01*
X16805857Y-7837868D01*
X16796786Y-7837351D01*
X16788635Y-7835864D01*
X16781285Y-7833470D01*
X16774634Y-7830198D01*
X16768598Y-7826040D01*
X16763161Y-7820420D01*
X16758946Y-7814087D01*
X16755884Y-7806943D01*
X16753980Y-7798843D01*
X16753314Y-7789606D01*
X16753419Y-7787969D01*
X16765429Y-7787969D01*
X16765961Y-7795656D01*
X16767448Y-7802037D01*
X16769775Y-7807336D01*
X16772899Y-7811732D01*
X16776853Y-7815349D01*
X16782744Y-7818965D01*
X16789307Y-7821592D01*
X16796657Y-7823221D01*
X16804935Y-7823787D01*
X16813503Y-7823322D01*
X16820758Y-7822018D01*
X16826891Y-7819984D01*
X16832069Y-7817286D01*
X16836424Y-7813944D01*
X16841085Y-7808680D01*
X16844385Y-7802783D01*
X16846403Y-7796124D01*
X16847104Y-7788519D01*
X16846381Y-7780655D01*
X16844321Y-7773951D01*
X16840989Y-7768181D01*
X16836321Y-7763191D01*
X16830712Y-7759257D01*
X16824218Y-7756376D01*
X16816674Y-7754566D01*
X16807872Y-7753928D01*
X16799574Y-7754453D01*
X16791938Y-7755986D01*
X16784870Y-7758488D01*
X16778288Y-7761963D01*
X16773722Y-7765512D01*
X16770198Y-7769763D01*
X16767626Y-7774808D01*
X16766005Y-7780807D01*
X16765429Y-7787969D01*
X16753419Y-7787969D01*
X16753845Y-7781302D01*
X16755370Y-7773927D01*
X16757822Y-7767346D01*
X16761181Y-7761449D01*
X16765476Y-7756151D01*
X16770784Y-7751400D01*
X16776855Y-7747391D01*
X16783534Y-7744232D01*
X16790901Y-7741918D01*
X16799056Y-7740480D01*
X16808110Y-7739981D01*
X16818477Y-7740667D01*
G37*
G36*
X16856483Y-7720766D02*
G01*
X16856483Y-7707021D01*
X16756050Y-7707021D01*
X16756050Y-7720766D01*
X16856483Y-7720766D01*
G37*
G36*
X17028147Y-6933073D02*
G01*
X17037124Y-6935062D01*
X17044946Y-6938234D01*
X17051785Y-6942559D01*
X17057051Y-6947469D01*
X17061101Y-6953026D01*
X17064030Y-6959318D01*
X17065848Y-6966480D01*
X17066483Y-6974689D01*
X17066483Y-7015362D01*
X16966050Y-7015362D01*
X16966050Y-6977419D01*
X16978165Y-6977419D01*
X16978165Y-7001690D01*
X17054368Y-7001690D01*
X17054368Y-6977559D01*
X17053896Y-6970892D01*
X17052576Y-6965340D01*
X17050504Y-6960711D01*
X17047712Y-6956855D01*
X17044165Y-6953666D01*
X17038965Y-6950611D01*
X17032615Y-6948292D01*
X17024890Y-6946789D01*
X17015521Y-6946247D01*
X17010642Y-6946492D01*
X17005117Y-6947273D01*
X16998965Y-6948792D01*
X16993884Y-6950747D01*
X16989717Y-6953086D01*
X16985191Y-6956845D01*
X16981854Y-6961148D01*
X16979581Y-6966074D01*
X16978556Y-6970840D01*
X16978165Y-6977419D01*
X16966050Y-6977419D01*
X16966050Y-6974824D01*
X16966733Y-6966342D01*
X16968678Y-6959046D01*
X16971801Y-6952727D01*
X16976119Y-6947229D01*
X16981746Y-6942456D01*
X16988887Y-6938389D01*
X16997682Y-6935094D01*
X17007275Y-6933070D01*
X17017805Y-6932374D01*
X17028147Y-6933073D01*
G37*
G36*
X17066483Y-6911882D02*
G01*
X17066483Y-6898137D01*
X16966050Y-6898137D01*
X16966050Y-6911882D01*
X17066483Y-6911882D01*
G37*
G36*
X17028477Y-6784066D02*
G01*
X17037473Y-6786017D01*
X17045310Y-6789126D01*
X17052158Y-6793357D01*
X17057238Y-6797862D01*
X17061398Y-6803056D01*
X17064696Y-6809013D01*
X17067138Y-6815845D01*
X17068677Y-6823696D01*
X17069218Y-6832735D01*
X17068653Y-6841233D01*
X17067032Y-6848721D01*
X17064432Y-6855349D01*
X17060871Y-6861242D01*
X17056310Y-6866491D01*
X17050656Y-6871149D01*
X17043222Y-6875496D01*
X17035033Y-6878646D01*
X17025963Y-6880592D01*
X17015857Y-6881266D01*
X17006786Y-6880750D01*
X16998635Y-6879262D01*
X16991285Y-6876868D01*
X16984634Y-6873597D01*
X16978598Y-6869439D01*
X16973161Y-6863818D01*
X16968947Y-6857486D01*
X16965884Y-6850341D01*
X16963980Y-6842241D01*
X16963315Y-6833004D01*
X16963419Y-6831368D01*
X16975429Y-6831368D01*
X16975962Y-6839054D01*
X16977449Y-6845435D01*
X16979775Y-6850734D01*
X16982899Y-6855130D01*
X16986853Y-6858747D01*
X16992744Y-6862364D01*
X16999307Y-6864990D01*
X17006657Y-6866619D01*
X17014935Y-6867186D01*
X17023503Y-6866721D01*
X17030758Y-6865417D01*
X17036891Y-6863383D01*
X17042069Y-6860684D01*
X17046424Y-6857343D01*
X17051085Y-6852079D01*
X17054385Y-6846181D01*
X17056403Y-6839522D01*
X17057104Y-6831917D01*
X17056381Y-6824053D01*
X17054321Y-6817349D01*
X17050989Y-6811579D01*
X17046321Y-6806589D01*
X17040712Y-6802655D01*
X17034218Y-6799774D01*
X17026674Y-6797964D01*
X17017872Y-6797326D01*
X17009574Y-6797852D01*
X17001938Y-6799384D01*
X16994870Y-6801886D01*
X16988288Y-6805362D01*
X16983722Y-6808910D01*
X16980198Y-6813161D01*
X16977626Y-6818207D01*
X16976005Y-6824205D01*
X16975429Y-6831368D01*
X16963419Y-6831368D01*
X16963846Y-6824701D01*
X16965370Y-6817325D01*
X16967822Y-6810745D01*
X16971181Y-6804847D01*
X16975476Y-6799549D01*
X16980784Y-6794798D01*
X16986855Y-6790790D01*
X16993534Y-6787631D01*
X17000901Y-6785317D01*
X17009056Y-6783879D01*
X17018110Y-6783380D01*
X17028477Y-6784066D01*
G37*
G36*
X16999742Y-6706563D02*
G01*
X17004442Y-6707814D01*
X17008549Y-6709829D01*
X17012157Y-6712623D01*
X17015466Y-6716582D01*
X17018605Y-6722191D01*
X17021892Y-6717218D01*
X17024900Y-6714125D01*
X17028925Y-6711610D01*
X17033802Y-6710034D01*
X17039750Y-6709472D01*
X17044523Y-6709964D01*
X17048946Y-6711423D01*
X17053118Y-6713885D01*
X17057104Y-6717471D01*
X17060239Y-6721659D01*
X17062547Y-6726625D01*
X17064009Y-6732524D01*
X17064529Y-6739551D01*
X17063974Y-6746813D01*
X17062422Y-6752844D01*
X17059977Y-6757865D01*
X17056658Y-6762045D01*
X17052472Y-6765553D01*
X17047994Y-6768000D01*
X17043151Y-6769470D01*
X17037839Y-6769971D01*
X17032219Y-6769337D01*
X17027545Y-6767531D01*
X17023606Y-6764573D01*
X17020953Y-6761296D01*
X17018471Y-6756574D01*
X17015806Y-6761823D01*
X17012574Y-6765962D01*
X17008762Y-6769153D01*
X17004360Y-6771471D01*
X16999384Y-6772895D01*
X16993704Y-6773390D01*
X16986437Y-6772716D01*
X16980397Y-6770813D01*
X16975340Y-6767765D01*
X16971100Y-6763517D01*
X16967744Y-6758396D01*
X16965324Y-6752730D01*
X16963832Y-6746422D01*
X16963315Y-6739349D01*
X16963337Y-6739074D01*
X16974647Y-6739074D01*
X16975055Y-6744426D01*
X16976177Y-6748706D01*
X16977914Y-6752123D01*
X16980241Y-6754834D01*
X16984216Y-6757668D01*
X16988601Y-6759352D01*
X16993534Y-6759927D01*
X16999239Y-6759262D01*
X17003809Y-6757393D01*
X17007504Y-6754358D01*
X17010260Y-6750379D01*
X17011956Y-6745650D01*
X17012554Y-6739966D01*
X17012540Y-6739825D01*
X17023105Y-6739825D01*
X17023554Y-6744341D01*
X17024858Y-6748339D01*
X17027013Y-6751928D01*
X17029938Y-6754763D01*
X17033480Y-6756458D01*
X17037839Y-6757051D01*
X17041808Y-6756603D01*
X17045362Y-6755292D01*
X17048604Y-6753088D01*
X17051029Y-6750121D01*
X17052606Y-6745971D01*
X17053196Y-6740234D01*
X17052615Y-6734445D01*
X17051042Y-6730122D01*
X17048604Y-6726911D01*
X17045344Y-6724420D01*
X17042018Y-6723000D01*
X17038529Y-6722533D01*
X17034512Y-6723043D01*
X17030929Y-6724548D01*
X17027660Y-6727112D01*
X17025200Y-6730429D01*
X17023659Y-6734586D01*
X17023105Y-6739825D01*
X17012540Y-6739825D01*
X17011966Y-6734081D01*
X17010300Y-6729181D01*
X17007608Y-6725061D01*
X17004948Y-6722588D01*
X17001731Y-6720789D01*
X16997841Y-6719653D01*
X16993118Y-6719248D01*
X16987245Y-6719937D01*
X16982742Y-6721840D01*
X16979282Y-6724890D01*
X16976754Y-6728872D01*
X16975195Y-6733541D01*
X16974647Y-6739074D01*
X16963337Y-6739074D01*
X16963944Y-6731472D01*
X16965711Y-6724906D01*
X16968509Y-6719412D01*
X16972333Y-6714809D01*
X16977105Y-6711002D01*
X16982294Y-6708316D01*
X16987991Y-6706686D01*
X16994321Y-6706126D01*
X16999742Y-6706563D01*
G37*
G36*
X17038147Y-7943073D02*
G01*
X17047124Y-7945062D01*
X17054946Y-7948234D01*
X17061785Y-7952559D01*
X17067051Y-7957469D01*
X17071101Y-7963026D01*
X17074030Y-7969318D01*
X17075848Y-7976480D01*
X17076483Y-7984689D01*
X17076483Y-8025362D01*
X16976050Y-8025362D01*
X16976050Y-7987419D01*
X16988165Y-7987419D01*
X16988165Y-8011690D01*
X17064368Y-8011690D01*
X17064368Y-7987559D01*
X17063896Y-7980892D01*
X17062576Y-7975340D01*
X17060504Y-7970711D01*
X17057712Y-7966855D01*
X17054165Y-7963666D01*
X17048965Y-7960611D01*
X17042615Y-7958292D01*
X17034890Y-7956789D01*
X17025521Y-7956247D01*
X17020642Y-7956492D01*
X17015117Y-7957273D01*
X17008965Y-7958792D01*
X17003884Y-7960747D01*
X16999717Y-7963086D01*
X16995191Y-7966845D01*
X16991854Y-7971148D01*
X16989581Y-7976074D01*
X16988556Y-7980840D01*
X16988165Y-7987419D01*
X16976050Y-7987419D01*
X16976050Y-7984824D01*
X16976733Y-7976342D01*
X16978678Y-7969046D01*
X16981801Y-7962727D01*
X16986119Y-7957229D01*
X16991746Y-7952456D01*
X16998887Y-7948389D01*
X17007682Y-7945094D01*
X17017275Y-7943070D01*
X17027805Y-7942374D01*
X17038147Y-7943073D01*
G37*
G36*
X17076483Y-7921882D02*
G01*
X17076483Y-7908137D01*
X16976050Y-7908137D01*
X16976050Y-7921882D01*
X17076483Y-7921882D01*
G37*
G36*
X17038477Y-7794066D02*
G01*
X17047473Y-7796017D01*
X17055310Y-7799126D01*
X17062158Y-7803357D01*
X17067238Y-7807862D01*
X17071398Y-7813056D01*
X17074696Y-7819013D01*
X17077138Y-7825845D01*
X17078677Y-7833696D01*
X17079218Y-7842735D01*
X17078653Y-7851233D01*
X17077032Y-7858721D01*
X17074432Y-7865349D01*
X17070871Y-7871242D01*
X17066310Y-7876491D01*
X17060656Y-7881149D01*
X17053222Y-7885496D01*
X17045033Y-7888646D01*
X17035963Y-7890592D01*
X17025857Y-7891266D01*
X17016786Y-7890750D01*
X17008635Y-7889262D01*
X17001285Y-7886868D01*
X16994634Y-7883597D01*
X16988598Y-7879439D01*
X16983161Y-7873818D01*
X16978947Y-7867486D01*
X16975884Y-7860341D01*
X16973980Y-7852241D01*
X16973315Y-7843004D01*
X16973419Y-7841368D01*
X16985429Y-7841368D01*
X16985962Y-7849054D01*
X16987449Y-7855435D01*
X16989775Y-7860734D01*
X16992899Y-7865130D01*
X16996853Y-7868747D01*
X17002744Y-7872364D01*
X17009307Y-7874990D01*
X17016657Y-7876619D01*
X17024935Y-7877186D01*
X17033503Y-7876721D01*
X17040758Y-7875417D01*
X17046891Y-7873383D01*
X17052069Y-7870684D01*
X17056424Y-7867343D01*
X17061085Y-7862079D01*
X17064385Y-7856181D01*
X17066403Y-7849522D01*
X17067104Y-7841917D01*
X17066381Y-7834053D01*
X17064321Y-7827349D01*
X17060989Y-7821579D01*
X17056321Y-7816589D01*
X17050712Y-7812655D01*
X17044218Y-7809774D01*
X17036674Y-7807964D01*
X17027872Y-7807326D01*
X17019574Y-7807852D01*
X17011938Y-7809384D01*
X17004870Y-7811886D01*
X16998288Y-7815362D01*
X16993722Y-7818910D01*
X16990198Y-7823161D01*
X16987626Y-7828207D01*
X16986005Y-7834205D01*
X16985429Y-7841368D01*
X16973419Y-7841368D01*
X16973846Y-7834701D01*
X16975370Y-7827325D01*
X16977822Y-7820745D01*
X16981181Y-7814847D01*
X16985476Y-7809549D01*
X16990784Y-7804798D01*
X16996855Y-7800790D01*
X17003534Y-7797631D01*
X17010901Y-7795317D01*
X17019056Y-7793879D01*
X17028110Y-7793380D01*
X17038477Y-7794066D01*
G37*
G36*
X17010439Y-7729114D02*
G01*
X17074138Y-7729114D01*
X17074138Y-7739506D01*
X17011740Y-7784349D01*
X16999888Y-7784349D01*
X16999888Y-7772998D01*
X17010439Y-7772998D01*
X17054763Y-7741625D01*
X17010439Y-7741625D01*
X17010439Y-7772998D01*
X16999888Y-7772998D01*
X16999888Y-7741417D01*
X16976050Y-7741417D01*
X16976050Y-7729114D01*
X16999888Y-7729114D01*
X16999888Y-7714691D01*
X17010439Y-7714691D01*
X17010439Y-7729114D01*
G37*
G36*
X17238147Y-6933073D02*
G01*
X17247124Y-6935062D01*
X17254946Y-6938234D01*
X17261785Y-6942559D01*
X17267051Y-6947469D01*
X17271101Y-6953026D01*
X17274030Y-6959318D01*
X17275848Y-6966480D01*
X17276483Y-6974689D01*
X17276483Y-7015362D01*
X17176050Y-7015362D01*
X17176050Y-6977419D01*
X17188165Y-6977419D01*
X17188165Y-7001690D01*
X17264368Y-7001690D01*
X17264368Y-6977559D01*
X17263896Y-6970892D01*
X17262576Y-6965340D01*
X17260504Y-6960711D01*
X17257712Y-6956855D01*
X17254165Y-6953666D01*
X17248965Y-6950611D01*
X17242615Y-6948292D01*
X17234890Y-6946789D01*
X17225521Y-6946247D01*
X17220642Y-6946492D01*
X17215117Y-6947273D01*
X17208965Y-6948792D01*
X17203884Y-6950747D01*
X17199717Y-6953086D01*
X17195191Y-6956845D01*
X17191854Y-6961148D01*
X17189581Y-6966074D01*
X17188556Y-6970840D01*
X17188165Y-6977419D01*
X17176050Y-6977419D01*
X17176050Y-6974824D01*
X17176733Y-6966342D01*
X17178678Y-6959046D01*
X17181801Y-6952727D01*
X17186119Y-6947229D01*
X17191746Y-6942456D01*
X17198887Y-6938389D01*
X17207682Y-6935094D01*
X17217275Y-6933070D01*
X17227805Y-6932374D01*
X17238147Y-6933073D01*
G37*
G36*
X17276483Y-6911882D02*
G01*
X17276483Y-6898137D01*
X17176050Y-6898137D01*
X17176050Y-6911882D01*
X17276483Y-6911882D01*
G37*
G36*
X17238477Y-6784066D02*
G01*
X17247473Y-6786017D01*
X17255310Y-6789126D01*
X17262158Y-6793357D01*
X17267238Y-6797862D01*
X17271398Y-6803056D01*
X17274696Y-6809013D01*
X17277138Y-6815845D01*
X17278677Y-6823696D01*
X17279218Y-6832735D01*
X17278653Y-6841233D01*
X17277032Y-6848721D01*
X17274432Y-6855349D01*
X17270871Y-6861242D01*
X17266310Y-6866491D01*
X17260656Y-6871149D01*
X17253222Y-6875496D01*
X17245033Y-6878646D01*
X17235963Y-6880592D01*
X17225857Y-6881266D01*
X17216786Y-6880750D01*
X17208635Y-6879262D01*
X17201285Y-6876868D01*
X17194634Y-6873597D01*
X17188598Y-6869439D01*
X17183161Y-6863818D01*
X17178947Y-6857486D01*
X17175884Y-6850341D01*
X17173980Y-6842241D01*
X17173315Y-6833004D01*
X17173419Y-6831368D01*
X17185429Y-6831368D01*
X17185962Y-6839054D01*
X17187449Y-6845435D01*
X17189775Y-6850734D01*
X17192899Y-6855130D01*
X17196853Y-6858747D01*
X17202744Y-6862364D01*
X17209307Y-6864990D01*
X17216657Y-6866619D01*
X17224935Y-6867186D01*
X17233503Y-6866721D01*
X17240758Y-6865417D01*
X17246891Y-6863383D01*
X17252069Y-6860684D01*
X17256424Y-6857343D01*
X17261085Y-6852079D01*
X17264385Y-6846181D01*
X17266403Y-6839522D01*
X17267104Y-6831917D01*
X17266381Y-6824053D01*
X17264321Y-6817349D01*
X17260989Y-6811579D01*
X17256321Y-6806589D01*
X17250712Y-6802655D01*
X17244218Y-6799774D01*
X17236674Y-6797964D01*
X17227872Y-6797326D01*
X17219574Y-6797852D01*
X17211938Y-6799384D01*
X17204870Y-6801886D01*
X17198288Y-6805362D01*
X17193722Y-6808910D01*
X17190198Y-6813161D01*
X17187626Y-6818207D01*
X17186005Y-6824205D01*
X17185429Y-6831368D01*
X17173419Y-6831368D01*
X17173846Y-6824701D01*
X17175370Y-6817325D01*
X17177822Y-6810745D01*
X17181181Y-6804847D01*
X17185476Y-6799549D01*
X17190784Y-6794798D01*
X17196855Y-6790790D01*
X17203534Y-6787631D01*
X17210901Y-6785317D01*
X17219056Y-6783879D01*
X17228110Y-6783380D01*
X17238477Y-6784066D01*
G37*
G36*
X17272575Y-6704691D02*
G01*
X17262066Y-6704691D01*
X17256288Y-6709636D01*
X17245836Y-6717233D01*
X17234083Y-6724568D01*
X17221296Y-6731075D01*
X17208653Y-6736454D01*
X17197916Y-6740100D01*
X17176050Y-6745229D01*
X17176050Y-6758834D01*
X17189860Y-6755882D01*
X17203782Y-6751529D01*
X17217873Y-6745707D01*
X17232183Y-6738323D01*
X17242917Y-6731771D01*
X17252304Y-6725208D01*
X17260460Y-6718637D01*
X17260460Y-6772774D01*
X17272575Y-6772774D01*
X17272575Y-6704691D01*
G37*
G36*
X17248147Y-7943073D02*
G01*
X17257124Y-7945062D01*
X17264946Y-7948234D01*
X17271785Y-7952559D01*
X17277051Y-7957469D01*
X17281101Y-7963026D01*
X17284030Y-7969318D01*
X17285848Y-7976480D01*
X17286483Y-7984689D01*
X17286483Y-8025362D01*
X17186050Y-8025362D01*
X17186050Y-7987419D01*
X17198165Y-7987419D01*
X17198165Y-8011690D01*
X17274368Y-8011690D01*
X17274368Y-7987559D01*
X17273896Y-7980892D01*
X17272576Y-7975340D01*
X17270504Y-7970711D01*
X17267712Y-7966855D01*
X17264165Y-7963666D01*
X17258965Y-7960611D01*
X17252615Y-7958292D01*
X17244890Y-7956789D01*
X17235521Y-7956247D01*
X17230642Y-7956492D01*
X17225117Y-7957273D01*
X17218965Y-7958792D01*
X17213884Y-7960747D01*
X17209717Y-7963086D01*
X17205191Y-7966845D01*
X17201854Y-7971148D01*
X17199581Y-7976074D01*
X17198556Y-7980840D01*
X17198165Y-7987419D01*
X17186050Y-7987419D01*
X17186050Y-7984824D01*
X17186733Y-7976342D01*
X17188678Y-7969046D01*
X17191801Y-7962727D01*
X17196119Y-7957229D01*
X17201746Y-7952456D01*
X17208887Y-7948389D01*
X17217682Y-7945094D01*
X17227275Y-7943070D01*
X17237805Y-7942374D01*
X17248147Y-7943073D01*
G37*
G36*
X17286483Y-7921882D02*
G01*
X17286483Y-7908137D01*
X17186050Y-7908137D01*
X17186050Y-7921882D01*
X17286483Y-7921882D01*
G37*
G36*
X17248477Y-7794066D02*
G01*
X17257473Y-7796017D01*
X17265310Y-7799126D01*
X17272158Y-7803357D01*
X17277238Y-7807862D01*
X17281398Y-7813056D01*
X17284696Y-7819013D01*
X17287138Y-7825845D01*
X17288677Y-7833696D01*
X17289218Y-7842735D01*
X17288653Y-7851233D01*
X17287032Y-7858721D01*
X17284432Y-7865349D01*
X17280871Y-7871242D01*
X17276310Y-7876491D01*
X17270656Y-7881149D01*
X17263222Y-7885496D01*
X17255033Y-7888646D01*
X17245963Y-7890592D01*
X17235857Y-7891266D01*
X17226786Y-7890750D01*
X17218635Y-7889262D01*
X17211285Y-7886868D01*
X17204634Y-7883597D01*
X17198598Y-7879439D01*
X17193161Y-7873818D01*
X17188947Y-7867486D01*
X17185884Y-7860341D01*
X17183980Y-7852241D01*
X17183315Y-7843004D01*
X17183419Y-7841368D01*
X17195429Y-7841368D01*
X17195962Y-7849054D01*
X17197449Y-7855435D01*
X17199775Y-7860734D01*
X17202899Y-7865130D01*
X17206853Y-7868747D01*
X17212744Y-7872364D01*
X17219307Y-7874990D01*
X17226657Y-7876619D01*
X17234935Y-7877186D01*
X17243503Y-7876721D01*
X17250758Y-7875417D01*
X17256891Y-7873383D01*
X17262069Y-7870684D01*
X17266424Y-7867343D01*
X17271085Y-7862079D01*
X17274385Y-7856181D01*
X17276403Y-7849522D01*
X17277104Y-7841917D01*
X17276381Y-7834053D01*
X17274321Y-7827349D01*
X17270989Y-7821579D01*
X17266321Y-7816589D01*
X17260712Y-7812655D01*
X17254218Y-7809774D01*
X17246674Y-7807964D01*
X17237872Y-7807326D01*
X17229574Y-7807852D01*
X17221938Y-7809384D01*
X17214870Y-7811886D01*
X17208288Y-7815362D01*
X17203722Y-7818910D01*
X17200198Y-7823161D01*
X17197626Y-7828207D01*
X17196005Y-7834205D01*
X17195429Y-7841368D01*
X17183419Y-7841368D01*
X17183846Y-7834701D01*
X17185370Y-7827325D01*
X17187822Y-7820745D01*
X17191181Y-7814847D01*
X17195476Y-7809549D01*
X17200784Y-7804798D01*
X17206855Y-7800790D01*
X17213534Y-7797631D01*
X17220901Y-7795317D01*
X17229056Y-7793879D01*
X17238110Y-7793380D01*
X17248477Y-7794066D01*
G37*
G36*
X17183315Y-7751535D02*
G01*
X17184012Y-7760220D01*
X17185927Y-7767083D01*
X17188889Y-7772493D01*
X17192871Y-7776723D01*
X17197846Y-7780111D01*
X17203316Y-7782542D01*
X17209375Y-7784035D01*
X17216141Y-7784551D01*
X17216141Y-7771703D01*
X17209818Y-7770832D01*
X17205372Y-7769606D01*
X17202359Y-7768150D01*
X17199127Y-7765435D01*
X17196750Y-7761810D01*
X17195212Y-7757058D01*
X17194647Y-7750851D01*
X17195273Y-7744575D01*
X17197028Y-7739463D01*
X17199838Y-7735268D01*
X17203628Y-7732004D01*
X17208024Y-7730061D01*
X17213222Y-7729388D01*
X17218237Y-7729839D01*
X17222109Y-7731071D01*
X17225091Y-7732979D01*
X17227352Y-7735574D01*
X17229469Y-7739890D01*
X17230866Y-7745509D01*
X17231382Y-7752768D01*
X17231382Y-7755260D01*
X17231382Y-7757824D01*
X17242714Y-7757824D01*
X17242086Y-7754612D01*
X17241933Y-7751810D01*
X17242531Y-7745276D01*
X17244131Y-7740459D01*
X17246415Y-7737069D01*
X17249366Y-7734687D01*
X17253106Y-7733202D01*
X17257876Y-7732667D01*
X17262521Y-7733278D01*
X17266223Y-7735006D01*
X17269209Y-7737864D01*
X17271415Y-7741499D01*
X17272742Y-7745498D01*
X17273196Y-7749966D01*
X17272614Y-7756027D01*
X17271022Y-7760694D01*
X17268539Y-7764282D01*
X17265124Y-7766989D01*
X17262052Y-7768369D01*
X17257928Y-7769384D01*
X17252484Y-7769927D01*
X17252484Y-7782090D01*
X17259615Y-7781566D01*
X17265712Y-7780081D01*
X17270949Y-7777718D01*
X17275753Y-7774328D01*
X17279463Y-7770133D01*
X17282183Y-7765028D01*
X17283910Y-7758823D01*
X17284529Y-7751260D01*
X17284044Y-7743704D01*
X17282695Y-7737466D01*
X17280599Y-7732323D01*
X17277812Y-7728094D01*
X17274177Y-7724576D01*
X17269831Y-7722040D01*
X17264630Y-7720451D01*
X17258364Y-7719887D01*
X17252480Y-7720469D01*
X17247639Y-7722109D01*
X17243624Y-7724742D01*
X17240531Y-7728136D01*
X17238117Y-7732533D01*
X17236224Y-7727688D01*
X17233506Y-7723710D01*
X17229922Y-7720467D01*
X17225685Y-7718102D01*
X17220787Y-7716639D01*
X17215072Y-7716126D01*
X17208185Y-7716736D01*
X17202172Y-7718491D01*
X17196871Y-7721347D01*
X17192162Y-7725358D01*
X17188444Y-7730201D01*
X17185693Y-7736034D01*
X17183941Y-7743060D01*
X17183315Y-7751535D01*
G37*
G36*
X17458147Y-6933073D02*
G01*
X17467124Y-6935062D01*
X17474946Y-6938234D01*
X17481785Y-6942559D01*
X17487051Y-6947469D01*
X17491101Y-6953026D01*
X17494030Y-6959318D01*
X17495848Y-6966480D01*
X17496483Y-6974689D01*
X17496483Y-7015362D01*
X17396050Y-7015362D01*
X17396050Y-6977419D01*
X17408165Y-6977419D01*
X17408165Y-7001690D01*
X17484368Y-7001690D01*
X17484368Y-6977559D01*
X17483896Y-6970892D01*
X17482576Y-6965340D01*
X17480504Y-6960711D01*
X17477712Y-6956855D01*
X17474165Y-6953666D01*
X17468965Y-6950611D01*
X17462615Y-6948292D01*
X17454890Y-6946789D01*
X17445521Y-6946247D01*
X17440642Y-6946492D01*
X17435117Y-6947273D01*
X17428965Y-6948792D01*
X17423884Y-6950747D01*
X17419717Y-6953086D01*
X17415191Y-6956845D01*
X17411854Y-6961148D01*
X17409581Y-6966074D01*
X17408556Y-6970840D01*
X17408165Y-6977419D01*
X17396050Y-6977419D01*
X17396050Y-6974824D01*
X17396733Y-6966342D01*
X17398678Y-6959046D01*
X17401801Y-6952727D01*
X17406119Y-6947229D01*
X17411746Y-6942456D01*
X17418887Y-6938389D01*
X17427682Y-6935094D01*
X17437275Y-6933070D01*
X17447805Y-6932374D01*
X17458147Y-6933073D01*
G37*
G36*
X17496483Y-6911882D02*
G01*
X17496483Y-6898137D01*
X17396050Y-6898137D01*
X17396050Y-6911882D01*
X17496483Y-6911882D01*
G37*
G36*
X17458477Y-6784066D02*
G01*
X17467473Y-6786017D01*
X17475310Y-6789126D01*
X17482158Y-6793357D01*
X17487238Y-6797862D01*
X17491398Y-6803056D01*
X17494696Y-6809013D01*
X17497138Y-6815845D01*
X17498677Y-6823696D01*
X17499218Y-6832735D01*
X17498653Y-6841233D01*
X17497032Y-6848721D01*
X17494432Y-6855349D01*
X17490871Y-6861242D01*
X17486310Y-6866491D01*
X17480656Y-6871149D01*
X17473222Y-6875496D01*
X17465033Y-6878646D01*
X17455963Y-6880592D01*
X17445857Y-6881266D01*
X17436786Y-6880750D01*
X17428635Y-6879262D01*
X17421285Y-6876868D01*
X17414634Y-6873597D01*
X17408598Y-6869439D01*
X17403161Y-6863818D01*
X17398947Y-6857486D01*
X17395884Y-6850341D01*
X17393980Y-6842241D01*
X17393315Y-6833004D01*
X17393419Y-6831368D01*
X17405429Y-6831368D01*
X17405962Y-6839054D01*
X17407449Y-6845435D01*
X17409775Y-6850734D01*
X17412899Y-6855130D01*
X17416853Y-6858747D01*
X17422744Y-6862364D01*
X17429307Y-6864990D01*
X17436657Y-6866619D01*
X17444935Y-6867186D01*
X17453503Y-6866721D01*
X17460758Y-6865417D01*
X17466891Y-6863383D01*
X17472069Y-6860684D01*
X17476424Y-6857343D01*
X17481085Y-6852079D01*
X17484385Y-6846181D01*
X17486403Y-6839522D01*
X17487104Y-6831917D01*
X17486381Y-6824053D01*
X17484321Y-6817349D01*
X17480989Y-6811579D01*
X17476321Y-6806589D01*
X17470712Y-6802655D01*
X17464218Y-6799774D01*
X17456674Y-6797964D01*
X17447872Y-6797326D01*
X17439574Y-6797852D01*
X17431938Y-6799384D01*
X17424870Y-6801886D01*
X17418288Y-6805362D01*
X17413722Y-6808910D01*
X17410198Y-6813161D01*
X17407626Y-6818207D01*
X17406005Y-6824205D01*
X17405429Y-6831368D01*
X17393419Y-6831368D01*
X17393846Y-6824701D01*
X17395370Y-6817325D01*
X17397822Y-6810745D01*
X17401181Y-6804847D01*
X17405476Y-6799549D01*
X17410784Y-6794798D01*
X17416855Y-6790790D01*
X17423534Y-6787631D01*
X17430901Y-6785317D01*
X17439056Y-6783879D01*
X17448110Y-6783380D01*
X17458477Y-6784066D01*
G37*
G36*
X17435240Y-6706157D02*
G01*
X17441600Y-6707961D01*
X17446804Y-6710801D01*
X17451054Y-6714674D01*
X17454530Y-6719474D01*
X17456980Y-6724597D01*
X17458462Y-6730119D01*
X17458967Y-6736137D01*
X17458258Y-6743131D01*
X17456207Y-6749259D01*
X17453802Y-6753275D01*
X17450695Y-6756817D01*
X17446816Y-6759927D01*
X17455905Y-6759148D01*
X17463306Y-6757686D01*
X17469283Y-6755662D01*
X17474067Y-6753161D01*
X17478355Y-6749729D01*
X17481265Y-6745914D01*
X17482994Y-6741640D01*
X17483587Y-6736754D01*
X17483164Y-6732335D01*
X17481977Y-6728718D01*
X17480081Y-6725737D01*
X17477438Y-6723284D01*
X17473744Y-6721302D01*
X17468346Y-6719797D01*
X17468346Y-6707628D01*
X17474193Y-6708311D01*
X17480027Y-6710408D01*
X17485974Y-6714088D01*
X17489483Y-6717621D01*
X17492135Y-6722380D01*
X17493882Y-6728682D01*
X17494529Y-6736955D01*
X17493840Y-6744177D01*
X17491867Y-6750396D01*
X17488653Y-6755813D01*
X17484109Y-6760563D01*
X17478028Y-6764701D01*
X17470098Y-6768194D01*
X17461477Y-6770560D01*
X17451205Y-6772090D01*
X17439012Y-6772639D01*
X17428573Y-6772132D01*
X17420136Y-6770743D01*
X17413373Y-6768635D01*
X17408000Y-6765923D01*
X17403780Y-6762662D01*
X17399122Y-6757325D01*
X17395896Y-6751661D01*
X17393969Y-6745577D01*
X17393315Y-6738940D01*
X17393413Y-6737841D01*
X17404647Y-6737841D01*
X17405074Y-6742572D01*
X17406286Y-6746576D01*
X17408236Y-6749991D01*
X17410955Y-6752917D01*
X17415427Y-6755903D01*
X17420565Y-6757719D01*
X17426550Y-6758351D01*
X17431818Y-6757925D01*
X17436092Y-6756741D01*
X17439564Y-6754888D01*
X17442377Y-6752373D01*
X17445310Y-6748143D01*
X17447045Y-6743549D01*
X17447634Y-6738458D01*
X17447133Y-6732811D01*
X17445772Y-6728505D01*
X17443677Y-6725239D01*
X17440844Y-6722808D01*
X17436171Y-6720385D01*
X17431432Y-6718968D01*
X17426550Y-6718497D01*
X17420796Y-6719053D01*
X17415713Y-6720665D01*
X17411163Y-6723321D01*
X17408366Y-6725969D01*
X17406356Y-6729185D01*
X17405096Y-6733084D01*
X17404647Y-6737841D01*
X17393413Y-6737841D01*
X17394023Y-6731041D01*
X17396023Y-6724438D01*
X17399225Y-6718880D01*
X17403670Y-6714192D01*
X17409089Y-6710365D01*
X17414803Y-6707676D01*
X17420889Y-6706059D01*
X17427448Y-6705509D01*
X17435240Y-6706157D01*
G37*
G36*
X17478147Y-7943073D02*
G01*
X17487124Y-7945062D01*
X17494946Y-7948234D01*
X17501785Y-7952559D01*
X17507051Y-7957469D01*
X17511101Y-7963026D01*
X17514030Y-7969318D01*
X17515848Y-7976480D01*
X17516483Y-7984689D01*
X17516483Y-8025362D01*
X17416050Y-8025362D01*
X17416050Y-7987419D01*
X17428165Y-7987419D01*
X17428165Y-8011690D01*
X17504368Y-8011690D01*
X17504368Y-7987559D01*
X17503896Y-7980892D01*
X17502576Y-7975340D01*
X17500504Y-7970711D01*
X17497712Y-7966855D01*
X17494165Y-7963666D01*
X17488965Y-7960611D01*
X17482615Y-7958292D01*
X17474890Y-7956789D01*
X17465521Y-7956247D01*
X17460642Y-7956492D01*
X17455117Y-7957273D01*
X17448965Y-7958792D01*
X17443884Y-7960747D01*
X17439717Y-7963086D01*
X17435191Y-7966845D01*
X17431854Y-7971148D01*
X17429581Y-7976074D01*
X17428556Y-7980840D01*
X17428165Y-7987419D01*
X17416050Y-7987419D01*
X17416050Y-7984824D01*
X17416733Y-7976342D01*
X17418678Y-7969046D01*
X17421801Y-7962727D01*
X17426119Y-7957229D01*
X17431746Y-7952456D01*
X17438887Y-7948389D01*
X17447682Y-7945094D01*
X17457275Y-7943070D01*
X17467805Y-7942374D01*
X17478147Y-7943073D01*
G37*
G36*
X17516483Y-7921882D02*
G01*
X17516483Y-7908137D01*
X17416050Y-7908137D01*
X17416050Y-7921882D01*
X17516483Y-7921882D01*
G37*
G36*
X17478477Y-7794066D02*
G01*
X17487473Y-7796017D01*
X17495310Y-7799126D01*
X17502158Y-7803357D01*
X17507238Y-7807862D01*
X17511398Y-7813056D01*
X17514696Y-7819013D01*
X17517138Y-7825845D01*
X17518677Y-7833696D01*
X17519218Y-7842735D01*
X17518653Y-7851233D01*
X17517032Y-7858721D01*
X17514432Y-7865349D01*
X17510871Y-7871242D01*
X17506310Y-7876491D01*
X17500656Y-7881149D01*
X17493222Y-7885496D01*
X17485033Y-7888646D01*
X17475963Y-7890592D01*
X17465857Y-7891266D01*
X17456786Y-7890750D01*
X17448635Y-7889262D01*
X17441285Y-7886868D01*
X17434634Y-7883597D01*
X17428598Y-7879439D01*
X17423161Y-7873818D01*
X17418947Y-7867486D01*
X17415884Y-7860341D01*
X17413980Y-7852241D01*
X17413315Y-7843004D01*
X17413419Y-7841368D01*
X17425429Y-7841368D01*
X17425962Y-7849054D01*
X17427449Y-7855435D01*
X17429775Y-7860734D01*
X17432899Y-7865130D01*
X17436853Y-7868747D01*
X17442744Y-7872364D01*
X17449307Y-7874990D01*
X17456657Y-7876619D01*
X17464935Y-7877186D01*
X17473503Y-7876721D01*
X17480758Y-7875417D01*
X17486891Y-7873383D01*
X17492069Y-7870684D01*
X17496424Y-7867343D01*
X17501085Y-7862079D01*
X17504385Y-7856181D01*
X17506403Y-7849522D01*
X17507104Y-7841917D01*
X17506381Y-7834053D01*
X17504321Y-7827349D01*
X17500989Y-7821579D01*
X17496321Y-7816589D01*
X17490712Y-7812655D01*
X17484218Y-7809774D01*
X17476674Y-7807964D01*
X17467872Y-7807326D01*
X17459574Y-7807852D01*
X17451938Y-7809384D01*
X17444870Y-7811886D01*
X17438288Y-7815362D01*
X17433722Y-7818910D01*
X17430198Y-7823161D01*
X17427626Y-7828207D01*
X17426005Y-7834205D01*
X17425429Y-7841368D01*
X17413419Y-7841368D01*
X17413846Y-7834701D01*
X17415370Y-7827325D01*
X17417822Y-7820745D01*
X17421181Y-7814847D01*
X17425476Y-7809549D01*
X17430784Y-7804798D01*
X17436855Y-7800790D01*
X17443534Y-7797631D01*
X17450901Y-7795317D01*
X17459056Y-7793879D01*
X17468110Y-7793380D01*
X17478477Y-7794066D01*
G37*
G36*
X17416050Y-7783525D02*
G01*
X17424452Y-7782596D01*
X17431777Y-7780832D01*
X17438172Y-7778304D01*
X17442444Y-7775717D01*
X17446691Y-7772032D01*
X17450943Y-7767058D01*
X17455208Y-7760560D01*
X17462804Y-7747432D01*
X17467946Y-7739389D01*
X17471560Y-7735061D01*
X17475617Y-7731896D01*
X17479911Y-7730067D01*
X17484572Y-7729455D01*
X17490066Y-7730068D01*
X17494519Y-7731791D01*
X17498165Y-7734585D01*
X17500905Y-7738279D01*
X17502596Y-7742762D01*
X17503196Y-7748256D01*
X17502530Y-7754378D01*
X17500687Y-7759152D01*
X17497752Y-7762888D01*
X17493603Y-7765756D01*
X17490077Y-7767130D01*
X17485418Y-7768125D01*
X17479358Y-7768626D01*
X17479358Y-7781137D01*
X17487818Y-7780455D01*
X17494697Y-7778836D01*
X17500271Y-7776417D01*
X17505300Y-7772825D01*
X17509192Y-7768366D01*
X17512055Y-7762924D01*
X17513876Y-7756290D01*
X17514529Y-7748189D01*
X17513864Y-7739765D01*
X17512038Y-7733077D01*
X17509212Y-7727779D01*
X17505419Y-7723612D01*
X17500634Y-7720156D01*
X17495705Y-7717757D01*
X17490567Y-7716331D01*
X17485140Y-7715851D01*
X17479407Y-7716378D01*
X17474210Y-7717919D01*
X17469435Y-7720474D01*
X17465002Y-7724119D01*
X17460171Y-7730017D01*
X17453224Y-7741283D01*
X17448021Y-7750650D01*
X17444224Y-7756910D01*
X17440975Y-7761177D01*
X17436707Y-7765294D01*
X17432329Y-7768107D01*
X17427774Y-7769786D01*
X17427774Y-7716334D01*
X17416050Y-7716334D01*
X17416050Y-7783525D01*
G37*
G36*
X17678147Y-6933073D02*
G01*
X17687124Y-6935062D01*
X17694946Y-6938234D01*
X17701785Y-6942559D01*
X17707051Y-6947469D01*
X17711101Y-6953026D01*
X17714030Y-6959318D01*
X17715848Y-6966480D01*
X17716483Y-6974689D01*
X17716483Y-7015362D01*
X17616050Y-7015362D01*
X17616050Y-6977419D01*
X17628165Y-6977419D01*
X17628165Y-7001690D01*
X17704368Y-7001690D01*
X17704368Y-6977559D01*
X17703896Y-6970892D01*
X17702576Y-6965340D01*
X17700504Y-6960711D01*
X17697712Y-6956855D01*
X17694165Y-6953666D01*
X17688965Y-6950611D01*
X17682615Y-6948292D01*
X17674890Y-6946789D01*
X17665521Y-6946247D01*
X17660642Y-6946492D01*
X17655117Y-6947273D01*
X17648965Y-6948792D01*
X17643884Y-6950747D01*
X17639717Y-6953086D01*
X17635191Y-6956845D01*
X17631854Y-6961148D01*
X17629581Y-6966074D01*
X17628556Y-6970840D01*
X17628165Y-6977419D01*
X17616050Y-6977419D01*
X17616050Y-6974824D01*
X17616733Y-6966342D01*
X17618678Y-6959046D01*
X17621801Y-6952727D01*
X17626119Y-6947229D01*
X17631746Y-6942456D01*
X17638887Y-6938389D01*
X17647682Y-6935094D01*
X17657275Y-6933070D01*
X17667805Y-6932374D01*
X17678147Y-6933073D01*
G37*
G36*
X17716483Y-6911882D02*
G01*
X17716483Y-6898137D01*
X17616050Y-6898137D01*
X17616050Y-6911882D01*
X17716483Y-6911882D01*
G37*
G36*
X17678477Y-6784066D02*
G01*
X17687473Y-6786017D01*
X17695310Y-6789126D01*
X17702158Y-6793357D01*
X17707238Y-6797862D01*
X17711398Y-6803056D01*
X17714696Y-6809013D01*
X17717138Y-6815845D01*
X17718677Y-6823696D01*
X17719218Y-6832735D01*
X17718653Y-6841233D01*
X17717032Y-6848721D01*
X17714432Y-6855349D01*
X17710871Y-6861242D01*
X17706310Y-6866491D01*
X17700656Y-6871149D01*
X17693222Y-6875496D01*
X17685033Y-6878646D01*
X17675963Y-6880592D01*
X17665857Y-6881266D01*
X17656786Y-6880750D01*
X17648635Y-6879262D01*
X17641285Y-6876868D01*
X17634634Y-6873597D01*
X17628598Y-6869439D01*
X17623161Y-6863818D01*
X17618947Y-6857486D01*
X17615884Y-6850341D01*
X17613980Y-6842241D01*
X17613315Y-6833004D01*
X17613419Y-6831368D01*
X17625429Y-6831368D01*
X17625962Y-6839054D01*
X17627449Y-6845435D01*
X17629775Y-6850734D01*
X17632899Y-6855130D01*
X17636853Y-6858747D01*
X17642744Y-6862364D01*
X17649307Y-6864990D01*
X17656657Y-6866619D01*
X17664935Y-6867186D01*
X17673503Y-6866721D01*
X17680758Y-6865417D01*
X17686891Y-6863383D01*
X17692069Y-6860684D01*
X17696424Y-6857343D01*
X17701085Y-6852079D01*
X17704385Y-6846181D01*
X17706403Y-6839522D01*
X17707104Y-6831917D01*
X17706381Y-6824053D01*
X17704321Y-6817349D01*
X17700989Y-6811579D01*
X17696321Y-6806589D01*
X17690712Y-6802655D01*
X17684218Y-6799774D01*
X17676674Y-6797964D01*
X17667872Y-6797326D01*
X17659574Y-6797852D01*
X17651938Y-6799384D01*
X17644870Y-6801886D01*
X17638288Y-6805362D01*
X17633722Y-6808910D01*
X17630198Y-6813161D01*
X17627626Y-6818207D01*
X17626005Y-6824205D01*
X17625429Y-6831368D01*
X17613419Y-6831368D01*
X17613846Y-6824701D01*
X17615370Y-6817325D01*
X17617822Y-6810745D01*
X17621181Y-6804847D01*
X17625476Y-6799549D01*
X17630784Y-6794798D01*
X17636855Y-6790790D01*
X17643534Y-6787631D01*
X17650901Y-6785317D01*
X17659056Y-6783879D01*
X17668110Y-6783380D01*
X17678477Y-6784066D01*
G37*
G36*
X17640670Y-6760610D02*
G01*
X17635701Y-6759478D01*
X17631767Y-6757479D01*
X17628663Y-6754634D01*
X17626284Y-6750835D01*
X17624786Y-6746226D01*
X17624257Y-6740717D01*
X17624744Y-6735321D01*
X17626103Y-6730949D01*
X17628251Y-6727393D01*
X17631211Y-6724511D01*
X17636060Y-6721566D01*
X17641157Y-6719831D01*
X17646617Y-6719248D01*
X17651668Y-6719679D01*
X17655890Y-6720895D01*
X17659441Y-6722833D01*
X17662432Y-6725507D01*
X17665534Y-6729942D01*
X17667388Y-6734890D01*
X17668025Y-6740509D01*
X17667383Y-6746557D01*
X17665589Y-6751415D01*
X17662665Y-6755591D01*
X17658646Y-6759169D01*
X17659428Y-6769837D01*
X17712575Y-6762387D01*
X17712575Y-6711524D01*
X17700460Y-6711524D01*
X17700460Y-6753155D01*
X17673062Y-6757325D01*
X17675454Y-6753883D01*
X17677050Y-6750835D01*
X17678753Y-6745088D01*
X17679358Y-6738189D01*
X17678792Y-6731595D01*
X17677149Y-6725671D01*
X17674450Y-6720290D01*
X17670638Y-6715358D01*
X17665977Y-6711254D01*
X17660817Y-6708361D01*
X17655053Y-6706600D01*
X17648534Y-6705992D01*
X17641700Y-6706539D01*
X17635388Y-6708147D01*
X17629499Y-6710806D01*
X17623951Y-6714571D01*
X17620297Y-6718195D01*
X17617388Y-6722594D01*
X17615211Y-6727895D01*
X17613815Y-6734273D01*
X17613315Y-6741944D01*
X17613747Y-6747842D01*
X17615015Y-6753285D01*
X17617101Y-6758352D01*
X17620031Y-6763108D01*
X17623723Y-6767095D01*
X17628276Y-6770133D01*
X17633848Y-6772255D01*
X17640670Y-6773390D01*
X17640670Y-6760610D01*
G37*
G36*
X17688147Y-7943073D02*
G01*
X17697124Y-7945062D01*
X17704946Y-7948234D01*
X17711785Y-7952559D01*
X17717051Y-7957469D01*
X17721101Y-7963026D01*
X17724030Y-7969318D01*
X17725848Y-7976480D01*
X17726483Y-7984689D01*
X17726483Y-8025362D01*
X17626050Y-8025362D01*
X17626050Y-7987419D01*
X17638165Y-7987419D01*
X17638165Y-8011690D01*
X17714368Y-8011690D01*
X17714368Y-7987559D01*
X17713896Y-7980892D01*
X17712576Y-7975340D01*
X17710504Y-7970711D01*
X17707712Y-7966855D01*
X17704165Y-7963666D01*
X17698965Y-7960611D01*
X17692615Y-7958292D01*
X17684890Y-7956789D01*
X17675521Y-7956247D01*
X17670642Y-7956492D01*
X17665117Y-7957273D01*
X17658965Y-7958792D01*
X17653884Y-7960747D01*
X17649717Y-7963086D01*
X17645191Y-7966845D01*
X17641854Y-7971148D01*
X17639581Y-7976074D01*
X17638556Y-7980840D01*
X17638165Y-7987419D01*
X17626050Y-7987419D01*
X17626050Y-7984824D01*
X17626733Y-7976342D01*
X17628678Y-7969046D01*
X17631801Y-7962727D01*
X17636119Y-7957229D01*
X17641746Y-7952456D01*
X17648887Y-7948389D01*
X17657682Y-7945094D01*
X17667275Y-7943070D01*
X17677805Y-7942374D01*
X17688147Y-7943073D01*
G37*
G36*
X17726483Y-7921882D02*
G01*
X17726483Y-7908137D01*
X17626050Y-7908137D01*
X17626050Y-7921882D01*
X17726483Y-7921882D01*
G37*
G36*
X17688477Y-7794066D02*
G01*
X17697473Y-7796017D01*
X17705310Y-7799126D01*
X17712158Y-7803357D01*
X17717238Y-7807862D01*
X17721398Y-7813056D01*
X17724696Y-7819013D01*
X17727138Y-7825845D01*
X17728677Y-7833696D01*
X17729218Y-7842735D01*
X17728653Y-7851233D01*
X17727032Y-7858721D01*
X17724432Y-7865349D01*
X17720871Y-7871242D01*
X17716310Y-7876491D01*
X17710656Y-7881149D01*
X17703222Y-7885496D01*
X17695033Y-7888646D01*
X17685963Y-7890592D01*
X17675857Y-7891266D01*
X17666786Y-7890750D01*
X17658635Y-7889262D01*
X17651285Y-7886868D01*
X17644634Y-7883597D01*
X17638598Y-7879439D01*
X17633161Y-7873818D01*
X17628947Y-7867486D01*
X17625884Y-7860341D01*
X17623980Y-7852241D01*
X17623315Y-7843004D01*
X17623419Y-7841368D01*
X17635429Y-7841368D01*
X17635962Y-7849054D01*
X17637449Y-7855435D01*
X17639775Y-7860734D01*
X17642899Y-7865130D01*
X17646853Y-7868747D01*
X17652744Y-7872364D01*
X17659307Y-7874990D01*
X17666657Y-7876619D01*
X17674935Y-7877186D01*
X17683503Y-7876721D01*
X17690758Y-7875417D01*
X17696891Y-7873383D01*
X17702069Y-7870684D01*
X17706424Y-7867343D01*
X17711085Y-7862079D01*
X17714385Y-7856181D01*
X17716403Y-7849522D01*
X17717104Y-7841917D01*
X17716381Y-7834053D01*
X17714321Y-7827349D01*
X17710989Y-7821579D01*
X17706321Y-7816589D01*
X17700712Y-7812655D01*
X17694218Y-7809774D01*
X17686674Y-7807964D01*
X17677872Y-7807326D01*
X17669574Y-7807852D01*
X17661938Y-7809384D01*
X17654870Y-7811886D01*
X17648288Y-7815362D01*
X17643722Y-7818910D01*
X17640198Y-7823161D01*
X17637626Y-7828207D01*
X17636005Y-7834205D01*
X17635429Y-7841368D01*
X17623419Y-7841368D01*
X17623846Y-7834701D01*
X17625370Y-7827325D01*
X17627822Y-7820745D01*
X17631181Y-7814847D01*
X17635476Y-7809549D01*
X17640784Y-7804798D01*
X17646855Y-7800790D01*
X17653534Y-7797631D01*
X17660901Y-7795317D01*
X17669056Y-7793879D01*
X17678110Y-7793380D01*
X17688477Y-7794066D01*
G37*
G36*
X17695220Y-7774506D02*
G01*
X17704599Y-7774506D01*
X17705839Y-7765544D01*
X17707336Y-7759613D01*
X17708946Y-7755913D01*
X17711482Y-7753025D01*
X17716007Y-7750369D01*
X17723356Y-7748048D01*
X17723356Y-7738340D01*
X17626050Y-7738340D01*
X17626050Y-7751468D01*
X17695220Y-7751468D01*
X17695220Y-7774506D01*
G37*
%TO.C,J1*%
D11*
X19454710Y-7574370D02*
G75*
G02*
X19378510Y-7574370I-38100J0D01*
G01*
X19378510Y-7574370D02*
G75*
G02*
X19454710Y-7574370I38100J0D01*
G01*
%TD*%
M02*
