%TF.GenerationSoftware,KiCad,Pcbnew,10.0.0*%
%TF.CreationDate,2026-03-28T09:19:36-05:00*%
%TF.ProjectId,LINC,4c494e43-2e6b-4696-9361-645f70636258,rev?*%
%TF.SameCoordinates,Original*%
%TF.FileFunction,Paste,Top*%
%TF.FilePolarity,Positive*%
%FSLAX45Y45*%
G04 Gerber Fmt 4.5, Leading zero omitted, Abs format (unit mm)*
G04 Created by KiCad (PCBNEW 10.0.0) date 2026-03-28 09:19:36*
%MOMM*%
%LPD*%
G01*
G04 APERTURE LIST*
G04 Aperture macros list*
%AMRoundRect*
0 Rectangle with rounded corners*
0 $1 Rounding radius*
0 $2 $3 $4 $5 $6 $7 $8 $9 X,Y pos of 4 corners*
0 Add a 4 corners polygon primitive as box body*
4,1,4,$2,$3,$4,$5,$6,$7,$8,$9,$2,$3,0*
0 Add four circle primitives for the rounded corners*
1,1,$1+$1,$2,$3*
1,1,$1+$1,$4,$5*
1,1,$1+$1,$6,$7*
1,1,$1+$1,$8,$9*
0 Add four rect primitives between the rounded corners*
20,1,$1+$1,$2,$3,$4,$5,0*
20,1,$1+$1,$4,$5,$6,$7,0*
20,1,$1+$1,$6,$7,$8,$9,0*
20,1,$1+$1,$8,$9,$2,$3,0*%
G04 Aperture macros list end*
%ADD10C,0.075000*%
%ADD11C,0.000000*%
%ADD12RoundRect,0.225000X0.250000X-0.225000X0.250000X0.225000X-0.250000X0.225000X-0.250000X-0.225000X0*%
%ADD13RoundRect,0.075000X0.700000X0.075000X-0.700000X0.075000X-0.700000X-0.075000X0.700000X-0.075000X0*%
%ADD14RoundRect,0.075000X0.075000X0.700000X-0.075000X0.700000X-0.075000X-0.700000X0.075000X-0.700000X0*%
%ADD15RoundRect,0.225000X-0.250000X0.225000X-0.250000X-0.225000X0.250000X-0.225000X0.250000X0.225000X0*%
%ADD16RoundRect,0.100000X-0.637500X-0.100000X0.637500X-0.100000X0.637500X0.100000X-0.637500X0.100000X0*%
%ADD17RoundRect,0.225000X0.225000X0.250000X-0.225000X0.250000X-0.225000X-0.250000X0.225000X-0.250000X0*%
%ADD18RoundRect,0.150000X-0.150000X0.825000X-0.150000X-0.825000X0.150000X-0.825000X0.150000X0.825000X0*%
%ADD19RoundRect,0.218750X-0.256250X0.218750X-0.256250X-0.218750X0.256250X-0.218750X0.256250X0.218750X0*%
%ADD20RoundRect,0.055000X-0.245000X-0.055000X0.245000X-0.055000X0.245000X0.055000X-0.245000X0.055000X0*%
%ADD21RoundRect,0.200000X0.200000X-0.250000X0.200000X0.250000X-0.200000X0.250000X-0.200000X-0.250000X0*%
%ADD22RoundRect,0.225000X-0.225000X-0.250000X0.225000X-0.250000X0.225000X0.250000X-0.225000X0.250000X0*%
%ADD23RoundRect,0.200000X0.275000X-0.200000X0.275000X0.200000X-0.275000X0.200000X-0.275000X-0.200000X0*%
%ADD24RoundRect,0.150000X-0.150000X0.512500X-0.150000X-0.512500X0.150000X-0.512500X0.150000X0.512500X0*%
%ADD25RoundRect,0.200000X-0.275000X0.200000X-0.275000X-0.200000X0.275000X-0.200000X0.275000X0.200000X0*%
%ADD26RoundRect,0.087500X0.087500X-0.425000X0.087500X0.425000X-0.087500X0.425000X-0.087500X-0.425000X0*%
%ADD27RoundRect,0.200000X-0.200000X-0.275000X0.200000X-0.275000X0.200000X0.275000X-0.200000X0.275000X0*%
%ADD28R,0.300000X0.800000*%
%ADD29R,1.800000X1.000000*%
%ADD30RoundRect,0.250000X-0.400000X0.525000X-0.400000X-0.525000X0.400000X-0.525000X0.400000X0.525000X0*%
%ADD31R,0.736600X2.794000*%
G04 APERTURE END LIST*
D10*
X18141749Y-12284020D02*
X18117939Y-12284020D01*
X18117939Y-12284020D02*
X18115558Y-12307830D01*
X18115558Y-12307830D02*
X18117939Y-12305449D01*
X18117939Y-12305449D02*
X18122701Y-12303068D01*
X18122701Y-12303068D02*
X18134606Y-12303068D01*
X18134606Y-12303068D02*
X18139368Y-12305449D01*
X18139368Y-12305449D02*
X18141749Y-12307830D01*
X18141749Y-12307830D02*
X18144130Y-12312592D01*
X18144130Y-12312592D02*
X18144130Y-12324497D01*
X18144130Y-12324497D02*
X18141749Y-12329259D01*
X18141749Y-12329259D02*
X18139368Y-12331640D01*
X18139368Y-12331640D02*
X18134606Y-12334020D01*
X18134606Y-12334020D02*
X18122701Y-12334020D01*
X18122701Y-12334020D02*
X18117939Y-12331640D01*
X18117939Y-12331640D02*
X18115558Y-12329259D01*
X18158415Y-12284020D02*
X18175082Y-12334020D01*
X18175082Y-12334020D02*
X18191749Y-12284020D01*
X18257177Y-12284020D02*
X18288130Y-12284020D01*
X18288130Y-12284020D02*
X18271463Y-12303068D01*
X18271463Y-12303068D02*
X18278606Y-12303068D01*
X18278606Y-12303068D02*
X18283368Y-12305449D01*
X18283368Y-12305449D02*
X18285749Y-12307830D01*
X18285749Y-12307830D02*
X18288130Y-12312592D01*
X18288130Y-12312592D02*
X18288130Y-12324497D01*
X18288130Y-12324497D02*
X18285749Y-12329259D01*
X18285749Y-12329259D02*
X18283368Y-12331640D01*
X18283368Y-12331640D02*
X18278606Y-12334020D01*
X18278606Y-12334020D02*
X18264320Y-12334020D01*
X18264320Y-12334020D02*
X18259558Y-12331640D01*
X18259558Y-12331640D02*
X18257177Y-12329259D01*
X18302415Y-12284020D02*
X18319082Y-12334020D01*
X18319082Y-12334020D02*
X18335749Y-12284020D01*
X18347653Y-12284020D02*
X18378606Y-12284020D01*
X18378606Y-12284020D02*
X18361939Y-12303068D01*
X18361939Y-12303068D02*
X18369082Y-12303068D01*
X18369082Y-12303068D02*
X18373844Y-12305449D01*
X18373844Y-12305449D02*
X18376225Y-12307830D01*
X18376225Y-12307830D02*
X18378606Y-12312592D01*
X18378606Y-12312592D02*
X18378606Y-12324497D01*
X18378606Y-12324497D02*
X18376225Y-12329259D01*
X18376225Y-12329259D02*
X18373844Y-12331640D01*
X18373844Y-12331640D02*
X18369082Y-12334020D01*
X18369082Y-12334020D02*
X18354796Y-12334020D01*
X18354796Y-12334020D02*
X18350034Y-12331640D01*
X18350034Y-12331640D02*
X18347653Y-12329259D01*
D11*
%TO.C,U9*%
G36*
X18603318Y-11220408D02*
G01*
X18604782Y-11221872D01*
X18606550Y-11226140D01*
X18606550Y-11264140D01*
X18604782Y-11268408D01*
X18603318Y-11269872D01*
X18599050Y-11271640D01*
X18592050Y-11271640D01*
X18587782Y-11269872D01*
X18586318Y-11268408D01*
X18584550Y-11264140D01*
X18584550Y-11226140D01*
X18586318Y-11221872D01*
X18587782Y-11220408D01*
X18592050Y-11218640D01*
X18599050Y-11218640D01*
X18603318Y-11220408D01*
G37*
G36*
X18603318Y-11553408D02*
G01*
X18604782Y-11554872D01*
X18606550Y-11559140D01*
X18606550Y-11597140D01*
X18604782Y-11601408D01*
X18603318Y-11602872D01*
X18599050Y-11604640D01*
X18592050Y-11604640D01*
X18587782Y-11602872D01*
X18586318Y-11601408D01*
X18584550Y-11597140D01*
X18584550Y-11559140D01*
X18586318Y-11554872D01*
X18587782Y-11553408D01*
X18592050Y-11551640D01*
X18599050Y-11551640D01*
X18603318Y-11553408D01*
G37*
G36*
X18653318Y-11220408D02*
G01*
X18654782Y-11221872D01*
X18656550Y-11226140D01*
X18656550Y-11264140D01*
X18654782Y-11268408D01*
X18653318Y-11269872D01*
X18649050Y-11271640D01*
X18642050Y-11271640D01*
X18637782Y-11269872D01*
X18636318Y-11268408D01*
X18634550Y-11264140D01*
X18634550Y-11226140D01*
X18636318Y-11221872D01*
X18637782Y-11220408D01*
X18642050Y-11218640D01*
X18649050Y-11218640D01*
X18653318Y-11220408D01*
G37*
G36*
X18653318Y-11553408D02*
G01*
X18654782Y-11554872D01*
X18656550Y-11559140D01*
X18656550Y-11597140D01*
X18654782Y-11601408D01*
X18653318Y-11602872D01*
X18649050Y-11604640D01*
X18642050Y-11604640D01*
X18637782Y-11602872D01*
X18636318Y-11601408D01*
X18634550Y-11597140D01*
X18634550Y-11559140D01*
X18636318Y-11554872D01*
X18637782Y-11553408D01*
X18642050Y-11551640D01*
X18649050Y-11551640D01*
X18653318Y-11553408D01*
G37*
G36*
X18676318Y-11295908D02*
G01*
X18677782Y-11297372D01*
X18679550Y-11301640D01*
X18679550Y-11318640D01*
X18677782Y-11322908D01*
X18676318Y-11324372D01*
X18672050Y-11326140D01*
X18659050Y-11326140D01*
X18654248Y-11327115D01*
X18650374Y-11328757D01*
X18646333Y-11331528D01*
X18619267Y-11358451D01*
X18616590Y-11362565D01*
X18614988Y-11366522D01*
X18614050Y-11371340D01*
X18614050Y-11372640D01*
X18612282Y-11376908D01*
X18610818Y-11378372D01*
X18606550Y-11380140D01*
X18581550Y-11380140D01*
X18577282Y-11378372D01*
X18575818Y-11376908D01*
X18574050Y-11372640D01*
X18574050Y-11301640D01*
X18575818Y-11297372D01*
X18577282Y-11295908D01*
X18581550Y-11294140D01*
X18672050Y-11294140D01*
X18676318Y-11295908D01*
G37*
G36*
X18610818Y-11444908D02*
G01*
X18612282Y-11446372D01*
X18614050Y-11450640D01*
X18614050Y-11451940D01*
X18614988Y-11456757D01*
X18616590Y-11460715D01*
X18619267Y-11464828D01*
X18646333Y-11491751D01*
X18650374Y-11494523D01*
X18654248Y-11496164D01*
X18659050Y-11497140D01*
X18672050Y-11497140D01*
X18676318Y-11498908D01*
X18677782Y-11500372D01*
X18679550Y-11504640D01*
X18679550Y-11521640D01*
X18677782Y-11525908D01*
X18676318Y-11527372D01*
X18672050Y-11529140D01*
X18581550Y-11529140D01*
X18577282Y-11527372D01*
X18575818Y-11525908D01*
X18574050Y-11521640D01*
X18574050Y-11450640D01*
X18575818Y-11446372D01*
X18577282Y-11444908D01*
X18581550Y-11443140D01*
X18606550Y-11443140D01*
X18610818Y-11444908D01*
G37*
G36*
X18361818Y-11220408D02*
G01*
X18363282Y-11221872D01*
X18365050Y-11226140D01*
X18365050Y-11279140D01*
X18366818Y-11283408D01*
X18368282Y-11284872D01*
X18372550Y-11286640D01*
X18385550Y-11286640D01*
X18389818Y-11284872D01*
X18391282Y-11283408D01*
X18393050Y-11279140D01*
X18393050Y-11226140D01*
X18394818Y-11221872D01*
X18396282Y-11220408D01*
X18400550Y-11218640D01*
X18407550Y-11218640D01*
X18411818Y-11220408D01*
X18413282Y-11221872D01*
X18415050Y-11226140D01*
X18415050Y-11279140D01*
X18416818Y-11283408D01*
X18418282Y-11284872D01*
X18422550Y-11286640D01*
X18435550Y-11286640D01*
X18439818Y-11284872D01*
X18441282Y-11283408D01*
X18443050Y-11279140D01*
X18443050Y-11226140D01*
X18444818Y-11221872D01*
X18446282Y-11220408D01*
X18450550Y-11218640D01*
X18457550Y-11218640D01*
X18461818Y-11220408D01*
X18463282Y-11221872D01*
X18465050Y-11226140D01*
X18465050Y-11279140D01*
X18466818Y-11283408D01*
X18468282Y-11284872D01*
X18472550Y-11286640D01*
X18485550Y-11286640D01*
X18489818Y-11284872D01*
X18491282Y-11283408D01*
X18493050Y-11279140D01*
X18493050Y-11226140D01*
X18494818Y-11221872D01*
X18496282Y-11220408D01*
X18500550Y-11218640D01*
X18507550Y-11218640D01*
X18511818Y-11220408D01*
X18513282Y-11221872D01*
X18515050Y-11226140D01*
X18515050Y-11264140D01*
X18516818Y-11268408D01*
X18518282Y-11269872D01*
X18522550Y-11271640D01*
X18525550Y-11271640D01*
X18529818Y-11273408D01*
X18531282Y-11274872D01*
X18533050Y-11279140D01*
X18533050Y-11358140D01*
X18531282Y-11362408D01*
X18529818Y-11363872D01*
X18525550Y-11365640D01*
X18496550Y-11365640D01*
X18492282Y-11363872D01*
X18490818Y-11362408D01*
X18489050Y-11358140D01*
X18489050Y-11326140D01*
X18487282Y-11321872D01*
X18485818Y-11320408D01*
X18481550Y-11318640D01*
X18474550Y-11318640D01*
X18470282Y-11320408D01*
X18468818Y-11321872D01*
X18467050Y-11326140D01*
X18467050Y-11358140D01*
X18465282Y-11362408D01*
X18463818Y-11363872D01*
X18459550Y-11365640D01*
X18448550Y-11365640D01*
X18444282Y-11363872D01*
X18442818Y-11362408D01*
X18441050Y-11358140D01*
X18441050Y-11326140D01*
X18439282Y-11321872D01*
X18437818Y-11320408D01*
X18433550Y-11318640D01*
X18426550Y-11318640D01*
X18422282Y-11320408D01*
X18420818Y-11321872D01*
X18419050Y-11326140D01*
X18419050Y-11358140D01*
X18417282Y-11362408D01*
X18415818Y-11363872D01*
X18411550Y-11365640D01*
X18398550Y-11365640D01*
X18394282Y-11363872D01*
X18392818Y-11362408D01*
X18391050Y-11358140D01*
X18391050Y-11326140D01*
X18389282Y-11321872D01*
X18387818Y-11320408D01*
X18383550Y-11318640D01*
X18376550Y-11318640D01*
X18372282Y-11320408D01*
X18370818Y-11321872D01*
X18369050Y-11326140D01*
X18369050Y-11358140D01*
X18367282Y-11362408D01*
X18365818Y-11363872D01*
X18361550Y-11365640D01*
X18332550Y-11365640D01*
X18328282Y-11363872D01*
X18326818Y-11362408D01*
X18325050Y-11358140D01*
X18325050Y-11279140D01*
X18326818Y-11274872D01*
X18328282Y-11273408D01*
X18332550Y-11271640D01*
X18335550Y-11271640D01*
X18339818Y-11269872D01*
X18341282Y-11268408D01*
X18343050Y-11264140D01*
X18343050Y-11226140D01*
X18344818Y-11221872D01*
X18346282Y-11220408D01*
X18350550Y-11218640D01*
X18357550Y-11218640D01*
X18361818Y-11220408D01*
G37*
G36*
X18365818Y-11464408D02*
G01*
X18367282Y-11465872D01*
X18369050Y-11470140D01*
X18369050Y-11502140D01*
X18370818Y-11506408D01*
X18372282Y-11507872D01*
X18376550Y-11509640D01*
X18383550Y-11509640D01*
X18387818Y-11507872D01*
X18389282Y-11506408D01*
X18391050Y-11502140D01*
X18391050Y-11470140D01*
X18392818Y-11465872D01*
X18394282Y-11464408D01*
X18398550Y-11462640D01*
X18411550Y-11462640D01*
X18415818Y-11464408D01*
X18417282Y-11465872D01*
X18419050Y-11470140D01*
X18419050Y-11502140D01*
X18420818Y-11506408D01*
X18422282Y-11507872D01*
X18426550Y-11509640D01*
X18433550Y-11509640D01*
X18437818Y-11507872D01*
X18439282Y-11506408D01*
X18441050Y-11502140D01*
X18441050Y-11470140D01*
X18442818Y-11465872D01*
X18444282Y-11464408D01*
X18448550Y-11462640D01*
X18459550Y-11462640D01*
X18463818Y-11464408D01*
X18465282Y-11465872D01*
X18467050Y-11470140D01*
X18467050Y-11502140D01*
X18468818Y-11506408D01*
X18470282Y-11507872D01*
X18474550Y-11509640D01*
X18481550Y-11509640D01*
X18485818Y-11507872D01*
X18487282Y-11506408D01*
X18489050Y-11502140D01*
X18489050Y-11470140D01*
X18490818Y-11465872D01*
X18492282Y-11464408D01*
X18496550Y-11462640D01*
X18525550Y-11462640D01*
X18529818Y-11464408D01*
X18531282Y-11465872D01*
X18533050Y-11470140D01*
X18533050Y-11549140D01*
X18531282Y-11553408D01*
X18529818Y-11554872D01*
X18525550Y-11556640D01*
X18522550Y-11556640D01*
X18518282Y-11558408D01*
X18516818Y-11559872D01*
X18515050Y-11564140D01*
X18515050Y-11602140D01*
X18513282Y-11606408D01*
X18511818Y-11607872D01*
X18507550Y-11609640D01*
X18500550Y-11609640D01*
X18496282Y-11607872D01*
X18494818Y-11606408D01*
X18493050Y-11602140D01*
X18493050Y-11549140D01*
X18491282Y-11544872D01*
X18489818Y-11543408D01*
X18485550Y-11541640D01*
X18472550Y-11541640D01*
X18468282Y-11543408D01*
X18466818Y-11544872D01*
X18465050Y-11549140D01*
X18465050Y-11602140D01*
X18463282Y-11606408D01*
X18461818Y-11607872D01*
X18457550Y-11609640D01*
X18450550Y-11609640D01*
X18446282Y-11607872D01*
X18444818Y-11606408D01*
X18443050Y-11602140D01*
X18443050Y-11549140D01*
X18441282Y-11544872D01*
X18439818Y-11543408D01*
X18435550Y-11541640D01*
X18422550Y-11541640D01*
X18418282Y-11543408D01*
X18416818Y-11544872D01*
X18415050Y-11549140D01*
X18415050Y-11602140D01*
X18413282Y-11606408D01*
X18411818Y-11607872D01*
X18407550Y-11609640D01*
X18400550Y-11609640D01*
X18396282Y-11607872D01*
X18394818Y-11606408D01*
X18393050Y-11602140D01*
X18393050Y-11549140D01*
X18391282Y-11544872D01*
X18389818Y-11543408D01*
X18385550Y-11541640D01*
X18372550Y-11541640D01*
X18368282Y-11543408D01*
X18366818Y-11544872D01*
X18365050Y-11549140D01*
X18365050Y-11602140D01*
X18363282Y-11606408D01*
X18361818Y-11607872D01*
X18357550Y-11609640D01*
X18350550Y-11609640D01*
X18346282Y-11607872D01*
X18344818Y-11606408D01*
X18343050Y-11602140D01*
X18343050Y-11564140D01*
X18341282Y-11559872D01*
X18339818Y-11558408D01*
X18335550Y-11556640D01*
X18332550Y-11556640D01*
X18328282Y-11554872D01*
X18326818Y-11553408D01*
X18325050Y-11549140D01*
X18325050Y-11470140D01*
X18326818Y-11465872D01*
X18328282Y-11464408D01*
X18332550Y-11462640D01*
X18361550Y-11462640D01*
X18365818Y-11464408D01*
G37*
%TD*%
D12*
%TO.C,C15*%
X19070000Y-11513500D03*
X19070000Y-11358500D03*
%TD*%
D13*
%TO.C,U3*%
X16766550Y-10141640D03*
X16766550Y-10091640D03*
X16766550Y-10041640D03*
X16766550Y-9991640D03*
X16766550Y-9941640D03*
X16766550Y-9891640D03*
X16766550Y-9841640D03*
X16766550Y-9791640D03*
X16766550Y-9741640D03*
X16766550Y-9691640D03*
X16766550Y-9641640D03*
X16766550Y-9591640D03*
X16766550Y-9541640D03*
X16766550Y-9491640D03*
X16766550Y-9441640D03*
X16766550Y-9391640D03*
D14*
X16574050Y-9199140D03*
X16524050Y-9199140D03*
X16474050Y-9199140D03*
X16424050Y-9199140D03*
X16374050Y-9199140D03*
X16324050Y-9199140D03*
X16274050Y-9199140D03*
X16224050Y-9199140D03*
X16174050Y-9199140D03*
X16124050Y-9199140D03*
X16074050Y-9199140D03*
X16024050Y-9199140D03*
X15974050Y-9199140D03*
X15924050Y-9199140D03*
X15874050Y-9199140D03*
X15824050Y-9199140D03*
D13*
X15631550Y-9391640D03*
X15631550Y-9441640D03*
X15631550Y-9491640D03*
X15631550Y-9541640D03*
X15631550Y-9591640D03*
X15631550Y-9641640D03*
X15631550Y-9691640D03*
X15631550Y-9741640D03*
X15631550Y-9791640D03*
X15631550Y-9841640D03*
X15631550Y-9891640D03*
X15631550Y-9941640D03*
X15631550Y-9991640D03*
X15631550Y-10041640D03*
X15631550Y-10091640D03*
X15631550Y-10141640D03*
D14*
X15824050Y-10334140D03*
X15874050Y-10334140D03*
X15924050Y-10334140D03*
X15974050Y-10334140D03*
X16024050Y-10334140D03*
X16074050Y-10334140D03*
X16124050Y-10334140D03*
X16174050Y-10334140D03*
X16224050Y-10334140D03*
X16274050Y-10334140D03*
X16324050Y-10334140D03*
X16374050Y-10334140D03*
X16424050Y-10334140D03*
X16474050Y-10334140D03*
X16524050Y-10334140D03*
X16574050Y-10334140D03*
%TD*%
D15*
%TO.C,C1*%
X16544050Y-10514140D03*
X16544050Y-10669140D03*
%TD*%
D16*
%TO.C,U1*%
X17105060Y-8115870D03*
X17105060Y-8180870D03*
X17105060Y-8245870D03*
X17105060Y-8310870D03*
X17105060Y-8375870D03*
X17105060Y-8440870D03*
X17105060Y-8505870D03*
X17105060Y-8570870D03*
X17105060Y-8635870D03*
X17105060Y-8700870D03*
X17105060Y-8765870D03*
X17105060Y-8830870D03*
X17677560Y-8830870D03*
X17677560Y-8765870D03*
X17677560Y-8700870D03*
X17677560Y-8635870D03*
X17677560Y-8570870D03*
X17677560Y-8505870D03*
X17677560Y-8440870D03*
X17677560Y-8375870D03*
X17677560Y-8310870D03*
X17677560Y-8245870D03*
X17677560Y-8180870D03*
X17677560Y-8115870D03*
%TD*%
D17*
%TO.C,C12*%
X18395050Y-11104640D03*
X18240050Y-11104640D03*
%TD*%
D18*
%TO.C,U5*%
X14539550Y-11019140D03*
X14412550Y-11019140D03*
X14285550Y-11019140D03*
X14158550Y-11019140D03*
X14158550Y-11514140D03*
X14285550Y-11514140D03*
X14412550Y-11514140D03*
X14539550Y-11514140D03*
%TD*%
D19*
%TO.C,D2*%
X18317100Y-12039780D03*
X18317100Y-12197280D03*
%TD*%
D17*
%TO.C,C7*%
X17517550Y-10069640D03*
X17362550Y-10069640D03*
%TD*%
D20*
%TO.C,U9*%
X18685550Y-11461640D03*
X18685550Y-11411640D03*
X18685550Y-11361640D03*
%TD*%
D21*
%TO.C,Y2*%
X17221050Y-9876640D03*
X17221050Y-9736640D03*
X17111050Y-9736640D03*
X17111050Y-9876640D03*
%TD*%
D16*
%TO.C,U2*%
X15806800Y-8108890D03*
X15806800Y-8173890D03*
X15806800Y-8238890D03*
X15806800Y-8303890D03*
X15806800Y-8368890D03*
X15806800Y-8433890D03*
X15806800Y-8498890D03*
X16379300Y-8498890D03*
X16379300Y-8433890D03*
X16379300Y-8368890D03*
X16379300Y-8303890D03*
X16379300Y-8238890D03*
X16379300Y-8173890D03*
X16379300Y-8108890D03*
%TD*%
D22*
%TO.C,C11*%
X18540050Y-11104640D03*
X18695050Y-11104640D03*
%TD*%
D23*
%TO.C,R4*%
X18150150Y-11893669D03*
X18150150Y-11728669D03*
%TD*%
D24*
%TO.C,U8*%
X17576050Y-11312140D03*
X17481050Y-11312140D03*
X17386050Y-11312140D03*
X17386050Y-11539640D03*
X17481050Y-11539640D03*
X17576050Y-11539640D03*
%TD*%
D25*
%TO.C,R3*%
X18919050Y-11544140D03*
X18919050Y-11709140D03*
%TD*%
D12*
%TO.C,C16*%
X15880050Y-9021140D03*
X15880050Y-8866140D03*
%TD*%
D19*
%TO.C,D1*%
X18150100Y-12039780D03*
X18150100Y-12197280D03*
%TD*%
D26*
%TO.C,U6*%
X16743050Y-8285140D03*
X16808050Y-8285140D03*
X16873050Y-8285140D03*
X16873050Y-8117640D03*
X16743050Y-8117640D03*
%TD*%
D22*
%TO.C,C14*%
X18539550Y-11717640D03*
X18694550Y-11717640D03*
%TD*%
D25*
%TO.C,R7*%
X16866050Y-11739640D03*
X16866050Y-11904640D03*
%TD*%
D27*
%TO.C,R1*%
X16084050Y-10816640D03*
X16249050Y-10816640D03*
%TD*%
D28*
%TO.C,R8*%
X14647000Y-7949000D03*
X14597000Y-7949000D03*
X14547000Y-7949000D03*
X14497000Y-7949000D03*
X14447000Y-7949000D03*
X14397000Y-7949000D03*
X14347000Y-7949000D03*
X14297000Y-7949000D03*
X14297000Y-8129000D03*
X14347000Y-8129000D03*
X14397000Y-8129000D03*
X14447000Y-8129000D03*
X14497000Y-8129000D03*
X14547000Y-8129000D03*
X14597000Y-8129000D03*
X14647000Y-8129000D03*
%TD*%
D23*
%TO.C,R5*%
X18317150Y-11893669D03*
X18317150Y-11728669D03*
%TD*%
D16*
%TO.C,U7*%
X14881550Y-8107640D03*
X14881550Y-8172640D03*
X14881550Y-8237640D03*
X14881550Y-8302640D03*
X14881550Y-8367640D03*
X14881550Y-8432640D03*
X14881550Y-8497640D03*
X15454050Y-8497640D03*
X15454050Y-8432640D03*
X15454050Y-8367640D03*
X15454050Y-8302640D03*
X15454050Y-8237640D03*
X15454050Y-8172640D03*
X15454050Y-8107640D03*
%TD*%
D12*
%TO.C,C4*%
X16541050Y-9020140D03*
X16541050Y-8865140D03*
%TD*%
D29*
%TO.C,Y1*%
X17152550Y-10071640D03*
X17152550Y-10321640D03*
%TD*%
D12*
%TO.C,C3*%
X15729050Y-9021640D03*
X15729050Y-8866640D03*
%TD*%
D15*
%TO.C,C5*%
X16698050Y-10514640D03*
X16698050Y-10669640D03*
%TD*%
D17*
%TO.C,C6*%
X17518550Y-10323640D03*
X17363550Y-10323640D03*
%TD*%
D25*
%TO.C,R2*%
X18919050Y-11244140D03*
X18919050Y-11409140D03*
%TD*%
D17*
%TO.C,C9*%
X17266550Y-9561640D03*
X17111550Y-9561640D03*
%TD*%
D15*
%TO.C,C8*%
X17470050Y-9721140D03*
X17470050Y-9876140D03*
%TD*%
%TO.C,C13*%
X16390050Y-10514640D03*
X16390050Y-10669640D03*
%TD*%
D17*
%TO.C,C10*%
X14586550Y-8616640D03*
X14431550Y-8616640D03*
%TD*%
%TO.C,C2*%
X15451550Y-10109140D03*
X15296550Y-10109140D03*
%TD*%
D30*
%TO.C,U4*%
X14724050Y-8798640D03*
X14724050Y-9594640D03*
X14274050Y-8798640D03*
X14274050Y-9594640D03*
%TD*%
D31*
%TO.C,J2*%
X14753050Y-10033440D03*
X14753050Y-10439840D03*
X14626050Y-10033440D03*
X14626050Y-10439840D03*
X14499050Y-10033440D03*
X14499050Y-10439840D03*
X14372050Y-10033440D03*
X14372050Y-10439840D03*
X14245050Y-10033440D03*
X14245050Y-10439840D03*
%TD*%
D23*
%TO.C,R6*%
X16712050Y-11904140D03*
X16712050Y-11739140D03*
%TD*%
M02*
