%TF.GenerationSoftware,KiCad,Pcbnew,10.0.0*%
%TF.CreationDate,2026-03-28T16:14:40-05:00*%
%TF.ProjectId,LINC,4c494e43-2e6b-4696-9361-645f70636258,rev?*%
%TF.SameCoordinates,Original*%
%TF.FileFunction,Legend,Bot*%
%TF.FilePolarity,Positive*%
%FSLAX45Y45*%
G04 Gerber Fmt 4.5, Leading zero omitted, Abs format (unit mm)*
G04 Created by KiCad (PCBNEW 10.0.0) date 2026-03-28 16:14:40*
%MOMM*%
%LPD*%
G01*
G04 APERTURE LIST*
%ADD10C,0.100000*%
%ADD11C,0.508000*%
G04 APERTURE END LIST*
D10*
X17839050Y-7576640D02*
X17839050Y-7146640D01*
G36*
X15339218Y-7932570D02*
G01*
X15338572Y-7923263D01*
X15336730Y-7915167D01*
X15333784Y-7908091D01*
X15330255Y-7902655D01*
X15325865Y-7898156D01*
X15320531Y-7894509D01*
X15314107Y-7891697D01*
X15306392Y-7889773D01*
X15306392Y-7903243D01*
X15311655Y-7904891D01*
X15315942Y-7907147D01*
X15319408Y-7909983D01*
X15322158Y-7913428D01*
X15324819Y-7918790D01*
X15326503Y-7925206D01*
X15327104Y-7932912D01*
X15326442Y-7939664D01*
X15324508Y-7945737D01*
X15321296Y-7951281D01*
X15316687Y-7956396D01*
X15312450Y-7959619D01*
X15307382Y-7962230D01*
X15301345Y-7964205D01*
X15294168Y-7965474D01*
X15285656Y-7965928D01*
X15276693Y-7965379D01*
X15268986Y-7963827D01*
X15262348Y-7961374D01*
X15256621Y-7958069D01*
X15252724Y-7954672D01*
X15249663Y-7950547D01*
X15247393Y-7945584D01*
X15245946Y-7939616D01*
X15245429Y-7932430D01*
X15245953Y-7925709D01*
X15247459Y-7919801D01*
X15249895Y-7914569D01*
X15253275Y-7909905D01*
X15257467Y-7906214D01*
X15262887Y-7903407D01*
X15269821Y-7901538D01*
X15278646Y-7900782D01*
X15278646Y-7932228D01*
X15289979Y-7932228D01*
X15289979Y-7888137D01*
X15236050Y-7888137D01*
X15236050Y-7896887D01*
X15249300Y-7900166D01*
X15242336Y-7907105D01*
X15238505Y-7912402D01*
X15235730Y-7918585D01*
X15233953Y-7926079D01*
X15233314Y-7935166D01*
X15234059Y-7943893D01*
X15236232Y-7951821D01*
X15239816Y-7959105D01*
X15244892Y-7965861D01*
X15250900Y-7970748D01*
X15257750Y-7974608D01*
X15265566Y-7977455D01*
X15274506Y-7979245D01*
X15284758Y-7979874D01*
X15294983Y-7979263D01*
X15303955Y-7977520D01*
X15311851Y-7974742D01*
X15318818Y-7970973D01*
X15324973Y-7966203D01*
X15330100Y-7960702D01*
X15334040Y-7954680D01*
X15336874Y-7948061D01*
X15338616Y-7940737D01*
X15339218Y-7932570D01*
G37*
G36*
X15336483Y-7867144D02*
G01*
X15336483Y-7851079D01*
X15255125Y-7800356D01*
X15336483Y-7800356D01*
X15336483Y-7787435D01*
X15236050Y-7787435D01*
X15236050Y-7802676D01*
X15317871Y-7854150D01*
X15236050Y-7854150D01*
X15236050Y-7867144D01*
X15336483Y-7867144D01*
G37*
G36*
X15298147Y-7683220D02*
G01*
X15307124Y-7685209D01*
X15314946Y-7688381D01*
X15321785Y-7692706D01*
X15327051Y-7697616D01*
X15331101Y-7703173D01*
X15334030Y-7709464D01*
X15335848Y-7716626D01*
X15336483Y-7724836D01*
X15336483Y-7765508D01*
X15236050Y-7765508D01*
X15236050Y-7727565D01*
X15248164Y-7727565D01*
X15248164Y-7751837D01*
X15324368Y-7751837D01*
X15324368Y-7727706D01*
X15323896Y-7721038D01*
X15322576Y-7715486D01*
X15320504Y-7710858D01*
X15317712Y-7707001D01*
X15314165Y-7703813D01*
X15308965Y-7700758D01*
X15302615Y-7698438D01*
X15294889Y-7696936D01*
X15285521Y-7696394D01*
X15280642Y-7696639D01*
X15275117Y-7697420D01*
X15268965Y-7698939D01*
X15263884Y-7700894D01*
X15259717Y-7703233D01*
X15255191Y-7706992D01*
X15251853Y-7711295D01*
X15249581Y-7716220D01*
X15248556Y-7720986D01*
X15248164Y-7727565D01*
X15236050Y-7727565D01*
X15236050Y-7724970D01*
X15236733Y-7716488D01*
X15238678Y-7709192D01*
X15241801Y-7702874D01*
X15246119Y-7697375D01*
X15251746Y-7692603D01*
X15258887Y-7688535D01*
X15267682Y-7685240D01*
X15277275Y-7683217D01*
X15287805Y-7682521D01*
X15298147Y-7683220D01*
G37*
G36*
X15349218Y-6972570D02*
G01*
X15348572Y-6963263D01*
X15346730Y-6955167D01*
X15343784Y-6948091D01*
X15340255Y-6942655D01*
X15335865Y-6938156D01*
X15330531Y-6934509D01*
X15324107Y-6931697D01*
X15316392Y-6929773D01*
X15316392Y-6943243D01*
X15321655Y-6944891D01*
X15325942Y-6947147D01*
X15329408Y-6949983D01*
X15332158Y-6953428D01*
X15334819Y-6958790D01*
X15336503Y-6965206D01*
X15337104Y-6972912D01*
X15336442Y-6979664D01*
X15334508Y-6985737D01*
X15331296Y-6991281D01*
X15326687Y-6996396D01*
X15322450Y-6999619D01*
X15317382Y-7002230D01*
X15311345Y-7004205D01*
X15304168Y-7005474D01*
X15295656Y-7005928D01*
X15286693Y-7005379D01*
X15278986Y-7003827D01*
X15272348Y-7001374D01*
X15266621Y-6998069D01*
X15262724Y-6994672D01*
X15259663Y-6990547D01*
X15257393Y-6985584D01*
X15255946Y-6979616D01*
X15255429Y-6972430D01*
X15255953Y-6965709D01*
X15257459Y-6959801D01*
X15259895Y-6954569D01*
X15263275Y-6949905D01*
X15267467Y-6946214D01*
X15272887Y-6943407D01*
X15279821Y-6941538D01*
X15288646Y-6940782D01*
X15288646Y-6972228D01*
X15299979Y-6972228D01*
X15299979Y-6928137D01*
X15246050Y-6928137D01*
X15246050Y-6936887D01*
X15259300Y-6940166D01*
X15252336Y-6947105D01*
X15248505Y-6952402D01*
X15245730Y-6958585D01*
X15243953Y-6966079D01*
X15243314Y-6975166D01*
X15244059Y-6983893D01*
X15246232Y-6991821D01*
X15249816Y-6999105D01*
X15254892Y-7005861D01*
X15260900Y-7010748D01*
X15267750Y-7014608D01*
X15275566Y-7017455D01*
X15284506Y-7019245D01*
X15294758Y-7019874D01*
X15304983Y-7019263D01*
X15313955Y-7017520D01*
X15321851Y-7014742D01*
X15328818Y-7010973D01*
X15334973Y-7006203D01*
X15340100Y-7000702D01*
X15344040Y-6994680D01*
X15346874Y-6988061D01*
X15348616Y-6980737D01*
X15349218Y-6972570D01*
G37*
G36*
X15346483Y-6907144D02*
G01*
X15346483Y-6891079D01*
X15265125Y-6840356D01*
X15346483Y-6840356D01*
X15346483Y-6827435D01*
X15246050Y-6827435D01*
X15246050Y-6842676D01*
X15327871Y-6894150D01*
X15246050Y-6894150D01*
X15246050Y-6907144D01*
X15346483Y-6907144D01*
G37*
G36*
X15308147Y-6723220D02*
G01*
X15317124Y-6725209D01*
X15324946Y-6728381D01*
X15331785Y-6732706D01*
X15337051Y-6737616D01*
X15341101Y-6743173D01*
X15344030Y-6749464D01*
X15345848Y-6756626D01*
X15346483Y-6764836D01*
X15346483Y-6805508D01*
X15246050Y-6805508D01*
X15246050Y-6767565D01*
X15258164Y-6767565D01*
X15258164Y-6791837D01*
X15334368Y-6791837D01*
X15334368Y-6767706D01*
X15333896Y-6761038D01*
X15332576Y-6755486D01*
X15330504Y-6750858D01*
X15327712Y-6747001D01*
X15324165Y-6743813D01*
X15318965Y-6740758D01*
X15312615Y-6738438D01*
X15304889Y-6736936D01*
X15295521Y-6736394D01*
X15290642Y-6736639D01*
X15285117Y-6737420D01*
X15278965Y-6738939D01*
X15273884Y-6740894D01*
X15269717Y-6743233D01*
X15265191Y-6746992D01*
X15261853Y-6751295D01*
X15259581Y-6756220D01*
X15258556Y-6760986D01*
X15258164Y-6767565D01*
X15246050Y-6767565D01*
X15246050Y-6764970D01*
X15246733Y-6756488D01*
X15248678Y-6749192D01*
X15251801Y-6742874D01*
X15256119Y-6737375D01*
X15261746Y-6732603D01*
X15268887Y-6728535D01*
X15277682Y-6725240D01*
X15287275Y-6723217D01*
X15297805Y-6722521D01*
X15308147Y-6723220D01*
G37*
G36*
X15559218Y-6972570D02*
G01*
X15558572Y-6963263D01*
X15556730Y-6955167D01*
X15553784Y-6948091D01*
X15550255Y-6942655D01*
X15545865Y-6938156D01*
X15540531Y-6934509D01*
X15534107Y-6931697D01*
X15526392Y-6929773D01*
X15526392Y-6943243D01*
X15531655Y-6944891D01*
X15535942Y-6947147D01*
X15539408Y-6949983D01*
X15542158Y-6953428D01*
X15544819Y-6958790D01*
X15546503Y-6965206D01*
X15547104Y-6972912D01*
X15546442Y-6979664D01*
X15544508Y-6985737D01*
X15541296Y-6991281D01*
X15536687Y-6996396D01*
X15532450Y-6999619D01*
X15527382Y-7002230D01*
X15521345Y-7004205D01*
X15514168Y-7005474D01*
X15505656Y-7005928D01*
X15496693Y-7005379D01*
X15488986Y-7003827D01*
X15482348Y-7001374D01*
X15476621Y-6998069D01*
X15472724Y-6994672D01*
X15469663Y-6990547D01*
X15467393Y-6985584D01*
X15465946Y-6979616D01*
X15465429Y-6972430D01*
X15465953Y-6965709D01*
X15467459Y-6959801D01*
X15469895Y-6954569D01*
X15473275Y-6949905D01*
X15477467Y-6946214D01*
X15482887Y-6943407D01*
X15489821Y-6941538D01*
X15498646Y-6940782D01*
X15498646Y-6972228D01*
X15509979Y-6972228D01*
X15509979Y-6928137D01*
X15456050Y-6928137D01*
X15456050Y-6936887D01*
X15469300Y-6940166D01*
X15462336Y-6947105D01*
X15458505Y-6952402D01*
X15455730Y-6958585D01*
X15453953Y-6966079D01*
X15453314Y-6975166D01*
X15454059Y-6983893D01*
X15456232Y-6991821D01*
X15459816Y-6999105D01*
X15464892Y-7005861D01*
X15470900Y-7010748D01*
X15477750Y-7014608D01*
X15485566Y-7017455D01*
X15494506Y-7019245D01*
X15504758Y-7019874D01*
X15514983Y-7019263D01*
X15523955Y-7017520D01*
X15531851Y-7014742D01*
X15538818Y-7010973D01*
X15544973Y-7006203D01*
X15550100Y-7000702D01*
X15554040Y-6994680D01*
X15556874Y-6988061D01*
X15558616Y-6980737D01*
X15559218Y-6972570D01*
G37*
G36*
X15556483Y-6907144D02*
G01*
X15556483Y-6891079D01*
X15475125Y-6840356D01*
X15556483Y-6840356D01*
X15556483Y-6827435D01*
X15456050Y-6827435D01*
X15456050Y-6842676D01*
X15537871Y-6894150D01*
X15456050Y-6894150D01*
X15456050Y-6907144D01*
X15556483Y-6907144D01*
G37*
G36*
X15518147Y-6723220D02*
G01*
X15527124Y-6725209D01*
X15534946Y-6728381D01*
X15541785Y-6732706D01*
X15547051Y-6737616D01*
X15551101Y-6743173D01*
X15554030Y-6749464D01*
X15555848Y-6756626D01*
X15556483Y-6764836D01*
X15556483Y-6805508D01*
X15456050Y-6805508D01*
X15456050Y-6767565D01*
X15468164Y-6767565D01*
X15468164Y-6791837D01*
X15544368Y-6791837D01*
X15544368Y-6767706D01*
X15543896Y-6761038D01*
X15542576Y-6755486D01*
X15540504Y-6750858D01*
X15537712Y-6747001D01*
X15534165Y-6743813D01*
X15528965Y-6740758D01*
X15522615Y-6738438D01*
X15514889Y-6736936D01*
X15505521Y-6736394D01*
X15500642Y-6736639D01*
X15495117Y-6737420D01*
X15488965Y-6738939D01*
X15483884Y-6740894D01*
X15479717Y-6743233D01*
X15475191Y-6746992D01*
X15471853Y-6751295D01*
X15469581Y-6756220D01*
X15468556Y-6760986D01*
X15468164Y-6767565D01*
X15456050Y-6767565D01*
X15456050Y-6764970D01*
X15456733Y-6756488D01*
X15458678Y-6749192D01*
X15461801Y-6742874D01*
X15466119Y-6737375D01*
X15471746Y-6732603D01*
X15478887Y-6728535D01*
X15487682Y-6725240D01*
X15497275Y-6723217D01*
X15507805Y-6722521D01*
X15518147Y-6723220D01*
G37*
G36*
X15556483Y-7891404D02*
G01*
X15556483Y-7906785D01*
X15456050Y-7944588D01*
X15456050Y-7930642D01*
X15486141Y-7919773D01*
X15486141Y-7915877D01*
X15497083Y-7915877D01*
X15541443Y-7899678D01*
X15497083Y-7884431D01*
X15497083Y-7915877D01*
X15486141Y-7915877D01*
X15486141Y-7880059D01*
X15456050Y-7869874D01*
X15456050Y-7854969D01*
X15556483Y-7891404D01*
G37*
G36*
X15556483Y-7774681D02*
G01*
X15544368Y-7774681D01*
X15544368Y-7808514D01*
X15456050Y-7808514D01*
X15456050Y-7822326D01*
X15544368Y-7822326D01*
X15544368Y-7856166D01*
X15556483Y-7856166D01*
X15556483Y-7774681D01*
G37*
G36*
X15556483Y-7767451D02*
G01*
X15556483Y-7751386D01*
X15475125Y-7700663D01*
X15556483Y-7700663D01*
X15556483Y-7687742D01*
X15456050Y-7687742D01*
X15456050Y-7702983D01*
X15537871Y-7754457D01*
X15456050Y-7754457D01*
X15456050Y-7767451D01*
X15556483Y-7767451D01*
G37*
G36*
X15769218Y-6972570D02*
G01*
X15768572Y-6963263D01*
X15766730Y-6955167D01*
X15763784Y-6948091D01*
X15760255Y-6942655D01*
X15755865Y-6938156D01*
X15750531Y-6934509D01*
X15744107Y-6931697D01*
X15736392Y-6929773D01*
X15736392Y-6943243D01*
X15741655Y-6944891D01*
X15745942Y-6947147D01*
X15749408Y-6949983D01*
X15752158Y-6953428D01*
X15754819Y-6958790D01*
X15756503Y-6965206D01*
X15757104Y-6972912D01*
X15756442Y-6979664D01*
X15754508Y-6985737D01*
X15751296Y-6991281D01*
X15746687Y-6996396D01*
X15742450Y-6999619D01*
X15737382Y-7002230D01*
X15731345Y-7004205D01*
X15724168Y-7005474D01*
X15715656Y-7005928D01*
X15706693Y-7005379D01*
X15698986Y-7003827D01*
X15692348Y-7001374D01*
X15686621Y-6998069D01*
X15682724Y-6994672D01*
X15679663Y-6990547D01*
X15677393Y-6985584D01*
X15675946Y-6979616D01*
X15675429Y-6972430D01*
X15675953Y-6965709D01*
X15677459Y-6959801D01*
X15679895Y-6954569D01*
X15683275Y-6949905D01*
X15687467Y-6946214D01*
X15692887Y-6943407D01*
X15699821Y-6941538D01*
X15708646Y-6940782D01*
X15708646Y-6972228D01*
X15719979Y-6972228D01*
X15719979Y-6928137D01*
X15666050Y-6928137D01*
X15666050Y-6936887D01*
X15679300Y-6940166D01*
X15672336Y-6947105D01*
X15668505Y-6952402D01*
X15665730Y-6958585D01*
X15663953Y-6966079D01*
X15663314Y-6975166D01*
X15664059Y-6983893D01*
X15666232Y-6991821D01*
X15669816Y-6999105D01*
X15674892Y-7005861D01*
X15680900Y-7010748D01*
X15687750Y-7014608D01*
X15695566Y-7017455D01*
X15704506Y-7019245D01*
X15714758Y-7019874D01*
X15724983Y-7019263D01*
X15733955Y-7017520D01*
X15741851Y-7014742D01*
X15748818Y-7010973D01*
X15754973Y-7006203D01*
X15760100Y-7000702D01*
X15764040Y-6994680D01*
X15766874Y-6988061D01*
X15768616Y-6980737D01*
X15769218Y-6972570D01*
G37*
G36*
X15766483Y-6907144D02*
G01*
X15766483Y-6891079D01*
X15685125Y-6840356D01*
X15766483Y-6840356D01*
X15766483Y-6827435D01*
X15666050Y-6827435D01*
X15666050Y-6842676D01*
X15747871Y-6894150D01*
X15666050Y-6894150D01*
X15666050Y-6907144D01*
X15766483Y-6907144D01*
G37*
G36*
X15728147Y-6723220D02*
G01*
X15737124Y-6725209D01*
X15744946Y-6728381D01*
X15751785Y-6732706D01*
X15757051Y-6737616D01*
X15761101Y-6743173D01*
X15764030Y-6749464D01*
X15765848Y-6756626D01*
X15766483Y-6764836D01*
X15766483Y-6805508D01*
X15666050Y-6805508D01*
X15666050Y-6767565D01*
X15678164Y-6767565D01*
X15678164Y-6791837D01*
X15754368Y-6791837D01*
X15754368Y-6767706D01*
X15753896Y-6761038D01*
X15752576Y-6755486D01*
X15750504Y-6750858D01*
X15747712Y-6747001D01*
X15744165Y-6743813D01*
X15738965Y-6740758D01*
X15732615Y-6738438D01*
X15724889Y-6736936D01*
X15715521Y-6736394D01*
X15710642Y-6736639D01*
X15705117Y-6737420D01*
X15698965Y-6738939D01*
X15693884Y-6740894D01*
X15689717Y-6743233D01*
X15685191Y-6746992D01*
X15681853Y-6751295D01*
X15679581Y-6756220D01*
X15678556Y-6760986D01*
X15678164Y-6767565D01*
X15666050Y-6767565D01*
X15666050Y-6764970D01*
X15666733Y-6756488D01*
X15668678Y-6749192D01*
X15671801Y-6742874D01*
X15676119Y-6737375D01*
X15681746Y-6732603D01*
X15688887Y-6728535D01*
X15697682Y-6725240D01*
X15707275Y-6723217D01*
X15717805Y-6722521D01*
X15728147Y-6723220D01*
G37*
G36*
X15708485Y-7967088D02*
G01*
X15702892Y-7966375D01*
X15698331Y-7965003D01*
X15694619Y-7963052D01*
X15691207Y-7960127D01*
X15688492Y-7956439D01*
X15686448Y-7951856D01*
X15685126Y-7946188D01*
X15684647Y-7939196D01*
X15685211Y-7931765D01*
X15686827Y-7925255D01*
X15688939Y-7920599D01*
X15691475Y-7917249D01*
X15694423Y-7914953D01*
X15697858Y-7913568D01*
X15701928Y-7913086D01*
X15707112Y-7913725D01*
X15710868Y-7915457D01*
X15713566Y-7918209D01*
X15716437Y-7924231D01*
X15719342Y-7934482D01*
X15722334Y-7948086D01*
X15724632Y-7956999D01*
X15726844Y-7963056D01*
X15728922Y-7966954D01*
X15732482Y-7971126D01*
X15736735Y-7974067D01*
X15741813Y-7975881D01*
X15747943Y-7976522D01*
X15754630Y-7975909D01*
X15760511Y-7974141D01*
X15765741Y-7971246D01*
X15770432Y-7967155D01*
X15774118Y-7962252D01*
X15776852Y-7956341D01*
X15778594Y-7949220D01*
X15779218Y-7940630D01*
X15778705Y-7932767D01*
X15777229Y-7925753D01*
X15774850Y-7919465D01*
X15771579Y-7913800D01*
X15768267Y-7909926D01*
X15764292Y-7906903D01*
X15759558Y-7904675D01*
X15753916Y-7903263D01*
X15747174Y-7902761D01*
X15747174Y-7915547D01*
X15752377Y-7916576D01*
X15756359Y-7918060D01*
X15759361Y-7919919D01*
X15762548Y-7923288D01*
X15764949Y-7927737D01*
X15766524Y-7933537D01*
X15767104Y-7941046D01*
X15766715Y-7947200D01*
X15765666Y-7951956D01*
X15764090Y-7955594D01*
X15762054Y-7958338D01*
X15758431Y-7961311D01*
X15754563Y-7963027D01*
X15750324Y-7963601D01*
X15746800Y-7963195D01*
X15743914Y-7962043D01*
X15741521Y-7960161D01*
X15739547Y-7957447D01*
X15737474Y-7952107D01*
X15734094Y-7939196D01*
X15730889Y-7925115D01*
X15729009Y-7918405D01*
X15726877Y-7913259D01*
X15724557Y-7909392D01*
X15720698Y-7905239D01*
X15716129Y-7902292D01*
X15710707Y-7900467D01*
X15704211Y-7899824D01*
X15697607Y-7900367D01*
X15692107Y-7901894D01*
X15687504Y-7904317D01*
X15683650Y-7907639D01*
X15680459Y-7911956D01*
X15677387Y-7918136D01*
X15675160Y-7924841D01*
X15673787Y-7932149D01*
X15673314Y-7940154D01*
X15673986Y-7949527D01*
X15675869Y-7957373D01*
X15678833Y-7963956D01*
X15682840Y-7969482D01*
X15687909Y-7974048D01*
X15693756Y-7977286D01*
X15700540Y-7979253D01*
X15708485Y-7979874D01*
X15708485Y-7967088D01*
G37*
G36*
X15679575Y-7799429D02*
G01*
X15681512Y-7800889D01*
X15684446Y-7802010D01*
X15687571Y-7802583D01*
X15692854Y-7802969D01*
X15706367Y-7803445D01*
X15712185Y-7804057D01*
X15716264Y-7805214D01*
X15719037Y-7806761D01*
X15722451Y-7810316D01*
X15725320Y-7815615D01*
X15727952Y-7811409D01*
X15731026Y-7807962D01*
X15734564Y-7805192D01*
X15738564Y-7803193D01*
X15743429Y-7801918D01*
X15749359Y-7801461D01*
X15756169Y-7802087D01*
X15761743Y-7803842D01*
X15766330Y-7806633D01*
X15770101Y-7810502D01*
X15773124Y-7815615D01*
X15774903Y-7820694D01*
X15776063Y-7826930D01*
X15776483Y-7834550D01*
X15776483Y-7881035D01*
X15676050Y-7881035D01*
X15676050Y-7867431D01*
X15719037Y-7867431D01*
X15719037Y-7836467D01*
X15719003Y-7835985D01*
X15730370Y-7835985D01*
X15730370Y-7867431D01*
X15764368Y-7867431D01*
X15764368Y-7834208D01*
X15763804Y-7827638D01*
X15762335Y-7823064D01*
X15760041Y-7819718D01*
X15756986Y-7817332D01*
X15753014Y-7815822D01*
X15747845Y-7815273D01*
X15742892Y-7815690D01*
X15739123Y-7816817D01*
X15736274Y-7818540D01*
X15734161Y-7820848D01*
X15732153Y-7824742D01*
X15730847Y-7829699D01*
X15730370Y-7835985D01*
X15719003Y-7835985D01*
X15718491Y-7828710D01*
X15717193Y-7824230D01*
X15715201Y-7821298D01*
X15712465Y-7819115D01*
X15708827Y-7817627D01*
X15704028Y-7816915D01*
X15687310Y-7816091D01*
X15679390Y-7815413D01*
X15676050Y-7814314D01*
X15676050Y-7797638D01*
X15678395Y-7797638D01*
X15679575Y-7799429D01*
G37*
G36*
X15738485Y-7689648D02*
G01*
X15747480Y-7691600D01*
X15755316Y-7694709D01*
X15762164Y-7698940D01*
X15767242Y-7703445D01*
X15771401Y-7708638D01*
X15774697Y-7714595D01*
X15777138Y-7721428D01*
X15778677Y-7729279D01*
X15779218Y-7738318D01*
X15778653Y-7746816D01*
X15777032Y-7754304D01*
X15774432Y-7760932D01*
X15770871Y-7766825D01*
X15766310Y-7772074D01*
X15760656Y-7776731D01*
X15753222Y-7781079D01*
X15745033Y-7784229D01*
X15735963Y-7786175D01*
X15725857Y-7786849D01*
X15716845Y-7786340D01*
X15708718Y-7784873D01*
X15701364Y-7782509D01*
X15694684Y-7779275D01*
X15688598Y-7775162D01*
X15683170Y-7769545D01*
X15678957Y-7763196D01*
X15675891Y-7756014D01*
X15673982Y-7747850D01*
X15673314Y-7738519D01*
X15673419Y-7736883D01*
X15685429Y-7736883D01*
X15685913Y-7743995D01*
X15687281Y-7750080D01*
X15689451Y-7755301D01*
X15692393Y-7759792D01*
X15696139Y-7763646D01*
X15701704Y-7767498D01*
X15708231Y-7770337D01*
X15715899Y-7772132D01*
X15724935Y-7772768D01*
X15733863Y-7772307D01*
X15741301Y-7771025D01*
X15747473Y-7769045D01*
X15752574Y-7766448D01*
X15756766Y-7763267D01*
X15761220Y-7758193D01*
X15764419Y-7752322D01*
X15766406Y-7745498D01*
X15767104Y-7737500D01*
X15766380Y-7729636D01*
X15764319Y-7722932D01*
X15760986Y-7717162D01*
X15756314Y-7712172D01*
X15750703Y-7708238D01*
X15744205Y-7705357D01*
X15736656Y-7703547D01*
X15727848Y-7702909D01*
X15719732Y-7703448D01*
X15710989Y-7705132D01*
X15705332Y-7707047D01*
X15700048Y-7709843D01*
X15695083Y-7713570D01*
X15705286Y-7726692D01*
X15696878Y-7733531D01*
X15688299Y-7722528D01*
X15686893Y-7725444D01*
X15686009Y-7728957D01*
X15685429Y-7736883D01*
X15673419Y-7736883D01*
X15673795Y-7730980D01*
X15675177Y-7724268D01*
X15677360Y-7717928D01*
X15680129Y-7712135D01*
X15668167Y-7696620D01*
X15676520Y-7689781D01*
X15687261Y-7703587D01*
X15693401Y-7698504D01*
X15700748Y-7694421D01*
X15709499Y-7691356D01*
X15718574Y-7689568D01*
X15728123Y-7688963D01*
X15738485Y-7689648D01*
G37*
G36*
X15989218Y-6972570D02*
G01*
X15988572Y-6963263D01*
X15986730Y-6955167D01*
X15983784Y-6948091D01*
X15980255Y-6942655D01*
X15975865Y-6938156D01*
X15970531Y-6934509D01*
X15964107Y-6931697D01*
X15956392Y-6929773D01*
X15956392Y-6943243D01*
X15961655Y-6944891D01*
X15965942Y-6947147D01*
X15969408Y-6949983D01*
X15972158Y-6953428D01*
X15974819Y-6958790D01*
X15976503Y-6965206D01*
X15977104Y-6972912D01*
X15976442Y-6979664D01*
X15974508Y-6985737D01*
X15971296Y-6991281D01*
X15966687Y-6996396D01*
X15962450Y-6999619D01*
X15957382Y-7002230D01*
X15951345Y-7004205D01*
X15944168Y-7005474D01*
X15935656Y-7005928D01*
X15926693Y-7005379D01*
X15918986Y-7003827D01*
X15912348Y-7001374D01*
X15906621Y-6998069D01*
X15902724Y-6994672D01*
X15899663Y-6990547D01*
X15897393Y-6985584D01*
X15895946Y-6979616D01*
X15895429Y-6972430D01*
X15895953Y-6965709D01*
X15897459Y-6959801D01*
X15899895Y-6954569D01*
X15903275Y-6949905D01*
X15907467Y-6946214D01*
X15912887Y-6943407D01*
X15919821Y-6941538D01*
X15928646Y-6940782D01*
X15928646Y-6972228D01*
X15939979Y-6972228D01*
X15939979Y-6928137D01*
X15886050Y-6928137D01*
X15886050Y-6936887D01*
X15899300Y-6940166D01*
X15892336Y-6947105D01*
X15888505Y-6952402D01*
X15885730Y-6958585D01*
X15883953Y-6966079D01*
X15883314Y-6975166D01*
X15884059Y-6983893D01*
X15886232Y-6991821D01*
X15889816Y-6999105D01*
X15894892Y-7005861D01*
X15900900Y-7010748D01*
X15907750Y-7014608D01*
X15915566Y-7017455D01*
X15924506Y-7019245D01*
X15934758Y-7019874D01*
X15944983Y-7019263D01*
X15953955Y-7017520D01*
X15961851Y-7014742D01*
X15968818Y-7010973D01*
X15974973Y-7006203D01*
X15980100Y-7000702D01*
X15984040Y-6994680D01*
X15986874Y-6988061D01*
X15988616Y-6980737D01*
X15989218Y-6972570D01*
G37*
G36*
X15986483Y-6907144D02*
G01*
X15986483Y-6891079D01*
X15905125Y-6840356D01*
X15986483Y-6840356D01*
X15986483Y-6827435D01*
X15886050Y-6827435D01*
X15886050Y-6842676D01*
X15967871Y-6894150D01*
X15886050Y-6894150D01*
X15886050Y-6907144D01*
X15986483Y-6907144D01*
G37*
G36*
X15948147Y-6723220D02*
G01*
X15957124Y-6725209D01*
X15964946Y-6728381D01*
X15971785Y-6732706D01*
X15977051Y-6737616D01*
X15981101Y-6743173D01*
X15984030Y-6749464D01*
X15985848Y-6756626D01*
X15986483Y-6764836D01*
X15986483Y-6805508D01*
X15886050Y-6805508D01*
X15886050Y-6767565D01*
X15898164Y-6767565D01*
X15898164Y-6791837D01*
X15974368Y-6791837D01*
X15974368Y-6767706D01*
X15973896Y-6761038D01*
X15972576Y-6755486D01*
X15970504Y-6750858D01*
X15967712Y-6747001D01*
X15964165Y-6743813D01*
X15958965Y-6740758D01*
X15952615Y-6738438D01*
X15944889Y-6736936D01*
X15935521Y-6736394D01*
X15930642Y-6736639D01*
X15925117Y-6737420D01*
X15918965Y-6738939D01*
X15913884Y-6740894D01*
X15909717Y-6743233D01*
X15905191Y-6746992D01*
X15901853Y-6751295D01*
X15899581Y-6756220D01*
X15898556Y-6760986D01*
X15898164Y-6767565D01*
X15886050Y-6767565D01*
X15886050Y-6764970D01*
X15886733Y-6756488D01*
X15888678Y-6749192D01*
X15891801Y-6742874D01*
X15896119Y-6737375D01*
X15901746Y-6732603D01*
X15908887Y-6728535D01*
X15917682Y-6725240D01*
X15927275Y-6723217D01*
X15937805Y-6722521D01*
X15948147Y-6723220D01*
G37*
G36*
X15996483Y-7902901D02*
G01*
X15996483Y-7889156D01*
X15896050Y-7889156D01*
X15896050Y-7902901D01*
X15996483Y-7902901D01*
G37*
G36*
X15996483Y-7865794D02*
G01*
X15996483Y-7796136D01*
X15984368Y-7796136D01*
X15984368Y-7852190D01*
X15953496Y-7852190D01*
X15953496Y-7802902D01*
X15941381Y-7802902D01*
X15941381Y-7852190D01*
X15896050Y-7852190D01*
X15896050Y-7865794D01*
X15996483Y-7865794D01*
G37*
G36*
X15999218Y-7739295D02*
G01*
X15998511Y-7729766D01*
X15996529Y-7721834D01*
X15993410Y-7715216D01*
X15989186Y-7709693D01*
X15983826Y-7704883D01*
X15978287Y-7701414D01*
X15972505Y-7699143D01*
X15966392Y-7698006D01*
X15966392Y-7711268D01*
X15972444Y-7713326D01*
X15977432Y-7716318D01*
X15981523Y-7720256D01*
X15983845Y-7723736D01*
X15985585Y-7727944D01*
X15986703Y-7733027D01*
X15987104Y-7739161D01*
X15986421Y-7746388D01*
X15984458Y-7752676D01*
X15981250Y-7758211D01*
X15976711Y-7763121D01*
X15971338Y-7766840D01*
X15964478Y-7769688D01*
X15955793Y-7771559D01*
X15944868Y-7772243D01*
X15936063Y-7771671D01*
X15928498Y-7770050D01*
X15921983Y-7767482D01*
X15916359Y-7764006D01*
X15912493Y-7760465D01*
X15909491Y-7756340D01*
X15907295Y-7751548D01*
X15905916Y-7745964D01*
X15905429Y-7739429D01*
X15905922Y-7733505D01*
X15907330Y-7728376D01*
X15909602Y-7723901D01*
X15912762Y-7719973D01*
X15916902Y-7716532D01*
X15921094Y-7714110D01*
X15926325Y-7712017D01*
X15932784Y-7710309D01*
X15932784Y-7697047D01*
X15925020Y-7698491D01*
X15918079Y-7700939D01*
X15911843Y-7704367D01*
X15906223Y-7708807D01*
X15901641Y-7713840D01*
X15898079Y-7719480D01*
X15895488Y-7725814D01*
X15893877Y-7732962D01*
X15893314Y-7741072D01*
X15894013Y-7749678D01*
X15896031Y-7757340D01*
X15899322Y-7764226D01*
X15903927Y-7770460D01*
X15908722Y-7775001D01*
X15914320Y-7778792D01*
X15920825Y-7781848D01*
X15928371Y-7784141D01*
X15937121Y-7785600D01*
X15947262Y-7786116D01*
X15956231Y-7785600D01*
X15964248Y-7784117D01*
X15971438Y-7781736D01*
X15977908Y-7778487D01*
X15983745Y-7774362D01*
X15989281Y-7768930D01*
X15993548Y-7762823D01*
X15996636Y-7755948D01*
X15998550Y-7748165D01*
X15999218Y-7739295D01*
G37*
G36*
X16199218Y-6972570D02*
G01*
X16198572Y-6963263D01*
X16196730Y-6955167D01*
X16193784Y-6948091D01*
X16190255Y-6942655D01*
X16185865Y-6938156D01*
X16180531Y-6934509D01*
X16174107Y-6931697D01*
X16166392Y-6929773D01*
X16166392Y-6943243D01*
X16171655Y-6944891D01*
X16175942Y-6947147D01*
X16179408Y-6949983D01*
X16182158Y-6953428D01*
X16184819Y-6958790D01*
X16186503Y-6965206D01*
X16187104Y-6972912D01*
X16186442Y-6979664D01*
X16184508Y-6985737D01*
X16181296Y-6991281D01*
X16176687Y-6996396D01*
X16172450Y-6999619D01*
X16167382Y-7002230D01*
X16161345Y-7004205D01*
X16154168Y-7005474D01*
X16145656Y-7005928D01*
X16136693Y-7005379D01*
X16128986Y-7003827D01*
X16122348Y-7001374D01*
X16116621Y-6998069D01*
X16112724Y-6994672D01*
X16109663Y-6990547D01*
X16107393Y-6985584D01*
X16105946Y-6979616D01*
X16105429Y-6972430D01*
X16105953Y-6965709D01*
X16107459Y-6959801D01*
X16109895Y-6954569D01*
X16113275Y-6949905D01*
X16117467Y-6946214D01*
X16122887Y-6943407D01*
X16129821Y-6941538D01*
X16138646Y-6940782D01*
X16138646Y-6972228D01*
X16149979Y-6972228D01*
X16149979Y-6928137D01*
X16096050Y-6928137D01*
X16096050Y-6936887D01*
X16109300Y-6940166D01*
X16102336Y-6947105D01*
X16098505Y-6952402D01*
X16095730Y-6958585D01*
X16093953Y-6966079D01*
X16093314Y-6975166D01*
X16094059Y-6983893D01*
X16096232Y-6991821D01*
X16099816Y-6999105D01*
X16104892Y-7005861D01*
X16110900Y-7010748D01*
X16117750Y-7014608D01*
X16125566Y-7017455D01*
X16134506Y-7019245D01*
X16144758Y-7019874D01*
X16154983Y-7019263D01*
X16163955Y-7017520D01*
X16171851Y-7014742D01*
X16178818Y-7010973D01*
X16184973Y-7006203D01*
X16190100Y-7000702D01*
X16194040Y-6994680D01*
X16196874Y-6988061D01*
X16198616Y-6980737D01*
X16199218Y-6972570D01*
G37*
G36*
X16196483Y-6907144D02*
G01*
X16196483Y-6891079D01*
X16115125Y-6840356D01*
X16196483Y-6840356D01*
X16196483Y-6827435D01*
X16096050Y-6827435D01*
X16096050Y-6842676D01*
X16177871Y-6894150D01*
X16096050Y-6894150D01*
X16096050Y-6907144D01*
X16196483Y-6907144D01*
G37*
G36*
X16158147Y-6723220D02*
G01*
X16167124Y-6725209D01*
X16174946Y-6728381D01*
X16181785Y-6732706D01*
X16187051Y-6737616D01*
X16191101Y-6743173D01*
X16194030Y-6749464D01*
X16195848Y-6756626D01*
X16196483Y-6764836D01*
X16196483Y-6805508D01*
X16096050Y-6805508D01*
X16096050Y-6767565D01*
X16108164Y-6767565D01*
X16108164Y-6791837D01*
X16184368Y-6791837D01*
X16184368Y-6767706D01*
X16183896Y-6761038D01*
X16182576Y-6755486D01*
X16180504Y-6750858D01*
X16177712Y-6747001D01*
X16174165Y-6743813D01*
X16168965Y-6740758D01*
X16162615Y-6738438D01*
X16154889Y-6736936D01*
X16145521Y-6736394D01*
X16140642Y-6736639D01*
X16135117Y-6737420D01*
X16128965Y-6738939D01*
X16123884Y-6740894D01*
X16119717Y-6743233D01*
X16115191Y-6746992D01*
X16111853Y-6751295D01*
X16109581Y-6756220D01*
X16108556Y-6760986D01*
X16108164Y-6767565D01*
X16096050Y-6767565D01*
X16096050Y-6764970D01*
X16096733Y-6756488D01*
X16098678Y-6749192D01*
X16101801Y-6742874D01*
X16106119Y-6737375D01*
X16111746Y-6732603D01*
X16118887Y-6728535D01*
X16127682Y-6725240D01*
X16137275Y-6723217D01*
X16147805Y-6722521D01*
X16158147Y-6723220D01*
G37*
G36*
X16206483Y-8055978D02*
G01*
X16206483Y-8039913D01*
X16125125Y-7989190D01*
X16206483Y-7989190D01*
X16206483Y-7976270D01*
X16106050Y-7976270D01*
X16106050Y-7991511D01*
X16187871Y-8042985D01*
X16106050Y-8042985D01*
X16106050Y-8055978D01*
X16206483Y-8055978D01*
G37*
G36*
X16168147Y-7872054D02*
G01*
X16177124Y-7874043D01*
X16184946Y-7877215D01*
X16191785Y-7881540D01*
X16197051Y-7886450D01*
X16201101Y-7892008D01*
X16204030Y-7898299D01*
X16205848Y-7905461D01*
X16206483Y-7913670D01*
X16206483Y-7954343D01*
X16106050Y-7954343D01*
X16106050Y-7916400D01*
X16118164Y-7916400D01*
X16118164Y-7940671D01*
X16194368Y-7940671D01*
X16194368Y-7916540D01*
X16193896Y-7909873D01*
X16192576Y-7904321D01*
X16190504Y-7899693D01*
X16187712Y-7895836D01*
X16184165Y-7892647D01*
X16178965Y-7889592D01*
X16172615Y-7887273D01*
X16164889Y-7885770D01*
X16155521Y-7885228D01*
X16150642Y-7885473D01*
X16145117Y-7886254D01*
X16138965Y-7887773D01*
X16133884Y-7889728D01*
X16129717Y-7892067D01*
X16125191Y-7895826D01*
X16121853Y-7900129D01*
X16119581Y-7905055D01*
X16118556Y-7909821D01*
X16118164Y-7916400D01*
X16106050Y-7916400D01*
X16106050Y-7913805D01*
X16106733Y-7905323D01*
X16108678Y-7898027D01*
X16111801Y-7891708D01*
X16116119Y-7886210D01*
X16121746Y-7881437D01*
X16128887Y-7877370D01*
X16137682Y-7874075D01*
X16147275Y-7872052D01*
X16157805Y-7871355D01*
X16168147Y-7872054D01*
G37*
G36*
X16206483Y-7809366D02*
G01*
X16206483Y-7824748D01*
X16106050Y-7862550D01*
X16106050Y-7848604D01*
X16136141Y-7837735D01*
X16136141Y-7833840D01*
X16147083Y-7833840D01*
X16191443Y-7817640D01*
X16147083Y-7802393D01*
X16147083Y-7833840D01*
X16136141Y-7833840D01*
X16136141Y-7798021D01*
X16106050Y-7787836D01*
X16106050Y-7772932D01*
X16206483Y-7809366D01*
G37*
G36*
X16209218Y-7718325D02*
G01*
X16208511Y-7708796D01*
X16206529Y-7700864D01*
X16203410Y-7694246D01*
X16199186Y-7688723D01*
X16193826Y-7683913D01*
X16188287Y-7680444D01*
X16182505Y-7678173D01*
X16176392Y-7677036D01*
X16176392Y-7690298D01*
X16182444Y-7692356D01*
X16187432Y-7695348D01*
X16191523Y-7699286D01*
X16193845Y-7702766D01*
X16195585Y-7706974D01*
X16196703Y-7712057D01*
X16197104Y-7718191D01*
X16196421Y-7725418D01*
X16194458Y-7731706D01*
X16191250Y-7737241D01*
X16186711Y-7742151D01*
X16181338Y-7745870D01*
X16174478Y-7748718D01*
X16165793Y-7750589D01*
X16154868Y-7751273D01*
X16146063Y-7750701D01*
X16138498Y-7749080D01*
X16131983Y-7746512D01*
X16126359Y-7743036D01*
X16122493Y-7739495D01*
X16119491Y-7735370D01*
X16117295Y-7730578D01*
X16115916Y-7724994D01*
X16115429Y-7718459D01*
X16115922Y-7712535D01*
X16117330Y-7707406D01*
X16119602Y-7702931D01*
X16122762Y-7699003D01*
X16126902Y-7695562D01*
X16131094Y-7693140D01*
X16136325Y-7691047D01*
X16142784Y-7689339D01*
X16142784Y-7676077D01*
X16135020Y-7677521D01*
X16128079Y-7679969D01*
X16121843Y-7683397D01*
X16116223Y-7687837D01*
X16111641Y-7692870D01*
X16108079Y-7698510D01*
X16105488Y-7704844D01*
X16103877Y-7711992D01*
X16103314Y-7720102D01*
X16104013Y-7728708D01*
X16106031Y-7736370D01*
X16109322Y-7743256D01*
X16113927Y-7749490D01*
X16118722Y-7754031D01*
X16124320Y-7757822D01*
X16130825Y-7760878D01*
X16138371Y-7763171D01*
X16147121Y-7764630D01*
X16157262Y-7765146D01*
X16166231Y-7764630D01*
X16174248Y-7763147D01*
X16181438Y-7760766D01*
X16187908Y-7757517D01*
X16193745Y-7753392D01*
X16199281Y-7747960D01*
X16203548Y-7741853D01*
X16206636Y-7734978D01*
X16208550Y-7727195D01*
X16209218Y-7718325D01*
G37*
G36*
X16419218Y-6972570D02*
G01*
X16418572Y-6963263D01*
X16416730Y-6955167D01*
X16413784Y-6948091D01*
X16410255Y-6942655D01*
X16405865Y-6938156D01*
X16400531Y-6934509D01*
X16394107Y-6931697D01*
X16386392Y-6929773D01*
X16386392Y-6943243D01*
X16391655Y-6944891D01*
X16395942Y-6947147D01*
X16399408Y-6949983D01*
X16402158Y-6953428D01*
X16404819Y-6958790D01*
X16406503Y-6965206D01*
X16407104Y-6972912D01*
X16406442Y-6979664D01*
X16404508Y-6985737D01*
X16401296Y-6991281D01*
X16396687Y-6996396D01*
X16392450Y-6999619D01*
X16387382Y-7002230D01*
X16381345Y-7004205D01*
X16374168Y-7005474D01*
X16365656Y-7005928D01*
X16356693Y-7005379D01*
X16348986Y-7003827D01*
X16342348Y-7001374D01*
X16336621Y-6998069D01*
X16332724Y-6994672D01*
X16329663Y-6990547D01*
X16327393Y-6985584D01*
X16325946Y-6979616D01*
X16325429Y-6972430D01*
X16325953Y-6965709D01*
X16327459Y-6959801D01*
X16329895Y-6954569D01*
X16333275Y-6949905D01*
X16337467Y-6946214D01*
X16342887Y-6943407D01*
X16349821Y-6941538D01*
X16358646Y-6940782D01*
X16358646Y-6972228D01*
X16369979Y-6972228D01*
X16369979Y-6928137D01*
X16316050Y-6928137D01*
X16316050Y-6936887D01*
X16329300Y-6940166D01*
X16322336Y-6947105D01*
X16318505Y-6952402D01*
X16315730Y-6958585D01*
X16313953Y-6966079D01*
X16313314Y-6975166D01*
X16314059Y-6983893D01*
X16316232Y-6991821D01*
X16319816Y-6999105D01*
X16324892Y-7005861D01*
X16330900Y-7010748D01*
X16337750Y-7014608D01*
X16345566Y-7017455D01*
X16354506Y-7019245D01*
X16364758Y-7019874D01*
X16374983Y-7019263D01*
X16383955Y-7017520D01*
X16391851Y-7014742D01*
X16398818Y-7010973D01*
X16404973Y-7006203D01*
X16410100Y-7000702D01*
X16414040Y-6994680D01*
X16416874Y-6988061D01*
X16418616Y-6980737D01*
X16419218Y-6972570D01*
G37*
G36*
X16416483Y-6907144D02*
G01*
X16416483Y-6891079D01*
X16335125Y-6840356D01*
X16416483Y-6840356D01*
X16416483Y-6827435D01*
X16316050Y-6827435D01*
X16316050Y-6842676D01*
X16397871Y-6894150D01*
X16316050Y-6894150D01*
X16316050Y-6907144D01*
X16416483Y-6907144D01*
G37*
G36*
X16378147Y-6723220D02*
G01*
X16387124Y-6725209D01*
X16394946Y-6728381D01*
X16401785Y-6732706D01*
X16407051Y-6737616D01*
X16411101Y-6743173D01*
X16414030Y-6749464D01*
X16415848Y-6756626D01*
X16416483Y-6764836D01*
X16416483Y-6805508D01*
X16316050Y-6805508D01*
X16316050Y-6767565D01*
X16328164Y-6767565D01*
X16328164Y-6791837D01*
X16404368Y-6791837D01*
X16404368Y-6767706D01*
X16403896Y-6761038D01*
X16402576Y-6755486D01*
X16400504Y-6750858D01*
X16397712Y-6747001D01*
X16394165Y-6743813D01*
X16388965Y-6740758D01*
X16382615Y-6738438D01*
X16374889Y-6736936D01*
X16365521Y-6736394D01*
X16360642Y-6736639D01*
X16355117Y-6737420D01*
X16348965Y-6738939D01*
X16343884Y-6740894D01*
X16339717Y-6743233D01*
X16335191Y-6746992D01*
X16331853Y-6751295D01*
X16329581Y-6756220D01*
X16328556Y-6760986D01*
X16328164Y-6767565D01*
X16316050Y-6767565D01*
X16316050Y-6764970D01*
X16316733Y-6756488D01*
X16318678Y-6749192D01*
X16321801Y-6742874D01*
X16326119Y-6737375D01*
X16331746Y-6732603D01*
X16338887Y-6728535D01*
X16347682Y-6725240D01*
X16357275Y-6723217D01*
X16367805Y-6722521D01*
X16378147Y-6723220D01*
G37*
G36*
X16416483Y-8055978D02*
G01*
X16416483Y-8039913D01*
X16335125Y-7989190D01*
X16416483Y-7989190D01*
X16416483Y-7976270D01*
X16316050Y-7976270D01*
X16316050Y-7991511D01*
X16397871Y-8042985D01*
X16316050Y-8042985D01*
X16316050Y-8055978D01*
X16416483Y-8055978D01*
G37*
G36*
X16319575Y-7871711D02*
G01*
X16321512Y-7873171D01*
X16324446Y-7874292D01*
X16327571Y-7874865D01*
X16332854Y-7875251D01*
X16346367Y-7875727D01*
X16352185Y-7876339D01*
X16356264Y-7877496D01*
X16359037Y-7879043D01*
X16362451Y-7882598D01*
X16365320Y-7887897D01*
X16367952Y-7883691D01*
X16371026Y-7880244D01*
X16374564Y-7877474D01*
X16378564Y-7875475D01*
X16383429Y-7874200D01*
X16389359Y-7873743D01*
X16396169Y-7874369D01*
X16401743Y-7876124D01*
X16406330Y-7878915D01*
X16410101Y-7882784D01*
X16413124Y-7887897D01*
X16414903Y-7892976D01*
X16416063Y-7899212D01*
X16416483Y-7906832D01*
X16416483Y-7953317D01*
X16316050Y-7953317D01*
X16316050Y-7939713D01*
X16359037Y-7939713D01*
X16359037Y-7908749D01*
X16359003Y-7908267D01*
X16370370Y-7908267D01*
X16370370Y-7939713D01*
X16404368Y-7939713D01*
X16404368Y-7906490D01*
X16403804Y-7899920D01*
X16402335Y-7895346D01*
X16400041Y-7892000D01*
X16396986Y-7889614D01*
X16393014Y-7888104D01*
X16387845Y-7887555D01*
X16382892Y-7887972D01*
X16379123Y-7889099D01*
X16376274Y-7890822D01*
X16374161Y-7893130D01*
X16372153Y-7897024D01*
X16370847Y-7901981D01*
X16370370Y-7908267D01*
X16359003Y-7908267D01*
X16358491Y-7900992D01*
X16357193Y-7896512D01*
X16355201Y-7893580D01*
X16352465Y-7891397D01*
X16348827Y-7889909D01*
X16344028Y-7889197D01*
X16327310Y-7888373D01*
X16319390Y-7887695D01*
X16316050Y-7886596D01*
X16316050Y-7869920D01*
X16318395Y-7869920D01*
X16319575Y-7871711D01*
G37*
G36*
X16416483Y-7852640D02*
G01*
X16416483Y-7782982D01*
X16404368Y-7782982D01*
X16404368Y-7839036D01*
X16373496Y-7839036D01*
X16373496Y-7789748D01*
X16361381Y-7789748D01*
X16361381Y-7839036D01*
X16316050Y-7839036D01*
X16316050Y-7852640D01*
X16416483Y-7852640D01*
G37*
G36*
X16378147Y-7685550D02*
G01*
X16387124Y-7687539D01*
X16394946Y-7690712D01*
X16401785Y-7695036D01*
X16407051Y-7699946D01*
X16411101Y-7705504D01*
X16414030Y-7711795D01*
X16415848Y-7718957D01*
X16416483Y-7727167D01*
X16416483Y-7767839D01*
X16316050Y-7767839D01*
X16316050Y-7729896D01*
X16328164Y-7729896D01*
X16328164Y-7754168D01*
X16404368Y-7754168D01*
X16404368Y-7730036D01*
X16403896Y-7723369D01*
X16402576Y-7717817D01*
X16400504Y-7713189D01*
X16397712Y-7709332D01*
X16394165Y-7706143D01*
X16388965Y-7703089D01*
X16382615Y-7700769D01*
X16374889Y-7699266D01*
X16365521Y-7698724D01*
X16360642Y-7698969D01*
X16355117Y-7699750D01*
X16348965Y-7701269D01*
X16343884Y-7703225D01*
X16339717Y-7705563D01*
X16335191Y-7709322D01*
X16331853Y-7713626D01*
X16329581Y-7718551D01*
X16328556Y-7723317D01*
X16328164Y-7729896D01*
X16316050Y-7729896D01*
X16316050Y-7727301D01*
X16316733Y-7718819D01*
X16318678Y-7711523D01*
X16321801Y-7705205D01*
X16326119Y-7699706D01*
X16331746Y-7694934D01*
X16338887Y-7690866D01*
X16347682Y-7687571D01*
X16357275Y-7685548D01*
X16367805Y-7684851D01*
X16378147Y-7685550D01*
G37*
G36*
X16639218Y-6972570D02*
G01*
X16638572Y-6963263D01*
X16636730Y-6955167D01*
X16633784Y-6948091D01*
X16630255Y-6942655D01*
X16625865Y-6938156D01*
X16620531Y-6934509D01*
X16614107Y-6931697D01*
X16606392Y-6929773D01*
X16606392Y-6943243D01*
X16611655Y-6944891D01*
X16615942Y-6947147D01*
X16619408Y-6949983D01*
X16622158Y-6953428D01*
X16624819Y-6958790D01*
X16626503Y-6965206D01*
X16627104Y-6972912D01*
X16626442Y-6979664D01*
X16624508Y-6985737D01*
X16621296Y-6991281D01*
X16616687Y-6996396D01*
X16612450Y-6999619D01*
X16607382Y-7002230D01*
X16601345Y-7004205D01*
X16594168Y-7005474D01*
X16585656Y-7005928D01*
X16576693Y-7005379D01*
X16568986Y-7003827D01*
X16562348Y-7001374D01*
X16556621Y-6998069D01*
X16552724Y-6994672D01*
X16549663Y-6990547D01*
X16547393Y-6985584D01*
X16545946Y-6979616D01*
X16545429Y-6972430D01*
X16545953Y-6965709D01*
X16547459Y-6959801D01*
X16549895Y-6954569D01*
X16553275Y-6949905D01*
X16557467Y-6946214D01*
X16562887Y-6943407D01*
X16569821Y-6941538D01*
X16578646Y-6940782D01*
X16578646Y-6972228D01*
X16589979Y-6972228D01*
X16589979Y-6928137D01*
X16536050Y-6928137D01*
X16536050Y-6936887D01*
X16549300Y-6940166D01*
X16542336Y-6947105D01*
X16538505Y-6952402D01*
X16535730Y-6958585D01*
X16533953Y-6966079D01*
X16533314Y-6975166D01*
X16534059Y-6983893D01*
X16536232Y-6991821D01*
X16539816Y-6999105D01*
X16544892Y-7005861D01*
X16550900Y-7010748D01*
X16557750Y-7014608D01*
X16565566Y-7017455D01*
X16574506Y-7019245D01*
X16584758Y-7019874D01*
X16594983Y-7019263D01*
X16603955Y-7017520D01*
X16611851Y-7014742D01*
X16618818Y-7010973D01*
X16624973Y-7006203D01*
X16630100Y-7000702D01*
X16634040Y-6994680D01*
X16636874Y-6988061D01*
X16638616Y-6980737D01*
X16639218Y-6972570D01*
G37*
G36*
X16636483Y-6907144D02*
G01*
X16636483Y-6891079D01*
X16555125Y-6840356D01*
X16636483Y-6840356D01*
X16636483Y-6827435D01*
X16536050Y-6827435D01*
X16536050Y-6842676D01*
X16617871Y-6894150D01*
X16536050Y-6894150D01*
X16536050Y-6907144D01*
X16636483Y-6907144D01*
G37*
G36*
X16598147Y-6723220D02*
G01*
X16607124Y-6725209D01*
X16614946Y-6728381D01*
X16621785Y-6732706D01*
X16627051Y-6737616D01*
X16631101Y-6743173D01*
X16634030Y-6749464D01*
X16635848Y-6756626D01*
X16636483Y-6764836D01*
X16636483Y-6805508D01*
X16536050Y-6805508D01*
X16536050Y-6767565D01*
X16548164Y-6767565D01*
X16548164Y-6791837D01*
X16624368Y-6791837D01*
X16624368Y-6767706D01*
X16623896Y-6761038D01*
X16622576Y-6755486D01*
X16620504Y-6750858D01*
X16617712Y-6747001D01*
X16614165Y-6743813D01*
X16608965Y-6740758D01*
X16602615Y-6738438D01*
X16594889Y-6736936D01*
X16585521Y-6736394D01*
X16580642Y-6736639D01*
X16575117Y-6737420D01*
X16568965Y-6738939D01*
X16563884Y-6740894D01*
X16559717Y-6743233D01*
X16555191Y-6746992D01*
X16551853Y-6751295D01*
X16549581Y-6756220D01*
X16548556Y-6760986D01*
X16548164Y-6767565D01*
X16536050Y-6767565D01*
X16536050Y-6764970D01*
X16536733Y-6756488D01*
X16538678Y-6749192D01*
X16541801Y-6742874D01*
X16546119Y-6737375D01*
X16551746Y-6732603D01*
X16558887Y-6728535D01*
X16567682Y-6725240D01*
X16577275Y-6723217D01*
X16587805Y-6722521D01*
X16598147Y-6723220D01*
G37*
G36*
X16598147Y-7873073D02*
G01*
X16607124Y-7875062D01*
X16614946Y-7878234D01*
X16621785Y-7882559D01*
X16627051Y-7887469D01*
X16631101Y-7893026D01*
X16634030Y-7899318D01*
X16635848Y-7906480D01*
X16636483Y-7914689D01*
X16636483Y-7955362D01*
X16536050Y-7955362D01*
X16536050Y-7917419D01*
X16548164Y-7917419D01*
X16548164Y-7941690D01*
X16624368Y-7941690D01*
X16624368Y-7917559D01*
X16623896Y-7910892D01*
X16622576Y-7905340D01*
X16620504Y-7900711D01*
X16617712Y-7896855D01*
X16614165Y-7893666D01*
X16608965Y-7890611D01*
X16602615Y-7888292D01*
X16594889Y-7886789D01*
X16585521Y-7886247D01*
X16580642Y-7886492D01*
X16575117Y-7887273D01*
X16568965Y-7888792D01*
X16563884Y-7890747D01*
X16559717Y-7893086D01*
X16555191Y-7896845D01*
X16551853Y-7901148D01*
X16549581Y-7906074D01*
X16548556Y-7910840D01*
X16548164Y-7917419D01*
X16536050Y-7917419D01*
X16536050Y-7914824D01*
X16536733Y-7906342D01*
X16538678Y-7899046D01*
X16541801Y-7892727D01*
X16546119Y-7887229D01*
X16551746Y-7882456D01*
X16558887Y-7878389D01*
X16567682Y-7875094D01*
X16577275Y-7873070D01*
X16587805Y-7872374D01*
X16598147Y-7873073D01*
G37*
G36*
X16636483Y-7810385D02*
G01*
X16636483Y-7825767D01*
X16536050Y-7863569D01*
X16536050Y-7849623D01*
X16566141Y-7838754D01*
X16566141Y-7834858D01*
X16577083Y-7834858D01*
X16621443Y-7818659D01*
X16577083Y-7803412D01*
X16577083Y-7834858D01*
X16566141Y-7834858D01*
X16566141Y-7799040D01*
X16536050Y-7788855D01*
X16536050Y-7773950D01*
X16636483Y-7810385D01*
G37*
G36*
X16636483Y-7758807D02*
G01*
X16550955Y-7729956D01*
X16636483Y-7701453D01*
X16636483Y-7686206D01*
X16536050Y-7722849D01*
X16536050Y-7737271D01*
X16636483Y-7773847D01*
X16636483Y-7758807D01*
G37*
G36*
X16759575Y-6932730D02*
G01*
X16761512Y-6934190D01*
X16764446Y-6935311D01*
X16767571Y-6935884D01*
X16772854Y-6936270D01*
X16786367Y-6936746D01*
X16792185Y-6937358D01*
X16796264Y-6938515D01*
X16799037Y-6940062D01*
X16802451Y-6943616D01*
X16805320Y-6948916D01*
X16807952Y-6944710D01*
X16811027Y-6941263D01*
X16814565Y-6938492D01*
X16818564Y-6936494D01*
X16823430Y-6935219D01*
X16829360Y-6934762D01*
X16836169Y-6935388D01*
X16841743Y-6937143D01*
X16846330Y-6939934D01*
X16850101Y-6943803D01*
X16853124Y-6948916D01*
X16854903Y-6953995D01*
X16856063Y-6960231D01*
X16856483Y-6967850D01*
X16856483Y-7014336D01*
X16756050Y-7014336D01*
X16756050Y-7000732D01*
X16799037Y-7000732D01*
X16799037Y-6969768D01*
X16799003Y-6969285D01*
X16810370Y-6969285D01*
X16810370Y-7000732D01*
X16844368Y-7000732D01*
X16844368Y-6967509D01*
X16843804Y-6960939D01*
X16842335Y-6956365D01*
X16840041Y-6953018D01*
X16836986Y-6950633D01*
X16833014Y-6949123D01*
X16827845Y-6948574D01*
X16822892Y-6948990D01*
X16819123Y-6950118D01*
X16816275Y-6951841D01*
X16814162Y-6954148D01*
X16812153Y-6958043D01*
X16810847Y-6962999D01*
X16810370Y-6969285D01*
X16799003Y-6969285D01*
X16798492Y-6962011D01*
X16797193Y-6957531D01*
X16795201Y-6954599D01*
X16792465Y-6952416D01*
X16788827Y-6950928D01*
X16784028Y-6950216D01*
X16767310Y-6949392D01*
X16759390Y-6948714D01*
X16756050Y-6947615D01*
X16756050Y-6930939D01*
X16758395Y-6930939D01*
X16759575Y-6932730D01*
G37*
G36*
X16856483Y-6913659D02*
G01*
X16856483Y-6840447D01*
X16844368Y-6840447D01*
X16844368Y-6900397D01*
X16813496Y-6900397D01*
X16813496Y-6844960D01*
X16801382Y-6844960D01*
X16801382Y-6900397D01*
X16768164Y-6900397D01*
X16768164Y-6839421D01*
X16756050Y-6839421D01*
X16756050Y-6913659D01*
X16856483Y-6913659D01*
G37*
G36*
X16856483Y-6821659D02*
G01*
X16856483Y-6805594D01*
X16775125Y-6754871D01*
X16856483Y-6754871D01*
X16856483Y-6741950D01*
X16756050Y-6741950D01*
X16756050Y-6757191D01*
X16837871Y-6808665D01*
X16756050Y-6808665D01*
X16756050Y-6821659D01*
X16856483Y-6821659D01*
G37*
G36*
X16856483Y-7924678D02*
G01*
X16856483Y-7851466D01*
X16844368Y-7851466D01*
X16844368Y-7911416D01*
X16813496Y-7911416D01*
X16813496Y-7855978D01*
X16801382Y-7855978D01*
X16801382Y-7911416D01*
X16768164Y-7911416D01*
X16768164Y-7850440D01*
X16756050Y-7850440D01*
X16756050Y-7924678D01*
X16856483Y-7924678D01*
G37*
G36*
X16818477Y-7740667D02*
G01*
X16827473Y-7742619D01*
X16835310Y-7745728D01*
X16842158Y-7749959D01*
X16847238Y-7754464D01*
X16851398Y-7759658D01*
X16854696Y-7765615D01*
X16857138Y-7772447D01*
X16858677Y-7780298D01*
X16859218Y-7789337D01*
X16858653Y-7797835D01*
X16857032Y-7805322D01*
X16854432Y-7811951D01*
X16850871Y-7817844D01*
X16846310Y-7823093D01*
X16840656Y-7827750D01*
X16833222Y-7832097D01*
X16825033Y-7835248D01*
X16815963Y-7837194D01*
X16805857Y-7837868D01*
X16796786Y-7837351D01*
X16788635Y-7835864D01*
X16781285Y-7833470D01*
X16774634Y-7830198D01*
X16768598Y-7826040D01*
X16763161Y-7820420D01*
X16758946Y-7814087D01*
X16755884Y-7806943D01*
X16753980Y-7798843D01*
X16753314Y-7789606D01*
X16753419Y-7787969D01*
X16765429Y-7787969D01*
X16765961Y-7795656D01*
X16767448Y-7802037D01*
X16769775Y-7807336D01*
X16772899Y-7811732D01*
X16776853Y-7815349D01*
X16782744Y-7818965D01*
X16789307Y-7821592D01*
X16796657Y-7823221D01*
X16804935Y-7823787D01*
X16813503Y-7823322D01*
X16820758Y-7822018D01*
X16826891Y-7819984D01*
X16832069Y-7817286D01*
X16836424Y-7813944D01*
X16841085Y-7808680D01*
X16844385Y-7802783D01*
X16846403Y-7796124D01*
X16847104Y-7788519D01*
X16846381Y-7780655D01*
X16844321Y-7773951D01*
X16840989Y-7768181D01*
X16836321Y-7763191D01*
X16830712Y-7759257D01*
X16824218Y-7756376D01*
X16816674Y-7754566D01*
X16807872Y-7753928D01*
X16799574Y-7754453D01*
X16791938Y-7755986D01*
X16784870Y-7758488D01*
X16778288Y-7761963D01*
X16773722Y-7765512D01*
X16770198Y-7769763D01*
X16767626Y-7774808D01*
X16766005Y-7780807D01*
X16765429Y-7787969D01*
X16753419Y-7787969D01*
X16753845Y-7781302D01*
X16755370Y-7773927D01*
X16757822Y-7767346D01*
X16761181Y-7761449D01*
X16765476Y-7756151D01*
X16770784Y-7751400D01*
X16776855Y-7747391D01*
X16783534Y-7744232D01*
X16790901Y-7741918D01*
X16799056Y-7740480D01*
X16808110Y-7739981D01*
X16818477Y-7740667D01*
G37*
G36*
X16856483Y-7720766D02*
G01*
X16856483Y-7707021D01*
X16756050Y-7707021D01*
X16756050Y-7720766D01*
X16856483Y-7720766D01*
G37*
G36*
X17028147Y-6933073D02*
G01*
X17037124Y-6935062D01*
X17044946Y-6938234D01*
X17051785Y-6942559D01*
X17057051Y-6947469D01*
X17061101Y-6953026D01*
X17064030Y-6959318D01*
X17065848Y-6966480D01*
X17066483Y-6974689D01*
X17066483Y-7015362D01*
X16966050Y-7015362D01*
X16966050Y-6977419D01*
X16978165Y-6977419D01*
X16978165Y-7001690D01*
X17054368Y-7001690D01*
X17054368Y-6977559D01*
X17053896Y-6970892D01*
X17052576Y-6965340D01*
X17050504Y-6960711D01*
X17047712Y-6956855D01*
X17044165Y-6953666D01*
X17038965Y-6950611D01*
X17032615Y-6948292D01*
X17024890Y-6946789D01*
X17015521Y-6946247D01*
X17010642Y-6946492D01*
X17005117Y-6947273D01*
X16998965Y-6948792D01*
X16993884Y-6950747D01*
X16989717Y-6953086D01*
X16985191Y-6956845D01*
X16981854Y-6961148D01*
X16979581Y-6966074D01*
X16978556Y-6970840D01*
X16978165Y-6977419D01*
X16966050Y-6977419D01*
X16966050Y-6974824D01*
X16966733Y-6966342D01*
X16968678Y-6959046D01*
X16971801Y-6952727D01*
X16976119Y-6947229D01*
X16981746Y-6942456D01*
X16988887Y-6938389D01*
X16997682Y-6935094D01*
X17007275Y-6933070D01*
X17017805Y-6932374D01*
X17028147Y-6933073D01*
G37*
G36*
X17066483Y-6911882D02*
G01*
X17066483Y-6898137D01*
X16966050Y-6898137D01*
X16966050Y-6911882D01*
X17066483Y-6911882D01*
G37*
G36*
X17028477Y-6784066D02*
G01*
X17037473Y-6786017D01*
X17045310Y-6789126D01*
X17052158Y-6793357D01*
X17057238Y-6797862D01*
X17061398Y-6803056D01*
X17064696Y-6809013D01*
X17067138Y-6815845D01*
X17068677Y-6823696D01*
X17069218Y-6832735D01*
X17068653Y-6841233D01*
X17067032Y-6848721D01*
X17064432Y-6855349D01*
X17060871Y-6861242D01*
X17056310Y-6866491D01*
X17050656Y-6871149D01*
X17043222Y-6875496D01*
X17035033Y-6878646D01*
X17025963Y-6880592D01*
X17015857Y-6881266D01*
X17006786Y-6880750D01*
X16998635Y-6879262D01*
X16991285Y-6876868D01*
X16984634Y-6873597D01*
X16978598Y-6869439D01*
X16973161Y-6863818D01*
X16968947Y-6857486D01*
X16965884Y-6850341D01*
X16963980Y-6842241D01*
X16963315Y-6833004D01*
X16963419Y-6831368D01*
X16975429Y-6831368D01*
X16975962Y-6839054D01*
X16977449Y-6845435D01*
X16979775Y-6850734D01*
X16982899Y-6855130D01*
X16986853Y-6858747D01*
X16992744Y-6862364D01*
X16999307Y-6864990D01*
X17006657Y-6866619D01*
X17014935Y-6867186D01*
X17023503Y-6866721D01*
X17030758Y-6865417D01*
X17036891Y-6863383D01*
X17042069Y-6860684D01*
X17046424Y-6857343D01*
X17051085Y-6852079D01*
X17054385Y-6846181D01*
X17056403Y-6839522D01*
X17057104Y-6831917D01*
X17056381Y-6824053D01*
X17054321Y-6817349D01*
X17050989Y-6811579D01*
X17046321Y-6806589D01*
X17040712Y-6802655D01*
X17034218Y-6799774D01*
X17026674Y-6797964D01*
X17017872Y-6797326D01*
X17009574Y-6797852D01*
X17001938Y-6799384D01*
X16994870Y-6801886D01*
X16988288Y-6805362D01*
X16983722Y-6808910D01*
X16980198Y-6813161D01*
X16977626Y-6818207D01*
X16976005Y-6824205D01*
X16975429Y-6831368D01*
X16963419Y-6831368D01*
X16963846Y-6824701D01*
X16965370Y-6817325D01*
X16967822Y-6810745D01*
X16971181Y-6804847D01*
X16975476Y-6799549D01*
X16980784Y-6794798D01*
X16986855Y-6790790D01*
X16993534Y-6787631D01*
X17000901Y-6785317D01*
X17009056Y-6783879D01*
X17018110Y-6783380D01*
X17028477Y-6784066D01*
G37*
G36*
X16999742Y-6706563D02*
G01*
X17004442Y-6707814D01*
X17008549Y-6709829D01*
X17012157Y-6712623D01*
X17015466Y-6716582D01*
X17018605Y-6722191D01*
X17021892Y-6717218D01*
X17024900Y-6714125D01*
X17028925Y-6711610D01*
X17033802Y-6710034D01*
X17039750Y-6709472D01*
X17044523Y-6709964D01*
X17048946Y-6711423D01*
X17053118Y-6713885D01*
X17057104Y-6717471D01*
X17060239Y-6721659D01*
X17062547Y-6726625D01*
X17064009Y-6732524D01*
X17064529Y-6739551D01*
X17063974Y-6746813D01*
X17062422Y-6752844D01*
X17059977Y-6757865D01*
X17056658Y-6762045D01*
X17052472Y-6765553D01*
X17047994Y-6768000D01*
X17043151Y-6769470D01*
X17037839Y-6769971D01*
X17032219Y-6769337D01*
X17027545Y-6767531D01*
X17023606Y-6764573D01*
X17020953Y-6761296D01*
X17018471Y-6756574D01*
X17015806Y-6761823D01*
X17012574Y-6765962D01*
X17008762Y-6769153D01*
X17004360Y-6771471D01*
X16999384Y-6772895D01*
X16993704Y-6773390D01*
X16986437Y-6772716D01*
X16980397Y-6770813D01*
X16975340Y-6767765D01*
X16971100Y-6763517D01*
X16967744Y-6758396D01*
X16965324Y-6752730D01*
X16963832Y-6746422D01*
X16963315Y-6739349D01*
X16963337Y-6739074D01*
X16974647Y-6739074D01*
X16975055Y-6744426D01*
X16976177Y-6748706D01*
X16977914Y-6752123D01*
X16980241Y-6754834D01*
X16984216Y-6757668D01*
X16988601Y-6759352D01*
X16993534Y-6759927D01*
X16999239Y-6759262D01*
X17003809Y-6757393D01*
X17007504Y-6754358D01*
X17010260Y-6750379D01*
X17011956Y-6745650D01*
X17012554Y-6739966D01*
X17012540Y-6739825D01*
X17023105Y-6739825D01*
X17023554Y-6744341D01*
X17024858Y-6748339D01*
X17027013Y-6751928D01*
X17029938Y-6754763D01*
X17033480Y-6756458D01*
X17037839Y-6757051D01*
X17041808Y-6756603D01*
X17045362Y-6755292D01*
X17048604Y-6753088D01*
X17051029Y-6750121D01*
X17052606Y-6745971D01*
X17053196Y-6740234D01*
X17052615Y-6734445D01*
X17051042Y-6730122D01*
X17048604Y-6726911D01*
X17045344Y-6724420D01*
X17042018Y-6723000D01*
X17038529Y-6722533D01*
X17034512Y-6723043D01*
X17030929Y-6724548D01*
X17027660Y-6727112D01*
X17025200Y-6730429D01*
X17023659Y-6734586D01*
X17023105Y-6739825D01*
X17012540Y-6739825D01*
X17011966Y-6734081D01*
X17010300Y-6729181D01*
X17007608Y-6725061D01*
X17004948Y-6722588D01*
X17001731Y-6720789D01*
X16997841Y-6719653D01*
X16993118Y-6719248D01*
X16987245Y-6719937D01*
X16982742Y-6721840D01*
X16979282Y-6724890D01*
X16976754Y-6728872D01*
X16975195Y-6733541D01*
X16974647Y-6739074D01*
X16963337Y-6739074D01*
X16963944Y-6731472D01*
X16965711Y-6724906D01*
X16968509Y-6719412D01*
X16972333Y-6714809D01*
X16977105Y-6711002D01*
X16982294Y-6708316D01*
X16987991Y-6706686D01*
X16994321Y-6706126D01*
X16999742Y-6706563D01*
G37*
G36*
X17038147Y-7943073D02*
G01*
X17047124Y-7945062D01*
X17054946Y-7948234D01*
X17061785Y-7952559D01*
X17067051Y-7957469D01*
X17071101Y-7963026D01*
X17074030Y-7969318D01*
X17075848Y-7976480D01*
X17076483Y-7984689D01*
X17076483Y-8025362D01*
X16976050Y-8025362D01*
X16976050Y-7987419D01*
X16988165Y-7987419D01*
X16988165Y-8011690D01*
X17064368Y-8011690D01*
X17064368Y-7987559D01*
X17063896Y-7980892D01*
X17062576Y-7975340D01*
X17060504Y-7970711D01*
X17057712Y-7966855D01*
X17054165Y-7963666D01*
X17048965Y-7960611D01*
X17042615Y-7958292D01*
X17034890Y-7956789D01*
X17025521Y-7956247D01*
X17020642Y-7956492D01*
X17015117Y-7957273D01*
X17008965Y-7958792D01*
X17003884Y-7960747D01*
X16999717Y-7963086D01*
X16995191Y-7966845D01*
X16991854Y-7971148D01*
X16989581Y-7976074D01*
X16988556Y-7980840D01*
X16988165Y-7987419D01*
X16976050Y-7987419D01*
X16976050Y-7984824D01*
X16976733Y-7976342D01*
X16978678Y-7969046D01*
X16981801Y-7962727D01*
X16986119Y-7957229D01*
X16991746Y-7952456D01*
X16998887Y-7948389D01*
X17007682Y-7945094D01*
X17017275Y-7943070D01*
X17027805Y-7942374D01*
X17038147Y-7943073D01*
G37*
G36*
X17076483Y-7921882D02*
G01*
X17076483Y-7908137D01*
X16976050Y-7908137D01*
X16976050Y-7921882D01*
X17076483Y-7921882D01*
G37*
G36*
X17038477Y-7794066D02*
G01*
X17047473Y-7796017D01*
X17055310Y-7799126D01*
X17062158Y-7803357D01*
X17067238Y-7807862D01*
X17071398Y-7813056D01*
X17074696Y-7819013D01*
X17077138Y-7825845D01*
X17078677Y-7833696D01*
X17079218Y-7842735D01*
X17078653Y-7851233D01*
X17077032Y-7858721D01*
X17074432Y-7865349D01*
X17070871Y-7871242D01*
X17066310Y-7876491D01*
X17060656Y-7881149D01*
X17053222Y-7885496D01*
X17045033Y-7888646D01*
X17035963Y-7890592D01*
X17025857Y-7891266D01*
X17016786Y-7890750D01*
X17008635Y-7889262D01*
X17001285Y-7886868D01*
X16994634Y-7883597D01*
X16988598Y-7879439D01*
X16983161Y-7873818D01*
X16978947Y-7867486D01*
X16975884Y-7860341D01*
X16973980Y-7852241D01*
X16973315Y-7843004D01*
X16973419Y-7841368D01*
X16985429Y-7841368D01*
X16985962Y-7849054D01*
X16987449Y-7855435D01*
X16989775Y-7860734D01*
X16992899Y-7865130D01*
X16996853Y-7868747D01*
X17002744Y-7872364D01*
X17009307Y-7874990D01*
X17016657Y-7876619D01*
X17024935Y-7877186D01*
X17033503Y-7876721D01*
X17040758Y-7875417D01*
X17046891Y-7873383D01*
X17052069Y-7870684D01*
X17056424Y-7867343D01*
X17061085Y-7862079D01*
X17064385Y-7856181D01*
X17066403Y-7849522D01*
X17067104Y-7841917D01*
X17066381Y-7834053D01*
X17064321Y-7827349D01*
X17060989Y-7821579D01*
X17056321Y-7816589D01*
X17050712Y-7812655D01*
X17044218Y-7809774D01*
X17036674Y-7807964D01*
X17027872Y-7807326D01*
X17019574Y-7807852D01*
X17011938Y-7809384D01*
X17004870Y-7811886D01*
X16998288Y-7815362D01*
X16993722Y-7818910D01*
X16990198Y-7823161D01*
X16987626Y-7828207D01*
X16986005Y-7834205D01*
X16985429Y-7841368D01*
X16973419Y-7841368D01*
X16973846Y-7834701D01*
X16975370Y-7827325D01*
X16977822Y-7820745D01*
X16981181Y-7814847D01*
X16985476Y-7809549D01*
X16990784Y-7804798D01*
X16996855Y-7800790D01*
X17003534Y-7797631D01*
X17010901Y-7795317D01*
X17019056Y-7793879D01*
X17028110Y-7793380D01*
X17038477Y-7794066D01*
G37*
G36*
X17010439Y-7729114D02*
G01*
X17074138Y-7729114D01*
X17074138Y-7739506D01*
X17011740Y-7784349D01*
X16999888Y-7784349D01*
X16999888Y-7772998D01*
X17010439Y-7772998D01*
X17054763Y-7741625D01*
X17010439Y-7741625D01*
X17010439Y-7772998D01*
X16999888Y-7772998D01*
X16999888Y-7741417D01*
X16976050Y-7741417D01*
X16976050Y-7729114D01*
X16999888Y-7729114D01*
X16999888Y-7714691D01*
X17010439Y-7714691D01*
X17010439Y-7729114D01*
G37*
G36*
X17238147Y-6933073D02*
G01*
X17247124Y-6935062D01*
X17254946Y-6938234D01*
X17261785Y-6942559D01*
X17267051Y-6947469D01*
X17271101Y-6953026D01*
X17274030Y-6959318D01*
X17275848Y-6966480D01*
X17276483Y-6974689D01*
X17276483Y-7015362D01*
X17176050Y-7015362D01*
X17176050Y-6977419D01*
X17188165Y-6977419D01*
X17188165Y-7001690D01*
X17264368Y-7001690D01*
X17264368Y-6977559D01*
X17263896Y-6970892D01*
X17262576Y-6965340D01*
X17260504Y-6960711D01*
X17257712Y-6956855D01*
X17254165Y-6953666D01*
X17248965Y-6950611D01*
X17242615Y-6948292D01*
X17234890Y-6946789D01*
X17225521Y-6946247D01*
X17220642Y-6946492D01*
X17215117Y-6947273D01*
X17208965Y-6948792D01*
X17203884Y-6950747D01*
X17199717Y-6953086D01*
X17195191Y-6956845D01*
X17191854Y-6961148D01*
X17189581Y-6966074D01*
X17188556Y-6970840D01*
X17188165Y-6977419D01*
X17176050Y-6977419D01*
X17176050Y-6974824D01*
X17176733Y-6966342D01*
X17178678Y-6959046D01*
X17181801Y-6952727D01*
X17186119Y-6947229D01*
X17191746Y-6942456D01*
X17198887Y-6938389D01*
X17207682Y-6935094D01*
X17217275Y-6933070D01*
X17227805Y-6932374D01*
X17238147Y-6933073D01*
G37*
G36*
X17276483Y-6911882D02*
G01*
X17276483Y-6898137D01*
X17176050Y-6898137D01*
X17176050Y-6911882D01*
X17276483Y-6911882D01*
G37*
G36*
X17238477Y-6784066D02*
G01*
X17247473Y-6786017D01*
X17255310Y-6789126D01*
X17262158Y-6793357D01*
X17267238Y-6797862D01*
X17271398Y-6803056D01*
X17274696Y-6809013D01*
X17277138Y-6815845D01*
X17278677Y-6823696D01*
X17279218Y-6832735D01*
X17278653Y-6841233D01*
X17277032Y-6848721D01*
X17274432Y-6855349D01*
X17270871Y-6861242D01*
X17266310Y-6866491D01*
X17260656Y-6871149D01*
X17253222Y-6875496D01*
X17245033Y-6878646D01*
X17235963Y-6880592D01*
X17225857Y-6881266D01*
X17216786Y-6880750D01*
X17208635Y-6879262D01*
X17201285Y-6876868D01*
X17194634Y-6873597D01*
X17188598Y-6869439D01*
X17183161Y-6863818D01*
X17178947Y-6857486D01*
X17175884Y-6850341D01*
X17173980Y-6842241D01*
X17173315Y-6833004D01*
X17173419Y-6831368D01*
X17185429Y-6831368D01*
X17185962Y-6839054D01*
X17187449Y-6845435D01*
X17189775Y-6850734D01*
X17192899Y-6855130D01*
X17196853Y-6858747D01*
X17202744Y-6862364D01*
X17209307Y-6864990D01*
X17216657Y-6866619D01*
X17224935Y-6867186D01*
X17233503Y-6866721D01*
X17240758Y-6865417D01*
X17246891Y-6863383D01*
X17252069Y-6860684D01*
X17256424Y-6857343D01*
X17261085Y-6852079D01*
X17264385Y-6846181D01*
X17266403Y-6839522D01*
X17267104Y-6831917D01*
X17266381Y-6824053D01*
X17264321Y-6817349D01*
X17260989Y-6811579D01*
X17256321Y-6806589D01*
X17250712Y-6802655D01*
X17244218Y-6799774D01*
X17236674Y-6797964D01*
X17227872Y-6797326D01*
X17219574Y-6797852D01*
X17211938Y-6799384D01*
X17204870Y-6801886D01*
X17198288Y-6805362D01*
X17193722Y-6808910D01*
X17190198Y-6813161D01*
X17187626Y-6818207D01*
X17186005Y-6824205D01*
X17185429Y-6831368D01*
X17173419Y-6831368D01*
X17173846Y-6824701D01*
X17175370Y-6817325D01*
X17177822Y-6810745D01*
X17181181Y-6804847D01*
X17185476Y-6799549D01*
X17190784Y-6794798D01*
X17196855Y-6790790D01*
X17203534Y-6787631D01*
X17210901Y-6785317D01*
X17219056Y-6783879D01*
X17228110Y-6783380D01*
X17238477Y-6784066D01*
G37*
G36*
X17272575Y-6704691D02*
G01*
X17262066Y-6704691D01*
X17256288Y-6709636D01*
X17245836Y-6717233D01*
X17234083Y-6724568D01*
X17221296Y-6731075D01*
X17208653Y-6736454D01*
X17197916Y-6740100D01*
X17176050Y-6745229D01*
X17176050Y-6758834D01*
X17189860Y-6755882D01*
X17203782Y-6751529D01*
X17217873Y-6745707D01*
X17232183Y-6738323D01*
X17242917Y-6731771D01*
X17252304Y-6725208D01*
X17260460Y-6718637D01*
X17260460Y-6772774D01*
X17272575Y-6772774D01*
X17272575Y-6704691D01*
G37*
G36*
X17248147Y-7943073D02*
G01*
X17257124Y-7945062D01*
X17264946Y-7948234D01*
X17271785Y-7952559D01*
X17277051Y-7957469D01*
X17281101Y-7963026D01*
X17284030Y-7969318D01*
X17285848Y-7976480D01*
X17286483Y-7984689D01*
X17286483Y-8025362D01*
X17186050Y-8025362D01*
X17186050Y-7987419D01*
X17198165Y-7987419D01*
X17198165Y-8011690D01*
X17274368Y-8011690D01*
X17274368Y-7987559D01*
X17273896Y-7980892D01*
X17272576Y-7975340D01*
X17270504Y-7970711D01*
X17267712Y-7966855D01*
X17264165Y-7963666D01*
X17258965Y-7960611D01*
X17252615Y-7958292D01*
X17244890Y-7956789D01*
X17235521Y-7956247D01*
X17230642Y-7956492D01*
X17225117Y-7957273D01*
X17218965Y-7958792D01*
X17213884Y-7960747D01*
X17209717Y-7963086D01*
X17205191Y-7966845D01*
X17201854Y-7971148D01*
X17199581Y-7976074D01*
X17198556Y-7980840D01*
X17198165Y-7987419D01*
X17186050Y-7987419D01*
X17186050Y-7984824D01*
X17186733Y-7976342D01*
X17188678Y-7969046D01*
X17191801Y-7962727D01*
X17196119Y-7957229D01*
X17201746Y-7952456D01*
X17208887Y-7948389D01*
X17217682Y-7945094D01*
X17227275Y-7943070D01*
X17237805Y-7942374D01*
X17248147Y-7943073D01*
G37*
G36*
X17286483Y-7921882D02*
G01*
X17286483Y-7908137D01*
X17186050Y-7908137D01*
X17186050Y-7921882D01*
X17286483Y-7921882D01*
G37*
G36*
X17248477Y-7794066D02*
G01*
X17257473Y-7796017D01*
X17265310Y-7799126D01*
X17272158Y-7803357D01*
X17277238Y-7807862D01*
X17281398Y-7813056D01*
X17284696Y-7819013D01*
X17287138Y-7825845D01*
X17288677Y-7833696D01*
X17289218Y-7842735D01*
X17288653Y-7851233D01*
X17287032Y-7858721D01*
X17284432Y-7865349D01*
X17280871Y-7871242D01*
X17276310Y-7876491D01*
X17270656Y-7881149D01*
X17263222Y-7885496D01*
X17255033Y-7888646D01*
X17245963Y-7890592D01*
X17235857Y-7891266D01*
X17226786Y-7890750D01*
X17218635Y-7889262D01*
X17211285Y-7886868D01*
X17204634Y-7883597D01*
X17198598Y-7879439D01*
X17193161Y-7873818D01*
X17188947Y-7867486D01*
X17185884Y-7860341D01*
X17183980Y-7852241D01*
X17183315Y-7843004D01*
X17183419Y-7841368D01*
X17195429Y-7841368D01*
X17195962Y-7849054D01*
X17197449Y-7855435D01*
X17199775Y-7860734D01*
X17202899Y-7865130D01*
X17206853Y-7868747D01*
X17212744Y-7872364D01*
X17219307Y-7874990D01*
X17226657Y-7876619D01*
X17234935Y-7877186D01*
X17243503Y-7876721D01*
X17250758Y-7875417D01*
X17256891Y-7873383D01*
X17262069Y-7870684D01*
X17266424Y-7867343D01*
X17271085Y-7862079D01*
X17274385Y-7856181D01*
X17276403Y-7849522D01*
X17277104Y-7841917D01*
X17276381Y-7834053D01*
X17274321Y-7827349D01*
X17270989Y-7821579D01*
X17266321Y-7816589D01*
X17260712Y-7812655D01*
X17254218Y-7809774D01*
X17246674Y-7807964D01*
X17237872Y-7807326D01*
X17229574Y-7807852D01*
X17221938Y-7809384D01*
X17214870Y-7811886D01*
X17208288Y-7815362D01*
X17203722Y-7818910D01*
X17200198Y-7823161D01*
X17197626Y-7828207D01*
X17196005Y-7834205D01*
X17195429Y-7841368D01*
X17183419Y-7841368D01*
X17183846Y-7834701D01*
X17185370Y-7827325D01*
X17187822Y-7820745D01*
X17191181Y-7814847D01*
X17195476Y-7809549D01*
X17200784Y-7804798D01*
X17206855Y-7800790D01*
X17213534Y-7797631D01*
X17220901Y-7795317D01*
X17229056Y-7793879D01*
X17238110Y-7793380D01*
X17248477Y-7794066D01*
G37*
G36*
X17183315Y-7751535D02*
G01*
X17184012Y-7760220D01*
X17185927Y-7767083D01*
X17188889Y-7772493D01*
X17192871Y-7776723D01*
X17197846Y-7780111D01*
X17203316Y-7782542D01*
X17209375Y-7784035D01*
X17216141Y-7784551D01*
X17216141Y-7771703D01*
X17209818Y-7770832D01*
X17205372Y-7769606D01*
X17202359Y-7768150D01*
X17199127Y-7765435D01*
X17196750Y-7761810D01*
X17195212Y-7757058D01*
X17194647Y-7750851D01*
X17195273Y-7744575D01*
X17197028Y-7739463D01*
X17199838Y-7735268D01*
X17203628Y-7732004D01*
X17208024Y-7730061D01*
X17213222Y-7729388D01*
X17218237Y-7729839D01*
X17222109Y-7731071D01*
X17225091Y-7732979D01*
X17227352Y-7735574D01*
X17229469Y-7739890D01*
X17230866Y-7745509D01*
X17231382Y-7752768D01*
X17231382Y-7755260D01*
X17231382Y-7757824D01*
X17242714Y-7757824D01*
X17242086Y-7754612D01*
X17241933Y-7751810D01*
X17242531Y-7745276D01*
X17244131Y-7740459D01*
X17246415Y-7737069D01*
X17249366Y-7734687D01*
X17253106Y-7733202D01*
X17257876Y-7732667D01*
X17262521Y-7733278D01*
X17266223Y-7735006D01*
X17269209Y-7737864D01*
X17271415Y-7741499D01*
X17272742Y-7745498D01*
X17273196Y-7749966D01*
X17272614Y-7756027D01*
X17271022Y-7760694D01*
X17268539Y-7764282D01*
X17265124Y-7766989D01*
X17262052Y-7768369D01*
X17257928Y-7769384D01*
X17252484Y-7769927D01*
X17252484Y-7782090D01*
X17259615Y-7781566D01*
X17265712Y-7780081D01*
X17270949Y-7777718D01*
X17275753Y-7774328D01*
X17279463Y-7770133D01*
X17282183Y-7765028D01*
X17283910Y-7758823D01*
X17284529Y-7751260D01*
X17284044Y-7743704D01*
X17282695Y-7737466D01*
X17280599Y-7732323D01*
X17277812Y-7728094D01*
X17274177Y-7724576D01*
X17269831Y-7722040D01*
X17264630Y-7720451D01*
X17258364Y-7719887D01*
X17252480Y-7720469D01*
X17247639Y-7722109D01*
X17243624Y-7724742D01*
X17240531Y-7728136D01*
X17238117Y-7732533D01*
X17236224Y-7727688D01*
X17233506Y-7723710D01*
X17229922Y-7720467D01*
X17225685Y-7718102D01*
X17220787Y-7716639D01*
X17215072Y-7716126D01*
X17208185Y-7716736D01*
X17202172Y-7718491D01*
X17196871Y-7721347D01*
X17192162Y-7725358D01*
X17188444Y-7730201D01*
X17185693Y-7736034D01*
X17183941Y-7743060D01*
X17183315Y-7751535D01*
G37*
G36*
X17458147Y-6933073D02*
G01*
X17467124Y-6935062D01*
X17474946Y-6938234D01*
X17481785Y-6942559D01*
X17487051Y-6947469D01*
X17491101Y-6953026D01*
X17494030Y-6959318D01*
X17495848Y-6966480D01*
X17496483Y-6974689D01*
X17496483Y-7015362D01*
X17396050Y-7015362D01*
X17396050Y-6977419D01*
X17408165Y-6977419D01*
X17408165Y-7001690D01*
X17484368Y-7001690D01*
X17484368Y-6977559D01*
X17483896Y-6970892D01*
X17482576Y-6965340D01*
X17480504Y-6960711D01*
X17477712Y-6956855D01*
X17474165Y-6953666D01*
X17468965Y-6950611D01*
X17462615Y-6948292D01*
X17454890Y-6946789D01*
X17445521Y-6946247D01*
X17440642Y-6946492D01*
X17435117Y-6947273D01*
X17428965Y-6948792D01*
X17423884Y-6950747D01*
X17419717Y-6953086D01*
X17415191Y-6956845D01*
X17411854Y-6961148D01*
X17409581Y-6966074D01*
X17408556Y-6970840D01*
X17408165Y-6977419D01*
X17396050Y-6977419D01*
X17396050Y-6974824D01*
X17396733Y-6966342D01*
X17398678Y-6959046D01*
X17401801Y-6952727D01*
X17406119Y-6947229D01*
X17411746Y-6942456D01*
X17418887Y-6938389D01*
X17427682Y-6935094D01*
X17437275Y-6933070D01*
X17447805Y-6932374D01*
X17458147Y-6933073D01*
G37*
G36*
X17496483Y-6911882D02*
G01*
X17496483Y-6898137D01*
X17396050Y-6898137D01*
X17396050Y-6911882D01*
X17496483Y-6911882D01*
G37*
G36*
X17458477Y-6784066D02*
G01*
X17467473Y-6786017D01*
X17475310Y-6789126D01*
X17482158Y-6793357D01*
X17487238Y-6797862D01*
X17491398Y-6803056D01*
X17494696Y-6809013D01*
X17497138Y-6815845D01*
X17498677Y-6823696D01*
X17499218Y-6832735D01*
X17498653Y-6841233D01*
X17497032Y-6848721D01*
X17494432Y-6855349D01*
X17490871Y-6861242D01*
X17486310Y-6866491D01*
X17480656Y-6871149D01*
X17473222Y-6875496D01*
X17465033Y-6878646D01*
X17455963Y-6880592D01*
X17445857Y-6881266D01*
X17436786Y-6880750D01*
X17428635Y-6879262D01*
X17421285Y-6876868D01*
X17414634Y-6873597D01*
X17408598Y-6869439D01*
X17403161Y-6863818D01*
X17398947Y-6857486D01*
X17395884Y-6850341D01*
X17393980Y-6842241D01*
X17393315Y-6833004D01*
X17393419Y-6831368D01*
X17405429Y-6831368D01*
X17405962Y-6839054D01*
X17407449Y-6845435D01*
X17409775Y-6850734D01*
X17412899Y-6855130D01*
X17416853Y-6858747D01*
X17422744Y-6862364D01*
X17429307Y-6864990D01*
X17436657Y-6866619D01*
X17444935Y-6867186D01*
X17453503Y-6866721D01*
X17460758Y-6865417D01*
X17466891Y-6863383D01*
X17472069Y-6860684D01*
X17476424Y-6857343D01*
X17481085Y-6852079D01*
X17484385Y-6846181D01*
X17486403Y-6839522D01*
X17487104Y-6831917D01*
X17486381Y-6824053D01*
X17484321Y-6817349D01*
X17480989Y-6811579D01*
X17476321Y-6806589D01*
X17470712Y-6802655D01*
X17464218Y-6799774D01*
X17456674Y-6797964D01*
X17447872Y-6797326D01*
X17439574Y-6797852D01*
X17431938Y-6799384D01*
X17424870Y-6801886D01*
X17418288Y-6805362D01*
X17413722Y-6808910D01*
X17410198Y-6813161D01*
X17407626Y-6818207D01*
X17406005Y-6824205D01*
X17405429Y-6831368D01*
X17393419Y-6831368D01*
X17393846Y-6824701D01*
X17395370Y-6817325D01*
X17397822Y-6810745D01*
X17401181Y-6804847D01*
X17405476Y-6799549D01*
X17410784Y-6794798D01*
X17416855Y-6790790D01*
X17423534Y-6787631D01*
X17430901Y-6785317D01*
X17439056Y-6783879D01*
X17448110Y-6783380D01*
X17458477Y-6784066D01*
G37*
G36*
X17435240Y-6706157D02*
G01*
X17441600Y-6707961D01*
X17446804Y-6710801D01*
X17451054Y-6714674D01*
X17454530Y-6719474D01*
X17456980Y-6724597D01*
X17458462Y-6730119D01*
X17458967Y-6736137D01*
X17458258Y-6743131D01*
X17456207Y-6749259D01*
X17453802Y-6753275D01*
X17450695Y-6756817D01*
X17446816Y-6759927D01*
X17455905Y-6759148D01*
X17463306Y-6757686D01*
X17469283Y-6755662D01*
X17474067Y-6753161D01*
X17478355Y-6749729D01*
X17481265Y-6745914D01*
X17482994Y-6741640D01*
X17483587Y-6736754D01*
X17483164Y-6732335D01*
X17481977Y-6728718D01*
X17480081Y-6725737D01*
X17477438Y-6723284D01*
X17473744Y-6721302D01*
X17468346Y-6719797D01*
X17468346Y-6707628D01*
X17474193Y-6708311D01*
X17480027Y-6710408D01*
X17485974Y-6714088D01*
X17489483Y-6717621D01*
X17492135Y-6722380D01*
X17493882Y-6728682D01*
X17494529Y-6736955D01*
X17493840Y-6744177D01*
X17491867Y-6750396D01*
X17488653Y-6755813D01*
X17484109Y-6760563D01*
X17478028Y-6764701D01*
X17470098Y-6768194D01*
X17461477Y-6770560D01*
X17451205Y-6772090D01*
X17439012Y-6772639D01*
X17428573Y-6772132D01*
X17420136Y-6770743D01*
X17413373Y-6768635D01*
X17408000Y-6765923D01*
X17403780Y-6762662D01*
X17399122Y-6757325D01*
X17395896Y-6751661D01*
X17393969Y-6745577D01*
X17393315Y-6738940D01*
X17393413Y-6737841D01*
X17404647Y-6737841D01*
X17405074Y-6742572D01*
X17406286Y-6746576D01*
X17408236Y-6749991D01*
X17410955Y-6752917D01*
X17415427Y-6755903D01*
X17420565Y-6757719D01*
X17426550Y-6758351D01*
X17431818Y-6757925D01*
X17436092Y-6756741D01*
X17439564Y-6754888D01*
X17442377Y-6752373D01*
X17445310Y-6748143D01*
X17447045Y-6743549D01*
X17447634Y-6738458D01*
X17447133Y-6732811D01*
X17445772Y-6728505D01*
X17443677Y-6725239D01*
X17440844Y-6722808D01*
X17436171Y-6720385D01*
X17431432Y-6718968D01*
X17426550Y-6718497D01*
X17420796Y-6719053D01*
X17415713Y-6720665D01*
X17411163Y-6723321D01*
X17408366Y-6725969D01*
X17406356Y-6729185D01*
X17405096Y-6733084D01*
X17404647Y-6737841D01*
X17393413Y-6737841D01*
X17394023Y-6731041D01*
X17396023Y-6724438D01*
X17399225Y-6718880D01*
X17403670Y-6714192D01*
X17409089Y-6710365D01*
X17414803Y-6707676D01*
X17420889Y-6706059D01*
X17427448Y-6705509D01*
X17435240Y-6706157D01*
G37*
G36*
X17478147Y-7943073D02*
G01*
X17487124Y-7945062D01*
X17494946Y-7948234D01*
X17501785Y-7952559D01*
X17507051Y-7957469D01*
X17511101Y-7963026D01*
X17514030Y-7969318D01*
X17515848Y-7976480D01*
X17516483Y-7984689D01*
X17516483Y-8025362D01*
X17416050Y-8025362D01*
X17416050Y-7987419D01*
X17428165Y-7987419D01*
X17428165Y-8011690D01*
X17504368Y-8011690D01*
X17504368Y-7987559D01*
X17503896Y-7980892D01*
X17502576Y-7975340D01*
X17500504Y-7970711D01*
X17497712Y-7966855D01*
X17494165Y-7963666D01*
X17488965Y-7960611D01*
X17482615Y-7958292D01*
X17474890Y-7956789D01*
X17465521Y-7956247D01*
X17460642Y-7956492D01*
X17455117Y-7957273D01*
X17448965Y-7958792D01*
X17443884Y-7960747D01*
X17439717Y-7963086D01*
X17435191Y-7966845D01*
X17431854Y-7971148D01*
X17429581Y-7976074D01*
X17428556Y-7980840D01*
X17428165Y-7987419D01*
X17416050Y-7987419D01*
X17416050Y-7984824D01*
X17416733Y-7976342D01*
X17418678Y-7969046D01*
X17421801Y-7962727D01*
X17426119Y-7957229D01*
X17431746Y-7952456D01*
X17438887Y-7948389D01*
X17447682Y-7945094D01*
X17457275Y-7943070D01*
X17467805Y-7942374D01*
X17478147Y-7943073D01*
G37*
G36*
X17516483Y-7921882D02*
G01*
X17516483Y-7908137D01*
X17416050Y-7908137D01*
X17416050Y-7921882D01*
X17516483Y-7921882D01*
G37*
G36*
X17478477Y-7794066D02*
G01*
X17487473Y-7796017D01*
X17495310Y-7799126D01*
X17502158Y-7803357D01*
X17507238Y-7807862D01*
X17511398Y-7813056D01*
X17514696Y-7819013D01*
X17517138Y-7825845D01*
X17518677Y-7833696D01*
X17519218Y-7842735D01*
X17518653Y-7851233D01*
X17517032Y-7858721D01*
X17514432Y-7865349D01*
X17510871Y-7871242D01*
X17506310Y-7876491D01*
X17500656Y-7881149D01*
X17493222Y-7885496D01*
X17485033Y-7888646D01*
X17475963Y-7890592D01*
X17465857Y-7891266D01*
X17456786Y-7890750D01*
X17448635Y-7889262D01*
X17441285Y-7886868D01*
X17434634Y-7883597D01*
X17428598Y-7879439D01*
X17423161Y-7873818D01*
X17418947Y-7867486D01*
X17415884Y-7860341D01*
X17413980Y-7852241D01*
X17413315Y-7843004D01*
X17413419Y-7841368D01*
X17425429Y-7841368D01*
X17425962Y-7849054D01*
X17427449Y-7855435D01*
X17429775Y-7860734D01*
X17432899Y-7865130D01*
X17436853Y-7868747D01*
X17442744Y-7872364D01*
X17449307Y-7874990D01*
X17456657Y-7876619D01*
X17464935Y-7877186D01*
X17473503Y-7876721D01*
X17480758Y-7875417D01*
X17486891Y-7873383D01*
X17492069Y-7870684D01*
X17496424Y-7867343D01*
X17501085Y-7862079D01*
X17504385Y-7856181D01*
X17506403Y-7849522D01*
X17507104Y-7841917D01*
X17506381Y-7834053D01*
X17504321Y-7827349D01*
X17500989Y-7821579D01*
X17496321Y-7816589D01*
X17490712Y-7812655D01*
X17484218Y-7809774D01*
X17476674Y-7807964D01*
X17467872Y-7807326D01*
X17459574Y-7807852D01*
X17451938Y-7809384D01*
X17444870Y-7811886D01*
X17438288Y-7815362D01*
X17433722Y-7818910D01*
X17430198Y-7823161D01*
X17427626Y-7828207D01*
X17426005Y-7834205D01*
X17425429Y-7841368D01*
X17413419Y-7841368D01*
X17413846Y-7834701D01*
X17415370Y-7827325D01*
X17417822Y-7820745D01*
X17421181Y-7814847D01*
X17425476Y-7809549D01*
X17430784Y-7804798D01*
X17436855Y-7800790D01*
X17443534Y-7797631D01*
X17450901Y-7795317D01*
X17459056Y-7793879D01*
X17468110Y-7793380D01*
X17478477Y-7794066D01*
G37*
G36*
X17416050Y-7783525D02*
G01*
X17424452Y-7782596D01*
X17431777Y-7780832D01*
X17438172Y-7778304D01*
X17442444Y-7775717D01*
X17446691Y-7772032D01*
X17450943Y-7767058D01*
X17455208Y-7760560D01*
X17462804Y-7747432D01*
X17467946Y-7739389D01*
X17471560Y-7735061D01*
X17475617Y-7731896D01*
X17479911Y-7730067D01*
X17484572Y-7729455D01*
X17490066Y-7730068D01*
X17494519Y-7731791D01*
X17498165Y-7734585D01*
X17500905Y-7738279D01*
X17502596Y-7742762D01*
X17503196Y-7748256D01*
X17502530Y-7754378D01*
X17500687Y-7759152D01*
X17497752Y-7762888D01*
X17493603Y-7765756D01*
X17490077Y-7767130D01*
X17485418Y-7768125D01*
X17479358Y-7768626D01*
X17479358Y-7781137D01*
X17487818Y-7780455D01*
X17494697Y-7778836D01*
X17500271Y-7776417D01*
X17505300Y-7772825D01*
X17509192Y-7768366D01*
X17512055Y-7762924D01*
X17513876Y-7756290D01*
X17514529Y-7748189D01*
X17513864Y-7739765D01*
X17512038Y-7733077D01*
X17509212Y-7727779D01*
X17505419Y-7723612D01*
X17500634Y-7720156D01*
X17495705Y-7717757D01*
X17490567Y-7716331D01*
X17485140Y-7715851D01*
X17479407Y-7716378D01*
X17474210Y-7717919D01*
X17469435Y-7720474D01*
X17465002Y-7724119D01*
X17460171Y-7730017D01*
X17453224Y-7741283D01*
X17448021Y-7750650D01*
X17444224Y-7756910D01*
X17440975Y-7761177D01*
X17436707Y-7765294D01*
X17432329Y-7768107D01*
X17427774Y-7769786D01*
X17427774Y-7716334D01*
X17416050Y-7716334D01*
X17416050Y-7783525D01*
G37*
G36*
X17678147Y-6933073D02*
G01*
X17687124Y-6935062D01*
X17694946Y-6938234D01*
X17701785Y-6942559D01*
X17707051Y-6947469D01*
X17711101Y-6953026D01*
X17714030Y-6959318D01*
X17715848Y-6966480D01*
X17716483Y-6974689D01*
X17716483Y-7015362D01*
X17616050Y-7015362D01*
X17616050Y-6977419D01*
X17628165Y-6977419D01*
X17628165Y-7001690D01*
X17704368Y-7001690D01*
X17704368Y-6977559D01*
X17703896Y-6970892D01*
X17702576Y-6965340D01*
X17700504Y-6960711D01*
X17697712Y-6956855D01*
X17694165Y-6953666D01*
X17688965Y-6950611D01*
X17682615Y-6948292D01*
X17674890Y-6946789D01*
X17665521Y-6946247D01*
X17660642Y-6946492D01*
X17655117Y-6947273D01*
X17648965Y-6948792D01*
X17643884Y-6950747D01*
X17639717Y-6953086D01*
X17635191Y-6956845D01*
X17631854Y-6961148D01*
X17629581Y-6966074D01*
X17628556Y-6970840D01*
X17628165Y-6977419D01*
X17616050Y-6977419D01*
X17616050Y-6974824D01*
X17616733Y-6966342D01*
X17618678Y-6959046D01*
X17621801Y-6952727D01*
X17626119Y-6947229D01*
X17631746Y-6942456D01*
X17638887Y-6938389D01*
X17647682Y-6935094D01*
X17657275Y-6933070D01*
X17667805Y-6932374D01*
X17678147Y-6933073D01*
G37*
G36*
X17716483Y-6911882D02*
G01*
X17716483Y-6898137D01*
X17616050Y-6898137D01*
X17616050Y-6911882D01*
X17716483Y-6911882D01*
G37*
G36*
X17678477Y-6784066D02*
G01*
X17687473Y-6786017D01*
X17695310Y-6789126D01*
X17702158Y-6793357D01*
X17707238Y-6797862D01*
X17711398Y-6803056D01*
X17714696Y-6809013D01*
X17717138Y-6815845D01*
X17718677Y-6823696D01*
X17719218Y-6832735D01*
X17718653Y-6841233D01*
X17717032Y-6848721D01*
X17714432Y-6855349D01*
X17710871Y-6861242D01*
X17706310Y-6866491D01*
X17700656Y-6871149D01*
X17693222Y-6875496D01*
X17685033Y-6878646D01*
X17675963Y-6880592D01*
X17665857Y-6881266D01*
X17656786Y-6880750D01*
X17648635Y-6879262D01*
X17641285Y-6876868D01*
X17634634Y-6873597D01*
X17628598Y-6869439D01*
X17623161Y-6863818D01*
X17618947Y-6857486D01*
X17615884Y-6850341D01*
X17613980Y-6842241D01*
X17613315Y-6833004D01*
X17613419Y-6831368D01*
X17625429Y-6831368D01*
X17625962Y-6839054D01*
X17627449Y-6845435D01*
X17629775Y-6850734D01*
X17632899Y-6855130D01*
X17636853Y-6858747D01*
X17642744Y-6862364D01*
X17649307Y-6864990D01*
X17656657Y-6866619D01*
X17664935Y-6867186D01*
X17673503Y-6866721D01*
X17680758Y-6865417D01*
X17686891Y-6863383D01*
X17692069Y-6860684D01*
X17696424Y-6857343D01*
X17701085Y-6852079D01*
X17704385Y-6846181D01*
X17706403Y-6839522D01*
X17707104Y-6831917D01*
X17706381Y-6824053D01*
X17704321Y-6817349D01*
X17700989Y-6811579D01*
X17696321Y-6806589D01*
X17690712Y-6802655D01*
X17684218Y-6799774D01*
X17676674Y-6797964D01*
X17667872Y-6797326D01*
X17659574Y-6797852D01*
X17651938Y-6799384D01*
X17644870Y-6801886D01*
X17638288Y-6805362D01*
X17633722Y-6808910D01*
X17630198Y-6813161D01*
X17627626Y-6818207D01*
X17626005Y-6824205D01*
X17625429Y-6831368D01*
X17613419Y-6831368D01*
X17613846Y-6824701D01*
X17615370Y-6817325D01*
X17617822Y-6810745D01*
X17621181Y-6804847D01*
X17625476Y-6799549D01*
X17630784Y-6794798D01*
X17636855Y-6790790D01*
X17643534Y-6787631D01*
X17650901Y-6785317D01*
X17659056Y-6783879D01*
X17668110Y-6783380D01*
X17678477Y-6784066D01*
G37*
G36*
X17640670Y-6760610D02*
G01*
X17635701Y-6759478D01*
X17631767Y-6757479D01*
X17628663Y-6754634D01*
X17626284Y-6750835D01*
X17624786Y-6746226D01*
X17624257Y-6740717D01*
X17624744Y-6735321D01*
X17626103Y-6730949D01*
X17628251Y-6727393D01*
X17631211Y-6724511D01*
X17636060Y-6721566D01*
X17641157Y-6719831D01*
X17646617Y-6719248D01*
X17651668Y-6719679D01*
X17655890Y-6720895D01*
X17659441Y-6722833D01*
X17662432Y-6725507D01*
X17665534Y-6729942D01*
X17667388Y-6734890D01*
X17668025Y-6740509D01*
X17667383Y-6746557D01*
X17665589Y-6751415D01*
X17662665Y-6755591D01*
X17658646Y-6759169D01*
X17659428Y-6769837D01*
X17712575Y-6762387D01*
X17712575Y-6711524D01*
X17700460Y-6711524D01*
X17700460Y-6753155D01*
X17673062Y-6757325D01*
X17675454Y-6753883D01*
X17677050Y-6750835D01*
X17678753Y-6745088D01*
X17679358Y-6738189D01*
X17678792Y-6731595D01*
X17677149Y-6725671D01*
X17674450Y-6720290D01*
X17670638Y-6715358D01*
X17665977Y-6711254D01*
X17660817Y-6708361D01*
X17655053Y-6706600D01*
X17648534Y-6705992D01*
X17641700Y-6706539D01*
X17635388Y-6708147D01*
X17629499Y-6710806D01*
X17623951Y-6714571D01*
X17620297Y-6718195D01*
X17617388Y-6722594D01*
X17615211Y-6727895D01*
X17613815Y-6734273D01*
X17613315Y-6741944D01*
X17613747Y-6747842D01*
X17615015Y-6753285D01*
X17617101Y-6758352D01*
X17620031Y-6763108D01*
X17623723Y-6767095D01*
X17628276Y-6770133D01*
X17633848Y-6772255D01*
X17640670Y-6773390D01*
X17640670Y-6760610D01*
G37*
G36*
X17688147Y-7943073D02*
G01*
X17697124Y-7945062D01*
X17704946Y-7948234D01*
X17711785Y-7952559D01*
X17717051Y-7957469D01*
X17721101Y-7963026D01*
X17724030Y-7969318D01*
X17725848Y-7976480D01*
X17726483Y-7984689D01*
X17726483Y-8025362D01*
X17626050Y-8025362D01*
X17626050Y-7987419D01*
X17638165Y-7987419D01*
X17638165Y-8011690D01*
X17714368Y-8011690D01*
X17714368Y-7987559D01*
X17713896Y-7980892D01*
X17712576Y-7975340D01*
X17710504Y-7970711D01*
X17707712Y-7966855D01*
X17704165Y-7963666D01*
X17698965Y-7960611D01*
X17692615Y-7958292D01*
X17684890Y-7956789D01*
X17675521Y-7956247D01*
X17670642Y-7956492D01*
X17665117Y-7957273D01*
X17658965Y-7958792D01*
X17653884Y-7960747D01*
X17649717Y-7963086D01*
X17645191Y-7966845D01*
X17641854Y-7971148D01*
X17639581Y-7976074D01*
X17638556Y-7980840D01*
X17638165Y-7987419D01*
X17626050Y-7987419D01*
X17626050Y-7984824D01*
X17626733Y-7976342D01*
X17628678Y-7969046D01*
X17631801Y-7962727D01*
X17636119Y-7957229D01*
X17641746Y-7952456D01*
X17648887Y-7948389D01*
X17657682Y-7945094D01*
X17667275Y-7943070D01*
X17677805Y-7942374D01*
X17688147Y-7943073D01*
G37*
G36*
X17726483Y-7921882D02*
G01*
X17726483Y-7908137D01*
X17626050Y-7908137D01*
X17626050Y-7921882D01*
X17726483Y-7921882D01*
G37*
G36*
X17688477Y-7794066D02*
G01*
X17697473Y-7796017D01*
X17705310Y-7799126D01*
X17712158Y-7803357D01*
X17717238Y-7807862D01*
X17721398Y-7813056D01*
X17724696Y-7819013D01*
X17727138Y-7825845D01*
X17728677Y-7833696D01*
X17729218Y-7842735D01*
X17728653Y-7851233D01*
X17727032Y-7858721D01*
X17724432Y-7865349D01*
X17720871Y-7871242D01*
X17716310Y-7876491D01*
X17710656Y-7881149D01*
X17703222Y-7885496D01*
X17695033Y-7888646D01*
X17685963Y-7890592D01*
X17675857Y-7891266D01*
X17666786Y-7890750D01*
X17658635Y-7889262D01*
X17651285Y-7886868D01*
X17644634Y-7883597D01*
X17638598Y-7879439D01*
X17633161Y-7873818D01*
X17628947Y-7867486D01*
X17625884Y-7860341D01*
X17623980Y-7852241D01*
X17623315Y-7843004D01*
X17623419Y-7841368D01*
X17635429Y-7841368D01*
X17635962Y-7849054D01*
X17637449Y-7855435D01*
X17639775Y-7860734D01*
X17642899Y-7865130D01*
X17646853Y-7868747D01*
X17652744Y-7872364D01*
X17659307Y-7874990D01*
X17666657Y-7876619D01*
X17674935Y-7877186D01*
X17683503Y-7876721D01*
X17690758Y-7875417D01*
X17696891Y-7873383D01*
X17702069Y-7870684D01*
X17706424Y-7867343D01*
X17711085Y-7862079D01*
X17714385Y-7856181D01*
X17716403Y-7849522D01*
X17717104Y-7841917D01*
X17716381Y-7834053D01*
X17714321Y-7827349D01*
X17710989Y-7821579D01*
X17706321Y-7816589D01*
X17700712Y-7812655D01*
X17694218Y-7809774D01*
X17686674Y-7807964D01*
X17677872Y-7807326D01*
X17669574Y-7807852D01*
X17661938Y-7809384D01*
X17654870Y-7811886D01*
X17648288Y-7815362D01*
X17643722Y-7818910D01*
X17640198Y-7823161D01*
X17637626Y-7828207D01*
X17636005Y-7834205D01*
X17635429Y-7841368D01*
X17623419Y-7841368D01*
X17623846Y-7834701D01*
X17625370Y-7827325D01*
X17627822Y-7820745D01*
X17631181Y-7814847D01*
X17635476Y-7809549D01*
X17640784Y-7804798D01*
X17646855Y-7800790D01*
X17653534Y-7797631D01*
X17660901Y-7795317D01*
X17669056Y-7793879D01*
X17678110Y-7793380D01*
X17688477Y-7794066D01*
G37*
G36*
X17695220Y-7774506D02*
G01*
X17704599Y-7774506D01*
X17705839Y-7765544D01*
X17707336Y-7759613D01*
X17708946Y-7755913D01*
X17711482Y-7753025D01*
X17716007Y-7750369D01*
X17723356Y-7748048D01*
X17723356Y-7738340D01*
X17626050Y-7738340D01*
X17626050Y-7751468D01*
X17695220Y-7751468D01*
X17695220Y-7774506D01*
G37*
G36*
X17999218Y-7482570D02*
G01*
X17998572Y-7473263D01*
X17996730Y-7465167D01*
X17993784Y-7458091D01*
X17990255Y-7452655D01*
X17985865Y-7448156D01*
X17980531Y-7444509D01*
X17974107Y-7441697D01*
X17966392Y-7439773D01*
X17966392Y-7453243D01*
X17971655Y-7454891D01*
X17975942Y-7457147D01*
X17979408Y-7459983D01*
X17982158Y-7463428D01*
X17984819Y-7468790D01*
X17986503Y-7475206D01*
X17987104Y-7482912D01*
X17986442Y-7489664D01*
X17984508Y-7495737D01*
X17981296Y-7501281D01*
X17976687Y-7506396D01*
X17972450Y-7509619D01*
X17967382Y-7512230D01*
X17961345Y-7514205D01*
X17954169Y-7515474D01*
X17945656Y-7515928D01*
X17936693Y-7515379D01*
X17928986Y-7513827D01*
X17922348Y-7511374D01*
X17916621Y-7508069D01*
X17912725Y-7504672D01*
X17909664Y-7500547D01*
X17907394Y-7495584D01*
X17905947Y-7489616D01*
X17905429Y-7482430D01*
X17905953Y-7475709D01*
X17907459Y-7469801D01*
X17909895Y-7464569D01*
X17913275Y-7459905D01*
X17917468Y-7456214D01*
X17922887Y-7453407D01*
X17929821Y-7451538D01*
X17938646Y-7450782D01*
X17938646Y-7482228D01*
X17949979Y-7482228D01*
X17949979Y-7438137D01*
X17896050Y-7438137D01*
X17896050Y-7446887D01*
X17909300Y-7450166D01*
X17902336Y-7457105D01*
X17898505Y-7462402D01*
X17895730Y-7468585D01*
X17893953Y-7476079D01*
X17893315Y-7485166D01*
X17894059Y-7493893D01*
X17896232Y-7501821D01*
X17899816Y-7509105D01*
X17904892Y-7515861D01*
X17910900Y-7520748D01*
X17917751Y-7524608D01*
X17925566Y-7527455D01*
X17934506Y-7529245D01*
X17944758Y-7529874D01*
X17954983Y-7529263D01*
X17963955Y-7527520D01*
X17971851Y-7524742D01*
X17978818Y-7520973D01*
X17984973Y-7516203D01*
X17990100Y-7510702D01*
X17994041Y-7504680D01*
X17996874Y-7498061D01*
X17998616Y-7490737D01*
X17999218Y-7482570D01*
G37*
G36*
X17974513Y-7341420D02*
G01*
X17980162Y-7343015D01*
X17984922Y-7345556D01*
X17988942Y-7349055D01*
X17992165Y-7353353D01*
X17994507Y-7358298D01*
X17995969Y-7364011D01*
X17996483Y-7370652D01*
X17996483Y-7415843D01*
X17896050Y-7415843D01*
X17896050Y-7402239D01*
X17938646Y-7402239D01*
X17938646Y-7375165D01*
X17949979Y-7375165D01*
X17949979Y-7402239D01*
X17984368Y-7402239D01*
X17984368Y-7375165D01*
X17983779Y-7367771D01*
X17982274Y-7362794D01*
X17979925Y-7359260D01*
X17976792Y-7356752D01*
X17972717Y-7355169D01*
X17967412Y-7354593D01*
X17962560Y-7355014D01*
X17958830Y-7356159D01*
X17955976Y-7357922D01*
X17953826Y-7360302D01*
X17951768Y-7364280D01*
X17950452Y-7369163D01*
X17949979Y-7375165D01*
X17938646Y-7375165D01*
X17938646Y-7370652D01*
X17939268Y-7363098D01*
X17940991Y-7357013D01*
X17943685Y-7352107D01*
X17947341Y-7348170D01*
X17951886Y-7344965D01*
X17956755Y-7342698D01*
X17962019Y-7341324D01*
X17967772Y-7340855D01*
X17974513Y-7341420D01*
G37*
G36*
X17996483Y-7320766D02*
G01*
X17996483Y-7307021D01*
X17896050Y-7307021D01*
X17896050Y-7320766D01*
X17996483Y-7320766D01*
G37*
G36*
X17931027Y-7208312D02*
G01*
X17935842Y-7209630D01*
X17939925Y-7211730D01*
X17943397Y-7214618D01*
X17946701Y-7219086D01*
X17950016Y-7226170D01*
X17952951Y-7221352D01*
X17955908Y-7218104D01*
X17960250Y-7215155D01*
X17965388Y-7213339D01*
X17971533Y-7212700D01*
X17976832Y-7213201D01*
X17981592Y-7214662D01*
X17985925Y-7217078D01*
X17989565Y-7220286D01*
X17992446Y-7224248D01*
X17994601Y-7229087D01*
X17995985Y-7234983D01*
X17996483Y-7242162D01*
X17996483Y-7285302D01*
X17896050Y-7285302D01*
X17896050Y-7242846D01*
X17896064Y-7242638D01*
X17908165Y-7242638D01*
X17908165Y-7271966D01*
X17942945Y-7271966D01*
X17942945Y-7247224D01*
X17953887Y-7247224D01*
X17953887Y-7271966D01*
X17985150Y-7271966D01*
X17985150Y-7247700D01*
X17984590Y-7239388D01*
X17983226Y-7234304D01*
X17981114Y-7230816D01*
X17978296Y-7228378D01*
X17974644Y-7226856D01*
X17969897Y-7226305D01*
X17965146Y-7226825D01*
X17961436Y-7228266D01*
X17958529Y-7230566D01*
X17956293Y-7233821D01*
X17955045Y-7237111D01*
X17954202Y-7241487D01*
X17953887Y-7247224D01*
X17942945Y-7247224D01*
X17942945Y-7244965D01*
X17942363Y-7236877D01*
X17940856Y-7231226D01*
X17938423Y-7226879D01*
X17935263Y-7223910D01*
X17931276Y-7222097D01*
X17926196Y-7221450D01*
X17922045Y-7221842D01*
X17918449Y-7222967D01*
X17915296Y-7224803D01*
X17912322Y-7227725D01*
X17910116Y-7231520D01*
X17908687Y-7236395D01*
X17908165Y-7242638D01*
X17896064Y-7242638D01*
X17896596Y-7234794D01*
X17898124Y-7228077D01*
X17900516Y-7222473D01*
X17903727Y-7217799D01*
X17907786Y-7213928D01*
X17913267Y-7210527D01*
X17919066Y-7208522D01*
X17925316Y-7207846D01*
X17931027Y-7208312D01*
G37*
G36*
X14044118Y-11361743D02*
G01*
X14040124Y-11362804D01*
X14036729Y-11364615D01*
X14033829Y-11367201D01*
X14031659Y-11370392D01*
X14030317Y-11374209D01*
X14029842Y-11378821D01*
X14030362Y-11383664D01*
X14031863Y-11387852D01*
X14034229Y-11391553D01*
X14037243Y-11394642D01*
X14040838Y-11397088D01*
X14045064Y-11398910D01*
X14049617Y-11400011D01*
X14054419Y-11400382D01*
X14059332Y-11400023D01*
X14063773Y-11398984D01*
X14067875Y-11397247D01*
X14071382Y-11394923D01*
X14074288Y-11391944D01*
X14076480Y-11388274D01*
X14077826Y-11384079D01*
X14078300Y-11379102D01*
X14077841Y-11374479D01*
X14076542Y-11370636D01*
X14074447Y-11367409D01*
X14071646Y-11364750D01*
X14068432Y-11362876D01*
X14064720Y-11361743D01*
X14064720Y-11352919D01*
X14069834Y-11354171D01*
X14074114Y-11356091D01*
X14077693Y-11358652D01*
X14080663Y-11361883D01*
X14083659Y-11366973D01*
X14085484Y-11372705D01*
X14086116Y-11379243D01*
X14085498Y-11386141D01*
X14083728Y-11392120D01*
X14080859Y-11397451D01*
X14077140Y-11401780D01*
X14072563Y-11405214D01*
X14067040Y-11407801D01*
X14060963Y-11409361D01*
X14054138Y-11409901D01*
X14047443Y-11409347D01*
X14041376Y-11407734D01*
X14035854Y-11405065D01*
X14031210Y-11401499D01*
X14027414Y-11397053D01*
X14024481Y-11391699D01*
X14022660Y-11385716D01*
X14022026Y-11378821D01*
X14022702Y-11372598D01*
X14024672Y-11367076D01*
X14027961Y-11362091D01*
X14032314Y-11357975D01*
X14037637Y-11354874D01*
X14044118Y-11352779D01*
X14044118Y-11361743D01*
G37*
G36*
X14061572Y-11328478D02*
G01*
X14068417Y-11329883D01*
X14074887Y-11332201D01*
X14081010Y-11335356D01*
X14086508Y-11339130D01*
X14091434Y-11343540D01*
X14095757Y-11348544D01*
X14099418Y-11354081D01*
X14102437Y-11360204D01*
X14104649Y-11366653D01*
X14105985Y-11373398D01*
X14106437Y-11380500D01*
X14105986Y-11387608D01*
X14104651Y-11394379D01*
X14102437Y-11400876D01*
X14099418Y-11407041D01*
X14095756Y-11412624D01*
X14091434Y-11417674D01*
X14086504Y-11422125D01*
X14081006Y-11425921D01*
X14074887Y-11429080D01*
X14068417Y-11431398D01*
X14061572Y-11432804D01*
X14054279Y-11433281D01*
X14046801Y-11432801D01*
X14039842Y-11431393D01*
X14033323Y-11429080D01*
X14027157Y-11425921D01*
X14021612Y-11422125D01*
X14016635Y-11417674D01*
X14012278Y-11412617D01*
X14008617Y-11407035D01*
X14005631Y-11400876D01*
X14003459Y-11394383D01*
X14002148Y-11387611D01*
X14001705Y-11380500D01*
X14009130Y-11380500D01*
X14009522Y-11386586D01*
X14010673Y-11392283D01*
X14012568Y-11397652D01*
X14015165Y-11402721D01*
X14018314Y-11407279D01*
X14022032Y-11411373D01*
X14026262Y-11414940D01*
X14030992Y-11417969D01*
X14036272Y-11420471D01*
X14041829Y-11422280D01*
X14047770Y-11423384D01*
X14054156Y-11423762D01*
X14060355Y-11423387D01*
X14066180Y-11422285D01*
X14071687Y-11420471D01*
X14076921Y-11417970D01*
X14081603Y-11414940D01*
X14085786Y-11411373D01*
X14089464Y-11407284D01*
X14092591Y-11402725D01*
X14095183Y-11397652D01*
X14097078Y-11392283D01*
X14098229Y-11386586D01*
X14098621Y-11380500D01*
X14098230Y-11374509D01*
X14097080Y-11368883D01*
X14095183Y-11363562D01*
X14092594Y-11358533D01*
X14089468Y-11353998D01*
X14085786Y-11349915D01*
X14081603Y-11346344D01*
X14076920Y-11343313D01*
X14071687Y-11340811D01*
X14066180Y-11338997D01*
X14060355Y-11337895D01*
X14054156Y-11337520D01*
X14047770Y-11337897D01*
X14041829Y-11339002D01*
X14036272Y-11340811D01*
X14030992Y-11343313D01*
X14026262Y-11346345D01*
X14022032Y-11349915D01*
X14018310Y-11354002D01*
X14015162Y-11358537D01*
X14012568Y-11363562D01*
X14010671Y-11368883D01*
X14009521Y-11374509D01*
X14009130Y-11380500D01*
X14001705Y-11380500D01*
X14002149Y-11373395D01*
X14003461Y-11366650D01*
X14005631Y-11360204D01*
X14008617Y-11354088D01*
X14012277Y-11348550D01*
X14016635Y-11343540D01*
X14021608Y-11339131D01*
X14027153Y-11335356D01*
X14033323Y-11332201D01*
X14039842Y-11329889D01*
X14046801Y-11328481D01*
X14054279Y-11328000D01*
X14061572Y-11328478D01*
G37*
G36*
X14068121Y-11279634D02*
G01*
X14068121Y-11267734D01*
X14072579Y-11267577D01*
X14077011Y-11266824D01*
X14081225Y-11265426D01*
X14084919Y-11263392D01*
X14088085Y-11260684D01*
X14090591Y-11257304D01*
X14092191Y-11253329D01*
X14092759Y-11248414D01*
X14092440Y-11244575D01*
X14091501Y-11240995D01*
X14089950Y-11237703D01*
X14087862Y-11234907D01*
X14085264Y-11232584D01*
X14082189Y-11230774D01*
X14078762Y-11229630D01*
X14074850Y-11229235D01*
X14069872Y-11229658D01*
X14065752Y-11230847D01*
X14062014Y-11232814D01*
X14058480Y-11235603D01*
X14055238Y-11239038D01*
X14051830Y-11243517D01*
X14044625Y-11254575D01*
X14038049Y-11264516D01*
X14034276Y-11269024D01*
X14029934Y-11273058D01*
X14024991Y-11276461D01*
X14019089Y-11279286D01*
X14012493Y-11281240D01*
X14004050Y-11282437D01*
X14004050Y-11217615D01*
X14014601Y-11217615D01*
X14014601Y-11268576D01*
X14018977Y-11267252D01*
X14022783Y-11265004D01*
X14026194Y-11262032D01*
X14029433Y-11258428D01*
X14035240Y-11249959D01*
X14040766Y-11240714D01*
X14046921Y-11231757D01*
X14050347Y-11227644D01*
X14054126Y-11224057D01*
X14058358Y-11221044D01*
X14063151Y-11218671D01*
X14068433Y-11217171D01*
X14074764Y-11216638D01*
X14081480Y-11217278D01*
X14087080Y-11219086D01*
X14091994Y-11221998D01*
X14095965Y-11225736D01*
X14099084Y-11230256D01*
X14101417Y-11235610D01*
X14102828Y-11241414D01*
X14103310Y-11247718D01*
X14102616Y-11255273D01*
X14100636Y-11261719D01*
X14097423Y-11267412D01*
X14093260Y-11272008D01*
X14088178Y-11275566D01*
X14082122Y-11278096D01*
X14075502Y-11279449D01*
X14068121Y-11279634D01*
G37*
G36*
X14064097Y-11136349D02*
G01*
X14069933Y-11136844D01*
X14075583Y-11137754D01*
X14081076Y-11139126D01*
X14086226Y-11140972D01*
X14090974Y-11143467D01*
X14095049Y-11146711D01*
X14098396Y-11150751D01*
X14101069Y-11155883D01*
X14102713Y-11161735D01*
X14103310Y-11169108D01*
X14102713Y-11176482D01*
X14101069Y-11182340D01*
X14098396Y-11187468D01*
X14095049Y-11191511D01*
X14090975Y-11194752D01*
X14086226Y-11197251D01*
X14081076Y-11199094D01*
X14075583Y-11200469D01*
X14069933Y-11201375D01*
X14064097Y-11201867D01*
X14052758Y-11202148D01*
X14041413Y-11201867D01*
X14035582Y-11201375D01*
X14029934Y-11200469D01*
X14024454Y-11199092D01*
X14019358Y-11197251D01*
X14014670Y-11194756D01*
X14010608Y-11191511D01*
X14007275Y-11187466D01*
X14004655Y-11182340D01*
X14003066Y-11176487D01*
X14002487Y-11169108D01*
X14013038Y-11169108D01*
X14013549Y-11173984D01*
X14014968Y-11177829D01*
X14017227Y-11180875D01*
X14021842Y-11184468D01*
X14027485Y-11186962D01*
X14033703Y-11188454D01*
X14040473Y-11189203D01*
X14052966Y-11189551D01*
X14060995Y-11189484D01*
X14069788Y-11188782D01*
X14078379Y-11186962D01*
X14082356Y-11185468D01*
X14085706Y-11183464D01*
X14088545Y-11180863D01*
X14090805Y-11177651D01*
X14092242Y-11173890D01*
X14092759Y-11169108D01*
X14092242Y-11164332D01*
X14090805Y-11160572D01*
X14088545Y-11157361D01*
X14085706Y-11154765D01*
X14082355Y-11152756D01*
X14078379Y-11151260D01*
X14069788Y-11149441D01*
X14060995Y-11148745D01*
X14052966Y-11148671D01*
X14040473Y-11149026D01*
X14033703Y-11149771D01*
X14027485Y-11151266D01*
X14021842Y-11153758D01*
X14017227Y-11157354D01*
X14014968Y-11160396D01*
X14013549Y-11164237D01*
X14013038Y-11169108D01*
X14002487Y-11169108D01*
X14003070Y-11161615D01*
X14004655Y-11155809D01*
X14007271Y-11150742D01*
X14010608Y-11146711D01*
X14014671Y-11143463D01*
X14019358Y-11140972D01*
X14024455Y-11139128D01*
X14029934Y-11137754D01*
X14035582Y-11136843D01*
X14041413Y-11136349D01*
X14052758Y-11136068D01*
X14064097Y-11136349D01*
G37*
G36*
X14068121Y-11124101D02*
G01*
X14068121Y-11112200D01*
X14072579Y-11112043D01*
X14077011Y-11111290D01*
X14081225Y-11109893D01*
X14084919Y-11107858D01*
X14088085Y-11105151D01*
X14090591Y-11101771D01*
X14092191Y-11097796D01*
X14092759Y-11092880D01*
X14092440Y-11089042D01*
X14091501Y-11085461D01*
X14089950Y-11082169D01*
X14087862Y-11079374D01*
X14085264Y-11077050D01*
X14082189Y-11075240D01*
X14078762Y-11074096D01*
X14074850Y-11073701D01*
X14069872Y-11074125D01*
X14065752Y-11075313D01*
X14062014Y-11077281D01*
X14058480Y-11080070D01*
X14055238Y-11083505D01*
X14051830Y-11087983D01*
X14044625Y-11099041D01*
X14038049Y-11108982D01*
X14034276Y-11113490D01*
X14029934Y-11117524D01*
X14024991Y-11120927D01*
X14019089Y-11123753D01*
X14012493Y-11125706D01*
X14004050Y-11126903D01*
X14004050Y-11062081D01*
X14014601Y-11062081D01*
X14014601Y-11113042D01*
X14018977Y-11111718D01*
X14022783Y-11109470D01*
X14026194Y-11106499D01*
X14029433Y-11102894D01*
X14035240Y-11094425D01*
X14040766Y-11085180D01*
X14046921Y-11076223D01*
X14050347Y-11072111D01*
X14054126Y-11068523D01*
X14058358Y-11065510D01*
X14063151Y-11063138D01*
X14068433Y-11061637D01*
X14074764Y-11061104D01*
X14081480Y-11061744D01*
X14087080Y-11063553D01*
X14091994Y-11066464D01*
X14095965Y-11070202D01*
X14099084Y-11074722D01*
X14101417Y-11080076D01*
X14102828Y-11085881D01*
X14103310Y-11092184D01*
X14102616Y-11099739D01*
X14100636Y-11106185D01*
X14097423Y-11111879D01*
X14093260Y-11116474D01*
X14088178Y-11120032D01*
X14082122Y-11122562D01*
X14075502Y-11123915D01*
X14068121Y-11124101D01*
G37*
G36*
X14042285Y-10980370D02*
G01*
X14048325Y-10981933D01*
X14053854Y-10984498D01*
X14058522Y-10987886D01*
X14062358Y-10992153D01*
X14065300Y-10997406D01*
X14067114Y-11003325D01*
X14067749Y-11010216D01*
X14067387Y-11015559D01*
X14066345Y-11020312D01*
X14064665Y-11024565D01*
X14062255Y-11028413D01*
X14058984Y-11031880D01*
X14054730Y-11034995D01*
X14055011Y-11035276D01*
X14060842Y-11034937D01*
X14067339Y-11034158D01*
X14073751Y-11032760D01*
X14079619Y-11030586D01*
X14084848Y-11027466D01*
X14089034Y-11023375D01*
X14091042Y-11020105D01*
X14092306Y-11016107D01*
X14092759Y-11011193D01*
X14092273Y-11006594D01*
X14090904Y-11002828D01*
X14088692Y-10999714D01*
X14085748Y-10997246D01*
X14082199Y-10995519D01*
X14077909Y-10994536D01*
X14077909Y-10982635D01*
X14084020Y-10983654D01*
X14089094Y-10985426D01*
X14093305Y-10987887D01*
X14096783Y-10991037D01*
X14099550Y-10994837D01*
X14101579Y-10999284D01*
X14102858Y-11004498D01*
X14103310Y-11010638D01*
X14102767Y-11017607D01*
X14101240Y-11023417D01*
X14098828Y-11028278D01*
X14095521Y-11032624D01*
X14091572Y-11036343D01*
X14086922Y-11039477D01*
X14079101Y-11043016D01*
X14069910Y-11045430D01*
X14060217Y-11046735D01*
X14050096Y-11047176D01*
X14042196Y-11046884D01*
X14033854Y-11045986D01*
X14025734Y-11044161D01*
X14018448Y-11041156D01*
X14014069Y-11038392D01*
X14010258Y-11034959D01*
X14006969Y-11030800D01*
X14004581Y-11026111D01*
X14003044Y-11020274D01*
X14002487Y-11013013D01*
X14002521Y-11012457D01*
X14013038Y-11012457D01*
X14013488Y-11017173D01*
X14014772Y-11021207D01*
X14016828Y-11024771D01*
X14019425Y-11027643D01*
X14022583Y-11029914D01*
X14026368Y-11031636D01*
X14030498Y-11032679D01*
X14034977Y-11033035D01*
X14039474Y-11032697D01*
X14043660Y-11031703D01*
X14047511Y-11030022D01*
X14050737Y-11027716D01*
X14053399Y-11024790D01*
X14055457Y-11021274D01*
X14056741Y-11017286D01*
X14057197Y-11012457D01*
X14056724Y-11007627D01*
X14055390Y-11003634D01*
X14053272Y-11000143D01*
X14050603Y-10997339D01*
X14047377Y-10995169D01*
X14043520Y-10993626D01*
X14039339Y-10992738D01*
X14034843Y-10992435D01*
X14030609Y-10992770D01*
X14026575Y-10993766D01*
X14022822Y-10995408D01*
X14019566Y-10997619D01*
X14016851Y-11000421D01*
X14014772Y-11003848D01*
X14013492Y-11007756D01*
X14013038Y-11012457D01*
X14002521Y-11012457D01*
X14002872Y-11006818D01*
X14003949Y-11001622D01*
X14005631Y-10997265D01*
X14009265Y-10991432D01*
X14013594Y-10987044D01*
X14018686Y-10983730D01*
X14024286Y-10981512D01*
X14030133Y-10980240D01*
X14035606Y-10979832D01*
X14042285Y-10980370D01*
G37*
G36*
X14104092Y-10924927D02*
G01*
X14004050Y-10924927D01*
X14004050Y-10911621D01*
X14049772Y-10911621D01*
X14049772Y-10858987D01*
X14004050Y-10858987D01*
X14004050Y-10845682D01*
X14104092Y-10845682D01*
X14104092Y-10858987D01*
X14061105Y-10858987D01*
X14061105Y-10911621D01*
X14104092Y-10911621D01*
X14104092Y-10924927D01*
G37*
G36*
X14004026Y-10765943D02*
G01*
X14076346Y-10765943D01*
X14076346Y-10777844D01*
X14035631Y-10777844D01*
X14030870Y-10778186D01*
X14026630Y-10779175D01*
X14022754Y-10780853D01*
X14019450Y-10783168D01*
X14016751Y-10786132D01*
X14014711Y-10789818D01*
X14013482Y-10794033D01*
X14013038Y-10799264D01*
X14013510Y-10803681D01*
X14014828Y-10807210D01*
X14016940Y-10810047D01*
X14019768Y-10812177D01*
X14023240Y-10813497D01*
X14027540Y-10813967D01*
X14076346Y-10813967D01*
X14076346Y-10825868D01*
X14028786Y-10825868D01*
X14023059Y-10825557D01*
X14018082Y-10824677D01*
X14013546Y-10823029D01*
X14009759Y-10820549D01*
X14006705Y-10817207D01*
X14004374Y-10812850D01*
X14003000Y-10807751D01*
X14002487Y-10800949D01*
X14002859Y-10795705D01*
X14003924Y-10791120D01*
X14005631Y-10787088D01*
X14008067Y-10783475D01*
X14011318Y-10780263D01*
X14015499Y-10777428D01*
X14015499Y-10777147D01*
X14004026Y-10777147D01*
X14004026Y-10765943D01*
G37*
G36*
X14026716Y-10740816D02*
G01*
X14026716Y-10752717D01*
X14020367Y-10751836D01*
X14015365Y-10749921D01*
X14011132Y-10746961D01*
X14007842Y-10743198D01*
X14005415Y-10738740D01*
X14003739Y-10733538D01*
X14002805Y-10727989D01*
X14002487Y-10722059D01*
X14002749Y-10716603D01*
X14003543Y-10711074D01*
X14005017Y-10705768D01*
X14007256Y-10701133D01*
X14010346Y-10697137D01*
X14014272Y-10693989D01*
X14017289Y-10692521D01*
X14020898Y-10691591D01*
X14025226Y-10691259D01*
X14030132Y-10691800D01*
X14033921Y-10693293D01*
X14037135Y-10695638D01*
X14039746Y-10698611D01*
X14041811Y-10702096D01*
X14043465Y-10706171D01*
X14045852Y-10714921D01*
X14047745Y-10723322D01*
X14049992Y-10730882D01*
X14051545Y-10734012D01*
X14053363Y-10736414D01*
X14055647Y-10738034D01*
X14058486Y-10738582D01*
X14061096Y-10738211D01*
X14063047Y-10737183D01*
X14064607Y-10735592D01*
X14065850Y-10733544D01*
X14067327Y-10728574D01*
X14067749Y-10723182D01*
X14067120Y-10717369D01*
X14066297Y-10714601D01*
X14065105Y-10712118D01*
X14063486Y-10709948D01*
X14061410Y-10708198D01*
X14058904Y-10707001D01*
X14055634Y-10706378D01*
X14055634Y-10694477D01*
X14061860Y-10695439D01*
X14066613Y-10697280D01*
X14070588Y-10700080D01*
X14073610Y-10703649D01*
X14075791Y-10707875D01*
X14077250Y-10712820D01*
X14078027Y-10718132D01*
X14078300Y-10724159D01*
X14078005Y-10728908D01*
X14077109Y-10733746D01*
X14075584Y-10738376D01*
X14073464Y-10742428D01*
X14070652Y-10745925D01*
X14067095Y-10748730D01*
X14062888Y-10750540D01*
X14057710Y-10751178D01*
X14053170Y-10750746D01*
X14049599Y-10749553D01*
X14046786Y-10747680D01*
X14043332Y-10743785D01*
X14040693Y-10738930D01*
X14038790Y-10733521D01*
X14037334Y-10727517D01*
X14034672Y-10716105D01*
X14032914Y-10711149D01*
X14030825Y-10707355D01*
X14029002Y-10705422D01*
X14026718Y-10704265D01*
X14023821Y-10703856D01*
X14020688Y-10704298D01*
X14018289Y-10705535D01*
X14016389Y-10707436D01*
X14014998Y-10709810D01*
X14014064Y-10712487D01*
X14013459Y-10715476D01*
X14013038Y-10721356D01*
X14013722Y-10728427D01*
X14014642Y-10731723D01*
X14015975Y-10734588D01*
X14017824Y-10737055D01*
X14020219Y-10738997D01*
X14023098Y-10740269D01*
X14026716Y-10740816D01*
G37*
G36*
X14047688Y-10609661D02*
G01*
X14054712Y-10611227D01*
X14061243Y-10613864D01*
X14066857Y-10617462D01*
X14071557Y-10622090D01*
X14075210Y-10627817D01*
X14076886Y-10632074D01*
X14077933Y-10636915D01*
X14078300Y-10642448D01*
X14077601Y-10649774D01*
X14075570Y-10656308D01*
X14073363Y-10660166D01*
X14070470Y-10663214D01*
X14066820Y-10665547D01*
X14066820Y-10665828D01*
X14104092Y-10665828D01*
X14104092Y-10677728D01*
X14004026Y-10677728D01*
X14004026Y-10665828D01*
X14013698Y-10665828D01*
X14013698Y-10665547D01*
X14010721Y-10663346D01*
X14008300Y-10660717D01*
X14006350Y-10657746D01*
X14004868Y-10654629D01*
X14003049Y-10648120D01*
X14002606Y-10643431D01*
X14013038Y-10643431D01*
X14013649Y-10649287D01*
X14015346Y-10653933D01*
X14018042Y-10657889D01*
X14021434Y-10660998D01*
X14025459Y-10663338D01*
X14030178Y-10664991D01*
X14035212Y-10665932D01*
X14040461Y-10666249D01*
X14045463Y-10665951D01*
X14050395Y-10665058D01*
X14055075Y-10663483D01*
X14059145Y-10661212D01*
X14062612Y-10658178D01*
X14065367Y-10654348D01*
X14067119Y-10649835D01*
X14067749Y-10644127D01*
X14067164Y-10638646D01*
X14065508Y-10634119D01*
X14062874Y-10630221D01*
X14059493Y-10627121D01*
X14055489Y-10624759D01*
X14050884Y-10623061D01*
X14046010Y-10622063D01*
X14041022Y-10621730D01*
X14035755Y-10622013D01*
X14030666Y-10622853D01*
X14025852Y-10624344D01*
X14021709Y-10626492D01*
X14018188Y-10629402D01*
X14015413Y-10633142D01*
X14013672Y-10637609D01*
X14013038Y-10643431D01*
X14002606Y-10643431D01*
X14002487Y-10642167D01*
X14002836Y-10636723D01*
X14003835Y-10631924D01*
X14005436Y-10627677D01*
X14008952Y-10621945D01*
X14013508Y-10617321D01*
X14019007Y-10613746D01*
X14025507Y-10611160D01*
X14032534Y-10609644D01*
X14040112Y-10609127D01*
X14047688Y-10609661D01*
G37*
G36*
X13994427Y-10566781D02*
G01*
X13985481Y-10570915D01*
X13982094Y-10573110D01*
X13979534Y-10575397D01*
X13977531Y-10578004D01*
X13976182Y-10580856D01*
X13975408Y-10583997D01*
X13975132Y-10587780D01*
X13975413Y-10591981D01*
X13976389Y-10596041D01*
X13987295Y-10596041D01*
X13986153Y-10592475D01*
X13985683Y-10589044D01*
X13986141Y-10585629D01*
X13987429Y-10582956D01*
X13989500Y-10580832D01*
X13992387Y-10579244D01*
X14004545Y-10574340D01*
X14076346Y-10603045D01*
X14076346Y-10589599D01*
X14017209Y-10568460D01*
X14017209Y-10568186D01*
X14076346Y-10547883D01*
X14076346Y-10535280D01*
X13994427Y-10566781D01*
G37*
G36*
X14104092Y-10484410D02*
G01*
X14004050Y-10484410D01*
X14004050Y-10418190D01*
X14015383Y-10418190D01*
X14015383Y-10471105D01*
X14104092Y-10471105D01*
X14104092Y-10484410D01*
G37*
G36*
X14013038Y-10348123D02*
G01*
X14013578Y-10350426D01*
X14014998Y-10351414D01*
X14021159Y-10351902D01*
X14058412Y-10351902D01*
X14064328Y-10352548D01*
X14068634Y-10354284D01*
X14072130Y-10357059D01*
X14074728Y-10360585D01*
X14076517Y-10364682D01*
X14077598Y-10369329D01*
X14078300Y-10379062D01*
X14077975Y-10385107D01*
X14077036Y-10390615D01*
X14075354Y-10395753D01*
X14072908Y-10400201D01*
X14069616Y-10403968D01*
X14065416Y-10406924D01*
X14060446Y-10408837D01*
X14054071Y-10409721D01*
X14054071Y-10397820D01*
X14059090Y-10396935D01*
X14062559Y-10395093D01*
X14064885Y-10392361D01*
X14066421Y-10388890D01*
X14067399Y-10384738D01*
X14067749Y-10379764D01*
X14067327Y-10374092D01*
X14066685Y-10371332D01*
X14065642Y-10368914D01*
X14064111Y-10366826D01*
X14061991Y-10365134D01*
X14059360Y-10364064D01*
X14055677Y-10363663D01*
X14052631Y-10364185D01*
X14050554Y-10365623D01*
X14049059Y-10367838D01*
X14047885Y-10370947D01*
X14046481Y-10378714D01*
X14045010Y-10388026D01*
X14042909Y-10397057D01*
X14041327Y-10401261D01*
X14039184Y-10404897D01*
X14036382Y-10407972D01*
X14032797Y-10410423D01*
X14028523Y-10411953D01*
X14022698Y-10412523D01*
X14017481Y-10412022D01*
X14013362Y-10410637D01*
X14009844Y-10408390D01*
X14007115Y-10405526D01*
X14005076Y-10402065D01*
X14003610Y-10397893D01*
X14002773Y-10393403D01*
X14002487Y-10388582D01*
X14002726Y-10385919D01*
X14013038Y-10385919D01*
X14013594Y-10391244D01*
X14014342Y-10393638D01*
X14015407Y-10395652D01*
X14016849Y-10397359D01*
X14018686Y-10398730D01*
X14020871Y-10399606D01*
X14023650Y-10399921D01*
X14027784Y-10399372D01*
X14030697Y-10397893D01*
X14032966Y-10395585D01*
X14034672Y-10392642D01*
X14035858Y-10389286D01*
X14036699Y-10385364D01*
X14037817Y-10377316D01*
X14039074Y-10369683D01*
X14040115Y-10366286D01*
X14041517Y-10363803D01*
X14029372Y-10363803D01*
X14026844Y-10364102D01*
X14023992Y-10365067D01*
X14021287Y-10366641D01*
X14018692Y-10368987D01*
X14016516Y-10371934D01*
X14014644Y-10375844D01*
X14013468Y-10380286D01*
X14013038Y-10385919D01*
X14002726Y-10385919D01*
X14003148Y-10381220D01*
X14005082Y-10374513D01*
X14007151Y-10370402D01*
X14009959Y-10366610D01*
X14013575Y-10363101D01*
X14009740Y-10362743D01*
X14007003Y-10361797D01*
X14005082Y-10360371D01*
X14003171Y-10357266D01*
X14002487Y-10353020D01*
X14002995Y-10347921D01*
X14004313Y-10344483D01*
X14013575Y-10344483D01*
X14013038Y-10348123D01*
G37*
G36*
X14047688Y-10264986D02*
G01*
X14054712Y-10266552D01*
X14061243Y-10269188D01*
X14066857Y-10272786D01*
X14071557Y-10277414D01*
X14075210Y-10283142D01*
X14076886Y-10287398D01*
X14077933Y-10292240D01*
X14078300Y-10297772D01*
X14077601Y-10305098D01*
X14075570Y-10311633D01*
X14073363Y-10315490D01*
X14070470Y-10318538D01*
X14066820Y-10320871D01*
X14066820Y-10321152D01*
X14104092Y-10321152D01*
X14104092Y-10333053D01*
X14004026Y-10333053D01*
X14004026Y-10321152D01*
X14013698Y-10321152D01*
X14013698Y-10320871D01*
X14010721Y-10318670D01*
X14008300Y-10316041D01*
X14006350Y-10313070D01*
X14004868Y-10309954D01*
X14003049Y-10303445D01*
X14002606Y-10298755D01*
X14013038Y-10298755D01*
X14013649Y-10304611D01*
X14015346Y-10309258D01*
X14018042Y-10313214D01*
X14021434Y-10316322D01*
X14025459Y-10318662D01*
X14030178Y-10320316D01*
X14035212Y-10321256D01*
X14040461Y-10321574D01*
X14045463Y-10321276D01*
X14050395Y-10320383D01*
X14055075Y-10318808D01*
X14059145Y-10316536D01*
X14062612Y-10313502D01*
X14065367Y-10309673D01*
X14067119Y-10305159D01*
X14067749Y-10299451D01*
X14067164Y-10293970D01*
X14065508Y-10289443D01*
X14062874Y-10285546D01*
X14059493Y-10282446D01*
X14055489Y-10280084D01*
X14050884Y-10278385D01*
X14046010Y-10277387D01*
X14041022Y-10277054D01*
X14035755Y-10277337D01*
X14030666Y-10278178D01*
X14025852Y-10279669D01*
X14021709Y-10281817D01*
X14018188Y-10284727D01*
X14015413Y-10288466D01*
X14013672Y-10292934D01*
X14013038Y-10298755D01*
X14002606Y-10298755D01*
X14002487Y-10297491D01*
X14002836Y-10292047D01*
X14003835Y-10287249D01*
X14005436Y-10283001D01*
X14008952Y-10277269D01*
X14013508Y-10272646D01*
X14019007Y-10269071D01*
X14025507Y-10266485D01*
X14032534Y-10264969D01*
X14040112Y-10264451D01*
X14047688Y-10264986D01*
G37*
G36*
X14026716Y-10243245D02*
G01*
X14026716Y-10255146D01*
X14020367Y-10254264D01*
X14015365Y-10252349D01*
X14011132Y-10249390D01*
X14007842Y-10245626D01*
X14005415Y-10241169D01*
X14003739Y-10235966D01*
X14002805Y-10230418D01*
X14002487Y-10224487D01*
X14002749Y-10219031D01*
X14003543Y-10213502D01*
X14005017Y-10208197D01*
X14007256Y-10203561D01*
X14010346Y-10199566D01*
X14014272Y-10196417D01*
X14017289Y-10194950D01*
X14020898Y-10194020D01*
X14025226Y-10193688D01*
X14030132Y-10194229D01*
X14033921Y-10195721D01*
X14037135Y-10198067D01*
X14039746Y-10201040D01*
X14041811Y-10204524D01*
X14043465Y-10208599D01*
X14045852Y-10217349D01*
X14047745Y-10225751D01*
X14049992Y-10233310D01*
X14051545Y-10236440D01*
X14053363Y-10238842D01*
X14055647Y-10240463D01*
X14058486Y-10241010D01*
X14061096Y-10240640D01*
X14063047Y-10239612D01*
X14064607Y-10238021D01*
X14065850Y-10235972D01*
X14067327Y-10231002D01*
X14067749Y-10225610D01*
X14067120Y-10219798D01*
X14066297Y-10217030D01*
X14065105Y-10214546D01*
X14063486Y-10212376D01*
X14061410Y-10210626D01*
X14058904Y-10209429D01*
X14055634Y-10208807D01*
X14055634Y-10196906D01*
X14061860Y-10197867D01*
X14066613Y-10199709D01*
X14070588Y-10202508D01*
X14073610Y-10206077D01*
X14075791Y-10210304D01*
X14077250Y-10215248D01*
X14078027Y-10220560D01*
X14078300Y-10226587D01*
X14078005Y-10231337D01*
X14077109Y-10236174D01*
X14075584Y-10240805D01*
X14073464Y-10244857D01*
X14070652Y-10248354D01*
X14067095Y-10251158D01*
X14062888Y-10252969D01*
X14057710Y-10253607D01*
X14053170Y-10253174D01*
X14049599Y-10251982D01*
X14046786Y-10250108D01*
X14043332Y-10246213D01*
X14040693Y-10241358D01*
X14038790Y-10235950D01*
X14037334Y-10229946D01*
X14034672Y-10218534D01*
X14032914Y-10213578D01*
X14030825Y-10209784D01*
X14029002Y-10207850D01*
X14026718Y-10206693D01*
X14023821Y-10206285D01*
X14020688Y-10206726D01*
X14018289Y-10207964D01*
X14016389Y-10209864D01*
X14014998Y-10212238D01*
X14014064Y-10214916D01*
X14013459Y-10217905D01*
X14013038Y-10223785D01*
X14013722Y-10230856D01*
X14014642Y-10234152D01*
X14015975Y-10237017D01*
X14017824Y-10239483D01*
X14020219Y-10241425D01*
X14023098Y-10242697D01*
X14026716Y-10243245D01*
G37*
G36*
X13936092Y-11425722D02*
G01*
X13836050Y-11425722D01*
X13836050Y-11359502D01*
X13847383Y-11359502D01*
X13847383Y-11412417D01*
X13936092Y-11412417D01*
X13936092Y-11425722D01*
G37*
G36*
X13921633Y-11337312D02*
G01*
X13936092Y-11337312D01*
X13936092Y-11349213D01*
X13921633Y-11349213D01*
X13921633Y-11337312D01*
G37*
G36*
X13908431Y-11349213D02*
G01*
X13836050Y-11349213D01*
X13836050Y-11337312D01*
X13908431Y-11337312D01*
X13908431Y-11349213D01*
G37*
G36*
X13885289Y-11269706D02*
G01*
X13885289Y-11257384D01*
X13891444Y-11258615D01*
X13896457Y-11260748D01*
X13900783Y-11263793D01*
X13904255Y-11267538D01*
X13906922Y-11271935D01*
X13908822Y-11277058D01*
X13909921Y-11282567D01*
X13910300Y-11288604D01*
X13909942Y-11294235D01*
X13908918Y-11299197D01*
X13907277Y-11303588D01*
X13903675Y-11309515D01*
X13898997Y-11314298D01*
X13893343Y-11317991D01*
X13886645Y-11320667D01*
X13879382Y-11322230D01*
X13871410Y-11322768D01*
X13863478Y-11322208D01*
X13856456Y-11320600D01*
X13850054Y-11317866D01*
X13844733Y-11314158D01*
X13840411Y-11309399D01*
X13837155Y-11303515D01*
X13835184Y-11296838D01*
X13834487Y-11288885D01*
X13834996Y-11281973D01*
X13836433Y-11276134D01*
X13838707Y-11271182D01*
X13841802Y-11266976D01*
X13845688Y-11263448D01*
X13850362Y-11260593D01*
X13855952Y-11258413D01*
X13862624Y-11256962D01*
X13862624Y-11269144D01*
X13857261Y-11270389D01*
X13853004Y-11272434D01*
X13849642Y-11275238D01*
X13847168Y-11278808D01*
X13845604Y-11283315D01*
X13845038Y-11289025D01*
X13845624Y-11294355D01*
X13847273Y-11298685D01*
X13849893Y-11302375D01*
X13853220Y-11305268D01*
X13857148Y-11307432D01*
X13861689Y-11308974D01*
X13866500Y-11309865D01*
X13871484Y-11310165D01*
X13876882Y-11309882D01*
X13882047Y-11309047D01*
X13886919Y-11307532D01*
X13891072Y-11305335D01*
X13894586Y-11302330D01*
X13897367Y-11298404D01*
X13899113Y-11293720D01*
X13899749Y-11287627D01*
X13899286Y-11282720D01*
X13897997Y-11278774D01*
X13895957Y-11275586D01*
X13893173Y-11273002D01*
X13889668Y-11271037D01*
X13885289Y-11269706D01*
G37*
G36*
X13875195Y-11181005D02*
G01*
X13882468Y-11182047D01*
X13889551Y-11184122D01*
X13896030Y-11187372D01*
X13899919Y-11190207D01*
X13903322Y-11193597D01*
X13906270Y-11197587D01*
X13908438Y-11202004D01*
X13909811Y-11207284D01*
X13910300Y-11213615D01*
X13909583Y-11220811D01*
X13907491Y-11227269D01*
X13904119Y-11233081D01*
X13899626Y-11238052D01*
X13894174Y-11242062D01*
X13887695Y-11245123D01*
X13880583Y-11246990D01*
X13872534Y-11247638D01*
X13864449Y-11246867D01*
X13857226Y-11245190D01*
X13850628Y-11242437D01*
X13845154Y-11238681D01*
X13840686Y-11233862D01*
X13837296Y-11227971D01*
X13835780Y-11223634D01*
X13834824Y-11218650D01*
X13834487Y-11212913D01*
X13834907Y-11206779D01*
X13836110Y-11201403D01*
X13838037Y-11196666D01*
X13840678Y-11192476D01*
X13844037Y-11188875D01*
X13848145Y-11185926D01*
X13853116Y-11183613D01*
X13859107Y-11181974D01*
X13859107Y-11193734D01*
X13854621Y-11195195D01*
X13851154Y-11197321D01*
X13848519Y-11200103D01*
X13846643Y-11203485D01*
X13845460Y-11207559D01*
X13845038Y-11212492D01*
X13845547Y-11218125D01*
X13846968Y-11222713D01*
X13849258Y-11226715D01*
X13852139Y-11229858D01*
X13855611Y-11232265D01*
X13859589Y-11233918D01*
X13863881Y-11234822D01*
X13868485Y-11235036D01*
X13879037Y-11235036D01*
X13883192Y-11234435D01*
X13887048Y-11233216D01*
X13890596Y-11231385D01*
X13893649Y-11229015D01*
X13896175Y-11226107D01*
X13898118Y-11222646D01*
X13899328Y-11218774D01*
X13899749Y-11214312D01*
X13899331Y-11209977D01*
X13898118Y-11206123D01*
X13896193Y-11202640D01*
X13893722Y-11199681D01*
X13890716Y-11197251D01*
X13887121Y-11195346D01*
X13883199Y-11194070D01*
X13879037Y-11193453D01*
X13879037Y-11235036D01*
X13868485Y-11235036D01*
X13868485Y-11180856D01*
X13875195Y-11181005D01*
G37*
G36*
X13908615Y-11168589D02*
G01*
X13836050Y-11168589D01*
X13836050Y-11156689D01*
X13877022Y-11156689D01*
X13881806Y-11156346D01*
X13886065Y-11155358D01*
X13889971Y-11153679D01*
X13893294Y-11151370D01*
X13896014Y-11148401D01*
X13898063Y-11144721D01*
X13899302Y-11140500D01*
X13899749Y-11135269D01*
X13899274Y-11130853D01*
X13897946Y-11127325D01*
X13895816Y-11124485D01*
X13892976Y-11122356D01*
X13889485Y-11121036D01*
X13885155Y-11120565D01*
X13836050Y-11120565D01*
X13836050Y-11108664D01*
X13883775Y-11108664D01*
X13889519Y-11108975D01*
X13894510Y-11109855D01*
X13899061Y-11111506D01*
X13902857Y-11113989D01*
X13905941Y-11117326D01*
X13908334Y-11121689D01*
X13909765Y-11126788D01*
X13910300Y-11133589D01*
X13909732Y-11139894D01*
X13908120Y-11145244D01*
X13905522Y-11149823D01*
X13901897Y-11153758D01*
X13897105Y-11157110D01*
X13897105Y-11157385D01*
X13908615Y-11157385D01*
X13908615Y-11168589D01*
G37*
G36*
X13885289Y-11041681D02*
G01*
X13885289Y-11029359D01*
X13891444Y-11030590D01*
X13896457Y-11032723D01*
X13900783Y-11035768D01*
X13904255Y-11039513D01*
X13906922Y-11043910D01*
X13908822Y-11049033D01*
X13909921Y-11054542D01*
X13910300Y-11060579D01*
X13909942Y-11066210D01*
X13908918Y-11071172D01*
X13907277Y-11075563D01*
X13903675Y-11081490D01*
X13898997Y-11086273D01*
X13893343Y-11089966D01*
X13886645Y-11092642D01*
X13879382Y-11094205D01*
X13871410Y-11094743D01*
X13863478Y-11094183D01*
X13856456Y-11092575D01*
X13850054Y-11089841D01*
X13844733Y-11086133D01*
X13840411Y-11081374D01*
X13837155Y-11075490D01*
X13835184Y-11068813D01*
X13834487Y-11060860D01*
X13834996Y-11053948D01*
X13836433Y-11048109D01*
X13838707Y-11043157D01*
X13841802Y-11038951D01*
X13845688Y-11035423D01*
X13850362Y-11032568D01*
X13855952Y-11030388D01*
X13862624Y-11028937D01*
X13862624Y-11041119D01*
X13857261Y-11042364D01*
X13853004Y-11044409D01*
X13849642Y-11047213D01*
X13847168Y-11050783D01*
X13845604Y-11055290D01*
X13845038Y-11061000D01*
X13845624Y-11066330D01*
X13847273Y-11070660D01*
X13849893Y-11074350D01*
X13853220Y-11077243D01*
X13857148Y-11079407D01*
X13861689Y-11080949D01*
X13866500Y-11081840D01*
X13871484Y-11082140D01*
X13876882Y-11081857D01*
X13882047Y-11081022D01*
X13886919Y-11079507D01*
X13891072Y-11077310D01*
X13894586Y-11074305D01*
X13897367Y-11070379D01*
X13899113Y-11065694D01*
X13899749Y-11059602D01*
X13899286Y-11054695D01*
X13897997Y-11050749D01*
X13895957Y-11047561D01*
X13893173Y-11044977D01*
X13889668Y-11043012D01*
X13885289Y-11041681D01*
G37*
G36*
X13875195Y-10952980D02*
G01*
X13882468Y-10954022D01*
X13889551Y-10956097D01*
X13896030Y-10959347D01*
X13899919Y-10962182D01*
X13903322Y-10965572D01*
X13906270Y-10969562D01*
X13908438Y-10973979D01*
X13909811Y-10979259D01*
X13910300Y-10985590D01*
X13909583Y-10992786D01*
X13907491Y-10999244D01*
X13904119Y-11005056D01*
X13899626Y-11010027D01*
X13894174Y-11014037D01*
X13887695Y-11017098D01*
X13880583Y-11018965D01*
X13872534Y-11019613D01*
X13864449Y-11018842D01*
X13857226Y-11017165D01*
X13850628Y-11014412D01*
X13845154Y-11010656D01*
X13840686Y-11005837D01*
X13837296Y-10999946D01*
X13835780Y-10995609D01*
X13834824Y-10990625D01*
X13834487Y-10984888D01*
X13834907Y-10978754D01*
X13836110Y-10973378D01*
X13838037Y-10968641D01*
X13840678Y-10964451D01*
X13844037Y-10960850D01*
X13848145Y-10957901D01*
X13853116Y-10955588D01*
X13859107Y-10953949D01*
X13859107Y-10965709D01*
X13854621Y-10967170D01*
X13851154Y-10969296D01*
X13848519Y-10972078D01*
X13846643Y-10975460D01*
X13845460Y-10979534D01*
X13845038Y-10984467D01*
X13845547Y-10990100D01*
X13846968Y-10994688D01*
X13849258Y-10998690D01*
X13852139Y-11001833D01*
X13855611Y-11004240D01*
X13859589Y-11005893D01*
X13863881Y-11006797D01*
X13868485Y-11007011D01*
X13879037Y-11007011D01*
X13883192Y-11006410D01*
X13887048Y-11005191D01*
X13890596Y-11003360D01*
X13893649Y-11000990D01*
X13896175Y-10998082D01*
X13898118Y-10994621D01*
X13899328Y-10990749D01*
X13899749Y-10986287D01*
X13899331Y-10981952D01*
X13898118Y-10978098D01*
X13896193Y-10974615D01*
X13893722Y-10971656D01*
X13890716Y-10969226D01*
X13887121Y-10967321D01*
X13883199Y-10966045D01*
X13879037Y-10965428D01*
X13879037Y-11007011D01*
X13868485Y-11007011D01*
X13868485Y-10952831D01*
X13875195Y-10952980D01*
G37*
G36*
X13936092Y-10887783D02*
G01*
X13898961Y-10887783D01*
X13898961Y-10888064D01*
X13901931Y-10890265D01*
X13904346Y-10892894D01*
X13906315Y-10895864D01*
X13907845Y-10898988D01*
X13909738Y-10905424D01*
X13910300Y-10911444D01*
X13909943Y-10916885D01*
X13908919Y-10921683D01*
X13907277Y-10925934D01*
X13903709Y-10931670D01*
X13899138Y-10936296D01*
X13893639Y-10939867D01*
X13887133Y-10942457D01*
X13880112Y-10943968D01*
X13872534Y-10944484D01*
X13864957Y-10943950D01*
X13857928Y-10942384D01*
X13851414Y-10939746D01*
X13845856Y-10936156D01*
X13841215Y-10931528D01*
X13837577Y-10925794D01*
X13835901Y-10921537D01*
X13834854Y-10916696D01*
X13834487Y-10911164D01*
X13834643Y-10909484D01*
X13845038Y-10909484D01*
X13845622Y-10914966D01*
X13847273Y-10919492D01*
X13849911Y-10923390D01*
X13853294Y-10926490D01*
X13857297Y-10928852D01*
X13861897Y-10930550D01*
X13866776Y-10931548D01*
X13871764Y-10931881D01*
X13877031Y-10931600D01*
X13882120Y-10930764D01*
X13886934Y-10929269D01*
X13891072Y-10927125D01*
X13894592Y-10924198D01*
X13897367Y-10920402D01*
X13899119Y-10915889D01*
X13899749Y-10910180D01*
X13899138Y-10904325D01*
X13897440Y-10899684D01*
X13894745Y-10895723D01*
X13891353Y-10892613D01*
X13887326Y-10890275D01*
X13882603Y-10888626D01*
X13877574Y-10887681D01*
X13872326Y-10887362D01*
X13867323Y-10887660D01*
X13862385Y-10888553D01*
X13857711Y-10890129D01*
X13853642Y-10892406D01*
X13850173Y-10895434D01*
X13847413Y-10899263D01*
X13845666Y-10903776D01*
X13845038Y-10909484D01*
X13834643Y-10909484D01*
X13835169Y-10903834D01*
X13837149Y-10897303D01*
X13839318Y-10893447D01*
X13842190Y-10890400D01*
X13845838Y-10888064D01*
X13845838Y-10887783D01*
X13836026Y-10887783D01*
X13836026Y-10875883D01*
X13936092Y-10875883D01*
X13936092Y-10887783D01*
G37*
G36*
X13836026Y-10758811D02*
G01*
X13908346Y-10758811D01*
X13908346Y-10770712D01*
X13867631Y-10770712D01*
X13862870Y-10771055D01*
X13858630Y-10772043D01*
X13854754Y-10773722D01*
X13851450Y-10776036D01*
X13848751Y-10779000D01*
X13846711Y-10782686D01*
X13845482Y-10786901D01*
X13845038Y-10792132D01*
X13845510Y-10796549D01*
X13846828Y-10800078D01*
X13848940Y-10802915D01*
X13851768Y-10805046D01*
X13855240Y-10806365D01*
X13859540Y-10806835D01*
X13908346Y-10806835D01*
X13908346Y-10818736D01*
X13860786Y-10818736D01*
X13855059Y-10818425D01*
X13850082Y-10817545D01*
X13845546Y-10815897D01*
X13841759Y-10813418D01*
X13838705Y-10810075D01*
X13836374Y-10805718D01*
X13835000Y-10800619D01*
X13834487Y-10793817D01*
X13834859Y-10788573D01*
X13835924Y-10783988D01*
X13837631Y-10779956D01*
X13840067Y-10776343D01*
X13843318Y-10773131D01*
X13847499Y-10770296D01*
X13847499Y-10770016D01*
X13836026Y-10770016D01*
X13836026Y-10758811D01*
G37*
G36*
X13908615Y-10740969D02*
G01*
X13836050Y-10740969D01*
X13836050Y-10729068D01*
X13877022Y-10729068D01*
X13881806Y-10728725D01*
X13886065Y-10727737D01*
X13889971Y-10726059D01*
X13893294Y-10723750D01*
X13896014Y-10720780D01*
X13898063Y-10717100D01*
X13899302Y-10712879D01*
X13899749Y-10707648D01*
X13899274Y-10703233D01*
X13897946Y-10699705D01*
X13895816Y-10696865D01*
X13892976Y-10694736D01*
X13889485Y-10693415D01*
X13885155Y-10692945D01*
X13836050Y-10692945D01*
X13836050Y-10681044D01*
X13883775Y-10681044D01*
X13889519Y-10681355D01*
X13894510Y-10682235D01*
X13899061Y-10683885D01*
X13902857Y-10686369D01*
X13905941Y-10689706D01*
X13908334Y-10694068D01*
X13909765Y-10699168D01*
X13910300Y-10705969D01*
X13909732Y-10712274D01*
X13908120Y-10717624D01*
X13905522Y-10722202D01*
X13901897Y-10726138D01*
X13897105Y-10729490D01*
X13897105Y-10729764D01*
X13908615Y-10729764D01*
X13908615Y-10740969D01*
G37*
G36*
X13936092Y-10610421D02*
G01*
X13898961Y-10610421D01*
X13898961Y-10610702D01*
X13901931Y-10612903D01*
X13904346Y-10615532D01*
X13906315Y-10618502D01*
X13907845Y-10621626D01*
X13909738Y-10628062D01*
X13910300Y-10634082D01*
X13909943Y-10639523D01*
X13908919Y-10644321D01*
X13907277Y-10648572D01*
X13903709Y-10654308D01*
X13899138Y-10658934D01*
X13893639Y-10662505D01*
X13887133Y-10665095D01*
X13880112Y-10666606D01*
X13872534Y-10667122D01*
X13864957Y-10666588D01*
X13857928Y-10665022D01*
X13851414Y-10662384D01*
X13845856Y-10658793D01*
X13841215Y-10654166D01*
X13837577Y-10648431D01*
X13835901Y-10644175D01*
X13834854Y-10639333D01*
X13834487Y-10633801D01*
X13834643Y-10632122D01*
X13845038Y-10632122D01*
X13845622Y-10637604D01*
X13847273Y-10642130D01*
X13849911Y-10646028D01*
X13853294Y-10649128D01*
X13857297Y-10651490D01*
X13861897Y-10653188D01*
X13866776Y-10654186D01*
X13871764Y-10654519D01*
X13877031Y-10654238D01*
X13882120Y-10653402D01*
X13886934Y-10651907D01*
X13891072Y-10649763D01*
X13894592Y-10646835D01*
X13897367Y-10643040D01*
X13899119Y-10638527D01*
X13899749Y-10632818D01*
X13899138Y-10626963D01*
X13897440Y-10622322D01*
X13894745Y-10618361D01*
X13891353Y-10615251D01*
X13887326Y-10612913D01*
X13882603Y-10611264D01*
X13877574Y-10610319D01*
X13872326Y-10610000D01*
X13867323Y-10610297D01*
X13862385Y-10611191D01*
X13857711Y-10612767D01*
X13853642Y-10615043D01*
X13850173Y-10618072D01*
X13847413Y-10621901D01*
X13845666Y-10626414D01*
X13845038Y-10632122D01*
X13834643Y-10632122D01*
X13835169Y-10626472D01*
X13837149Y-10619941D01*
X13839318Y-10616085D01*
X13842190Y-10613038D01*
X13845838Y-10610702D01*
X13845838Y-10610421D01*
X13836026Y-10610421D01*
X13836026Y-10598520D01*
X13936092Y-10598520D01*
X13936092Y-10610421D01*
G37*
G36*
X13875195Y-10517544D02*
G01*
X13882468Y-10518586D01*
X13889551Y-10520661D01*
X13896030Y-10523910D01*
X13899919Y-10526746D01*
X13903322Y-10530135D01*
X13906270Y-10534126D01*
X13908438Y-10538543D01*
X13909811Y-10543822D01*
X13910300Y-10550154D01*
X13909583Y-10557350D01*
X13907491Y-10563807D01*
X13904119Y-10569620D01*
X13899626Y-10574591D01*
X13894174Y-10578600D01*
X13887695Y-10581662D01*
X13880583Y-10583529D01*
X13872534Y-10584177D01*
X13864449Y-10583406D01*
X13857226Y-10581729D01*
X13850628Y-10578975D01*
X13845154Y-10575220D01*
X13840686Y-10570400D01*
X13837296Y-10564510D01*
X13835780Y-10560172D01*
X13834824Y-10555189D01*
X13834487Y-10549452D01*
X13834907Y-10543318D01*
X13836110Y-10537941D01*
X13838037Y-10533205D01*
X13840678Y-10529015D01*
X13844037Y-10525414D01*
X13848145Y-10522465D01*
X13853116Y-10520152D01*
X13859107Y-10518513D01*
X13859107Y-10530273D01*
X13854621Y-10531734D01*
X13851154Y-10533860D01*
X13848519Y-10536642D01*
X13846643Y-10540024D01*
X13845460Y-10544098D01*
X13845038Y-10549031D01*
X13845547Y-10554664D01*
X13846968Y-10559252D01*
X13849258Y-10563254D01*
X13852139Y-10566396D01*
X13855611Y-10568804D01*
X13859589Y-10570457D01*
X13863881Y-10571361D01*
X13868485Y-10571574D01*
X13879037Y-10571574D01*
X13883192Y-10570974D01*
X13887048Y-10569755D01*
X13890596Y-10567924D01*
X13893649Y-10565554D01*
X13896175Y-10562646D01*
X13898118Y-10559185D01*
X13899328Y-10555313D01*
X13899749Y-10550850D01*
X13899331Y-10546516D01*
X13898118Y-10542662D01*
X13896193Y-10539179D01*
X13893722Y-10536220D01*
X13890716Y-10533790D01*
X13887121Y-10531885D01*
X13883199Y-10530609D01*
X13879037Y-10529992D01*
X13879037Y-10571574D01*
X13868485Y-10571574D01*
X13868485Y-10517395D01*
X13875195Y-10517544D01*
G37*
G36*
X13908236Y-10505543D02*
G01*
X13836050Y-10505543D01*
X13836050Y-10493649D01*
X13868192Y-10493649D01*
X13874965Y-10493278D01*
X13880563Y-10492250D01*
X13885616Y-10490391D01*
X13889716Y-10487769D01*
X13892998Y-10484248D01*
X13895444Y-10479647D01*
X13896878Y-10474298D01*
X13897404Y-10467466D01*
X13909909Y-10467466D01*
X13909562Y-10473790D01*
X13908228Y-10479041D01*
X13906001Y-10483427D01*
X13902854Y-10487253D01*
X13898593Y-10490799D01*
X13893014Y-10494064D01*
X13893014Y-10494345D01*
X13908236Y-10494345D01*
X13908236Y-10505543D01*
G37*
G36*
X13905824Y-10347402D02*
G01*
X13905824Y-10334103D01*
X13913442Y-10335889D01*
X13919892Y-10338860D01*
X13925511Y-10342977D01*
X13930083Y-10347964D01*
X13933666Y-10353756D01*
X13936312Y-10360420D01*
X13937896Y-10367566D01*
X13938437Y-10375258D01*
X13937950Y-10382825D01*
X13936551Y-10389578D01*
X13934297Y-10395634D01*
X13931171Y-10401285D01*
X13927417Y-10406208D01*
X13923013Y-10410472D01*
X13918036Y-10414079D01*
X13912473Y-10417090D01*
X13906258Y-10419503D01*
X13899793Y-10421195D01*
X13892964Y-10422228D01*
X13885723Y-10422580D01*
X13875019Y-10421846D01*
X13865249Y-10419710D01*
X13859078Y-10417435D01*
X13853588Y-10414564D01*
X13848708Y-10411101D01*
X13844396Y-10406978D01*
X13840734Y-10402196D01*
X13837699Y-10396684D01*
X13835536Y-10390769D01*
X13834180Y-10384047D01*
X13833705Y-10376382D01*
X13834174Y-10368618D01*
X13835509Y-10361841D01*
X13837633Y-10355911D01*
X13840509Y-10350710D01*
X13844147Y-10346144D01*
X13849678Y-10341335D01*
X13856284Y-10337545D01*
X13864143Y-10334778D01*
X13873492Y-10333120D01*
X13873492Y-10346419D01*
X13867488Y-10347272D01*
X13862007Y-10348941D01*
X13857018Y-10351468D01*
X13852836Y-10354754D01*
X13849421Y-10358791D01*
X13846815Y-10363571D01*
X13845212Y-10368925D01*
X13844647Y-10375258D01*
X13845050Y-10381156D01*
X13846193Y-10386249D01*
X13848012Y-10390664D01*
X13850532Y-10394726D01*
X13853538Y-10398233D01*
X13857055Y-10401233D01*
X13863133Y-10404776D01*
X13870378Y-10407321D01*
X13878171Y-10408781D01*
X13886578Y-10409281D01*
X13894326Y-10408786D01*
X13901721Y-10407321D01*
X13908666Y-10404792D01*
X13914690Y-10401233D01*
X13918215Y-10398236D01*
X13921222Y-10394750D01*
X13923739Y-10390731D01*
X13925556Y-10386363D01*
X13926700Y-10381297D01*
X13927104Y-10375399D01*
X13926484Y-10368569D01*
X13924700Y-10362583D01*
X13921785Y-10357276D01*
X13918863Y-10353863D01*
X13915296Y-10351091D01*
X13910994Y-10348930D01*
X13905824Y-10347402D01*
G37*
G36*
X13936092Y-10316664D02*
G01*
X13836050Y-10316664D01*
X13836050Y-10247220D01*
X13847383Y-10247220D01*
X13847383Y-10303359D01*
X13881772Y-10303359D01*
X13881772Y-10251421D01*
X13893105Y-10251421D01*
X13893105Y-10303359D01*
X13924759Y-10303359D01*
X13924759Y-10247641D01*
X13936092Y-10247641D01*
X13936092Y-10316664D01*
G37*
G36*
X13838740Y-10152084D02*
G01*
X13841851Y-10153406D01*
X13848781Y-10155018D01*
X13856194Y-10155714D01*
X13863607Y-10156136D01*
X13870604Y-10157326D01*
X13873835Y-10158319D01*
X13876686Y-10159708D01*
X13879206Y-10161584D01*
X13881375Y-10164049D01*
X13883005Y-10167057D01*
X13884172Y-10171120D01*
X13884453Y-10171120D01*
X13886711Y-10165437D01*
X13889838Y-10161105D01*
X13893856Y-10157888D01*
X13898595Y-10155626D01*
X13903888Y-10154236D01*
X13909854Y-10153754D01*
X13915838Y-10154296D01*
X13920931Y-10155839D01*
X13925304Y-10158328D01*
X13929076Y-10161808D01*
X13932018Y-10165991D01*
X13934202Y-10170993D01*
X13935595Y-10176975D01*
X13936092Y-10184138D01*
X13936092Y-10231179D01*
X13836050Y-10231179D01*
X13836050Y-10217874D01*
X13878646Y-10217874D01*
X13878646Y-10190159D01*
X13889979Y-10190159D01*
X13889979Y-10217874D01*
X13924759Y-10217874D01*
X13924759Y-10184840D01*
X13924147Y-10178775D01*
X13922513Y-10174391D01*
X13920008Y-10171260D01*
X13916625Y-10168973D01*
X13912586Y-10167559D01*
X13907717Y-10167059D01*
X13902586Y-10167574D01*
X13898845Y-10168952D01*
X13895760Y-10171168D01*
X13893398Y-10173990D01*
X13891729Y-10177344D01*
X13890675Y-10181341D01*
X13889979Y-10190159D01*
X13878646Y-10190159D01*
X13878646Y-10185396D01*
X13878240Y-10180784D01*
X13877180Y-10177562D01*
X13875451Y-10174878D01*
X13873267Y-10172799D01*
X13870651Y-10171241D01*
X13867539Y-10170137D01*
X13860627Y-10168739D01*
X13853226Y-10167896D01*
X13846174Y-10167615D01*
X13840239Y-10166986D01*
X13837797Y-10166239D01*
X13836050Y-10165099D01*
X13836050Y-10150255D01*
X13838740Y-10152084D01*
G37*
G36*
X13936092Y-10135479D02*
G01*
X13836050Y-10135479D01*
X13836050Y-10122876D01*
X13916339Y-10122876D01*
X13916339Y-10122595D01*
X13836050Y-10070376D01*
X13836050Y-10055819D01*
X13936092Y-10055819D01*
X13936092Y-10068416D01*
X13854967Y-10068416D01*
X13854967Y-10068697D01*
X13936092Y-10121337D01*
X13936092Y-10135479D01*
G37*
G36*
X13880600Y-10038240D02*
G01*
X13869267Y-10038240D01*
X13869267Y-9997775D01*
X13880600Y-9997775D01*
X13880600Y-10038240D01*
G37*
G36*
X13896080Y-9890498D02*
G01*
X13905696Y-9892750D01*
X13911818Y-9895116D01*
X13917384Y-9898124D01*
X13922451Y-9901781D01*
X13926956Y-9906090D01*
X13930828Y-9911063D01*
X13934089Y-9916765D01*
X13936450Y-9922880D01*
X13937922Y-9929787D01*
X13938437Y-9937624D01*
X13937923Y-9945457D01*
X13936451Y-9952364D01*
X13934089Y-9958482D01*
X13930828Y-9964181D01*
X13926956Y-9969152D01*
X13922451Y-9973460D01*
X13917384Y-9977117D01*
X13911818Y-9980125D01*
X13905696Y-9982491D01*
X13896080Y-9984743D01*
X13886004Y-9985501D01*
X13875922Y-9984743D01*
X13866299Y-9982491D01*
X13860181Y-9980125D01*
X13854617Y-9977118D01*
X13849551Y-9973460D01*
X13845051Y-9969149D01*
X13841201Y-9964179D01*
X13837980Y-9958482D01*
X13835659Y-9952368D01*
X13834211Y-9945461D01*
X13833705Y-9937624D01*
X13833706Y-9937618D01*
X13844647Y-9937618D01*
X13845073Y-9943600D01*
X13846284Y-9948786D01*
X13848219Y-9953304D01*
X13850883Y-9957453D01*
X13854029Y-9961029D01*
X13857684Y-9964081D01*
X13863903Y-9967703D01*
X13870940Y-9970242D01*
X13878362Y-9971713D01*
X13885876Y-9972202D01*
X13893389Y-9971713D01*
X13900811Y-9970242D01*
X13907848Y-9967703D01*
X13914061Y-9964081D01*
X13917719Y-9961029D01*
X13920865Y-9957453D01*
X13923526Y-9953304D01*
X13925465Y-9948786D01*
X13926678Y-9943600D01*
X13927104Y-9937618D01*
X13926678Y-9931640D01*
X13925465Y-9926458D01*
X13923526Y-9921943D01*
X13920865Y-9917791D01*
X13917719Y-9914213D01*
X13914061Y-9911160D01*
X13907848Y-9907539D01*
X13900811Y-9904999D01*
X13893389Y-9903528D01*
X13885876Y-9903039D01*
X13878362Y-9903528D01*
X13870940Y-9904999D01*
X13863903Y-9907539D01*
X13857684Y-9911160D01*
X13854029Y-9914212D01*
X13850883Y-9917790D01*
X13848219Y-9921943D01*
X13846284Y-9926458D01*
X13845073Y-9931640D01*
X13844647Y-9937618D01*
X13833706Y-9937618D01*
X13834211Y-9929783D01*
X13835659Y-9922876D01*
X13837980Y-9916765D01*
X13841202Y-9911065D01*
X13845051Y-9906092D01*
X13849551Y-9901781D01*
X13854617Y-9898124D01*
X13860181Y-9895116D01*
X13866299Y-9892750D01*
X13875922Y-9890498D01*
X13886004Y-9889740D01*
X13896080Y-9890498D01*
G37*
G36*
X13936092Y-9873510D02*
G01*
X13836050Y-9873510D01*
X13836050Y-9860205D01*
X13881772Y-9860205D01*
X13881772Y-9807571D01*
X13836050Y-9807571D01*
X13836050Y-9794265D01*
X13936092Y-9794265D01*
X13936092Y-9807571D01*
X13893105Y-9807571D01*
X13893105Y-9860205D01*
X13936092Y-9860205D01*
X13936092Y-9873510D01*
G37*
G36*
X13936092Y-9772491D02*
G01*
X13836050Y-9772491D01*
X13836050Y-9706271D01*
X13847383Y-9706271D01*
X13847383Y-9759186D01*
X13936092Y-9759186D01*
X13936092Y-9772491D01*
G37*
G36*
X13880600Y-9698644D02*
G01*
X13869267Y-9698644D01*
X13869267Y-9658179D01*
X13880600Y-9658179D01*
X13880600Y-9698644D01*
G37*
G36*
X13913396Y-9566368D02*
G01*
X13919249Y-9567895D01*
X13924157Y-9570308D01*
X13928276Y-9573598D01*
X13931542Y-9577692D01*
X13933971Y-9582728D01*
X13935530Y-9588906D01*
X13936092Y-9596484D01*
X13936092Y-9640307D01*
X13836050Y-9640307D01*
X13836050Y-9627002D01*
X13876692Y-9627002D01*
X13876692Y-9600966D01*
X13888025Y-9600966D01*
X13888025Y-9627002D01*
X13924759Y-9627002D01*
X13924759Y-9600966D01*
X13924139Y-9593531D01*
X13922503Y-9588172D01*
X13920063Y-9584375D01*
X13916603Y-9581542D01*
X13912147Y-9579767D01*
X13906392Y-9579124D01*
X13900635Y-9579765D01*
X13896152Y-9581539D01*
X13892647Y-9584375D01*
X13890183Y-9588178D01*
X13888569Y-9593536D01*
X13888025Y-9600966D01*
X13876692Y-9600966D01*
X13876692Y-9596484D01*
X13877193Y-9588909D01*
X13878721Y-9582734D01*
X13881146Y-9577697D01*
X13884435Y-9573598D01*
X13888589Y-9570306D01*
X13893522Y-9567892D01*
X13899389Y-9566367D01*
X13906392Y-9565825D01*
X13913396Y-9566368D01*
G37*
G36*
X13836050Y-9480096D02*
G01*
X13908346Y-9453638D01*
X13908346Y-9466101D01*
X13848079Y-9485836D01*
X13848079Y-9486116D01*
X13908346Y-9506419D01*
X13908346Y-9519718D01*
X13836050Y-9492839D01*
X13836050Y-9480096D01*
G37*
G36*
X13900121Y-9445566D02*
G01*
X13900121Y-9433665D01*
X13904579Y-9433509D01*
X13909011Y-9432755D01*
X13913225Y-9431358D01*
X13916919Y-9429324D01*
X13920085Y-9426616D01*
X13922591Y-9423236D01*
X13924191Y-9419261D01*
X13924759Y-9414346D01*
X13924440Y-9410507D01*
X13923501Y-9406927D01*
X13921950Y-9403635D01*
X13919862Y-9400839D01*
X13917264Y-9398516D01*
X13914189Y-9396705D01*
X13910762Y-9395562D01*
X13906850Y-9395166D01*
X13901872Y-9395590D01*
X13897752Y-9396778D01*
X13894014Y-9398746D01*
X13890480Y-9401535D01*
X13887238Y-9404970D01*
X13883830Y-9409449D01*
X13876625Y-9420507D01*
X13870049Y-9430447D01*
X13866276Y-9434956D01*
X13861934Y-9438990D01*
X13856991Y-9442392D01*
X13851089Y-9445218D01*
X13844493Y-9447172D01*
X13836050Y-9448369D01*
X13836050Y-9383547D01*
X13846601Y-9383547D01*
X13846601Y-9434508D01*
X13850977Y-9433184D01*
X13854783Y-9430936D01*
X13858194Y-9427964D01*
X13861433Y-9424360D01*
X13867240Y-9415890D01*
X13872766Y-9406646D01*
X13878921Y-9397688D01*
X13882347Y-9393576D01*
X13886126Y-9389989D01*
X13890358Y-9386976D01*
X13895151Y-9384603D01*
X13900433Y-9383103D01*
X13906764Y-9382570D01*
X13913480Y-9383209D01*
X13919080Y-9385018D01*
X13923994Y-9387930D01*
X13927965Y-9391668D01*
X13931084Y-9396188D01*
X13933417Y-9401541D01*
X13934828Y-9407346D01*
X13935310Y-9413650D01*
X13934616Y-9421205D01*
X13932636Y-9427651D01*
X13929423Y-9433344D01*
X13925260Y-9437940D01*
X13920178Y-9441498D01*
X13914122Y-9444027D01*
X13907502Y-9445381D01*
X13900121Y-9445566D01*
G37*
G36*
X13915309Y-9137161D02*
G01*
X13922618Y-9138452D01*
X13929251Y-9140807D01*
X13934635Y-9144191D01*
X13937652Y-9147079D01*
X13940160Y-9150487D01*
X13942176Y-9154480D01*
X13943551Y-9158755D01*
X13944440Y-9163885D01*
X13944759Y-9170020D01*
X13944759Y-9192417D01*
X13867383Y-9192417D01*
X13867383Y-9170301D01*
X13867731Y-9164702D01*
X13868305Y-9161311D01*
X13869404Y-9157557D01*
X13871003Y-9153847D01*
X13873245Y-9150071D01*
X13876148Y-9146617D01*
X13880090Y-9143422D01*
X13884786Y-9140823D01*
X13890916Y-9138592D01*
X13897773Y-9137212D01*
X13906627Y-9136699D01*
X13915309Y-9137161D01*
G37*
G36*
X13903199Y-9059555D02*
G01*
X13907121Y-9060831D01*
X13910716Y-9062736D01*
X13913722Y-9065166D01*
X13916193Y-9068125D01*
X13918118Y-9071608D01*
X13919331Y-9075462D01*
X13919749Y-9079797D01*
X13919328Y-9084259D01*
X13918118Y-9088131D01*
X13916175Y-9091592D01*
X13913649Y-9094500D01*
X13910596Y-9096870D01*
X13907048Y-9098701D01*
X13903192Y-9099920D01*
X13899037Y-9100521D01*
X13899037Y-9058938D01*
X13903199Y-9059555D01*
G37*
G36*
X13898563Y-8882656D02*
G01*
X13903219Y-8883499D01*
X13907648Y-8884963D01*
X13911554Y-8887065D01*
X13914893Y-8889875D01*
X13917508Y-8893433D01*
X13919157Y-8897644D01*
X13919749Y-8902953D01*
X13919174Y-8908409D01*
X13917575Y-8912753D01*
X13915027Y-8916457D01*
X13911762Y-8919402D01*
X13907890Y-8921620D01*
X13903360Y-8923182D01*
X13898524Y-8924071D01*
X13893413Y-8924373D01*
X13888521Y-8924130D01*
X13883607Y-8923396D01*
X13878896Y-8922050D01*
X13874716Y-8920037D01*
X13871106Y-8917269D01*
X13868268Y-8913736D01*
X13866470Y-8909476D01*
X13865820Y-8903936D01*
X13866464Y-8898365D01*
X13868268Y-8893928D01*
X13871115Y-8890191D01*
X13874716Y-8887278D01*
X13878920Y-8885110D01*
X13883747Y-8883566D01*
X13888807Y-8882671D01*
X13893834Y-8882375D01*
X13898563Y-8882656D01*
G37*
G36*
X13903199Y-8725333D02*
G01*
X13907121Y-8726609D01*
X13910716Y-8728514D01*
X13913722Y-8730945D01*
X13916193Y-8733903D01*
X13918118Y-8737386D01*
X13919331Y-8741240D01*
X13919749Y-8745575D01*
X13919328Y-8750037D01*
X13918118Y-8753910D01*
X13916175Y-8757370D01*
X13913649Y-8760278D01*
X13910596Y-8762649D01*
X13907048Y-8764479D01*
X13903192Y-8765698D01*
X13899037Y-8766299D01*
X13899037Y-8724716D01*
X13903199Y-8725333D01*
G37*
G36*
X13897574Y-8646969D02*
G01*
X13902603Y-8647914D01*
X13907326Y-8649563D01*
X13911353Y-8651901D01*
X13914745Y-8655011D01*
X13917440Y-8658972D01*
X13919138Y-8663613D01*
X13919749Y-8669469D01*
X13919119Y-8675177D01*
X13917367Y-8679690D01*
X13914592Y-8683486D01*
X13911072Y-8686413D01*
X13906934Y-8688557D01*
X13902120Y-8690052D01*
X13897031Y-8690888D01*
X13891764Y-8691170D01*
X13886776Y-8690836D01*
X13881897Y-8689839D01*
X13877297Y-8688140D01*
X13873294Y-8685778D01*
X13869911Y-8682678D01*
X13867273Y-8678780D01*
X13865622Y-8674254D01*
X13865038Y-8668773D01*
X13865666Y-8663064D01*
X13867413Y-8658551D01*
X13870173Y-8654723D01*
X13873642Y-8651694D01*
X13877711Y-8649417D01*
X13882385Y-8647841D01*
X13887323Y-8646948D01*
X13892326Y-8646650D01*
X13897574Y-8646969D01*
G37*
G36*
X13892115Y-8103006D02*
G01*
X13891074Y-8106403D01*
X13889817Y-8114036D01*
X13888699Y-8122084D01*
X13887858Y-8126006D01*
X13886672Y-8129362D01*
X13884966Y-8132305D01*
X13882697Y-8134613D01*
X13879784Y-8136093D01*
X13875650Y-8136641D01*
X13872871Y-8136326D01*
X13870686Y-8135450D01*
X13868849Y-8134079D01*
X13867407Y-8132372D01*
X13866342Y-8130359D01*
X13865594Y-8127964D01*
X13865038Y-8122639D01*
X13865468Y-8117006D01*
X13866644Y-8112564D01*
X13868516Y-8108654D01*
X13870692Y-8105707D01*
X13873287Y-8103361D01*
X13875992Y-8101787D01*
X13878844Y-8100822D01*
X13881372Y-8100523D01*
X13893517Y-8100523D01*
X13892115Y-8103006D01*
G37*
G36*
X13898563Y-8019795D02*
G01*
X13903219Y-8020637D01*
X13907648Y-8022102D01*
X13911554Y-8024203D01*
X13914893Y-8027014D01*
X13917508Y-8030572D01*
X13919157Y-8034783D01*
X13919749Y-8040091D01*
X13919174Y-8045548D01*
X13917575Y-8049892D01*
X13915027Y-8053596D01*
X13911762Y-8056541D01*
X13907890Y-8058759D01*
X13903360Y-8060321D01*
X13898524Y-8061210D01*
X13893413Y-8061511D01*
X13888521Y-8061268D01*
X13883607Y-8060535D01*
X13878896Y-8059189D01*
X13874716Y-8057176D01*
X13871106Y-8054408D01*
X13868268Y-8050875D01*
X13866470Y-8046615D01*
X13865820Y-8041074D01*
X13866464Y-8035504D01*
X13868268Y-8031067D01*
X13871115Y-8027330D01*
X13874716Y-8024417D01*
X13878920Y-8022249D01*
X13883747Y-8020705D01*
X13888807Y-8019810D01*
X13893834Y-8019514D01*
X13898563Y-8019795D01*
G37*
G36*
X13898681Y-7936584D02*
G01*
X13904007Y-7937876D01*
X13908788Y-7940000D01*
X13912611Y-7942706D01*
X13915700Y-7946061D01*
X13917929Y-7949917D01*
X13919291Y-7954154D01*
X13919749Y-7958661D01*
X13919291Y-7963173D01*
X13917929Y-7967417D01*
X13915700Y-7971269D01*
X13912611Y-7974628D01*
X13908789Y-7977330D01*
X13904007Y-7979458D01*
X13898681Y-7980746D01*
X13892326Y-7981204D01*
X13885970Y-7980746D01*
X13880639Y-7979458D01*
X13875869Y-7977327D01*
X13872103Y-7974628D01*
X13869072Y-7971274D01*
X13866858Y-7967417D01*
X13865496Y-7963173D01*
X13865038Y-7958661D01*
X13865496Y-7954154D01*
X13866858Y-7949917D01*
X13869073Y-7946056D01*
X13872103Y-7942706D01*
X13875870Y-7940004D01*
X13880639Y-7937876D01*
X13885971Y-7936584D01*
X13892326Y-7936123D01*
X13898681Y-7936584D01*
G37*
G36*
X13969548Y-9216833D02*
G01*
X13815630Y-9216833D01*
X13815630Y-9171418D01*
X13856050Y-9171418D01*
X13856050Y-9205722D01*
X13956092Y-9205722D01*
X13956092Y-9171418D01*
X13955549Y-9161986D01*
X13954016Y-9153894D01*
X13951602Y-9146946D01*
X13948367Y-9140979D01*
X13944319Y-9135863D01*
X13939447Y-9131608D01*
X13933607Y-9128196D01*
X13926639Y-9125631D01*
X13918336Y-9123988D01*
X13908452Y-9123400D01*
X13900067Y-9123736D01*
X13892654Y-9124692D01*
X13886104Y-9126203D01*
X13879817Y-9128470D01*
X13874387Y-9131367D01*
X13869709Y-9134880D01*
X13865672Y-9139096D01*
X13862289Y-9144059D01*
X13859549Y-9149864D01*
X13857669Y-9156026D01*
X13856473Y-9163161D01*
X13856107Y-9170301D01*
X13856050Y-9171418D01*
X13815630Y-9171418D01*
X13815630Y-9078398D01*
X13854487Y-9078398D01*
X13854824Y-9084135D01*
X13855780Y-9089119D01*
X13857296Y-9093456D01*
X13860686Y-9099347D01*
X13865154Y-9104166D01*
X13870628Y-9107922D01*
X13877226Y-9110675D01*
X13884449Y-9112353D01*
X13892534Y-9113124D01*
X13900583Y-9112475D01*
X13907695Y-9110608D01*
X13914174Y-9107547D01*
X13919626Y-9103537D01*
X13924119Y-9098566D01*
X13927491Y-9092754D01*
X13929583Y-9086296D01*
X13930300Y-9079101D01*
X13929811Y-9072769D01*
X13928438Y-9067489D01*
X13926270Y-9063072D01*
X13923322Y-9059082D01*
X13919919Y-9055692D01*
X13916030Y-9052857D01*
X13909551Y-9049607D01*
X13902468Y-9047532D01*
X13895195Y-9046490D01*
X13888485Y-9046341D01*
X13888485Y-9100521D01*
X13883881Y-9100307D01*
X13879589Y-9099403D01*
X13875611Y-9097750D01*
X13872139Y-9095343D01*
X13869258Y-9092201D01*
X13866968Y-9088199D01*
X13865547Y-9083610D01*
X13865038Y-9077977D01*
X13865460Y-9073044D01*
X13866643Y-9068970D01*
X13868519Y-9065588D01*
X13871154Y-9062806D01*
X13874621Y-9060680D01*
X13879107Y-9059219D01*
X13879107Y-9047459D01*
X13873116Y-9049098D01*
X13868145Y-9051411D01*
X13864037Y-9054360D01*
X13860678Y-9057961D01*
X13858037Y-9062152D01*
X13856110Y-9066888D01*
X13854907Y-9072264D01*
X13854487Y-9078398D01*
X13815630Y-9078398D01*
X13815630Y-9008032D01*
X13854487Y-9008032D01*
X13854805Y-9013963D01*
X13855739Y-9019511D01*
X13857415Y-9024714D01*
X13859842Y-9029171D01*
X13863132Y-9032935D01*
X13867365Y-9035894D01*
X13872367Y-9037809D01*
X13878716Y-9038691D01*
X13878716Y-9026790D01*
X13875098Y-9026242D01*
X13872219Y-9024970D01*
X13869824Y-9023028D01*
X13867975Y-9020562D01*
X13866642Y-9017697D01*
X13865722Y-9014401D01*
X13865038Y-9007330D01*
X13865459Y-9001450D01*
X13866064Y-8998461D01*
X13866998Y-8995783D01*
X13868389Y-8993409D01*
X13870289Y-8991509D01*
X13872688Y-8990271D01*
X13875821Y-8989830D01*
X13878718Y-8990238D01*
X13881002Y-8991395D01*
X13882825Y-8993329D01*
X13884914Y-8997123D01*
X13886672Y-9002079D01*
X13889334Y-9013491D01*
X13890790Y-9019495D01*
X13892693Y-9024903D01*
X13895332Y-9029758D01*
X13898786Y-9033653D01*
X13901599Y-9035527D01*
X13905170Y-9036719D01*
X13909710Y-9037152D01*
X13914888Y-9036514D01*
X13919095Y-9034703D01*
X13922652Y-9031899D01*
X13925464Y-9028402D01*
X13927584Y-9024350D01*
X13929109Y-9019719D01*
X13930005Y-9014882D01*
X13930300Y-9010132D01*
X13930027Y-9004105D01*
X13929250Y-8998793D01*
X13927791Y-8993849D01*
X13925610Y-8989622D01*
X13922588Y-8986053D01*
X13918613Y-8983254D01*
X13913860Y-8981412D01*
X13907634Y-8980451D01*
X13907634Y-8992352D01*
X13910904Y-8992974D01*
X13913410Y-8994171D01*
X13915486Y-8995921D01*
X13917105Y-8998091D01*
X13918297Y-9000575D01*
X13919120Y-9003343D01*
X13919749Y-9009156D01*
X13919327Y-9014547D01*
X13917850Y-9019518D01*
X13916607Y-9021566D01*
X13915047Y-9023157D01*
X13913096Y-9024185D01*
X13910486Y-9024555D01*
X13907647Y-9024008D01*
X13905363Y-9022387D01*
X13903545Y-9019985D01*
X13901992Y-9016855D01*
X13899745Y-9009296D01*
X13897852Y-9000894D01*
X13895465Y-8992144D01*
X13893811Y-8988069D01*
X13891746Y-8984585D01*
X13889135Y-8981612D01*
X13885921Y-8979266D01*
X13882132Y-8977774D01*
X13877226Y-8977233D01*
X13872898Y-8977565D01*
X13869289Y-8978495D01*
X13866272Y-8979962D01*
X13862346Y-8983111D01*
X13859256Y-8987106D01*
X13857017Y-8991742D01*
X13855543Y-8997047D01*
X13854749Y-9002576D01*
X13854487Y-9008032D01*
X13815630Y-9008032D01*
X13815630Y-8963421D01*
X13856050Y-8963421D01*
X13928431Y-8963421D01*
X13941633Y-8963421D01*
X13956092Y-8963421D01*
X13956092Y-8951520D01*
X13941633Y-8951520D01*
X13941633Y-8963421D01*
X13928431Y-8963421D01*
X13928431Y-8951520D01*
X13856050Y-8951520D01*
X13856050Y-8963421D01*
X13815630Y-8963421D01*
X13815630Y-8904217D01*
X13826741Y-8904217D01*
X13827013Y-8909268D01*
X13827846Y-8914505D01*
X13829309Y-8919554D01*
X13831430Y-8924025D01*
X13834306Y-8927928D01*
X13837958Y-8931095D01*
X13842347Y-8933228D01*
X13847880Y-8934173D01*
X13847880Y-8922272D01*
X13844874Y-8921683D01*
X13842421Y-8920245D01*
X13840401Y-8918155D01*
X13838782Y-8915623D01*
X13837584Y-8912795D01*
X13836755Y-8909675D01*
X13836120Y-8903514D01*
X13836665Y-8897926D01*
X13838165Y-8893574D01*
X13840598Y-8889857D01*
X13843795Y-8886857D01*
X13847672Y-8884599D01*
X13852447Y-8883004D01*
X13857646Y-8882122D01*
X13863530Y-8881813D01*
X13868293Y-8881813D01*
X13868293Y-8882094D01*
X13864157Y-8884535D01*
X13860901Y-8887619D01*
X13858419Y-8891406D01*
X13856667Y-8895650D01*
X13855620Y-8900042D01*
X13855322Y-8903936D01*
X13855268Y-8904632D01*
X13855619Y-8909981D01*
X13856619Y-8914661D01*
X13858218Y-8918773D01*
X13861697Y-8924329D01*
X13866156Y-8928855D01*
X13871508Y-8932378D01*
X13877818Y-8934948D01*
X13884630Y-8936461D01*
X13891941Y-8936976D01*
X13898423Y-8936564D01*
X13905216Y-8935296D01*
X13911743Y-8933046D01*
X13917581Y-8929697D01*
X13921025Y-8926840D01*
X13924065Y-8923406D01*
X13926716Y-8919335D01*
X13928645Y-8914903D01*
X13929866Y-8909683D01*
X13930300Y-8903514D01*
X13929957Y-8899018D01*
X13928950Y-8894840D01*
X13927283Y-8890918D01*
X13924952Y-8887386D01*
X13921961Y-8884412D01*
X13918234Y-8881954D01*
X13918234Y-8881813D01*
X13928615Y-8881813D01*
X13928615Y-8870615D01*
X13862242Y-8870615D01*
X13853220Y-8871215D01*
X13845977Y-8872863D01*
X13840185Y-8875395D01*
X13835582Y-8878736D01*
X13831922Y-8883053D01*
X13829174Y-8888545D01*
X13827391Y-8895482D01*
X13826741Y-8904217D01*
X13815630Y-8904217D01*
X13815630Y-8804724D01*
X13856050Y-8804724D01*
X13905155Y-8804724D01*
X13909485Y-8805195D01*
X13912976Y-8806515D01*
X13915816Y-8808644D01*
X13917946Y-8811484D01*
X13919274Y-8815013D01*
X13919749Y-8819428D01*
X13919302Y-8824659D01*
X13918063Y-8828880D01*
X13916014Y-8832560D01*
X13913294Y-8835529D01*
X13909971Y-8837838D01*
X13906065Y-8839517D01*
X13901806Y-8840505D01*
X13897022Y-8840848D01*
X13856050Y-8840848D01*
X13856050Y-8852748D01*
X13928615Y-8852748D01*
X13928615Y-8841544D01*
X13917105Y-8841544D01*
X13917105Y-8841269D01*
X13921897Y-8837917D01*
X13925522Y-8833982D01*
X13928120Y-8829403D01*
X13929732Y-8824053D01*
X13930300Y-8817748D01*
X13929765Y-8810947D01*
X13928334Y-8805848D01*
X13925941Y-8801485D01*
X13922857Y-8798148D01*
X13919061Y-8795665D01*
X13914510Y-8794014D01*
X13909519Y-8793134D01*
X13903775Y-8792824D01*
X13856050Y-8792824D01*
X13856050Y-8804724D01*
X13815630Y-8804724D01*
X13815630Y-8744176D01*
X13854487Y-8744176D01*
X13854824Y-8749913D01*
X13855780Y-8754897D01*
X13857296Y-8759234D01*
X13860686Y-8765125D01*
X13865154Y-8769944D01*
X13870628Y-8773700D01*
X13877226Y-8776453D01*
X13884449Y-8778131D01*
X13892534Y-8778902D01*
X13900583Y-8778253D01*
X13907695Y-8776386D01*
X13914174Y-8773325D01*
X13919626Y-8769315D01*
X13924119Y-8764344D01*
X13927491Y-8758532D01*
X13929583Y-8752074D01*
X13930300Y-8744879D01*
X13929811Y-8738547D01*
X13928438Y-8733267D01*
X13926270Y-8728850D01*
X13923322Y-8724860D01*
X13919919Y-8721470D01*
X13916030Y-8718635D01*
X13909551Y-8715385D01*
X13902468Y-8713310D01*
X13895195Y-8712268D01*
X13888485Y-8712120D01*
X13888485Y-8766299D01*
X13883881Y-8766085D01*
X13879589Y-8765181D01*
X13875611Y-8763528D01*
X13872139Y-8761121D01*
X13869258Y-8757979D01*
X13866968Y-8753977D01*
X13865547Y-8749388D01*
X13865038Y-8743755D01*
X13865460Y-8738823D01*
X13866643Y-8734748D01*
X13868519Y-8731366D01*
X13871154Y-8728584D01*
X13874621Y-8726458D01*
X13879107Y-8724997D01*
X13879107Y-8713237D01*
X13873116Y-8714876D01*
X13868145Y-8717189D01*
X13864037Y-8720138D01*
X13860678Y-8723739D01*
X13858037Y-8727930D01*
X13856110Y-8732666D01*
X13854907Y-8738042D01*
X13854487Y-8744176D01*
X13815630Y-8744176D01*
X13815630Y-8670452D01*
X13854487Y-8670452D01*
X13854854Y-8675984D01*
X13855901Y-8680826D01*
X13857577Y-8685082D01*
X13861215Y-8690816D01*
X13865856Y-8695444D01*
X13871414Y-8699034D01*
X13877928Y-8701672D01*
X13884957Y-8703238D01*
X13892534Y-8703773D01*
X13900112Y-8703257D01*
X13907133Y-8701745D01*
X13913639Y-8699156D01*
X13919138Y-8695584D01*
X13923709Y-8690959D01*
X13927277Y-8685222D01*
X13928919Y-8680971D01*
X13929943Y-8676173D01*
X13930300Y-8670733D01*
X13929738Y-8664712D01*
X13927845Y-8658276D01*
X13926315Y-8655153D01*
X13924346Y-8652182D01*
X13921931Y-8649554D01*
X13918961Y-8647352D01*
X13918961Y-8647072D01*
X13956092Y-8647072D01*
X13956092Y-8635171D01*
X13856026Y-8635171D01*
X13856026Y-8647072D01*
X13865838Y-8647072D01*
X13865838Y-8647352D01*
X13862190Y-8649688D01*
X13859318Y-8652736D01*
X13857149Y-8656591D01*
X13855169Y-8663122D01*
X13854643Y-8668773D01*
X13854487Y-8670452D01*
X13815630Y-8670452D01*
X13815630Y-8577322D01*
X13856050Y-8577322D01*
X13928431Y-8577322D01*
X13941633Y-8577322D01*
X13956092Y-8577322D01*
X13956092Y-8565421D01*
X13941633Y-8565421D01*
X13941633Y-8577322D01*
X13928431Y-8577322D01*
X13928431Y-8565421D01*
X13856050Y-8565421D01*
X13856050Y-8577322D01*
X13815630Y-8577322D01*
X13815630Y-8498932D01*
X13856050Y-8498932D01*
X13905155Y-8498932D01*
X13909485Y-8499403D01*
X13912976Y-8500723D01*
X13915816Y-8502852D01*
X13917946Y-8505692D01*
X13919274Y-8509221D01*
X13919749Y-8513636D01*
X13919302Y-8518867D01*
X13918063Y-8523088D01*
X13916014Y-8526768D01*
X13913294Y-8529737D01*
X13909971Y-8532046D01*
X13906065Y-8533725D01*
X13901806Y-8534713D01*
X13897022Y-8535056D01*
X13856050Y-8535056D01*
X13856050Y-8546956D01*
X13928615Y-8546956D01*
X13928615Y-8535752D01*
X13917105Y-8535752D01*
X13917105Y-8535477D01*
X13921897Y-8532125D01*
X13925522Y-8528190D01*
X13928120Y-8523611D01*
X13929732Y-8518261D01*
X13930300Y-8511956D01*
X13929765Y-8505155D01*
X13928334Y-8500056D01*
X13925941Y-8495693D01*
X13922857Y-8492356D01*
X13919061Y-8489873D01*
X13914510Y-8488222D01*
X13909519Y-8487342D01*
X13903775Y-8487031D01*
X13856050Y-8487031D01*
X13856050Y-8498932D01*
X13815630Y-8498932D01*
X13815630Y-8387044D01*
X13853705Y-8387044D01*
X13854180Y-8394710D01*
X13855536Y-8401432D01*
X13857699Y-8407347D01*
X13860734Y-8412859D01*
X13864396Y-8417641D01*
X13868708Y-8421764D01*
X13873588Y-8425227D01*
X13879078Y-8428098D01*
X13885249Y-8430373D01*
X13895019Y-8432509D01*
X13905723Y-8433243D01*
X13912964Y-8432891D01*
X13919793Y-8431858D01*
X13926258Y-8430166D01*
X13932473Y-8427752D01*
X13938036Y-8424742D01*
X13943013Y-8421135D01*
X13947417Y-8416871D01*
X13951171Y-8411948D01*
X13954297Y-8406297D01*
X13956551Y-8400241D01*
X13957950Y-8393488D01*
X13958437Y-8385921D01*
X13957896Y-8378229D01*
X13956312Y-8371083D01*
X13953666Y-8364418D01*
X13950083Y-8358627D01*
X13945511Y-8353640D01*
X13939892Y-8349523D01*
X13933442Y-8346552D01*
X13925824Y-8344766D01*
X13925824Y-8358065D01*
X13930994Y-8359593D01*
X13935296Y-8361754D01*
X13938863Y-8364526D01*
X13941785Y-8367939D01*
X13944700Y-8373245D01*
X13946484Y-8379232D01*
X13947104Y-8386061D01*
X13946700Y-8391960D01*
X13945556Y-8397026D01*
X13943739Y-8401394D01*
X13941222Y-8405413D01*
X13938215Y-8408899D01*
X13934690Y-8411896D01*
X13928666Y-8415455D01*
X13921721Y-8417984D01*
X13914326Y-8419449D01*
X13906578Y-8419944D01*
X13898171Y-8419444D01*
X13890378Y-8417984D01*
X13883133Y-8415439D01*
X13877055Y-8411896D01*
X13873538Y-8408896D01*
X13870532Y-8405389D01*
X13868012Y-8401327D01*
X13866193Y-8396912D01*
X13865050Y-8391819D01*
X13864647Y-8385921D01*
X13865212Y-8379587D01*
X13866815Y-8374234D01*
X13869421Y-8369453D01*
X13872836Y-8365417D01*
X13877018Y-8362131D01*
X13882007Y-8359604D01*
X13887488Y-8357935D01*
X13893492Y-8357082D01*
X13893492Y-8343783D01*
X13884143Y-8345441D01*
X13876284Y-8348208D01*
X13869678Y-8351998D01*
X13864147Y-8356807D01*
X13860509Y-8361372D01*
X13857633Y-8366574D01*
X13855509Y-8372504D01*
X13854174Y-8379280D01*
X13853705Y-8387044D01*
X13815630Y-8387044D01*
X13815630Y-8281263D01*
X13856050Y-8281263D01*
X13905155Y-8281263D01*
X13909485Y-8281733D01*
X13912976Y-8283054D01*
X13915816Y-8285183D01*
X13917946Y-8288023D01*
X13919274Y-8291551D01*
X13919749Y-8295966D01*
X13919302Y-8301197D01*
X13918063Y-8305418D01*
X13916014Y-8309099D01*
X13913294Y-8312068D01*
X13909971Y-8314377D01*
X13906065Y-8316055D01*
X13901806Y-8317043D01*
X13897022Y-8317386D01*
X13856050Y-8317386D01*
X13856050Y-8329287D01*
X13956092Y-8329287D01*
X13956092Y-8317386D01*
X13917843Y-8317386D01*
X13917843Y-8317106D01*
X13920996Y-8315410D01*
X13923571Y-8313185D01*
X13925693Y-8310511D01*
X13927393Y-8307513D01*
X13928687Y-8304295D01*
X13929592Y-8300937D01*
X13930300Y-8294281D01*
X13929765Y-8287485D01*
X13928334Y-8282386D01*
X13925941Y-8278024D01*
X13922857Y-8274687D01*
X13919061Y-8272203D01*
X13914510Y-8270553D01*
X13909519Y-8269673D01*
X13903775Y-8269362D01*
X13856050Y-8269362D01*
X13856050Y-8281263D01*
X13815630Y-8281263D01*
X13815630Y-8250818D01*
X13856050Y-8250818D01*
X13928431Y-8250818D01*
X13941633Y-8250818D01*
X13956092Y-8250818D01*
X13956092Y-8238917D01*
X13941633Y-8238917D01*
X13941633Y-8250818D01*
X13928431Y-8250818D01*
X13928431Y-8238917D01*
X13856050Y-8238917D01*
X13856050Y-8250818D01*
X13815630Y-8250818D01*
X13815630Y-8190490D01*
X13854487Y-8190490D01*
X13855184Y-8198443D01*
X13857155Y-8205120D01*
X13860411Y-8211004D01*
X13864733Y-8215763D01*
X13870054Y-8219471D01*
X13876456Y-8222205D01*
X13883478Y-8223813D01*
X13891410Y-8224373D01*
X13899382Y-8223835D01*
X13906645Y-8222272D01*
X13913343Y-8219596D01*
X13918997Y-8215903D01*
X13923675Y-8211120D01*
X13927277Y-8205193D01*
X13928918Y-8200802D01*
X13929942Y-8195840D01*
X13930300Y-8190209D01*
X13929921Y-8184172D01*
X13928822Y-8178663D01*
X13926922Y-8173541D01*
X13924255Y-8169143D01*
X13920783Y-8165398D01*
X13916457Y-8162353D01*
X13911444Y-8160220D01*
X13905289Y-8158989D01*
X13905289Y-8171311D01*
X13909668Y-8172642D01*
X13913173Y-8174607D01*
X13915957Y-8177191D01*
X13917997Y-8180379D01*
X13919286Y-8184325D01*
X13919749Y-8189232D01*
X13919113Y-8195325D01*
X13917367Y-8200009D01*
X13914586Y-8203935D01*
X13911072Y-8206940D01*
X13906919Y-8209137D01*
X13902047Y-8210652D01*
X13896882Y-8211487D01*
X13891484Y-8211770D01*
X13886500Y-8211470D01*
X13881689Y-8210579D01*
X13877148Y-8209037D01*
X13873220Y-8206873D01*
X13869893Y-8203980D01*
X13867273Y-8200290D01*
X13865624Y-8195960D01*
X13865038Y-8190630D01*
X13865604Y-8184921D01*
X13867168Y-8180413D01*
X13869642Y-8176843D01*
X13873004Y-8174039D01*
X13877261Y-8171994D01*
X13882624Y-8170749D01*
X13882624Y-8158567D01*
X13875952Y-8160018D01*
X13870362Y-8162198D01*
X13865688Y-8165053D01*
X13861802Y-8168581D01*
X13858707Y-8172787D01*
X13856433Y-8177739D01*
X13854996Y-8183578D01*
X13854487Y-8190490D01*
X13815630Y-8190490D01*
X13815630Y-8089740D01*
X13854487Y-8089740D01*
X13855171Y-8093986D01*
X13857082Y-8097092D01*
X13859003Y-8098517D01*
X13861740Y-8099463D01*
X13865575Y-8099821D01*
X13861959Y-8103330D01*
X13859151Y-8107122D01*
X13857082Y-8111233D01*
X13855148Y-8117940D01*
X13854726Y-8122639D01*
X13854487Y-8125302D01*
X13854773Y-8130124D01*
X13855610Y-8134613D01*
X13857076Y-8138785D01*
X13859115Y-8142246D01*
X13861844Y-8145111D01*
X13865362Y-8147357D01*
X13869481Y-8148742D01*
X13874698Y-8149244D01*
X13880523Y-8148673D01*
X13884797Y-8147143D01*
X13888382Y-8144692D01*
X13891184Y-8141617D01*
X13893327Y-8137981D01*
X13894909Y-8133777D01*
X13897010Y-8124746D01*
X13898481Y-8115434D01*
X13899885Y-8107667D01*
X13901059Y-8104558D01*
X13902554Y-8102343D01*
X13904631Y-8100905D01*
X13907677Y-8100383D01*
X13911360Y-8100784D01*
X13913991Y-8101854D01*
X13916111Y-8103546D01*
X13917642Y-8105634D01*
X13918685Y-8108052D01*
X13919327Y-8110812D01*
X13919749Y-8116484D01*
X13919399Y-8121458D01*
X13918421Y-8125610D01*
X13916885Y-8129081D01*
X13914559Y-8131813D01*
X13911090Y-8133655D01*
X13906071Y-8134540D01*
X13906071Y-8146441D01*
X13912446Y-8145557D01*
X13917416Y-8143644D01*
X13921616Y-8140688D01*
X13924908Y-8136921D01*
X13927354Y-8132473D01*
X13929036Y-8127335D01*
X13929975Y-8121827D01*
X13930300Y-8115782D01*
X13929598Y-8106049D01*
X13928517Y-8101402D01*
X13926728Y-8097305D01*
X13924130Y-8093779D01*
X13920634Y-8091004D01*
X13916328Y-8089268D01*
X13910412Y-8088622D01*
X13873159Y-8088622D01*
X13866998Y-8088134D01*
X13865578Y-8087147D01*
X13865038Y-8084843D01*
X13865575Y-8081204D01*
X13856313Y-8081204D01*
X13854995Y-8084641D01*
X13854487Y-8089740D01*
X13815630Y-8089740D01*
X13815630Y-8041355D01*
X13826741Y-8041355D01*
X13827013Y-8046407D01*
X13827846Y-8051644D01*
X13829309Y-8056693D01*
X13831430Y-8061163D01*
X13834306Y-8065067D01*
X13837958Y-8068234D01*
X13842347Y-8070367D01*
X13847880Y-8071312D01*
X13847880Y-8059411D01*
X13844874Y-8058822D01*
X13842421Y-8057384D01*
X13840401Y-8055294D01*
X13838782Y-8052761D01*
X13837584Y-8049934D01*
X13836755Y-8046814D01*
X13836120Y-8040653D01*
X13836665Y-8035065D01*
X13838165Y-8030712D01*
X13840598Y-8026996D01*
X13843795Y-8023996D01*
X13847672Y-8021738D01*
X13852447Y-8020143D01*
X13857646Y-8019261D01*
X13863530Y-8018952D01*
X13868293Y-8018952D01*
X13868293Y-8019233D01*
X13864157Y-8021673D01*
X13860901Y-8024758D01*
X13858419Y-8028545D01*
X13856667Y-8032789D01*
X13855620Y-8037180D01*
X13855322Y-8041074D01*
X13855268Y-8041771D01*
X13855619Y-8047120D01*
X13856619Y-8051800D01*
X13858218Y-8055912D01*
X13861697Y-8061468D01*
X13866156Y-8065993D01*
X13871508Y-8069517D01*
X13877818Y-8072087D01*
X13884630Y-8073599D01*
X13891941Y-8074114D01*
X13898423Y-8073703D01*
X13905216Y-8072435D01*
X13911743Y-8070184D01*
X13917581Y-8066836D01*
X13921025Y-8063979D01*
X13924065Y-8060545D01*
X13926716Y-8056474D01*
X13928645Y-8052042D01*
X13929866Y-8046821D01*
X13930300Y-8040653D01*
X13929957Y-8036157D01*
X13928950Y-8031978D01*
X13927283Y-8028056D01*
X13924952Y-8024524D01*
X13921961Y-8021551D01*
X13918234Y-8019093D01*
X13918234Y-8018952D01*
X13928615Y-8018952D01*
X13928615Y-8007754D01*
X13862242Y-8007754D01*
X13853220Y-8008353D01*
X13845977Y-8010002D01*
X13840185Y-8012534D01*
X13835582Y-8015875D01*
X13831922Y-8020191D01*
X13829174Y-8025683D01*
X13827391Y-8032621D01*
X13826741Y-8041355D01*
X13815630Y-8041355D01*
X13815630Y-7958667D01*
X13854487Y-7958667D01*
X13854826Y-7964304D01*
X13855800Y-7969317D01*
X13857363Y-7973792D01*
X13860831Y-7979880D01*
X13865368Y-7984850D01*
X13870884Y-7988742D01*
X13877366Y-7991566D01*
X13884437Y-7993233D01*
X13892253Y-7993807D01*
X13900078Y-7993234D01*
X13907207Y-7991566D01*
X13913751Y-7988738D01*
X13919278Y-7984850D01*
X13923830Y-7979883D01*
X13927351Y-7973792D01*
X13928954Y-7969313D01*
X13929952Y-7964301D01*
X13930300Y-7958667D01*
X13929949Y-7952938D01*
X13928948Y-7947907D01*
X13927351Y-7943475D01*
X13923834Y-7937441D01*
X13919278Y-7932490D01*
X13913751Y-7928597D01*
X13907207Y-7925767D01*
X13900078Y-7924099D01*
X13892253Y-7923526D01*
X13884437Y-7924101D01*
X13877366Y-7925767D01*
X13870885Y-7928593D01*
X13865368Y-7932490D01*
X13860827Y-7937444D01*
X13857363Y-7943475D01*
X13855806Y-7947903D01*
X13854829Y-7952934D01*
X13854487Y-7958661D01*
X13854487Y-7958667D01*
X13815630Y-7958667D01*
X13815630Y-7912415D01*
X13969548Y-7912415D01*
X13969548Y-9216833D01*
G37*
%TO.C,J1*%
D11*
X19454710Y-7574370D02*
G75*
G02*
X19378510Y-7574370I-38100J0D01*
G01*
X19378510Y-7574370D02*
G75*
G02*
X19454710Y-7574370I38100J0D01*
G01*
%TD*%
M02*
