%TF.GenerationSoftware,KiCad,Pcbnew,10.0.0*%
%TF.CreationDate,2026-03-28T11:54:37-05:00*%
%TF.ProjectId,LINC,4c494e43-2e6b-4696-9361-645f70636258,rev?*%
%TF.SameCoordinates,Original*%
%TF.FileFunction,Copper,L2,Inr*%
%TF.FilePolarity,Positive*%
%FSLAX45Y45*%
G04 Gerber Fmt 4.5, Leading zero omitted, Abs format (unit mm)*
G04 Created by KiCad (PCBNEW 10.0.0) date 2026-03-28 11:54:37*
%MOMM*%
%LPD*%
G01*
G04 APERTURE LIST*
%TA.AperFunction,ComponentPad*%
%ADD10C,0.700000*%
%TD*%
%TA.AperFunction,ComponentPad*%
%ADD11O,0.900000X2.400000*%
%TD*%
%TA.AperFunction,ComponentPad*%
%ADD12O,0.900000X1.700000*%
%TD*%
%TA.AperFunction,ComponentPad*%
%ADD13C,0.500000*%
%TD*%
%TA.AperFunction,ComponentPad*%
%ADD14C,1.498600*%
%TD*%
%TA.AperFunction,ComponentPad*%
%ADD15R,1.500000X1.500000*%
%TD*%
%TA.AperFunction,ComponentPad*%
%ADD16C,1.500000*%
%TD*%
%TA.AperFunction,ComponentPad*%
%ADD17C,2.300000*%
%TD*%
%TA.AperFunction,ViaPad*%
%ADD18C,0.600000*%
%TD*%
G04 APERTURE END LIST*
D10*
%TO.N,GND*%
%TO.C,J4*%
X17180550Y-11757140D03*
%TO.N,+5V*%
X17265550Y-11757140D03*
%TO.N,Net-(J4-CC1)*%
X17350550Y-11757140D03*
%TO.N,/Overview/Connectors/USB_DP*%
X17435550Y-11757140D03*
%TO.N,/Overview/Connectors/USB_DM*%
X17520550Y-11757140D03*
%TO.N,unconnected-(J4-SBU1-PadA8)*%
X17605550Y-11757140D03*
%TO.N,+5V*%
X17690550Y-11757140D03*
%TO.N,GND*%
X17775550Y-11757140D03*
X17775550Y-11892140D03*
%TO.N,+5V*%
X17690550Y-11892140D03*
%TO.N,Net-(J4-CC2)*%
X17605550Y-11892140D03*
%TO.N,/Overview/Connectors/USB_DP*%
X17520550Y-11892140D03*
%TO.N,/Overview/Connectors/USB_DM*%
X17435550Y-11892140D03*
%TO.N,unconnected-(J4-SBU2-PadB8)*%
X17350550Y-11892140D03*
%TO.N,+5V*%
X17265550Y-11892140D03*
%TO.N,GND*%
X17180550Y-11892140D03*
D11*
X17045550Y-11855140D03*
D12*
X17045550Y-12193140D03*
D11*
X17910550Y-11855140D03*
D12*
X17910550Y-12193140D03*
%TD*%
D13*
%TO.N,unconnected-(U9-SW-Pad2)_4*%
%TO.C,U9*%
X18479050Y-11246640D03*
%TO.N,unconnected-(U9-SW-Pad2)_3*%
X18429050Y-11246640D03*
%TO.N,unconnected-(U9-SW-Pad2)_5*%
X18379050Y-11246640D03*
%TO.N,unconnected-(U9-SW-Pad2)*%
X18479050Y-11346640D03*
%TO.N,unconnected-(U9-SW-Pad2)_2*%
X18429050Y-11346640D03*
%TO.N,unconnected-(U9-SW-Pad2)_1*%
X18379050Y-11346640D03*
%TO.N,+3V3*%
X18479050Y-11476640D03*
X18429050Y-11476640D03*
X18379050Y-11476640D03*
X18479050Y-11576640D03*
X18429050Y-11576640D03*
X18379050Y-11576640D03*
%TD*%
D14*
%TO.N,/Overview/Connectors/DIO1*%
%TO.C,J1*%
X17664560Y-7574370D03*
%TO.N,/Overview/Connectors/DIO2*%
X17448560Y-7574370D03*
%TO.N,/Overview/Connectors/DIO3*%
X17232560Y-7574370D03*
%TO.N,/Overview/Connectors/DIO4*%
X17016560Y-7574370D03*
%TO.N,/Overview/Connectors/EOI*%
X16800560Y-7574370D03*
%TO.N,/Overview/Connectors/DAV*%
X16584560Y-7574370D03*
%TO.N,/Overview/Connectors/NRFD*%
X16368560Y-7574370D03*
%TO.N,/Overview/Connectors/NDAC*%
X16152560Y-7574370D03*
%TO.N,/Overview/Connectors/IFC*%
X15936560Y-7574370D03*
%TO.N,/Overview/Connectors/SRQ*%
X15720560Y-7574370D03*
%TO.N,/Overview/Connectors/ATN*%
X15504560Y-7574370D03*
%TO.N,GND*%
X15288560Y-7574370D03*
%TO.N,/Overview/Connectors/DIO5*%
X17664560Y-7145370D03*
%TO.N,/Overview/Connectors/DIO6*%
X17448560Y-7145370D03*
%TO.N,/Overview/Connectors/DIO7*%
X17232560Y-7145370D03*
%TO.N,/Overview/Connectors/DIO8*%
X17016560Y-7145370D03*
%TO.N,/Overview/Connectors/REN*%
X16800560Y-7145370D03*
%TO.N,GND*%
X16584560Y-7145370D03*
X16368560Y-7145370D03*
X16152560Y-7145370D03*
X15936560Y-7145370D03*
X15720560Y-7145370D03*
X15504560Y-7145370D03*
X15288560Y-7145370D03*
%TD*%
D15*
%TO.N,GND*%
%TO.C,J3*%
X16005050Y-11810640D03*
D16*
X15903450Y-11632640D03*
%TO.N,/Overview/Connectors/CTRL_TX_N*%
X15801850Y-11810640D03*
%TO.N,/Overview/Connectors/CTRL_TX_P*%
X15700250Y-11632640D03*
%TO.N,/Overview/Connectors/CTRL_RX_N*%
X15598650Y-11810640D03*
%TO.N,/Overview/Connectors/CTRL_RX_P*%
X15497050Y-11632640D03*
%TO.N,+5V*%
X15395450Y-11810640D03*
X15293850Y-11632640D03*
D17*
%TO.N,GND*%
X16462050Y-11721640D03*
X14836050Y-11721640D03*
%TD*%
D18*
%TO.N,GND*%
X17829050Y-8826640D03*
X17353050Y-9668640D03*
X14129050Y-10146640D03*
X15919050Y-9346640D03*
X16904050Y-8401640D03*
X18800455Y-11590545D03*
X15666800Y-8498890D03*
X18796360Y-11104640D03*
X16809050Y-8865140D03*
X16549050Y-10076640D03*
%TO.N,+5V*%
X14439050Y-8266640D03*
X17829050Y-8126640D03*
%TO.N,Net-(J2-NRST)*%
X16619050Y-9846640D03*
X14729050Y-9746640D03*
%TO.N,+3V3*%
X15779050Y-9346640D03*
X15409050Y-7986640D03*
X17369050Y-8206640D03*
X16459050Y-9346640D03*
X16609050Y-10136640D03*
X14899050Y-10033440D03*
X14649050Y-10916640D03*
X16099050Y-8166640D03*
X18794050Y-11276640D03*
%TO.N,/Overview/GPIB Transceiver/EOI_SENSE*%
X14709050Y-8436640D03*
X16359050Y-8966640D03*
%TO.N,/Overview/Microcontroller/CTRL_TX*%
X15799050Y-9446640D03*
X13979050Y-9606640D03*
%TO.N,/Overview/Microcontroller/CTRL_RX*%
X15859050Y-9486640D03*
X14069050Y-9666640D03*
%TO.N,/Overview/GPIB Transceiver/iDIO7*%
X15839050Y-9606640D03*
X16919050Y-9146640D03*
%TO.N,/Overview/GPIB Transceiver/iDIO8*%
X15839050Y-9676640D03*
X16919050Y-9216640D03*
%TO.N,/Overview/Microcontroller/iUSB_DM*%
X15909050Y-10076640D03*
X17539050Y-11136640D03*
%TO.N,/Overview/Microcontroller/iUSB_DP*%
X17339050Y-11136640D03*
X15854050Y-10131640D03*
%TO.N,/Overview/Connectors/DAV*%
X15489050Y-7936640D03*
%TO.N,/Overview/Connectors/NRFD*%
X15569050Y-7906640D03*
%TD*%
%TA.AperFunction,Conductor*%
%TO.N,+3V3*%
G36*
X19165104Y-6628658D02*
G01*
X19169680Y-6633939D01*
X19170800Y-6639090D01*
X19170800Y-12174468D01*
X19170770Y-12175329D01*
X19169270Y-12196867D01*
X19169028Y-12198588D01*
X19165039Y-12217322D01*
X19164556Y-12218999D01*
X19157985Y-12236966D01*
X19157272Y-12238558D01*
X19148189Y-12255528D01*
X19147260Y-12257003D01*
X19135797Y-12272654D01*
X19134671Y-12273985D01*
X19120275Y-12288746D01*
X19119312Y-12289635D01*
X19112635Y-12295171D01*
X19111940Y-12295706D01*
X19103980Y-12301407D01*
X19103248Y-12301893D01*
X19094951Y-12306987D01*
X19094184Y-12307421D01*
X19085505Y-12311934D01*
X19084707Y-12312313D01*
X19075818Y-12316158D01*
X19074993Y-12316481D01*
X19065767Y-12319711D01*
X19064920Y-12319974D01*
X19055585Y-12322509D01*
X19054721Y-12322711D01*
X19045083Y-12324601D01*
X19044209Y-12324741D01*
X19034525Y-12325931D01*
X19033647Y-12326007D01*
X19022828Y-12326561D01*
X19022292Y-12326577D01*
X19020753Y-12326589D01*
X19020701Y-12326589D01*
X19020604Y-12326590D01*
X17981457Y-12326590D01*
X17974754Y-12324621D01*
X17970178Y-12319341D01*
X17969184Y-12312425D01*
X17972086Y-12306069D01*
X17972689Y-12305422D01*
X17984380Y-12293731D01*
X17984380Y-12293731D01*
X17994782Y-12278163D01*
X18001947Y-12260865D01*
X18005600Y-12242501D01*
X18005600Y-12143778D01*
X18001947Y-12125415D01*
X17994782Y-12108117D01*
X17994782Y-12108117D01*
X17994782Y-12108116D01*
X17984380Y-12092549D01*
X17984380Y-12092549D01*
X17971141Y-12079310D01*
X17971141Y-12079309D01*
X17966793Y-12076405D01*
X18808000Y-12076405D01*
X18808000Y-12096875D01*
X18811202Y-12117093D01*
X18817528Y-12136562D01*
X18826822Y-12154801D01*
X18838853Y-12171361D01*
X18853329Y-12185837D01*
X18868510Y-12196867D01*
X18869889Y-12197868D01*
X18875786Y-12200873D01*
X18888128Y-12207162D01*
X18888128Y-12207162D01*
X18888128Y-12207162D01*
X18898435Y-12210511D01*
X18907597Y-12213487D01*
X18913910Y-12214487D01*
X18927815Y-12216690D01*
X18927815Y-12216690D01*
X18948285Y-12216690D01*
X18948285Y-12216690D01*
X18968504Y-12213487D01*
X18987972Y-12207162D01*
X19006211Y-12197868D01*
X19017817Y-12189436D01*
X19022771Y-12185837D01*
X19022772Y-12185837D01*
X19022772Y-12185836D01*
X19037247Y-12171362D01*
X19037247Y-12171361D01*
X19037247Y-12171361D01*
X19048552Y-12155801D01*
X19049279Y-12154801D01*
X19058572Y-12136562D01*
X19064898Y-12117093D01*
X19068100Y-12096875D01*
X19068100Y-12076405D01*
X19064898Y-12056186D01*
X19063650Y-12052347D01*
X19058897Y-12037718D01*
X19058572Y-12036718D01*
X19058572Y-12036718D01*
X19058572Y-12036717D01*
X19052698Y-12025190D01*
X19049279Y-12018479D01*
X19048506Y-12017415D01*
X19037247Y-12001918D01*
X19022771Y-11987443D01*
X19006211Y-11975411D01*
X19006211Y-11975411D01*
X19006211Y-11975411D01*
X19000515Y-11972509D01*
X18987972Y-11966118D01*
X18968504Y-11959792D01*
X18951050Y-11957028D01*
X18948285Y-11956590D01*
X18927815Y-11956590D01*
X18925383Y-11956975D01*
X18907597Y-11959792D01*
X18888128Y-11966118D01*
X18869889Y-11975411D01*
X18853329Y-11987443D01*
X18838853Y-12001918D01*
X18826822Y-12018478D01*
X18817528Y-12036717D01*
X18811202Y-12056186D01*
X18808000Y-12076405D01*
X17966793Y-12076405D01*
X17955574Y-12068908D01*
X17955573Y-12068907D01*
X17938275Y-12061742D01*
X17938274Y-12061742D01*
X17919912Y-12058090D01*
X17919912Y-12058090D01*
X17901189Y-12058090D01*
X17901188Y-12058090D01*
X17882826Y-12061742D01*
X17882825Y-12061742D01*
X17865527Y-12068907D01*
X17865526Y-12068908D01*
X17849959Y-12079309D01*
X17849959Y-12079310D01*
X17836720Y-12092549D01*
X17836720Y-12092549D01*
X17826318Y-12108116D01*
X17826318Y-12108117D01*
X17819153Y-12125415D01*
X17819153Y-12125415D01*
X17815500Y-12143778D01*
X17815500Y-12242502D01*
X17819153Y-12260864D01*
X17819153Y-12260865D01*
X17826318Y-12278163D01*
X17826318Y-12278163D01*
X17836720Y-12293730D01*
X17836720Y-12293731D01*
X17848411Y-12305422D01*
X17851759Y-12311554D01*
X17851261Y-12318523D01*
X17847074Y-12324116D01*
X17840527Y-12326558D01*
X17839643Y-12326590D01*
X17116457Y-12326590D01*
X17109754Y-12324621D01*
X17105178Y-12319341D01*
X17104184Y-12312425D01*
X17107086Y-12306069D01*
X17107689Y-12305422D01*
X17119380Y-12293731D01*
X17119380Y-12293731D01*
X17129782Y-12278163D01*
X17136947Y-12260865D01*
X17140600Y-12242501D01*
X17140600Y-12143778D01*
X17136947Y-12125415D01*
X17129782Y-12108117D01*
X17129782Y-12108117D01*
X17129782Y-12108116D01*
X17119380Y-12092549D01*
X17119380Y-12092549D01*
X17106141Y-12079310D01*
X17106141Y-12079309D01*
X17090574Y-12068908D01*
X17090573Y-12068907D01*
X17073275Y-12061742D01*
X17073274Y-12061742D01*
X17054912Y-12058090D01*
X17054912Y-12058090D01*
X17036189Y-12058090D01*
X17036188Y-12058090D01*
X17017826Y-12061742D01*
X17017825Y-12061742D01*
X17000527Y-12068907D01*
X17000526Y-12068908D01*
X16984959Y-12079309D01*
X16984959Y-12079310D01*
X16971720Y-12092549D01*
X16971720Y-12092549D01*
X16961318Y-12108116D01*
X16961318Y-12108117D01*
X16954153Y-12125415D01*
X16954153Y-12125415D01*
X16950500Y-12143778D01*
X16950500Y-12242502D01*
X16954153Y-12260864D01*
X16954153Y-12260865D01*
X16961318Y-12278163D01*
X16961318Y-12278163D01*
X16971720Y-12293730D01*
X16971720Y-12293731D01*
X16983411Y-12305422D01*
X16986759Y-12311554D01*
X16986261Y-12318523D01*
X16982074Y-12324116D01*
X16975527Y-12326558D01*
X16974643Y-12326590D01*
X13911222Y-12326590D01*
X13910360Y-12326560D01*
X13888823Y-12325060D01*
X13887102Y-12324818D01*
X13868368Y-12320828D01*
X13866691Y-12320346D01*
X13848724Y-12313774D01*
X13847132Y-12313061D01*
X13830162Y-12303978D01*
X13828687Y-12303050D01*
X13813036Y-12291587D01*
X13811705Y-12290460D01*
X13796943Y-12276064D01*
X13796055Y-12275101D01*
X13790519Y-12268424D01*
X13789983Y-12267730D01*
X13784283Y-12259770D01*
X13783797Y-12259038D01*
X13778703Y-12250740D01*
X13778268Y-12249973D01*
X13774672Y-12243057D01*
X13773755Y-12241294D01*
X13773377Y-12240498D01*
X13769531Y-12231607D01*
X13769209Y-12230782D01*
X13765979Y-12221556D01*
X13765716Y-12220710D01*
X13765251Y-12218999D01*
X13763180Y-12211372D01*
X13762979Y-12210512D01*
X13761088Y-12200873D01*
X13760949Y-12199999D01*
X13760185Y-12193779D01*
X13759759Y-12190313D01*
X13759683Y-12189438D01*
X13759128Y-12178613D01*
X13759113Y-12178084D01*
X13759100Y-12176491D01*
X13759100Y-12176395D01*
X13759100Y-12077405D01*
X13865000Y-12077405D01*
X13865000Y-12097875D01*
X13868202Y-12118093D01*
X13874528Y-12137562D01*
X13879729Y-12147768D01*
X13883312Y-12154801D01*
X13883822Y-12155801D01*
X13895853Y-12172361D01*
X13910329Y-12186837D01*
X13924134Y-12196867D01*
X13926889Y-12198868D01*
X13935693Y-12203354D01*
X13945128Y-12208162D01*
X13945128Y-12208162D01*
X13945128Y-12208162D01*
X13949801Y-12209680D01*
X13964597Y-12214487D01*
X13966393Y-12214772D01*
X13984815Y-12217690D01*
X13984815Y-12217690D01*
X14005285Y-12217690D01*
X14005285Y-12217690D01*
X14025503Y-12214487D01*
X14044972Y-12208162D01*
X14063211Y-12198868D01*
X14072674Y-12191994D01*
X14079771Y-12186837D01*
X14079772Y-12186837D01*
X14079772Y-12186836D01*
X14094247Y-12172362D01*
X14094247Y-12172361D01*
X14094247Y-12172361D01*
X14099523Y-12165099D01*
X14106279Y-12155801D01*
X14115572Y-12137562D01*
X14121898Y-12118093D01*
X14125100Y-12097875D01*
X14125100Y-12077405D01*
X14121898Y-12057186D01*
X14121573Y-12056186D01*
X14121439Y-12055773D01*
X14120325Y-12052346D01*
X14826500Y-12052346D01*
X14826500Y-12076933D01*
X14828556Y-12092549D01*
X14829709Y-12101307D01*
X14834207Y-12118093D01*
X14836072Y-12125055D01*
X14836073Y-12125056D01*
X14845480Y-12147768D01*
X14845481Y-12147769D01*
X14857773Y-12169061D01*
X14857774Y-12169061D01*
X14857774Y-12169061D01*
X14872740Y-12188565D01*
X14872740Y-12188566D01*
X14890124Y-12205949D01*
X14890125Y-12205950D01*
X14893007Y-12208162D01*
X14909629Y-12220916D01*
X14930921Y-12233209D01*
X14946141Y-12239514D01*
X14953354Y-12242501D01*
X14953635Y-12242618D01*
X14977382Y-12248981D01*
X15001757Y-12252190D01*
X15001758Y-12252190D01*
X15026342Y-12252190D01*
X15026343Y-12252190D01*
X15050718Y-12248981D01*
X15074465Y-12242618D01*
X15097179Y-12233209D01*
X15118471Y-12220916D01*
X15137976Y-12205950D01*
X15155360Y-12188565D01*
X15170327Y-12169061D01*
X15182619Y-12147769D01*
X15192028Y-12125055D01*
X15198391Y-12101307D01*
X15201600Y-12076932D01*
X15201600Y-12052347D01*
X15201600Y-12052346D01*
X16096500Y-12052346D01*
X16096500Y-12076933D01*
X16098556Y-12092549D01*
X16099709Y-12101307D01*
X16104207Y-12118093D01*
X16106072Y-12125055D01*
X16106073Y-12125056D01*
X16115480Y-12147768D01*
X16115481Y-12147769D01*
X16127773Y-12169061D01*
X16127774Y-12169061D01*
X16127774Y-12169061D01*
X16142740Y-12188565D01*
X16142740Y-12188566D01*
X16160124Y-12205949D01*
X16160125Y-12205950D01*
X16163007Y-12208162D01*
X16179629Y-12220916D01*
X16200921Y-12233209D01*
X16216141Y-12239514D01*
X16223354Y-12242501D01*
X16223635Y-12242618D01*
X16247382Y-12248981D01*
X16271757Y-12252190D01*
X16271758Y-12252190D01*
X16296342Y-12252190D01*
X16296343Y-12252190D01*
X16320718Y-12248981D01*
X16344465Y-12242618D01*
X16367179Y-12233209D01*
X16388471Y-12220916D01*
X16407976Y-12205950D01*
X16425360Y-12188565D01*
X16440327Y-12169061D01*
X16452619Y-12147769D01*
X16462028Y-12125055D01*
X16468391Y-12101307D01*
X16471600Y-12076932D01*
X16471600Y-12052347D01*
X16468391Y-12027972D01*
X16462028Y-12004224D01*
X16452619Y-11981511D01*
X16440327Y-11960219D01*
X16425360Y-11940714D01*
X16425360Y-11940714D01*
X16407976Y-11923330D01*
X16407975Y-11923329D01*
X16388471Y-11908363D01*
X16388471Y-11908363D01*
X16388471Y-11908363D01*
X16367179Y-11896070D01*
X16367179Y-11896070D01*
X16344466Y-11886662D01*
X16344466Y-11886662D01*
X16344465Y-11886662D01*
X16320718Y-11880299D01*
X16316644Y-11879762D01*
X16296343Y-11877090D01*
X16296343Y-11877090D01*
X16271757Y-11877090D01*
X16271757Y-11877090D01*
X16248556Y-11880144D01*
X16247382Y-11880299D01*
X16235259Y-11883547D01*
X16223635Y-11886662D01*
X16223634Y-11886662D01*
X16200921Y-11896070D01*
X16200921Y-11896070D01*
X16179629Y-11908363D01*
X16160125Y-11923329D01*
X16160124Y-11923330D01*
X16142740Y-11940714D01*
X16142740Y-11940714D01*
X16127774Y-11960218D01*
X16115481Y-11981510D01*
X16115480Y-11981511D01*
X16106073Y-12004223D01*
X16106072Y-12004224D01*
X16100455Y-12025190D01*
X16099709Y-12027972D01*
X16099709Y-12027973D01*
X16096500Y-12052346D01*
X15201600Y-12052346D01*
X15198391Y-12027972D01*
X15192028Y-12004224D01*
X15182619Y-11981511D01*
X15170327Y-11960219D01*
X15155360Y-11940714D01*
X15155360Y-11940714D01*
X15137976Y-11923330D01*
X15137975Y-11923329D01*
X15118471Y-11908363D01*
X15118471Y-11908363D01*
X15118471Y-11908363D01*
X15097179Y-11896070D01*
X15097179Y-11896070D01*
X15074466Y-11886662D01*
X15074466Y-11886662D01*
X15074465Y-11886662D01*
X15050718Y-11880299D01*
X15046644Y-11879762D01*
X15026343Y-11877090D01*
X15026343Y-11877090D01*
X15001757Y-11877090D01*
X15001757Y-11877090D01*
X14978556Y-11880144D01*
X14977382Y-11880299D01*
X14965259Y-11883547D01*
X14953635Y-11886662D01*
X14953634Y-11886662D01*
X14930921Y-11896070D01*
X14930921Y-11896070D01*
X14909629Y-11908363D01*
X14890125Y-11923329D01*
X14890124Y-11923330D01*
X14872740Y-11940714D01*
X14872740Y-11940714D01*
X14857774Y-11960218D01*
X14845481Y-11981510D01*
X14845480Y-11981511D01*
X14836073Y-12004223D01*
X14836072Y-12004224D01*
X14830455Y-12025190D01*
X14829709Y-12027972D01*
X14829709Y-12027973D01*
X14826500Y-12052346D01*
X14120325Y-12052346D01*
X14115572Y-12037717D01*
X14112200Y-12031100D01*
X14106279Y-12019479D01*
X14102569Y-12014372D01*
X14094247Y-12002918D01*
X14079771Y-11988443D01*
X14063211Y-11976411D01*
X14063211Y-11976411D01*
X14063211Y-11976411D01*
X14057515Y-11973509D01*
X14044972Y-11967118D01*
X14025503Y-11960792D01*
X14008050Y-11958028D01*
X14005285Y-11957590D01*
X13984815Y-11957590D01*
X13983083Y-11957864D01*
X13964597Y-11960792D01*
X13945128Y-11967118D01*
X13926889Y-11976411D01*
X13910329Y-11988443D01*
X13895853Y-12002918D01*
X13883822Y-12019478D01*
X13874528Y-12037717D01*
X13868202Y-12057186D01*
X13865000Y-12077405D01*
X13759100Y-12077405D01*
X13759100Y-11708649D01*
X14671000Y-11708649D01*
X14671000Y-11734630D01*
X14675064Y-11760289D01*
X14683092Y-11784997D01*
X14691143Y-11800797D01*
X14694887Y-11808145D01*
X14710157Y-11829163D01*
X14728527Y-11847533D01*
X14749545Y-11862803D01*
X14764295Y-11870318D01*
X14772692Y-11874597D01*
X14772693Y-11874597D01*
X14772693Y-11874598D01*
X14797401Y-11882626D01*
X14810621Y-11884719D01*
X14823060Y-11886690D01*
X14823060Y-11886690D01*
X14849040Y-11886690D01*
X14860380Y-11884894D01*
X14874699Y-11882626D01*
X14899407Y-11874598D01*
X14922555Y-11862803D01*
X14943573Y-11847533D01*
X14961943Y-11829163D01*
X14977213Y-11808145D01*
X14989008Y-11784997D01*
X14997036Y-11760289D01*
X15000314Y-11739592D01*
X15001100Y-11734630D01*
X15001100Y-11708649D01*
X14998346Y-11691260D01*
X14997036Y-11682990D01*
X14989008Y-11658283D01*
X14989008Y-11658282D01*
X14989008Y-11658282D01*
X14981933Y-11644398D01*
X14977213Y-11635135D01*
X14968250Y-11622797D01*
X15168800Y-11622797D01*
X15168800Y-11642482D01*
X15171879Y-11661922D01*
X15177962Y-11680643D01*
X15186898Y-11698180D01*
X15198467Y-11714104D01*
X15212385Y-11728023D01*
X15228310Y-11739592D01*
X15236596Y-11743814D01*
X15245847Y-11748528D01*
X15245847Y-11748528D01*
X15245848Y-11748528D01*
X15264567Y-11754611D01*
X15266968Y-11754991D01*
X15273282Y-11757984D01*
X15276975Y-11763915D01*
X15276875Y-11770901D01*
X15276822Y-11771070D01*
X15273479Y-11781357D01*
X15273479Y-11781357D01*
X15270400Y-11800797D01*
X15270400Y-11820482D01*
X15273479Y-11839922D01*
X15279562Y-11858643D01*
X15287691Y-11874597D01*
X15288498Y-11876180D01*
X15300067Y-11892104D01*
X15313985Y-11906023D01*
X15329910Y-11917592D01*
X15337371Y-11921394D01*
X15347447Y-11926528D01*
X15347447Y-11926528D01*
X15347448Y-11926528D01*
X15357482Y-11929788D01*
X15366167Y-11932611D01*
X15385608Y-11935690D01*
X15385608Y-11935690D01*
X15405292Y-11935690D01*
X15424733Y-11932611D01*
X15432707Y-11930019D01*
X15443453Y-11926528D01*
X15460991Y-11917592D01*
X15476915Y-11906023D01*
X15488282Y-11894655D01*
X15494414Y-11891307D01*
X15501383Y-11891805D01*
X15505818Y-11894655D01*
X15517185Y-11906023D01*
X15533110Y-11917592D01*
X15540571Y-11921394D01*
X15550647Y-11926528D01*
X15550647Y-11926528D01*
X15550648Y-11926528D01*
X15560682Y-11929788D01*
X15569367Y-11932611D01*
X15588808Y-11935690D01*
X15588808Y-11935690D01*
X15608492Y-11935690D01*
X15627933Y-11932611D01*
X15635907Y-11930019D01*
X15646653Y-11926528D01*
X15664191Y-11917592D01*
X15680115Y-11906023D01*
X15691482Y-11894655D01*
X15697614Y-11891307D01*
X15704583Y-11891805D01*
X15709018Y-11894655D01*
X15720385Y-11906023D01*
X15736310Y-11917592D01*
X15743771Y-11921394D01*
X15753847Y-11926528D01*
X15753847Y-11926528D01*
X15753848Y-11926528D01*
X15763882Y-11929788D01*
X15772567Y-11932611D01*
X15792008Y-11935690D01*
X15792008Y-11935690D01*
X15811692Y-11935690D01*
X15831133Y-11932611D01*
X15839107Y-11930019D01*
X15849853Y-11926528D01*
X15867391Y-11917592D01*
X15873084Y-11913455D01*
X15879665Y-11911107D01*
X15886470Y-11912690D01*
X15890299Y-11916056D01*
X15894295Y-11921394D01*
X15896881Y-11923330D01*
X15905816Y-11930019D01*
X15905817Y-11930019D01*
X15919302Y-11935049D01*
X15919302Y-11935049D01*
X15919994Y-11935123D01*
X15925263Y-11935690D01*
X16084837Y-11935690D01*
X16090798Y-11935049D01*
X16104283Y-11930019D01*
X16115805Y-11921394D01*
X16124430Y-11909873D01*
X16129459Y-11896388D01*
X16130100Y-11890427D01*
X16130100Y-11730853D01*
X16129459Y-11724891D01*
X16127467Y-11719549D01*
X16124836Y-11712496D01*
X16124430Y-11711407D01*
X16124429Y-11711406D01*
X16122366Y-11708649D01*
X16297000Y-11708649D01*
X16297000Y-11734630D01*
X16301064Y-11760289D01*
X16309092Y-11784997D01*
X16317143Y-11800797D01*
X16320887Y-11808145D01*
X16336157Y-11829163D01*
X16354527Y-11847533D01*
X16375545Y-11862803D01*
X16390295Y-11870318D01*
X16398692Y-11874597D01*
X16398693Y-11874597D01*
X16398693Y-11874598D01*
X16423401Y-11882626D01*
X16436621Y-11884719D01*
X16449060Y-11886690D01*
X16449060Y-11886690D01*
X16475040Y-11886690D01*
X16486380Y-11884894D01*
X16500699Y-11882626D01*
X16525407Y-11874598D01*
X16548555Y-11862803D01*
X16569573Y-11847533D01*
X16587943Y-11829163D01*
X16603213Y-11808145D01*
X16615008Y-11784997D01*
X16619628Y-11770778D01*
X16950500Y-11770778D01*
X16950500Y-11939502D01*
X16954153Y-11957864D01*
X16954153Y-11957865D01*
X16961318Y-11975163D01*
X16961318Y-11975163D01*
X16971720Y-11990730D01*
X16971720Y-11990731D01*
X16984959Y-12003970D01*
X16984959Y-12003970D01*
X17000526Y-12014372D01*
X17000527Y-12014372D01*
X17000527Y-12014372D01*
X17017825Y-12021537D01*
X17036188Y-12025190D01*
X17036188Y-12025190D01*
X17036189Y-12025190D01*
X17054912Y-12025190D01*
X17054912Y-12025190D01*
X17073275Y-12021537D01*
X17090573Y-12014372D01*
X17106141Y-12003970D01*
X17119380Y-11990731D01*
X17129782Y-11975163D01*
X17129782Y-11975163D01*
X17130121Y-11974656D01*
X17130242Y-11974737D01*
X17134629Y-11970270D01*
X17141443Y-11968724D01*
X17145414Y-11969643D01*
X17155742Y-11973921D01*
X17168259Y-11976411D01*
X17172173Y-11977190D01*
X17172173Y-11977190D01*
X17172173Y-11977190D01*
X17188927Y-11977190D01*
X17188927Y-11977190D01*
X17205358Y-11973921D01*
X17218305Y-11968559D01*
X17225252Y-11967812D01*
X17227795Y-11968559D01*
X17240742Y-11973921D01*
X17253259Y-11976411D01*
X17257173Y-11977190D01*
X17257173Y-11977190D01*
X17257173Y-11977190D01*
X17273927Y-11977190D01*
X17273927Y-11977190D01*
X17290358Y-11973921D01*
X17303305Y-11968559D01*
X17310252Y-11967812D01*
X17312795Y-11968559D01*
X17325742Y-11973921D01*
X17338259Y-11976411D01*
X17342173Y-11977190D01*
X17342173Y-11977190D01*
X17342173Y-11977190D01*
X17358927Y-11977190D01*
X17358927Y-11977190D01*
X17375358Y-11973921D01*
X17388305Y-11968559D01*
X17395252Y-11967812D01*
X17397795Y-11968559D01*
X17410742Y-11973921D01*
X17423259Y-11976411D01*
X17427173Y-11977190D01*
X17427173Y-11977190D01*
X17427173Y-11977190D01*
X17443927Y-11977190D01*
X17443927Y-11977190D01*
X17460358Y-11973921D01*
X17473305Y-11968559D01*
X17480252Y-11967812D01*
X17482795Y-11968559D01*
X17495742Y-11973921D01*
X17508259Y-11976411D01*
X17512173Y-11977190D01*
X17512173Y-11977190D01*
X17512173Y-11977190D01*
X17528927Y-11977190D01*
X17528927Y-11977190D01*
X17545358Y-11973921D01*
X17558305Y-11968559D01*
X17565252Y-11967812D01*
X17567795Y-11968559D01*
X17580742Y-11973921D01*
X17593259Y-11976411D01*
X17597173Y-11977190D01*
X17597173Y-11977190D01*
X17597173Y-11977190D01*
X17613927Y-11977190D01*
X17613927Y-11977190D01*
X17630358Y-11973921D01*
X17643305Y-11968559D01*
X17650252Y-11967812D01*
X17652795Y-11968559D01*
X17665742Y-11973921D01*
X17678259Y-11976411D01*
X17682173Y-11977190D01*
X17682173Y-11977190D01*
X17682173Y-11977190D01*
X17698927Y-11977190D01*
X17698927Y-11977190D01*
X17715358Y-11973921D01*
X17728305Y-11968559D01*
X17735252Y-11967812D01*
X17737795Y-11968559D01*
X17750742Y-11973921D01*
X17763259Y-11976411D01*
X17767173Y-11977190D01*
X17767173Y-11977190D01*
X17767173Y-11977190D01*
X17783927Y-11977190D01*
X17783927Y-11977190D01*
X17800358Y-11973921D01*
X17810686Y-11969643D01*
X17817633Y-11968897D01*
X17823880Y-11972024D01*
X17825931Y-11974688D01*
X17825979Y-11974656D01*
X17836720Y-11990730D01*
X17836720Y-11990731D01*
X17849959Y-12003970D01*
X17849959Y-12003970D01*
X17865526Y-12014372D01*
X17865527Y-12014372D01*
X17865527Y-12014372D01*
X17882825Y-12021537D01*
X17901188Y-12025190D01*
X17901188Y-12025190D01*
X17901189Y-12025190D01*
X17919912Y-12025190D01*
X17919912Y-12025190D01*
X17938275Y-12021537D01*
X17955573Y-12014372D01*
X17971141Y-12003970D01*
X17984380Y-11990731D01*
X17994782Y-11975163D01*
X18001947Y-11957865D01*
X18005600Y-11939501D01*
X18005600Y-11770778D01*
X18001947Y-11752415D01*
X17994782Y-11735117D01*
X17994782Y-11735116D01*
X17984380Y-11719549D01*
X17984380Y-11719549D01*
X17971141Y-11706310D01*
X17971141Y-11706309D01*
X17955574Y-11695908D01*
X17955573Y-11695907D01*
X17938275Y-11688742D01*
X17938274Y-11688742D01*
X17919912Y-11685090D01*
X17919912Y-11685090D01*
X17901189Y-11685090D01*
X17901188Y-11685090D01*
X17882826Y-11688742D01*
X17882825Y-11688742D01*
X17865527Y-11695907D01*
X17865527Y-11695908D01*
X17855447Y-11702643D01*
X17848779Y-11704730D01*
X17842041Y-11702882D01*
X17839790Y-11701101D01*
X17829766Y-11691077D01*
X17815836Y-11681769D01*
X17800358Y-11675358D01*
X17800358Y-11675358D01*
X17783927Y-11672090D01*
X17783927Y-11672090D01*
X17767173Y-11672090D01*
X17767173Y-11672090D01*
X17750743Y-11675358D01*
X17750741Y-11675358D01*
X17737795Y-11680721D01*
X17730848Y-11681468D01*
X17728305Y-11680721D01*
X17715359Y-11675358D01*
X17715358Y-11675358D01*
X17698927Y-11672090D01*
X17698927Y-11672090D01*
X17682173Y-11672090D01*
X17682173Y-11672090D01*
X17665743Y-11675358D01*
X17665741Y-11675358D01*
X17652795Y-11680721D01*
X17645848Y-11681468D01*
X17643305Y-11680721D01*
X17630359Y-11675358D01*
X17630358Y-11675358D01*
X17613927Y-11672090D01*
X17613927Y-11672090D01*
X17597173Y-11672090D01*
X17597173Y-11672090D01*
X17580743Y-11675358D01*
X17580741Y-11675358D01*
X17567795Y-11680721D01*
X17560848Y-11681468D01*
X17558305Y-11680721D01*
X17545359Y-11675358D01*
X17545358Y-11675358D01*
X17528927Y-11672090D01*
X17528927Y-11672090D01*
X17512173Y-11672090D01*
X17512173Y-11672090D01*
X17495743Y-11675358D01*
X17495741Y-11675358D01*
X17482795Y-11680721D01*
X17475848Y-11681468D01*
X17473305Y-11680721D01*
X17460359Y-11675358D01*
X17460358Y-11675358D01*
X17443927Y-11672090D01*
X17443927Y-11672090D01*
X17427173Y-11672090D01*
X17427173Y-11672090D01*
X17410743Y-11675358D01*
X17410741Y-11675358D01*
X17397795Y-11680721D01*
X17390848Y-11681468D01*
X17388305Y-11680721D01*
X17375359Y-11675358D01*
X17375358Y-11675358D01*
X17358927Y-11672090D01*
X17358927Y-11672090D01*
X17342173Y-11672090D01*
X17342173Y-11672090D01*
X17325743Y-11675358D01*
X17325741Y-11675358D01*
X17312795Y-11680721D01*
X17305848Y-11681468D01*
X17303305Y-11680721D01*
X17290359Y-11675358D01*
X17290358Y-11675358D01*
X17273927Y-11672090D01*
X17273927Y-11672090D01*
X17257173Y-11672090D01*
X17257173Y-11672090D01*
X17240743Y-11675358D01*
X17240741Y-11675358D01*
X17227795Y-11680721D01*
X17220848Y-11681468D01*
X17218305Y-11680721D01*
X17205359Y-11675358D01*
X17205358Y-11675358D01*
X17188927Y-11672090D01*
X17188927Y-11672090D01*
X17172173Y-11672090D01*
X17172173Y-11672090D01*
X17155743Y-11675358D01*
X17155742Y-11675358D01*
X17140264Y-11681769D01*
X17126334Y-11691077D01*
X17116310Y-11701101D01*
X17110178Y-11704449D01*
X17103209Y-11703951D01*
X17100653Y-11702643D01*
X17090574Y-11695908D01*
X17090573Y-11695907D01*
X17073275Y-11688742D01*
X17073274Y-11688742D01*
X17054912Y-11685090D01*
X17054912Y-11685090D01*
X17036189Y-11685090D01*
X17036188Y-11685090D01*
X17017826Y-11688742D01*
X17017825Y-11688742D01*
X17000527Y-11695907D01*
X17000526Y-11695908D01*
X16984959Y-11706309D01*
X16984959Y-11706310D01*
X16971720Y-11719549D01*
X16971720Y-11719549D01*
X16961318Y-11735116D01*
X16961318Y-11735117D01*
X16954153Y-11752415D01*
X16954153Y-11752415D01*
X16950500Y-11770778D01*
X16619628Y-11770778D01*
X16623036Y-11760289D01*
X16626314Y-11739592D01*
X16627100Y-11734630D01*
X16627100Y-11708649D01*
X16624346Y-11691260D01*
X16623036Y-11682990D01*
X16615008Y-11658283D01*
X16615008Y-11658282D01*
X16615008Y-11658282D01*
X16608722Y-11645946D01*
X16608722Y-11645945D01*
X16607933Y-11644397D01*
X18346648Y-11644397D01*
X18357174Y-11648758D01*
X18357174Y-11648758D01*
X18371663Y-11651640D01*
X18371663Y-11651640D01*
X18386437Y-11651640D01*
X18386437Y-11651640D01*
X18401524Y-11648639D01*
X18401566Y-11648849D01*
X18402104Y-11648822D01*
X18403051Y-11648450D01*
X18406229Y-11648620D01*
X18406477Y-11648608D01*
X18422622Y-11651831D01*
X18422679Y-11651860D01*
X18422861Y-11651878D01*
X18423551Y-11652015D01*
X18424996Y-11651640D01*
X18436437Y-11651640D01*
X18451524Y-11648639D01*
X18451575Y-11648893D01*
X18456535Y-11648846D01*
X18456576Y-11648639D01*
X18471663Y-11651640D01*
X18471663Y-11651640D01*
X18486437Y-11651640D01*
X18486437Y-11651640D01*
X18500926Y-11648758D01*
X18500928Y-11648757D01*
X18511453Y-11644398D01*
X18511453Y-11644397D01*
X18479050Y-11611995D01*
X18479050Y-11611995D01*
X18443270Y-11647775D01*
X18437138Y-11651123D01*
X18434502Y-11651407D01*
X18423598Y-11651407D01*
X18421472Y-11650782D01*
X18419263Y-11650624D01*
X18417858Y-11649721D01*
X18416894Y-11649438D01*
X18416236Y-11648678D01*
X18414830Y-11647775D01*
X18379050Y-11611995D01*
X18379050Y-11611995D01*
X18346648Y-11644397D01*
X16607933Y-11644397D01*
X16603214Y-11635135D01*
X16603213Y-11635135D01*
X16598366Y-11628462D01*
X16587943Y-11614117D01*
X16569573Y-11595747D01*
X16553353Y-11583962D01*
X16548555Y-11580477D01*
X16548555Y-11580476D01*
X16548555Y-11580476D01*
X16541025Y-11576640D01*
X16526527Y-11569252D01*
X18304050Y-11569252D01*
X18304050Y-11584027D01*
X18306932Y-11598516D01*
X18306932Y-11598516D01*
X18311292Y-11609042D01*
X18343695Y-11576640D01*
X18343695Y-11576640D01*
X18341706Y-11574651D01*
X18369050Y-11574651D01*
X18369050Y-11578629D01*
X18370573Y-11582304D01*
X18373386Y-11585117D01*
X18377061Y-11586640D01*
X18381039Y-11586640D01*
X18384715Y-11585117D01*
X18387528Y-11582304D01*
X18389050Y-11578629D01*
X18389050Y-11574651D01*
X18419050Y-11574651D01*
X18419050Y-11578629D01*
X18420573Y-11582304D01*
X18421979Y-11583711D01*
X18421728Y-11583962D01*
X18429050Y-11591284D01*
X18436372Y-11583962D01*
X18436121Y-11583711D01*
X18437528Y-11582304D01*
X18439050Y-11578629D01*
X18439050Y-11574651D01*
X18469050Y-11574651D01*
X18469050Y-11578629D01*
X18470573Y-11582304D01*
X18473386Y-11585117D01*
X18477061Y-11586640D01*
X18481039Y-11586640D01*
X18484715Y-11585117D01*
X18487528Y-11582304D01*
X18489050Y-11578629D01*
X18489050Y-11576640D01*
X18514406Y-11576640D01*
X18514406Y-11576640D01*
X18546808Y-11609042D01*
X18546808Y-11609042D01*
X18551168Y-11598517D01*
X18551168Y-11598516D01*
X18554050Y-11584027D01*
X18554050Y-11584027D01*
X18554050Y-11582660D01*
X18720405Y-11582660D01*
X18720405Y-11598429D01*
X18723481Y-11613894D01*
X18723482Y-11613895D01*
X18729515Y-11628462D01*
X18729516Y-11628463D01*
X18738276Y-11641574D01*
X18738276Y-11641574D01*
X18749426Y-11652723D01*
X18749426Y-11652724D01*
X18762537Y-11661484D01*
X18762538Y-11661485D01*
X18777105Y-11667518D01*
X18777105Y-11667519D01*
X18792570Y-11670595D01*
X18792571Y-11670595D01*
X18792571Y-11670595D01*
X18808340Y-11670595D01*
X18808340Y-11670595D01*
X18823805Y-11667519D01*
X18838373Y-11661484D01*
X18851484Y-11652724D01*
X18862634Y-11641574D01*
X18871395Y-11628463D01*
X18877429Y-11613895D01*
X18880505Y-11598429D01*
X18880505Y-11582661D01*
X18880505Y-11582660D01*
X18880505Y-11582660D01*
X18880434Y-11582304D01*
X18877429Y-11567195D01*
X18877389Y-11567099D01*
X18871395Y-11552628D01*
X18871394Y-11552626D01*
X18862634Y-11539516D01*
X18862634Y-11539516D01*
X18851484Y-11528366D01*
X18851484Y-11528366D01*
X18838374Y-11519606D01*
X18838372Y-11519605D01*
X18823805Y-11513571D01*
X18823804Y-11513571D01*
X18808340Y-11510495D01*
X18808339Y-11510495D01*
X18792571Y-11510495D01*
X18792571Y-11510495D01*
X18777106Y-11513571D01*
X18777105Y-11513571D01*
X18762538Y-11519605D01*
X18762537Y-11519606D01*
X18749426Y-11528366D01*
X18749426Y-11528366D01*
X18738276Y-11539516D01*
X18738276Y-11539516D01*
X18729516Y-11552626D01*
X18729515Y-11552628D01*
X18723482Y-11567195D01*
X18723481Y-11567196D01*
X18720405Y-11582660D01*
X18554050Y-11582660D01*
X18554050Y-11569253D01*
X18554050Y-11569252D01*
X18551168Y-11554764D01*
X18551168Y-11554763D01*
X18546808Y-11544237D01*
X18514406Y-11576640D01*
X18489050Y-11576640D01*
X18489050Y-11574651D01*
X18487528Y-11570975D01*
X18484715Y-11568162D01*
X18481039Y-11566640D01*
X18477061Y-11566640D01*
X18473386Y-11568162D01*
X18470573Y-11570975D01*
X18469050Y-11574651D01*
X18439050Y-11574651D01*
X18437528Y-11570975D01*
X18434715Y-11568162D01*
X18431039Y-11566640D01*
X18427061Y-11566640D01*
X18423386Y-11568162D01*
X18420573Y-11570975D01*
X18419050Y-11574651D01*
X18389050Y-11574651D01*
X18387528Y-11570975D01*
X18384715Y-11568162D01*
X18381039Y-11566640D01*
X18377061Y-11566640D01*
X18373386Y-11568162D01*
X18370573Y-11570975D01*
X18369050Y-11574651D01*
X18341706Y-11574651D01*
X18311292Y-11544237D01*
X18311292Y-11544237D01*
X18306932Y-11554763D01*
X18306932Y-11554764D01*
X18304050Y-11569252D01*
X16526527Y-11569252D01*
X16525408Y-11568682D01*
X16500699Y-11560654D01*
X16475040Y-11556590D01*
X16475040Y-11556590D01*
X16449060Y-11556590D01*
X16449060Y-11556590D01*
X16423401Y-11560654D01*
X16398692Y-11568682D01*
X16375545Y-11580477D01*
X16354527Y-11595746D01*
X16354527Y-11595747D01*
X16336157Y-11614117D01*
X16336157Y-11614117D01*
X16320887Y-11635134D01*
X16309092Y-11658282D01*
X16301064Y-11682990D01*
X16297000Y-11708649D01*
X16122366Y-11708649D01*
X16115805Y-11699885D01*
X16115804Y-11699885D01*
X16104284Y-11691260D01*
X16104283Y-11691260D01*
X16090798Y-11686231D01*
X16090798Y-11686231D01*
X16084838Y-11685590D01*
X16084838Y-11685590D01*
X16084837Y-11685590D01*
X16084837Y-11685590D01*
X16034798Y-11685590D01*
X16028094Y-11683621D01*
X16023519Y-11678341D01*
X16022524Y-11671425D01*
X16023005Y-11669358D01*
X16023603Y-11667519D01*
X16025421Y-11661922D01*
X16026878Y-11652724D01*
X16028500Y-11642482D01*
X16028500Y-11622797D01*
X16025421Y-11603357D01*
X16021498Y-11591284D01*
X16019338Y-11584637D01*
X16019338Y-11584637D01*
X16019338Y-11584637D01*
X16012377Y-11570975D01*
X16010402Y-11567099D01*
X15998833Y-11551175D01*
X15984915Y-11537257D01*
X15968991Y-11525687D01*
X15951453Y-11516751D01*
X15932733Y-11510669D01*
X15913292Y-11507590D01*
X15913292Y-11507590D01*
X15893608Y-11507590D01*
X15893608Y-11507590D01*
X15874167Y-11510669D01*
X15855447Y-11516751D01*
X15837909Y-11525687D01*
X15828824Y-11532288D01*
X15821985Y-11537257D01*
X15821985Y-11537257D01*
X15821985Y-11537257D01*
X15810618Y-11548624D01*
X15804486Y-11551973D01*
X15797517Y-11551474D01*
X15793082Y-11548624D01*
X15781715Y-11537257D01*
X15781715Y-11537257D01*
X15765791Y-11525687D01*
X15748253Y-11516751D01*
X15729533Y-11510669D01*
X15710092Y-11507590D01*
X15710092Y-11507590D01*
X15690408Y-11507590D01*
X15690408Y-11507590D01*
X15670967Y-11510669D01*
X15652247Y-11516751D01*
X15634709Y-11525687D01*
X15625624Y-11532288D01*
X15618785Y-11537257D01*
X15618785Y-11537257D01*
X15618785Y-11537257D01*
X15607418Y-11548624D01*
X15601286Y-11551973D01*
X15594317Y-11551474D01*
X15589882Y-11548624D01*
X15578515Y-11537257D01*
X15578515Y-11537257D01*
X15562591Y-11525687D01*
X15545053Y-11516751D01*
X15526333Y-11510669D01*
X15506892Y-11507590D01*
X15506892Y-11507590D01*
X15487208Y-11507590D01*
X15487208Y-11507590D01*
X15467767Y-11510669D01*
X15449047Y-11516751D01*
X15431509Y-11525687D01*
X15422424Y-11532288D01*
X15415585Y-11537257D01*
X15415585Y-11537257D01*
X15415585Y-11537257D01*
X15404218Y-11548624D01*
X15398086Y-11551973D01*
X15391117Y-11551474D01*
X15386682Y-11548624D01*
X15375315Y-11537257D01*
X15375315Y-11537257D01*
X15359391Y-11525687D01*
X15341853Y-11516751D01*
X15323133Y-11510669D01*
X15303692Y-11507590D01*
X15303692Y-11507590D01*
X15284008Y-11507590D01*
X15284008Y-11507590D01*
X15264567Y-11510669D01*
X15245847Y-11516751D01*
X15228309Y-11525687D01*
X15219224Y-11532288D01*
X15212385Y-11537257D01*
X15212385Y-11537257D01*
X15212385Y-11537257D01*
X15198467Y-11551175D01*
X15198467Y-11551175D01*
X15198467Y-11551175D01*
X15193499Y-11558014D01*
X15186898Y-11567099D01*
X15177962Y-11584637D01*
X15171879Y-11603357D01*
X15168800Y-11622797D01*
X14968250Y-11622797D01*
X14961943Y-11614117D01*
X14943573Y-11595747D01*
X14927353Y-11583962D01*
X14922555Y-11580477D01*
X14922555Y-11580476D01*
X14922555Y-11580476D01*
X14911122Y-11574651D01*
X14899408Y-11568682D01*
X14874699Y-11560654D01*
X14849040Y-11556590D01*
X14849040Y-11556590D01*
X14823060Y-11556590D01*
X14823060Y-11556590D01*
X14797401Y-11560654D01*
X14772692Y-11568682D01*
X14749545Y-11580477D01*
X14728527Y-11595746D01*
X14728527Y-11595747D01*
X14710157Y-11614117D01*
X14710157Y-11614117D01*
X14694887Y-11635134D01*
X14683092Y-11658282D01*
X14675064Y-11682990D01*
X14671000Y-11708649D01*
X13759100Y-11708649D01*
X13759100Y-11469252D01*
X18304050Y-11469252D01*
X18304050Y-11484027D01*
X18306932Y-11498516D01*
X18306932Y-11498516D01*
X18311292Y-11509042D01*
X18343695Y-11476640D01*
X18341706Y-11474651D01*
X18369050Y-11474651D01*
X18369050Y-11478629D01*
X18370573Y-11482304D01*
X18373386Y-11485117D01*
X18377061Y-11486640D01*
X18381039Y-11486640D01*
X18384715Y-11485117D01*
X18387528Y-11482304D01*
X18389050Y-11478629D01*
X18389050Y-11474651D01*
X18419050Y-11474651D01*
X18419050Y-11478629D01*
X18420573Y-11482304D01*
X18423386Y-11485117D01*
X18427061Y-11486640D01*
X18431039Y-11486640D01*
X18434715Y-11485117D01*
X18437528Y-11482304D01*
X18439050Y-11478629D01*
X18439050Y-11474651D01*
X18469050Y-11474651D01*
X18469050Y-11478629D01*
X18470573Y-11482304D01*
X18473386Y-11485117D01*
X18477061Y-11486640D01*
X18481039Y-11486640D01*
X18484715Y-11485117D01*
X18487528Y-11482304D01*
X18489050Y-11478629D01*
X18489050Y-11476640D01*
X18514406Y-11476640D01*
X18514406Y-11476640D01*
X18546808Y-11509042D01*
X18546808Y-11509042D01*
X18551168Y-11498517D01*
X18551168Y-11498516D01*
X18554050Y-11484027D01*
X18554050Y-11484027D01*
X18554050Y-11469253D01*
X18554050Y-11469252D01*
X18551168Y-11454764D01*
X18551168Y-11454763D01*
X18546808Y-11444237D01*
X18514406Y-11476640D01*
X18489050Y-11476640D01*
X18489050Y-11474651D01*
X18487528Y-11470975D01*
X18484715Y-11468162D01*
X18481039Y-11466640D01*
X18477061Y-11466640D01*
X18473386Y-11468162D01*
X18470573Y-11470975D01*
X18469050Y-11474651D01*
X18439050Y-11474651D01*
X18437528Y-11470975D01*
X18436121Y-11469569D01*
X18436372Y-11469317D01*
X18429050Y-11461995D01*
X18421728Y-11469317D01*
X18421979Y-11469569D01*
X18420573Y-11470975D01*
X18419050Y-11474651D01*
X18389050Y-11474651D01*
X18387528Y-11470975D01*
X18384715Y-11468162D01*
X18381039Y-11466640D01*
X18377061Y-11466640D01*
X18373386Y-11468162D01*
X18370573Y-11470975D01*
X18369050Y-11474651D01*
X18341706Y-11474651D01*
X18340004Y-11472949D01*
X18311292Y-11444237D01*
X18311292Y-11444237D01*
X18306932Y-11454763D01*
X18306932Y-11454764D01*
X18304050Y-11469252D01*
X13759100Y-11469252D01*
X13759100Y-11254032D01*
X18304000Y-11254032D01*
X18306884Y-11268530D01*
X18306884Y-11268531D01*
X18312541Y-11282189D01*
X18312542Y-11282190D01*
X18317594Y-11289751D01*
X18319682Y-11296418D01*
X18317833Y-11303156D01*
X18317594Y-11303529D01*
X18312542Y-11311090D01*
X18312541Y-11311091D01*
X18306884Y-11324748D01*
X18306884Y-11324749D01*
X18304000Y-11339248D01*
X18304000Y-11339248D01*
X18304000Y-11354032D01*
X18304000Y-11354032D01*
X18304000Y-11354032D01*
X18306884Y-11368530D01*
X18306884Y-11368531D01*
X18312541Y-11382189D01*
X18312542Y-11382190D01*
X18320755Y-11394481D01*
X18320755Y-11394482D01*
X18331208Y-11404935D01*
X18331209Y-11404935D01*
X18343500Y-11413147D01*
X18343500Y-11413148D01*
X18343501Y-11413148D01*
X18353877Y-11417446D01*
X18357900Y-11420134D01*
X18379050Y-11441284D01*
X18397776Y-11422558D01*
X18403908Y-11419210D01*
X18408963Y-11419165D01*
X18421658Y-11421690D01*
X18421658Y-11421690D01*
X18436442Y-11421690D01*
X18449137Y-11419165D01*
X18456096Y-11419787D01*
X18460324Y-11422558D01*
X18479050Y-11441284D01*
X18500200Y-11420134D01*
X18504223Y-11417446D01*
X18514600Y-11413148D01*
X18526892Y-11404935D01*
X18537345Y-11394481D01*
X18545559Y-11382189D01*
X18551216Y-11368531D01*
X18554100Y-11354032D01*
X18554100Y-11339248D01*
X18554100Y-11339248D01*
X18551216Y-11324749D01*
X18551216Y-11324749D01*
X18551216Y-11324748D01*
X18551216Y-11324748D01*
X18545559Y-11311091D01*
X18545558Y-11311090D01*
X18545558Y-11311090D01*
X18540506Y-11303529D01*
X18538418Y-11296861D01*
X18540267Y-11290123D01*
X18540503Y-11289755D01*
X18545559Y-11282189D01*
X18551216Y-11268531D01*
X18554100Y-11254032D01*
X18554100Y-11239248D01*
X18554100Y-11239248D01*
X18551216Y-11224749D01*
X18551216Y-11224749D01*
X18551216Y-11224748D01*
X18547878Y-11216690D01*
X18545559Y-11211091D01*
X18545558Y-11211090D01*
X18537345Y-11198798D01*
X18537345Y-11198798D01*
X18526892Y-11188345D01*
X18526892Y-11188345D01*
X18514600Y-11180132D01*
X18514599Y-11180131D01*
X18500942Y-11174474D01*
X18500941Y-11174474D01*
X18486442Y-11171590D01*
X18486442Y-11171590D01*
X18471658Y-11171590D01*
X18471658Y-11171590D01*
X18456561Y-11174593D01*
X18456510Y-11174336D01*
X18451581Y-11174378D01*
X18451539Y-11174593D01*
X18436442Y-11171590D01*
X18436442Y-11171590D01*
X18421658Y-11171590D01*
X18421658Y-11171590D01*
X18406561Y-11174593D01*
X18406510Y-11174336D01*
X18401581Y-11174378D01*
X18401539Y-11174593D01*
X18386442Y-11171590D01*
X18386442Y-11171590D01*
X18371658Y-11171590D01*
X18371658Y-11171590D01*
X18357159Y-11174474D01*
X18357158Y-11174474D01*
X18343501Y-11180131D01*
X18343500Y-11180132D01*
X18331209Y-11188345D01*
X18331208Y-11188345D01*
X18320755Y-11198798D01*
X18320755Y-11198798D01*
X18312542Y-11211090D01*
X18312541Y-11211091D01*
X18306884Y-11224748D01*
X18306884Y-11224749D01*
X18304000Y-11239248D01*
X18304000Y-11239248D01*
X18304000Y-11254032D01*
X18304000Y-11254032D01*
X18304000Y-11254032D01*
X13759100Y-11254032D01*
X13759100Y-11128755D01*
X17259000Y-11128755D01*
X17259000Y-11144524D01*
X17262076Y-11159989D01*
X17262077Y-11159990D01*
X17268110Y-11174557D01*
X17268111Y-11174558D01*
X17276871Y-11187669D01*
X17276871Y-11187669D01*
X17288021Y-11198818D01*
X17288021Y-11198819D01*
X17301132Y-11207579D01*
X17301133Y-11207579D01*
X17315700Y-11213613D01*
X17315700Y-11213613D01*
X17331165Y-11216690D01*
X17331166Y-11216690D01*
X17331166Y-11216690D01*
X17346935Y-11216690D01*
X17346935Y-11216690D01*
X17362400Y-11213613D01*
X17376968Y-11207579D01*
X17390079Y-11198819D01*
X17401229Y-11187669D01*
X17409990Y-11174558D01*
X17416024Y-11159990D01*
X17419100Y-11144524D01*
X17419100Y-11128756D01*
X17419100Y-11128755D01*
X17419100Y-11128755D01*
X17459000Y-11128755D01*
X17459000Y-11144524D01*
X17462076Y-11159989D01*
X17462077Y-11159990D01*
X17468110Y-11174557D01*
X17468111Y-11174558D01*
X17476871Y-11187669D01*
X17476871Y-11187669D01*
X17488021Y-11198818D01*
X17488021Y-11198819D01*
X17501132Y-11207579D01*
X17501133Y-11207579D01*
X17515700Y-11213613D01*
X17515700Y-11213613D01*
X17531165Y-11216690D01*
X17531166Y-11216690D01*
X17531166Y-11216690D01*
X17546935Y-11216690D01*
X17546935Y-11216690D01*
X17562400Y-11213613D01*
X17576968Y-11207579D01*
X17590079Y-11198819D01*
X17601229Y-11187669D01*
X17609990Y-11174558D01*
X17616024Y-11159990D01*
X17619100Y-11144524D01*
X17619100Y-11128756D01*
X17619100Y-11128755D01*
X17619100Y-11128755D01*
X17616024Y-11113291D01*
X17616024Y-11113290D01*
X17616024Y-11113290D01*
X17610888Y-11100892D01*
X17609990Y-11098722D01*
X17609990Y-11098722D01*
X17609989Y-11098722D01*
X17609989Y-11098721D01*
X17608675Y-11096755D01*
X18716310Y-11096755D01*
X18716310Y-11112524D01*
X18719386Y-11127989D01*
X18719387Y-11127990D01*
X18725420Y-11142557D01*
X18725421Y-11142558D01*
X18734181Y-11155669D01*
X18734182Y-11155669D01*
X18745331Y-11166818D01*
X18745331Y-11166819D01*
X18758442Y-11175579D01*
X18758443Y-11175580D01*
X18773010Y-11181613D01*
X18773011Y-11181614D01*
X18788476Y-11184690D01*
X18788476Y-11184690D01*
X18788476Y-11184690D01*
X18804245Y-11184690D01*
X18804245Y-11184690D01*
X18819710Y-11181614D01*
X18830977Y-11176947D01*
X18834277Y-11175580D01*
X18834277Y-11175579D01*
X18834278Y-11175579D01*
X18847389Y-11166819D01*
X18858539Y-11155669D01*
X18867300Y-11142558D01*
X18873334Y-11127990D01*
X18876410Y-11112524D01*
X18876410Y-11096756D01*
X18876410Y-11096755D01*
X18876410Y-11096755D01*
X18873334Y-11081290D01*
X18870505Y-11074461D01*
X18867300Y-11066723D01*
X18867299Y-11066721D01*
X18858539Y-11053611D01*
X18858539Y-11053611D01*
X18847389Y-11042461D01*
X18847389Y-11042461D01*
X18834279Y-11033701D01*
X18834277Y-11033700D01*
X18819710Y-11027666D01*
X18819709Y-11027666D01*
X18804245Y-11024590D01*
X18804244Y-11024590D01*
X18788476Y-11024590D01*
X18788476Y-11024590D01*
X18773011Y-11027666D01*
X18773010Y-11027666D01*
X18758443Y-11033700D01*
X18758442Y-11033701D01*
X18745331Y-11042461D01*
X18745331Y-11042461D01*
X18734182Y-11053611D01*
X18734181Y-11053611D01*
X18725421Y-11066721D01*
X18725420Y-11066723D01*
X18719387Y-11081290D01*
X18719386Y-11081291D01*
X18716310Y-11096755D01*
X17608675Y-11096755D01*
X17601229Y-11085611D01*
X17601229Y-11085611D01*
X17590079Y-11074461D01*
X17590079Y-11074461D01*
X17576969Y-11065701D01*
X17576967Y-11065700D01*
X17562400Y-11059666D01*
X17562399Y-11059666D01*
X17546935Y-11056590D01*
X17546934Y-11056590D01*
X17531166Y-11056590D01*
X17531166Y-11056590D01*
X17515701Y-11059666D01*
X17515700Y-11059666D01*
X17501133Y-11065700D01*
X17501132Y-11065701D01*
X17488021Y-11074461D01*
X17488021Y-11074461D01*
X17476871Y-11085611D01*
X17476871Y-11085611D01*
X17468111Y-11098721D01*
X17468110Y-11098723D01*
X17462077Y-11113290D01*
X17462076Y-11113291D01*
X17459000Y-11128755D01*
X17419100Y-11128755D01*
X17416024Y-11113291D01*
X17416024Y-11113290D01*
X17415707Y-11112524D01*
X17409990Y-11098723D01*
X17409989Y-11098721D01*
X17401229Y-11085611D01*
X17401229Y-11085611D01*
X17390079Y-11074461D01*
X17390079Y-11074461D01*
X17376969Y-11065701D01*
X17376967Y-11065700D01*
X17362400Y-11059666D01*
X17362399Y-11059666D01*
X17346935Y-11056590D01*
X17346934Y-11056590D01*
X17331166Y-11056590D01*
X17331166Y-11056590D01*
X17315701Y-11059666D01*
X17315700Y-11059666D01*
X17301133Y-11065700D01*
X17301132Y-11065701D01*
X17288021Y-11074461D01*
X17288021Y-11074461D01*
X17276871Y-11085611D01*
X17276871Y-11085611D01*
X17268111Y-11098721D01*
X17268110Y-11098723D01*
X17262077Y-11113290D01*
X17262076Y-11113291D01*
X17259000Y-11128755D01*
X13759100Y-11128755D01*
X13759100Y-10138755D01*
X14049000Y-10138755D01*
X14049000Y-10154524D01*
X14052076Y-10169989D01*
X14052076Y-10169990D01*
X14058110Y-10184557D01*
X14058111Y-10184558D01*
X14066871Y-10197669D01*
X14066871Y-10197669D01*
X14078021Y-10208818D01*
X14078021Y-10208819D01*
X14091131Y-10217579D01*
X14091133Y-10217580D01*
X14105700Y-10223613D01*
X14105700Y-10223614D01*
X14121165Y-10226690D01*
X14121166Y-10226690D01*
X14121166Y-10226690D01*
X14136934Y-10226690D01*
X14136935Y-10226690D01*
X14152400Y-10223614D01*
X14166968Y-10217579D01*
X14180079Y-10208819D01*
X14191229Y-10197669D01*
X14199989Y-10184558D01*
X14206024Y-10169990D01*
X14209100Y-10154524D01*
X14209100Y-10138756D01*
X14209100Y-10138755D01*
X14209100Y-10138755D01*
X14206476Y-10125566D01*
X14206116Y-10123755D01*
X15774000Y-10123755D01*
X15774000Y-10139524D01*
X15777076Y-10154989D01*
X15777076Y-10154990D01*
X15783110Y-10169557D01*
X15783111Y-10169558D01*
X15791871Y-10182669D01*
X15791871Y-10182669D01*
X15803021Y-10193818D01*
X15803021Y-10193819D01*
X15816131Y-10202579D01*
X15816133Y-10202580D01*
X15830700Y-10208613D01*
X15830700Y-10208614D01*
X15846165Y-10211690D01*
X15846166Y-10211690D01*
X15846166Y-10211690D01*
X15861934Y-10211690D01*
X15861935Y-10211690D01*
X15877400Y-10208614D01*
X15891968Y-10202579D01*
X15905079Y-10193819D01*
X15916229Y-10182669D01*
X15924989Y-10169558D01*
X15929461Y-10158762D01*
X15933845Y-10153322D01*
X15936171Y-10152051D01*
X15946968Y-10147579D01*
X15960079Y-10138819D01*
X15971229Y-10127669D01*
X15979989Y-10114558D01*
X15986024Y-10099990D01*
X15989100Y-10084524D01*
X15989100Y-10068756D01*
X15989100Y-10068755D01*
X15989100Y-10068755D01*
X16469000Y-10068755D01*
X16469000Y-10084524D01*
X16472076Y-10099989D01*
X16472076Y-10099990D01*
X16478110Y-10114557D01*
X16478111Y-10114558D01*
X16486871Y-10127669D01*
X16486871Y-10127669D01*
X16498021Y-10138818D01*
X16498021Y-10138819D01*
X16511131Y-10147579D01*
X16511133Y-10147580D01*
X16524995Y-10153322D01*
X16525700Y-10153614D01*
X16541165Y-10156690D01*
X16541166Y-10156690D01*
X16541166Y-10156690D01*
X16556934Y-10156690D01*
X16556935Y-10156690D01*
X16572400Y-10153614D01*
X16586968Y-10147579D01*
X16600079Y-10138819D01*
X16611229Y-10127669D01*
X16619989Y-10114558D01*
X16626024Y-10099990D01*
X16629100Y-10084524D01*
X16629100Y-10068756D01*
X16629100Y-10068755D01*
X16629100Y-10068755D01*
X16628669Y-10066590D01*
X16626024Y-10053290D01*
X16624461Y-10049518D01*
X16619990Y-10038723D01*
X16619989Y-10038721D01*
X16611229Y-10025611D01*
X16611229Y-10025611D01*
X16600079Y-10014461D01*
X16600079Y-10014461D01*
X16586969Y-10005701D01*
X16586967Y-10005700D01*
X16572400Y-9999666D01*
X16572399Y-9999666D01*
X16556935Y-9996590D01*
X16556934Y-9996590D01*
X16541166Y-9996590D01*
X16541166Y-9996590D01*
X16525701Y-9999666D01*
X16525700Y-9999666D01*
X16511133Y-10005700D01*
X16511131Y-10005701D01*
X16498021Y-10014461D01*
X16498021Y-10014461D01*
X16486871Y-10025611D01*
X16486871Y-10025611D01*
X16478111Y-10038721D01*
X16478110Y-10038723D01*
X16472076Y-10053290D01*
X16472076Y-10053291D01*
X16469000Y-10068755D01*
X15989100Y-10068755D01*
X15988669Y-10066590D01*
X15986024Y-10053290D01*
X15984461Y-10049518D01*
X15979990Y-10038723D01*
X15979989Y-10038721D01*
X15971229Y-10025611D01*
X15971229Y-10025611D01*
X15960079Y-10014461D01*
X15960079Y-10014461D01*
X15946969Y-10005701D01*
X15946967Y-10005700D01*
X15932400Y-9999666D01*
X15932399Y-9999666D01*
X15916935Y-9996590D01*
X15916934Y-9996590D01*
X15901166Y-9996590D01*
X15901166Y-9996590D01*
X15885701Y-9999666D01*
X15885700Y-9999666D01*
X15871133Y-10005700D01*
X15871131Y-10005701D01*
X15858021Y-10014461D01*
X15858021Y-10014461D01*
X15846871Y-10025611D01*
X15846871Y-10025611D01*
X15838111Y-10038721D01*
X15838110Y-10038722D01*
X15833639Y-10049518D01*
X15829255Y-10054958D01*
X15826928Y-10056229D01*
X15816132Y-10060700D01*
X15816131Y-10060701D01*
X15803021Y-10069461D01*
X15803021Y-10069461D01*
X15791871Y-10080611D01*
X15791871Y-10080611D01*
X15783111Y-10093721D01*
X15783110Y-10093723D01*
X15777076Y-10108290D01*
X15777076Y-10108291D01*
X15774000Y-10123755D01*
X14206116Y-10123755D01*
X14206024Y-10123291D01*
X14206024Y-10123290D01*
X14199990Y-10108723D01*
X14199989Y-10108721D01*
X14191229Y-10095611D01*
X14191229Y-10095611D01*
X14180079Y-10084461D01*
X14180079Y-10084461D01*
X14166969Y-10075701D01*
X14166967Y-10075700D01*
X14152400Y-10069666D01*
X14152399Y-10069666D01*
X14136935Y-10066590D01*
X14136934Y-10066590D01*
X14121166Y-10066590D01*
X14121166Y-10066590D01*
X14105701Y-10069666D01*
X14105700Y-10069666D01*
X14091133Y-10075700D01*
X14091131Y-10075701D01*
X14078021Y-10084461D01*
X14078021Y-10084461D01*
X14066871Y-10095611D01*
X14066871Y-10095611D01*
X14058111Y-10108721D01*
X14058110Y-10108723D01*
X14052076Y-10123290D01*
X14052076Y-10123291D01*
X14049000Y-10138755D01*
X13759100Y-10138755D01*
X13759100Y-9838755D01*
X16539000Y-9838755D01*
X16539000Y-9854524D01*
X16542076Y-9869989D01*
X16542076Y-9869990D01*
X16548110Y-9884557D01*
X16548111Y-9884558D01*
X16556871Y-9897669D01*
X16556871Y-9897669D01*
X16568021Y-9908818D01*
X16568021Y-9908819D01*
X16581131Y-9917579D01*
X16581133Y-9917580D01*
X16595700Y-9923613D01*
X16595700Y-9923614D01*
X16611165Y-9926690D01*
X16611166Y-9926690D01*
X16611166Y-9926690D01*
X16626934Y-9926690D01*
X16626935Y-9926690D01*
X16642400Y-9923614D01*
X16656968Y-9917579D01*
X16670079Y-9908819D01*
X16681229Y-9897669D01*
X16689989Y-9884558D01*
X16696024Y-9869990D01*
X16699100Y-9854524D01*
X16699100Y-9838756D01*
X16699100Y-9838755D01*
X16699100Y-9838755D01*
X16696024Y-9823291D01*
X16696024Y-9823290D01*
X16690029Y-9808818D01*
X16689990Y-9808723D01*
X16689989Y-9808721D01*
X16681229Y-9795611D01*
X16681229Y-9795611D01*
X16670079Y-9784461D01*
X16670079Y-9784461D01*
X16656969Y-9775701D01*
X16656967Y-9775700D01*
X16642400Y-9769666D01*
X16642399Y-9769666D01*
X16626935Y-9766590D01*
X16626934Y-9766590D01*
X16611166Y-9766590D01*
X16611166Y-9766590D01*
X16595701Y-9769666D01*
X16595700Y-9769666D01*
X16581133Y-9775700D01*
X16581131Y-9775701D01*
X16568021Y-9784461D01*
X16568021Y-9784461D01*
X16556871Y-9795611D01*
X16556871Y-9795611D01*
X16548111Y-9808721D01*
X16548110Y-9808723D01*
X16542076Y-9823290D01*
X16542076Y-9823291D01*
X16539000Y-9838755D01*
X13759100Y-9838755D01*
X13759100Y-9598755D01*
X13899000Y-9598755D01*
X13899000Y-9614524D01*
X13902076Y-9629989D01*
X13902076Y-9629990D01*
X13908110Y-9644557D01*
X13908111Y-9644558D01*
X13916871Y-9657669D01*
X13916871Y-9657669D01*
X13928021Y-9668818D01*
X13928021Y-9668819D01*
X13941131Y-9677579D01*
X13941133Y-9677580D01*
X13955700Y-9683613D01*
X13955700Y-9683614D01*
X13966850Y-9685831D01*
X13971165Y-9686690D01*
X13971166Y-9686690D01*
X13982424Y-9686690D01*
X13989128Y-9688658D01*
X13993704Y-9693939D01*
X13993880Y-9694345D01*
X13998110Y-9704557D01*
X13998111Y-9704558D01*
X14006871Y-9717669D01*
X14006871Y-9717669D01*
X14018021Y-9728818D01*
X14018021Y-9728819D01*
X14031131Y-9737579D01*
X14031133Y-9737580D01*
X14045700Y-9743613D01*
X14045700Y-9743614D01*
X14061165Y-9746690D01*
X14061166Y-9746690D01*
X14061166Y-9746690D01*
X14076934Y-9746690D01*
X14076935Y-9746690D01*
X14092400Y-9743614D01*
X14104129Y-9738755D01*
X14649000Y-9738755D01*
X14649000Y-9754524D01*
X14652076Y-9769989D01*
X14652076Y-9769990D01*
X14658110Y-9784557D01*
X14658111Y-9784558D01*
X14666871Y-9797669D01*
X14666871Y-9797669D01*
X14678021Y-9808818D01*
X14678021Y-9808819D01*
X14691131Y-9817579D01*
X14691133Y-9817580D01*
X14704918Y-9823290D01*
X14705700Y-9823614D01*
X14721165Y-9826690D01*
X14721166Y-9826690D01*
X14721166Y-9826690D01*
X14736934Y-9826690D01*
X14736935Y-9826690D01*
X14737968Y-9826484D01*
X14740479Y-9825985D01*
X14740479Y-9825985D01*
X14749030Y-9824284D01*
X14752400Y-9823614D01*
X14766968Y-9817579D01*
X14780079Y-9808819D01*
X14791229Y-9797669D01*
X14799989Y-9784558D01*
X14806024Y-9769990D01*
X14809100Y-9754524D01*
X14809100Y-9738756D01*
X14809100Y-9738755D01*
X14809100Y-9738755D01*
X14807123Y-9728819D01*
X14806024Y-9723290D01*
X14804524Y-9719669D01*
X14799990Y-9708723D01*
X14799989Y-9708721D01*
X14791229Y-9695611D01*
X14791229Y-9695611D01*
X14780079Y-9684461D01*
X14780079Y-9684461D01*
X14766969Y-9675701D01*
X14766967Y-9675700D01*
X14752400Y-9669666D01*
X14752399Y-9669666D01*
X14736935Y-9666590D01*
X14736934Y-9666590D01*
X14721166Y-9666590D01*
X14721166Y-9666590D01*
X14705701Y-9669666D01*
X14705700Y-9669666D01*
X14691133Y-9675700D01*
X14691131Y-9675701D01*
X14678021Y-9684461D01*
X14678021Y-9684461D01*
X14666871Y-9695611D01*
X14666871Y-9695611D01*
X14658111Y-9708721D01*
X14658110Y-9708723D01*
X14652076Y-9723290D01*
X14652076Y-9723291D01*
X14649000Y-9738755D01*
X14104129Y-9738755D01*
X14106968Y-9737579D01*
X14120079Y-9728819D01*
X14131229Y-9717669D01*
X14139989Y-9704558D01*
X14146024Y-9689990D01*
X14149100Y-9674524D01*
X14149100Y-9658756D01*
X14149100Y-9658755D01*
X14149100Y-9658755D01*
X14146639Y-9646385D01*
X14146024Y-9643290D01*
X14143887Y-9638133D01*
X14139990Y-9628723D01*
X14139989Y-9628721D01*
X14131229Y-9615611D01*
X14131229Y-9615611D01*
X14120079Y-9604461D01*
X14120079Y-9604461D01*
X14106969Y-9595701D01*
X14106967Y-9595700D01*
X14092400Y-9589666D01*
X14092399Y-9589666D01*
X14076935Y-9586590D01*
X14076934Y-9586590D01*
X14065676Y-9586590D01*
X14058972Y-9584621D01*
X14054397Y-9579341D01*
X14054220Y-9578935D01*
X14049990Y-9568723D01*
X14049989Y-9568721D01*
X14041229Y-9555611D01*
X14041229Y-9555611D01*
X14030079Y-9544461D01*
X14030079Y-9544461D01*
X14016969Y-9535701D01*
X14016967Y-9535700D01*
X14002400Y-9529666D01*
X14002399Y-9529666D01*
X13986935Y-9526590D01*
X13986934Y-9526590D01*
X13971166Y-9526590D01*
X13971166Y-9526590D01*
X13955701Y-9529666D01*
X13955700Y-9529666D01*
X13941133Y-9535700D01*
X13941131Y-9535701D01*
X13928021Y-9544461D01*
X13928021Y-9544461D01*
X13916871Y-9555611D01*
X13916871Y-9555611D01*
X13908111Y-9568721D01*
X13908110Y-9568723D01*
X13902076Y-9583290D01*
X13902076Y-9583291D01*
X13899000Y-9598755D01*
X13759100Y-9598755D01*
X13759100Y-9438755D01*
X15719000Y-9438755D01*
X15719000Y-9454524D01*
X15722076Y-9469989D01*
X15722076Y-9469990D01*
X15728110Y-9484557D01*
X15728111Y-9484558D01*
X15736871Y-9497669D01*
X15736871Y-9497669D01*
X15748021Y-9508818D01*
X15748021Y-9508819D01*
X15761131Y-9517579D01*
X15761133Y-9517580D01*
X15772058Y-9522105D01*
X15775700Y-9523614D01*
X15778737Y-9524218D01*
X15780612Y-9524591D01*
X15786804Y-9527829D01*
X15790261Y-9533901D01*
X15789887Y-9540878D01*
X15786962Y-9545520D01*
X15776871Y-9555611D01*
X15768111Y-9568721D01*
X15768110Y-9568723D01*
X15762076Y-9583290D01*
X15762076Y-9583291D01*
X15759000Y-9598755D01*
X15759000Y-9614524D01*
X15762076Y-9629989D01*
X15762076Y-9629989D01*
X15762076Y-9629990D01*
X15764936Y-9636895D01*
X15764937Y-9636895D01*
X15765683Y-9643842D01*
X15764937Y-9646385D01*
X15762076Y-9653290D01*
X15762076Y-9653291D01*
X15759000Y-9668755D01*
X15759000Y-9684524D01*
X15762076Y-9699989D01*
X15762076Y-9699990D01*
X15768110Y-9714557D01*
X15768111Y-9714558D01*
X15776871Y-9727669D01*
X15776871Y-9727669D01*
X15788021Y-9738818D01*
X15788021Y-9738819D01*
X15801131Y-9747579D01*
X15801133Y-9747580D01*
X15815700Y-9753613D01*
X15815700Y-9753614D01*
X15831165Y-9756690D01*
X15831166Y-9756690D01*
X15831166Y-9756690D01*
X15846934Y-9756690D01*
X15846935Y-9756690D01*
X15862400Y-9753614D01*
X15876968Y-9747579D01*
X15890079Y-9738819D01*
X15901229Y-9727669D01*
X15909989Y-9714558D01*
X15916024Y-9699990D01*
X15919100Y-9684524D01*
X15919100Y-9668756D01*
X15919100Y-9668755D01*
X15919100Y-9668755D01*
X15917975Y-9663102D01*
X15917975Y-9663101D01*
X15917509Y-9660755D01*
X17273000Y-9660755D01*
X17273000Y-9676524D01*
X17276076Y-9691989D01*
X17276077Y-9691990D01*
X17282110Y-9706557D01*
X17282111Y-9706558D01*
X17290871Y-9719669D01*
X17290871Y-9719669D01*
X17302021Y-9730818D01*
X17302021Y-9730819D01*
X17315132Y-9739579D01*
X17315133Y-9739580D01*
X17329700Y-9745613D01*
X17329700Y-9745614D01*
X17345165Y-9748690D01*
X17345166Y-9748690D01*
X17345166Y-9748690D01*
X17360935Y-9748690D01*
X17360935Y-9748690D01*
X17376400Y-9745614D01*
X17390968Y-9739579D01*
X17404079Y-9730819D01*
X17415229Y-9719669D01*
X17423990Y-9706558D01*
X17430024Y-9691990D01*
X17433100Y-9676524D01*
X17433100Y-9660756D01*
X17433100Y-9660755D01*
X17433100Y-9660755D01*
X17432486Y-9657669D01*
X17430024Y-9645290D01*
X17429720Y-9644558D01*
X17423990Y-9630723D01*
X17423989Y-9630721D01*
X17415229Y-9617611D01*
X17415229Y-9617611D01*
X17404079Y-9606461D01*
X17404079Y-9606461D01*
X17390969Y-9597701D01*
X17390967Y-9597700D01*
X17376400Y-9591666D01*
X17376399Y-9591666D01*
X17360935Y-9588590D01*
X17360934Y-9588590D01*
X17345166Y-9588590D01*
X17345166Y-9588590D01*
X17329701Y-9591666D01*
X17329700Y-9591666D01*
X17315133Y-9597700D01*
X17315132Y-9597701D01*
X17302021Y-9606461D01*
X17302021Y-9606461D01*
X17290871Y-9617611D01*
X17290871Y-9617611D01*
X17282111Y-9630721D01*
X17282110Y-9630723D01*
X17276077Y-9645290D01*
X17276076Y-9645291D01*
X17273000Y-9660755D01*
X15917509Y-9660755D01*
X15916024Y-9653290D01*
X15912906Y-9645764D01*
X15912718Y-9645120D01*
X15912721Y-9642271D01*
X15912417Y-9639438D01*
X15912726Y-9638386D01*
X15912726Y-9638133D01*
X15912862Y-9637921D01*
X15913163Y-9636895D01*
X15916024Y-9629990D01*
X15919100Y-9614524D01*
X15919100Y-9598756D01*
X15919100Y-9598755D01*
X15919100Y-9598755D01*
X15917690Y-9591666D01*
X15916024Y-9583290D01*
X15914220Y-9578935D01*
X15909990Y-9568723D01*
X15909990Y-9568722D01*
X15909989Y-9568722D01*
X15907676Y-9565260D01*
X15905588Y-9558592D01*
X15907437Y-9551854D01*
X15909683Y-9549285D01*
X15909648Y-9549250D01*
X15921229Y-9537669D01*
X15921229Y-9537669D01*
X15929989Y-9524558D01*
X15936024Y-9509990D01*
X15939100Y-9494524D01*
X15939100Y-9478756D01*
X15939100Y-9478755D01*
X15939100Y-9478755D01*
X15936024Y-9463291D01*
X15936024Y-9463290D01*
X15932393Y-9454524D01*
X15929990Y-9448723D01*
X15929989Y-9448721D01*
X15926947Y-9444168D01*
X15924859Y-9437501D01*
X15926708Y-9430763D01*
X15931905Y-9426094D01*
X15934837Y-9425118D01*
X15942400Y-9423614D01*
X15956968Y-9417579D01*
X15970079Y-9408819D01*
X15981229Y-9397669D01*
X15989989Y-9384558D01*
X15996024Y-9369990D01*
X15999100Y-9354524D01*
X15999100Y-9338756D01*
X15999100Y-9338755D01*
X15999100Y-9338755D01*
X15996024Y-9323291D01*
X15996024Y-9323290D01*
X15996024Y-9323290D01*
X15989990Y-9308723D01*
X15989989Y-9308721D01*
X15981229Y-9295611D01*
X15981229Y-9295611D01*
X15970079Y-9284461D01*
X15970079Y-9284461D01*
X15956969Y-9275701D01*
X15956967Y-9275700D01*
X15942400Y-9269666D01*
X15942399Y-9269666D01*
X15926935Y-9266590D01*
X15926934Y-9266590D01*
X15911166Y-9266590D01*
X15911166Y-9266590D01*
X15895701Y-9269666D01*
X15895700Y-9269666D01*
X15881133Y-9275700D01*
X15881131Y-9275701D01*
X15868021Y-9284461D01*
X15868021Y-9284461D01*
X15856871Y-9295611D01*
X15856871Y-9295611D01*
X15848111Y-9308721D01*
X15848110Y-9308723D01*
X15842076Y-9323290D01*
X15842076Y-9323291D01*
X15839000Y-9338755D01*
X15839000Y-9354524D01*
X15839247Y-9355766D01*
X15838624Y-9362725D01*
X15834338Y-9368243D01*
X15827749Y-9370567D01*
X15823009Y-9369756D01*
X15822982Y-9369843D01*
X15822400Y-9369666D01*
X15822400Y-9369666D01*
X15822399Y-9369666D01*
X15822399Y-9369666D01*
X15806935Y-9366590D01*
X15806934Y-9366590D01*
X15791166Y-9366590D01*
X15791166Y-9366590D01*
X15775701Y-9369666D01*
X15775700Y-9369666D01*
X15761133Y-9375700D01*
X15761131Y-9375701D01*
X15748021Y-9384461D01*
X15748021Y-9384461D01*
X15736871Y-9395611D01*
X15736871Y-9395611D01*
X15728111Y-9408721D01*
X15728110Y-9408723D01*
X15722076Y-9423290D01*
X15722076Y-9423291D01*
X15719000Y-9438755D01*
X13759100Y-9438755D01*
X13759100Y-9138755D01*
X16839000Y-9138755D01*
X16839000Y-9154524D01*
X16842076Y-9169989D01*
X16842076Y-9169989D01*
X16842076Y-9169990D01*
X16844937Y-9176895D01*
X16844937Y-9176895D01*
X16845683Y-9183842D01*
X16844937Y-9186385D01*
X16842076Y-9193290D01*
X16842076Y-9193290D01*
X16842076Y-9193291D01*
X16839000Y-9208755D01*
X16839000Y-9224524D01*
X16842076Y-9239989D01*
X16842077Y-9239990D01*
X16848110Y-9254557D01*
X16848111Y-9254558D01*
X16856871Y-9267669D01*
X16856871Y-9267669D01*
X16868021Y-9278818D01*
X16868021Y-9278819D01*
X16881132Y-9287579D01*
X16881133Y-9287580D01*
X16895700Y-9293613D01*
X16895700Y-9293614D01*
X16911165Y-9296690D01*
X16911166Y-9296690D01*
X16911166Y-9296690D01*
X16926935Y-9296690D01*
X16926935Y-9296690D01*
X16942400Y-9293614D01*
X16956968Y-9287579D01*
X16970079Y-9278819D01*
X16981229Y-9267669D01*
X16989990Y-9254558D01*
X16996024Y-9239990D01*
X16999100Y-9224524D01*
X16999100Y-9208756D01*
X16999100Y-9208755D01*
X16999100Y-9208755D01*
X16996024Y-9193290D01*
X16993164Y-9186385D01*
X16992417Y-9179438D01*
X16993163Y-9176895D01*
X16996024Y-9169990D01*
X16999100Y-9154524D01*
X16999100Y-9138756D01*
X16999100Y-9138755D01*
X16999100Y-9138755D01*
X16996024Y-9123291D01*
X16996024Y-9123290D01*
X16996024Y-9123290D01*
X16989990Y-9108723D01*
X16989989Y-9108721D01*
X16981229Y-9095611D01*
X16981229Y-9095611D01*
X16970079Y-9084461D01*
X16970079Y-9084461D01*
X16956969Y-9075701D01*
X16956967Y-9075700D01*
X16942400Y-9069666D01*
X16942399Y-9069666D01*
X16926935Y-9066590D01*
X16926934Y-9066590D01*
X16911166Y-9066590D01*
X16911166Y-9066590D01*
X16895701Y-9069666D01*
X16895700Y-9069666D01*
X16881133Y-9075700D01*
X16881132Y-9075701D01*
X16868021Y-9084461D01*
X16868021Y-9084461D01*
X16856871Y-9095611D01*
X16856871Y-9095611D01*
X16848111Y-9108721D01*
X16848110Y-9108723D01*
X16842077Y-9123290D01*
X16842076Y-9123291D01*
X16839000Y-9138755D01*
X13759100Y-9138755D01*
X13759100Y-8958755D01*
X16279000Y-8958755D01*
X16279000Y-8974524D01*
X16282076Y-8989989D01*
X16282076Y-8989990D01*
X16288110Y-9004557D01*
X16288111Y-9004558D01*
X16296871Y-9017669D01*
X16296871Y-9017669D01*
X16308021Y-9028818D01*
X16308021Y-9028819D01*
X16321131Y-9037579D01*
X16321133Y-9037580D01*
X16335700Y-9043613D01*
X16335700Y-9043614D01*
X16351165Y-9046690D01*
X16351166Y-9046690D01*
X16351166Y-9046690D01*
X16366934Y-9046690D01*
X16366935Y-9046690D01*
X16382400Y-9043614D01*
X16396968Y-9037579D01*
X16410079Y-9028819D01*
X16421229Y-9017669D01*
X16429989Y-9004558D01*
X16436024Y-8989990D01*
X16439100Y-8974524D01*
X16439100Y-8958756D01*
X16439100Y-8958755D01*
X16439100Y-8958755D01*
X16436024Y-8943290D01*
X16435536Y-8942114D01*
X16429990Y-8928723D01*
X16429989Y-8928721D01*
X16421229Y-8915611D01*
X16421229Y-8915611D01*
X16410079Y-8904461D01*
X16410079Y-8904461D01*
X16396969Y-8895701D01*
X16396967Y-8895700D01*
X16382400Y-8889666D01*
X16382399Y-8889666D01*
X16366935Y-8886590D01*
X16366934Y-8886590D01*
X16351166Y-8886590D01*
X16351166Y-8886590D01*
X16335701Y-8889666D01*
X16335700Y-8889666D01*
X16321133Y-8895700D01*
X16321131Y-8895701D01*
X16308021Y-8904461D01*
X16308021Y-8904461D01*
X16296871Y-8915611D01*
X16296871Y-8915611D01*
X16288111Y-8928721D01*
X16288110Y-8928723D01*
X16282076Y-8943290D01*
X16282076Y-8943291D01*
X16279000Y-8958755D01*
X13759100Y-8958755D01*
X13759100Y-8857255D01*
X16729000Y-8857255D01*
X16729000Y-8873024D01*
X16732076Y-8888489D01*
X16732076Y-8888490D01*
X16738110Y-8903057D01*
X16738111Y-8903058D01*
X16746871Y-8916169D01*
X16746871Y-8916169D01*
X16758021Y-8927318D01*
X16758021Y-8927319D01*
X16771131Y-8936079D01*
X16771133Y-8936080D01*
X16785700Y-8942113D01*
X16785700Y-8942114D01*
X16801165Y-8945190D01*
X16801166Y-8945190D01*
X16801166Y-8945190D01*
X16816935Y-8945190D01*
X16816935Y-8945190D01*
X16832400Y-8942114D01*
X16846968Y-8936079D01*
X16860079Y-8927319D01*
X16871229Y-8916169D01*
X16879990Y-8903058D01*
X16886024Y-8888490D01*
X16889100Y-8873024D01*
X16889100Y-8857256D01*
X16889100Y-8857255D01*
X16889100Y-8857255D01*
X16886024Y-8841790D01*
X16883014Y-8834524D01*
X16879990Y-8827223D01*
X16879989Y-8827221D01*
X16878529Y-8825035D01*
X16878529Y-8825035D01*
X16874332Y-8818755D01*
X17749000Y-8818755D01*
X17749000Y-8834524D01*
X17752076Y-8849989D01*
X17752077Y-8849990D01*
X17758110Y-8864557D01*
X17758111Y-8864558D01*
X17766871Y-8877669D01*
X17766871Y-8877669D01*
X17778021Y-8888818D01*
X17778021Y-8888819D01*
X17791132Y-8897579D01*
X17791133Y-8897580D01*
X17804360Y-8903058D01*
X17805700Y-8903614D01*
X17821165Y-8906690D01*
X17821166Y-8906690D01*
X17821166Y-8906690D01*
X17836935Y-8906690D01*
X17836935Y-8906690D01*
X17852400Y-8903614D01*
X17866968Y-8897579D01*
X17880079Y-8888819D01*
X17891229Y-8877669D01*
X17899990Y-8864558D01*
X17906024Y-8849990D01*
X17909100Y-8834524D01*
X17909100Y-8818756D01*
X17909100Y-8818755D01*
X17909100Y-8818755D01*
X17906024Y-8803291D01*
X17906024Y-8803290D01*
X17905888Y-8802961D01*
X17899990Y-8788723D01*
X17899989Y-8788721D01*
X17891229Y-8775611D01*
X17891229Y-8775611D01*
X17880079Y-8764461D01*
X17880079Y-8764461D01*
X17866969Y-8755701D01*
X17866967Y-8755700D01*
X17852400Y-8749666D01*
X17852399Y-8749666D01*
X17836935Y-8746590D01*
X17836934Y-8746590D01*
X17821166Y-8746590D01*
X17821166Y-8746590D01*
X17805701Y-8749666D01*
X17805700Y-8749666D01*
X17791133Y-8755700D01*
X17791132Y-8755701D01*
X17778021Y-8764461D01*
X17778021Y-8764461D01*
X17766871Y-8775611D01*
X17766871Y-8775611D01*
X17758111Y-8788721D01*
X17758110Y-8788723D01*
X17752077Y-8803290D01*
X17752076Y-8803291D01*
X17749000Y-8818755D01*
X16874332Y-8818755D01*
X16871229Y-8814111D01*
X16871229Y-8814111D01*
X16860079Y-8802961D01*
X16860079Y-8802961D01*
X16846969Y-8794201D01*
X16846967Y-8794200D01*
X16832400Y-8788166D01*
X16832399Y-8788166D01*
X16816935Y-8785090D01*
X16816934Y-8785090D01*
X16801166Y-8785090D01*
X16801166Y-8785090D01*
X16785701Y-8788166D01*
X16785700Y-8788166D01*
X16771133Y-8794200D01*
X16771131Y-8794201D01*
X16758021Y-8802961D01*
X16758021Y-8802961D01*
X16746871Y-8814111D01*
X16746871Y-8814111D01*
X16738111Y-8827221D01*
X16738110Y-8827223D01*
X16732076Y-8841790D01*
X16732076Y-8841791D01*
X16729000Y-8857255D01*
X13759100Y-8857255D01*
X13759100Y-8428755D01*
X14629000Y-8428755D01*
X14629000Y-8444524D01*
X14632076Y-8459989D01*
X14632076Y-8459990D01*
X14638110Y-8474557D01*
X14638111Y-8474558D01*
X14646871Y-8487669D01*
X14646871Y-8487669D01*
X14658021Y-8498818D01*
X14658021Y-8498819D01*
X14671131Y-8507579D01*
X14671133Y-8507580D01*
X14685700Y-8513613D01*
X14685700Y-8513614D01*
X14701165Y-8516690D01*
X14701166Y-8516690D01*
X14701166Y-8516690D01*
X14716934Y-8516690D01*
X14716935Y-8516690D01*
X14732400Y-8513614D01*
X14746968Y-8507579D01*
X14760079Y-8498819D01*
X14767893Y-8491005D01*
X15586750Y-8491005D01*
X15586750Y-8506774D01*
X15589826Y-8522239D01*
X15589826Y-8522240D01*
X15595860Y-8536807D01*
X15595861Y-8536808D01*
X15604621Y-8549919D01*
X15604621Y-8549919D01*
X15615771Y-8561068D01*
X15615771Y-8561069D01*
X15628881Y-8569829D01*
X15628883Y-8569830D01*
X15643450Y-8575863D01*
X15643450Y-8575864D01*
X15658915Y-8578940D01*
X15658916Y-8578940D01*
X15658916Y-8578940D01*
X15674684Y-8578940D01*
X15674685Y-8578940D01*
X15690150Y-8575864D01*
X15704718Y-8569829D01*
X15717829Y-8561069D01*
X15728979Y-8549919D01*
X15737739Y-8536808D01*
X15743774Y-8522240D01*
X15746850Y-8506774D01*
X15746850Y-8491006D01*
X15746850Y-8491005D01*
X15746850Y-8491005D01*
X15745359Y-8483507D01*
X15743774Y-8475540D01*
X15738919Y-8463819D01*
X15737740Y-8460973D01*
X15737739Y-8460971D01*
X15728979Y-8447861D01*
X15728979Y-8447861D01*
X15717829Y-8436711D01*
X15717829Y-8436711D01*
X15704719Y-8427951D01*
X15704717Y-8427950D01*
X15690150Y-8421916D01*
X15690149Y-8421916D01*
X15674685Y-8418840D01*
X15674684Y-8418840D01*
X15658916Y-8418840D01*
X15658916Y-8418840D01*
X15643451Y-8421916D01*
X15643450Y-8421916D01*
X15628883Y-8427950D01*
X15628881Y-8427951D01*
X15615771Y-8436711D01*
X15615771Y-8436711D01*
X15604621Y-8447861D01*
X15604621Y-8447861D01*
X15595861Y-8460971D01*
X15595860Y-8460973D01*
X15589826Y-8475540D01*
X15589826Y-8475541D01*
X15586750Y-8491005D01*
X14767893Y-8491005D01*
X14771229Y-8487669D01*
X14775224Y-8481690D01*
X14779989Y-8474558D01*
X14779989Y-8474558D01*
X14779989Y-8474558D01*
X14786024Y-8459990D01*
X14789100Y-8444524D01*
X14789100Y-8428756D01*
X14789100Y-8428755D01*
X14789100Y-8428755D01*
X14788940Y-8427950D01*
X14786024Y-8413290D01*
X14784464Y-8409524D01*
X14779989Y-8398722D01*
X14776671Y-8393755D01*
X16824000Y-8393755D01*
X16824000Y-8409524D01*
X16827076Y-8424989D01*
X16827077Y-8424990D01*
X16833110Y-8439557D01*
X16833111Y-8439558D01*
X16841871Y-8452669D01*
X16841871Y-8452669D01*
X16853021Y-8463818D01*
X16853021Y-8463819D01*
X16866132Y-8472579D01*
X16866133Y-8472580D01*
X16880700Y-8478613D01*
X16880700Y-8478614D01*
X16896165Y-8481690D01*
X16896166Y-8481690D01*
X16896166Y-8481690D01*
X16911935Y-8481690D01*
X16911935Y-8481690D01*
X16927400Y-8478614D01*
X16941968Y-8472579D01*
X16955079Y-8463819D01*
X16966229Y-8452669D01*
X16974990Y-8439558D01*
X16981024Y-8424990D01*
X16984100Y-8409524D01*
X16984100Y-8393756D01*
X16984100Y-8393755D01*
X16984100Y-8393755D01*
X16981024Y-8378291D01*
X16981024Y-8378290D01*
X16979438Y-8374461D01*
X16974990Y-8363722D01*
X16974989Y-8363721D01*
X16966229Y-8350611D01*
X16966229Y-8350610D01*
X16955079Y-8339461D01*
X16955079Y-8339461D01*
X16941969Y-8330701D01*
X16941967Y-8330700D01*
X16927400Y-8324666D01*
X16927399Y-8324666D01*
X16911935Y-8321590D01*
X16911934Y-8321590D01*
X16896166Y-8321590D01*
X16896166Y-8321590D01*
X16880701Y-8324666D01*
X16880700Y-8324666D01*
X16866133Y-8330700D01*
X16866132Y-8330701D01*
X16853021Y-8339461D01*
X16853021Y-8339461D01*
X16841871Y-8350610D01*
X16841871Y-8350611D01*
X16833111Y-8363721D01*
X16833110Y-8363722D01*
X16827077Y-8378290D01*
X16827076Y-8378291D01*
X16824000Y-8393755D01*
X14776671Y-8393755D01*
X14771229Y-8385611D01*
X14771229Y-8385610D01*
X14760079Y-8374461D01*
X14760079Y-8374461D01*
X14746969Y-8365701D01*
X14746967Y-8365700D01*
X14732400Y-8359666D01*
X14732399Y-8359666D01*
X14716935Y-8356590D01*
X14716934Y-8356590D01*
X14701166Y-8356590D01*
X14701166Y-8356590D01*
X14685701Y-8359666D01*
X14685700Y-8359666D01*
X14671133Y-8365700D01*
X14671131Y-8365701D01*
X14658021Y-8374461D01*
X14658021Y-8374461D01*
X14646871Y-8385610D01*
X14646871Y-8385611D01*
X14638111Y-8398721D01*
X14638110Y-8398723D01*
X14632076Y-8413290D01*
X14632076Y-8413291D01*
X14629000Y-8428755D01*
X13759100Y-8428755D01*
X13759100Y-8258755D01*
X14359000Y-8258755D01*
X14359000Y-8274524D01*
X14362076Y-8289989D01*
X14362076Y-8289990D01*
X14368110Y-8304557D01*
X14368111Y-8304558D01*
X14376871Y-8317669D01*
X14376871Y-8317669D01*
X14388021Y-8328818D01*
X14388021Y-8328819D01*
X14401131Y-8337579D01*
X14401133Y-8337579D01*
X14405675Y-8339461D01*
X14415700Y-8343613D01*
X14431165Y-8346690D01*
X14431166Y-8346690D01*
X14431166Y-8346690D01*
X14446934Y-8346690D01*
X14446935Y-8346690D01*
X14462400Y-8343613D01*
X14476968Y-8337579D01*
X14490079Y-8328819D01*
X14501229Y-8317669D01*
X14509989Y-8304558D01*
X14516024Y-8289989D01*
X14519100Y-8274524D01*
X14519100Y-8258756D01*
X14519100Y-8258755D01*
X14519100Y-8258755D01*
X14516024Y-8243291D01*
X14516024Y-8243290D01*
X14516024Y-8243290D01*
X14509990Y-8228722D01*
X14509989Y-8228721D01*
X14501229Y-8215611D01*
X14501229Y-8215610D01*
X14490079Y-8204461D01*
X14490079Y-8204461D01*
X14476969Y-8195701D01*
X14476967Y-8195700D01*
X14462400Y-8189666D01*
X14462399Y-8189666D01*
X14446935Y-8186590D01*
X14446934Y-8186590D01*
X14431166Y-8186590D01*
X14431166Y-8186590D01*
X14415701Y-8189666D01*
X14415700Y-8189666D01*
X14401133Y-8195700D01*
X14401131Y-8195701D01*
X14388021Y-8204461D01*
X14388021Y-8204461D01*
X14376871Y-8215610D01*
X14376871Y-8215611D01*
X14368111Y-8228721D01*
X14368110Y-8228722D01*
X14362076Y-8243290D01*
X14362076Y-8243291D01*
X14359000Y-8258755D01*
X13759100Y-8258755D01*
X13759100Y-8118755D01*
X17749000Y-8118755D01*
X17749000Y-8134524D01*
X17752076Y-8149989D01*
X17752077Y-8149990D01*
X17758110Y-8164557D01*
X17758111Y-8164558D01*
X17766871Y-8177669D01*
X17766871Y-8177669D01*
X17778021Y-8188818D01*
X17778021Y-8188819D01*
X17791132Y-8197579D01*
X17791133Y-8197579D01*
X17805700Y-8203613D01*
X17805700Y-8203613D01*
X17821165Y-8206690D01*
X17821166Y-8206690D01*
X17821166Y-8206690D01*
X17836935Y-8206690D01*
X17836935Y-8206690D01*
X17852400Y-8203613D01*
X17866968Y-8197579D01*
X17880079Y-8188819D01*
X17891229Y-8177669D01*
X17899990Y-8164558D01*
X17906024Y-8149989D01*
X17909100Y-8134524D01*
X17909100Y-8118756D01*
X17909100Y-8118755D01*
X17909100Y-8118755D01*
X17906024Y-8103291D01*
X17906024Y-8103290D01*
X17906024Y-8103290D01*
X17899990Y-8088722D01*
X17899989Y-8088721D01*
X17891229Y-8075611D01*
X17891229Y-8075610D01*
X17880079Y-8064461D01*
X17880079Y-8064461D01*
X17866969Y-8055701D01*
X17866967Y-8055700D01*
X17852400Y-8049666D01*
X17852399Y-8049666D01*
X17836935Y-8046590D01*
X17836934Y-8046590D01*
X17821166Y-8046590D01*
X17821166Y-8046590D01*
X17805701Y-8049666D01*
X17805700Y-8049666D01*
X17791133Y-8055700D01*
X17791132Y-8055701D01*
X17778021Y-8064461D01*
X17778021Y-8064461D01*
X17766871Y-8075610D01*
X17766871Y-8075611D01*
X17758111Y-8088721D01*
X17758110Y-8088722D01*
X17752077Y-8103290D01*
X17752076Y-8103291D01*
X17749000Y-8118755D01*
X13759100Y-8118755D01*
X13759100Y-7928755D01*
X15409000Y-7928755D01*
X15409000Y-7944524D01*
X15412076Y-7959989D01*
X15412076Y-7959990D01*
X15418110Y-7974557D01*
X15418111Y-7974558D01*
X15426871Y-7987669D01*
X15426871Y-7987669D01*
X15438021Y-7998818D01*
X15438021Y-7998819D01*
X15451131Y-8007579D01*
X15451133Y-8007579D01*
X15465700Y-8013613D01*
X15465700Y-8013613D01*
X15481165Y-8016690D01*
X15481166Y-8016690D01*
X15481166Y-8016690D01*
X15496934Y-8016690D01*
X15496935Y-8016690D01*
X15512400Y-8013613D01*
X15526968Y-8007579D01*
X15540079Y-7998819D01*
X15549007Y-7989890D01*
X15555140Y-7986542D01*
X15560195Y-7986497D01*
X15561166Y-7986690D01*
X15561166Y-7986690D01*
X15576934Y-7986690D01*
X15576935Y-7986690D01*
X15592400Y-7983613D01*
X15606968Y-7977579D01*
X15620079Y-7968819D01*
X15631229Y-7957669D01*
X15639989Y-7944558D01*
X15646024Y-7929989D01*
X15649100Y-7914524D01*
X15649100Y-7898756D01*
X15649100Y-7898755D01*
X15649100Y-7898755D01*
X15646485Y-7885611D01*
X15646024Y-7883290D01*
X15646024Y-7883290D01*
X15639990Y-7868722D01*
X15639989Y-7868721D01*
X15631229Y-7855611D01*
X15631229Y-7855610D01*
X15620079Y-7844461D01*
X15620079Y-7844461D01*
X15606969Y-7835701D01*
X15606967Y-7835700D01*
X15592400Y-7829666D01*
X15592399Y-7829666D01*
X15576935Y-7826590D01*
X15576934Y-7826590D01*
X15561166Y-7826590D01*
X15561166Y-7826590D01*
X15545701Y-7829666D01*
X15545700Y-7829666D01*
X15531133Y-7835700D01*
X15531131Y-7835701D01*
X15518021Y-7844461D01*
X15518021Y-7844461D01*
X15509093Y-7853389D01*
X15502960Y-7856738D01*
X15497906Y-7856783D01*
X15496934Y-7856590D01*
X15481166Y-7856590D01*
X15481166Y-7856590D01*
X15465701Y-7859666D01*
X15465700Y-7859666D01*
X15451133Y-7865700D01*
X15451131Y-7865701D01*
X15438021Y-7874461D01*
X15438021Y-7874461D01*
X15426871Y-7885610D01*
X15426871Y-7885611D01*
X15418111Y-7898721D01*
X15418110Y-7898722D01*
X15412076Y-7913290D01*
X15412076Y-7913291D01*
X15409000Y-7928755D01*
X13759100Y-7928755D01*
X13759100Y-7564533D01*
X15163580Y-7564533D01*
X15163580Y-7584206D01*
X15166657Y-7603636D01*
X15172737Y-7622346D01*
X15180560Y-7637700D01*
X15181668Y-7639874D01*
X15193231Y-7655789D01*
X15207141Y-7669699D01*
X15223056Y-7681262D01*
X15231338Y-7685482D01*
X15240584Y-7690193D01*
X15240584Y-7690193D01*
X15240584Y-7690193D01*
X15250613Y-7693452D01*
X15259294Y-7696272D01*
X15278724Y-7699350D01*
X15278724Y-7699350D01*
X15298397Y-7699350D01*
X15317826Y-7696272D01*
X15336536Y-7690193D01*
X15354064Y-7681262D01*
X15369979Y-7669699D01*
X15383890Y-7655789D01*
X15386528Y-7652157D01*
X15392061Y-7647890D01*
X15399023Y-7647292D01*
X15405202Y-7650553D01*
X15406592Y-7652157D01*
X15409231Y-7655789D01*
X15423141Y-7669699D01*
X15439056Y-7681262D01*
X15447337Y-7685482D01*
X15456584Y-7690193D01*
X15456584Y-7690193D01*
X15456584Y-7690193D01*
X15466613Y-7693452D01*
X15475294Y-7696272D01*
X15494723Y-7699350D01*
X15494724Y-7699350D01*
X15514397Y-7699350D01*
X15533826Y-7696272D01*
X15552536Y-7690193D01*
X15570064Y-7681262D01*
X15585979Y-7669699D01*
X15599889Y-7655789D01*
X15602528Y-7652157D01*
X15608061Y-7647890D01*
X15615022Y-7647292D01*
X15621202Y-7650553D01*
X15622591Y-7652156D01*
X15625231Y-7655789D01*
X15639141Y-7669699D01*
X15655056Y-7681262D01*
X15663337Y-7685482D01*
X15672584Y-7690193D01*
X15672584Y-7690193D01*
X15672584Y-7690193D01*
X15682613Y-7693452D01*
X15691294Y-7696272D01*
X15710723Y-7699350D01*
X15710724Y-7699350D01*
X15730397Y-7699350D01*
X15749826Y-7696272D01*
X15768536Y-7690193D01*
X15786064Y-7681262D01*
X15801979Y-7669699D01*
X15815889Y-7655789D01*
X15818528Y-7652157D01*
X15824061Y-7647890D01*
X15831022Y-7647292D01*
X15837202Y-7650553D01*
X15838591Y-7652156D01*
X15841231Y-7655789D01*
X15855141Y-7669699D01*
X15871056Y-7681262D01*
X15879338Y-7685482D01*
X15888584Y-7690193D01*
X15888584Y-7690193D01*
X15888584Y-7690193D01*
X15898613Y-7693452D01*
X15907294Y-7696272D01*
X15926724Y-7699350D01*
X15926724Y-7699350D01*
X15946397Y-7699350D01*
X15965826Y-7696272D01*
X15984536Y-7690193D01*
X16002064Y-7681262D01*
X16017979Y-7669699D01*
X16031890Y-7655789D01*
X16034528Y-7652157D01*
X16040061Y-7647890D01*
X16047023Y-7647292D01*
X16053202Y-7650553D01*
X16054592Y-7652157D01*
X16057231Y-7655789D01*
X16071141Y-7669699D01*
X16087056Y-7681262D01*
X16095337Y-7685482D01*
X16104584Y-7690193D01*
X16104584Y-7690193D01*
X16104584Y-7690193D01*
X16114613Y-7693452D01*
X16123294Y-7696272D01*
X16142723Y-7699350D01*
X16142724Y-7699350D01*
X16162397Y-7699350D01*
X16181826Y-7696272D01*
X16200536Y-7690193D01*
X16218064Y-7681262D01*
X16233979Y-7669699D01*
X16247889Y-7655789D01*
X16250528Y-7652157D01*
X16256061Y-7647890D01*
X16263022Y-7647292D01*
X16269202Y-7650553D01*
X16270591Y-7652156D01*
X16273231Y-7655789D01*
X16287141Y-7669699D01*
X16303056Y-7681262D01*
X16311337Y-7685482D01*
X16320584Y-7690193D01*
X16320584Y-7690193D01*
X16320584Y-7690193D01*
X16330613Y-7693452D01*
X16339294Y-7696272D01*
X16358723Y-7699350D01*
X16358724Y-7699350D01*
X16378397Y-7699350D01*
X16397826Y-7696272D01*
X16416536Y-7690193D01*
X16434064Y-7681262D01*
X16449979Y-7669699D01*
X16463889Y-7655789D01*
X16466528Y-7652157D01*
X16472061Y-7647890D01*
X16479023Y-7647292D01*
X16485202Y-7650553D01*
X16486592Y-7652157D01*
X16489231Y-7655789D01*
X16503141Y-7669699D01*
X16519056Y-7681262D01*
X16527337Y-7685482D01*
X16536584Y-7690193D01*
X16536584Y-7690193D01*
X16536584Y-7690193D01*
X16546613Y-7693452D01*
X16555294Y-7696272D01*
X16574723Y-7699350D01*
X16574724Y-7699350D01*
X16594397Y-7699350D01*
X16613826Y-7696272D01*
X16632536Y-7690193D01*
X16650064Y-7681262D01*
X16665979Y-7669699D01*
X16679889Y-7655789D01*
X16682528Y-7652157D01*
X16688061Y-7647890D01*
X16695022Y-7647292D01*
X16701202Y-7650553D01*
X16702591Y-7652156D01*
X16705231Y-7655789D01*
X16719141Y-7669699D01*
X16735056Y-7681262D01*
X16743338Y-7685482D01*
X16752584Y-7690193D01*
X16752584Y-7690193D01*
X16752584Y-7690193D01*
X16762613Y-7693452D01*
X16771294Y-7696272D01*
X16790724Y-7699350D01*
X16790724Y-7699350D01*
X16810397Y-7699350D01*
X16829826Y-7696272D01*
X16848536Y-7690193D01*
X16866064Y-7681262D01*
X16881979Y-7669699D01*
X16895890Y-7655789D01*
X16898528Y-7652157D01*
X16904061Y-7647890D01*
X16911023Y-7647292D01*
X16917202Y-7650553D01*
X16918592Y-7652157D01*
X16921231Y-7655789D01*
X16935141Y-7669699D01*
X16951056Y-7681262D01*
X16959337Y-7685482D01*
X16968584Y-7690193D01*
X16968584Y-7690193D01*
X16968584Y-7690193D01*
X16978613Y-7693452D01*
X16987294Y-7696272D01*
X17006723Y-7699350D01*
X17006724Y-7699350D01*
X17026397Y-7699350D01*
X17045826Y-7696272D01*
X17064536Y-7690193D01*
X17082064Y-7681262D01*
X17097979Y-7669699D01*
X17111889Y-7655789D01*
X17114528Y-7652157D01*
X17120061Y-7647890D01*
X17127022Y-7647292D01*
X17133202Y-7650553D01*
X17134591Y-7652156D01*
X17137231Y-7655789D01*
X17151141Y-7669699D01*
X17167056Y-7681262D01*
X17175338Y-7685482D01*
X17184584Y-7690193D01*
X17184584Y-7690193D01*
X17184584Y-7690193D01*
X17194613Y-7693452D01*
X17203294Y-7696272D01*
X17222724Y-7699350D01*
X17222724Y-7699350D01*
X17242397Y-7699350D01*
X17261826Y-7696272D01*
X17280536Y-7690193D01*
X17298064Y-7681262D01*
X17313979Y-7669699D01*
X17327890Y-7655789D01*
X17330528Y-7652157D01*
X17336061Y-7647890D01*
X17343023Y-7647292D01*
X17349202Y-7650553D01*
X17350592Y-7652156D01*
X17353231Y-7655789D01*
X17367141Y-7669699D01*
X17383056Y-7681262D01*
X17391338Y-7685482D01*
X17400584Y-7690193D01*
X17400584Y-7690193D01*
X17400585Y-7690193D01*
X17410613Y-7693452D01*
X17419294Y-7696272D01*
X17438724Y-7699350D01*
X17438724Y-7699350D01*
X17458397Y-7699350D01*
X17477826Y-7696272D01*
X17496536Y-7690193D01*
X17514064Y-7681262D01*
X17529979Y-7669699D01*
X17543890Y-7655789D01*
X17546528Y-7652157D01*
X17552061Y-7647890D01*
X17559023Y-7647292D01*
X17565202Y-7650553D01*
X17566592Y-7652157D01*
X17569231Y-7655789D01*
X17583141Y-7669699D01*
X17599056Y-7681262D01*
X17607337Y-7685482D01*
X17616584Y-7690193D01*
X17616584Y-7690193D01*
X17616584Y-7690193D01*
X17626613Y-7693452D01*
X17635294Y-7696272D01*
X17654723Y-7699350D01*
X17654724Y-7699350D01*
X17674397Y-7699350D01*
X17693826Y-7696272D01*
X17712536Y-7690193D01*
X17730064Y-7681262D01*
X17745979Y-7669699D01*
X17759889Y-7655789D01*
X17771453Y-7639874D01*
X17780384Y-7622346D01*
X17786463Y-7603636D01*
X17789540Y-7584206D01*
X17789540Y-7564533D01*
X17786463Y-7545104D01*
X17781774Y-7530674D01*
X17780384Y-7526394D01*
X17780383Y-7526394D01*
X17780383Y-7526394D01*
X17772560Y-7511040D01*
X17771453Y-7508866D01*
X17759889Y-7492951D01*
X17745979Y-7479040D01*
X17730064Y-7467477D01*
X17712536Y-7458546D01*
X17693826Y-7452467D01*
X17674397Y-7449390D01*
X17674396Y-7449390D01*
X17654724Y-7449390D01*
X17654723Y-7449390D01*
X17635294Y-7452467D01*
X17616584Y-7458546D01*
X17599056Y-7467477D01*
X17589976Y-7474075D01*
X17583141Y-7479040D01*
X17583141Y-7479041D01*
X17583141Y-7479041D01*
X17569231Y-7492951D01*
X17566592Y-7496583D01*
X17561059Y-7500849D01*
X17554098Y-7501447D01*
X17547918Y-7498187D01*
X17546528Y-7496583D01*
X17543890Y-7492951D01*
X17529979Y-7479040D01*
X17514064Y-7467477D01*
X17496536Y-7458546D01*
X17477826Y-7452467D01*
X17458397Y-7449390D01*
X17458396Y-7449390D01*
X17438724Y-7449390D01*
X17438724Y-7449390D01*
X17419294Y-7452467D01*
X17400584Y-7458546D01*
X17383056Y-7467477D01*
X17373976Y-7474075D01*
X17367141Y-7479040D01*
X17367141Y-7479041D01*
X17367141Y-7479041D01*
X17353231Y-7492951D01*
X17350592Y-7496583D01*
X17345059Y-7500850D01*
X17338097Y-7501447D01*
X17331918Y-7498187D01*
X17330528Y-7496583D01*
X17327890Y-7492951D01*
X17327889Y-7492951D01*
X17313979Y-7479041D01*
X17313979Y-7479040D01*
X17298064Y-7467477D01*
X17280536Y-7458546D01*
X17261826Y-7452467D01*
X17242397Y-7449390D01*
X17242396Y-7449390D01*
X17222724Y-7449390D01*
X17222724Y-7449390D01*
X17203294Y-7452467D01*
X17184584Y-7458546D01*
X17167056Y-7467477D01*
X17157976Y-7474075D01*
X17151141Y-7479040D01*
X17151141Y-7479041D01*
X17151141Y-7479041D01*
X17137231Y-7492951D01*
X17134592Y-7496583D01*
X17129059Y-7500850D01*
X17122097Y-7501447D01*
X17115918Y-7498187D01*
X17114528Y-7496583D01*
X17111890Y-7492951D01*
X17111889Y-7492951D01*
X17097979Y-7479041D01*
X17097979Y-7479040D01*
X17082064Y-7467477D01*
X17064536Y-7458546D01*
X17045826Y-7452467D01*
X17026397Y-7449390D01*
X17026396Y-7449390D01*
X17006724Y-7449390D01*
X17006723Y-7449390D01*
X16987294Y-7452467D01*
X16968584Y-7458546D01*
X16951056Y-7467477D01*
X16941976Y-7474075D01*
X16935141Y-7479040D01*
X16935141Y-7479041D01*
X16935141Y-7479041D01*
X16921231Y-7492951D01*
X16918592Y-7496583D01*
X16913059Y-7500849D01*
X16906098Y-7501447D01*
X16899918Y-7498187D01*
X16898528Y-7496583D01*
X16895890Y-7492951D01*
X16881979Y-7479040D01*
X16866064Y-7467477D01*
X16848536Y-7458546D01*
X16829826Y-7452467D01*
X16810397Y-7449390D01*
X16810396Y-7449390D01*
X16790724Y-7449390D01*
X16790724Y-7449390D01*
X16771294Y-7452467D01*
X16752584Y-7458546D01*
X16735056Y-7467477D01*
X16725976Y-7474075D01*
X16719141Y-7479040D01*
X16719141Y-7479041D01*
X16719141Y-7479041D01*
X16705231Y-7492951D01*
X16702592Y-7496583D01*
X16697059Y-7500850D01*
X16690097Y-7501447D01*
X16683918Y-7498187D01*
X16682528Y-7496583D01*
X16679890Y-7492951D01*
X16679889Y-7492951D01*
X16665979Y-7479041D01*
X16665979Y-7479040D01*
X16650064Y-7467477D01*
X16632536Y-7458546D01*
X16613826Y-7452467D01*
X16594397Y-7449390D01*
X16594396Y-7449390D01*
X16574724Y-7449390D01*
X16574723Y-7449390D01*
X16555294Y-7452467D01*
X16536584Y-7458546D01*
X16519056Y-7467477D01*
X16509976Y-7474075D01*
X16503141Y-7479040D01*
X16503141Y-7479041D01*
X16503141Y-7479041D01*
X16489231Y-7492951D01*
X16489230Y-7492951D01*
X16486592Y-7496583D01*
X16481059Y-7500849D01*
X16474097Y-7501447D01*
X16467918Y-7498187D01*
X16466528Y-7496583D01*
X16463890Y-7492951D01*
X16463890Y-7492951D01*
X16463889Y-7492951D01*
X16449979Y-7479040D01*
X16434064Y-7467477D01*
X16416536Y-7458546D01*
X16397826Y-7452467D01*
X16378397Y-7449390D01*
X16378396Y-7449390D01*
X16358724Y-7449390D01*
X16358723Y-7449390D01*
X16339294Y-7452467D01*
X16320584Y-7458546D01*
X16303056Y-7467477D01*
X16293976Y-7474075D01*
X16287141Y-7479040D01*
X16287141Y-7479041D01*
X16287141Y-7479041D01*
X16273231Y-7492951D01*
X16270592Y-7496583D01*
X16265059Y-7500850D01*
X16258097Y-7501447D01*
X16251918Y-7498187D01*
X16250528Y-7496583D01*
X16247890Y-7492951D01*
X16247889Y-7492951D01*
X16233979Y-7479041D01*
X16233979Y-7479040D01*
X16218064Y-7467477D01*
X16200536Y-7458546D01*
X16181826Y-7452467D01*
X16162397Y-7449390D01*
X16162396Y-7449390D01*
X16142724Y-7449390D01*
X16142723Y-7449390D01*
X16123294Y-7452467D01*
X16104584Y-7458546D01*
X16087056Y-7467477D01*
X16077976Y-7474075D01*
X16071141Y-7479040D01*
X16071141Y-7479041D01*
X16071141Y-7479041D01*
X16057231Y-7492951D01*
X16054592Y-7496583D01*
X16049059Y-7500849D01*
X16042097Y-7501447D01*
X16035918Y-7498187D01*
X16034528Y-7496583D01*
X16031890Y-7492951D01*
X16017979Y-7479040D01*
X16002064Y-7467477D01*
X15984536Y-7458546D01*
X15965826Y-7452467D01*
X15946397Y-7449390D01*
X15946396Y-7449390D01*
X15926724Y-7449390D01*
X15926724Y-7449390D01*
X15907294Y-7452467D01*
X15888584Y-7458546D01*
X15871056Y-7467477D01*
X15861976Y-7474075D01*
X15855141Y-7479040D01*
X15855141Y-7479041D01*
X15855141Y-7479041D01*
X15841231Y-7492951D01*
X15838592Y-7496583D01*
X15833059Y-7500850D01*
X15826097Y-7501447D01*
X15819918Y-7498187D01*
X15818528Y-7496583D01*
X15815890Y-7492951D01*
X15815889Y-7492951D01*
X15801979Y-7479041D01*
X15801979Y-7479040D01*
X15786064Y-7467477D01*
X15768536Y-7458546D01*
X15749826Y-7452467D01*
X15730397Y-7449390D01*
X15730396Y-7449390D01*
X15710724Y-7449390D01*
X15710723Y-7449390D01*
X15691294Y-7452467D01*
X15672584Y-7458546D01*
X15655056Y-7467477D01*
X15645976Y-7474075D01*
X15639141Y-7479040D01*
X15639141Y-7479041D01*
X15639141Y-7479041D01*
X15625231Y-7492951D01*
X15622592Y-7496583D01*
X15617059Y-7500850D01*
X15610097Y-7501447D01*
X15603918Y-7498187D01*
X15602528Y-7496583D01*
X15599890Y-7492951D01*
X15599889Y-7492951D01*
X15585979Y-7479041D01*
X15585979Y-7479040D01*
X15570064Y-7467477D01*
X15552536Y-7458546D01*
X15533826Y-7452467D01*
X15514397Y-7449390D01*
X15514396Y-7449390D01*
X15494724Y-7449390D01*
X15494723Y-7449390D01*
X15475294Y-7452467D01*
X15456584Y-7458546D01*
X15439056Y-7467477D01*
X15429976Y-7474075D01*
X15423141Y-7479040D01*
X15423141Y-7479041D01*
X15423141Y-7479041D01*
X15409231Y-7492951D01*
X15406592Y-7496583D01*
X15401059Y-7500849D01*
X15394097Y-7501447D01*
X15387918Y-7498187D01*
X15386528Y-7496583D01*
X15383890Y-7492951D01*
X15369979Y-7479040D01*
X15354064Y-7467477D01*
X15336536Y-7458546D01*
X15317826Y-7452467D01*
X15298397Y-7449390D01*
X15298396Y-7449390D01*
X15278724Y-7449390D01*
X15278724Y-7449390D01*
X15259294Y-7452467D01*
X15240584Y-7458546D01*
X15223056Y-7467477D01*
X15213976Y-7474075D01*
X15207141Y-7479040D01*
X15207141Y-7479041D01*
X15207141Y-7479041D01*
X15193231Y-7492951D01*
X15193231Y-7492951D01*
X15193231Y-7492951D01*
X15189427Y-7498187D01*
X15181668Y-7508866D01*
X15172737Y-7526394D01*
X15166657Y-7545104D01*
X15163580Y-7564533D01*
X13759100Y-7564533D01*
X13759100Y-7348072D01*
X13956570Y-7348072D01*
X13956570Y-7371668D01*
X13959135Y-7391150D01*
X13959649Y-7395060D01*
X13959649Y-7395060D01*
X13965756Y-7417850D01*
X13965756Y-7417851D01*
X13974785Y-7439648D01*
X13974785Y-7439648D01*
X13986582Y-7460082D01*
X13986583Y-7460082D01*
X13986583Y-7460082D01*
X14000945Y-7478800D01*
X14000946Y-7478801D01*
X14017629Y-7495483D01*
X14017629Y-7495484D01*
X14025401Y-7501447D01*
X14036348Y-7509847D01*
X14056781Y-7521644D01*
X14078580Y-7530674D01*
X14101370Y-7536780D01*
X14124762Y-7539860D01*
X14124763Y-7539860D01*
X14148356Y-7539860D01*
X14148357Y-7539860D01*
X14171749Y-7536780D01*
X14194540Y-7530674D01*
X14216338Y-7521644D01*
X14236771Y-7509847D01*
X14255490Y-7495484D01*
X14272174Y-7478800D01*
X14286537Y-7460082D01*
X14298334Y-7439648D01*
X14307363Y-7417850D01*
X14313470Y-7395060D01*
X14316550Y-7371667D01*
X14316550Y-7348073D01*
X14316550Y-7348072D01*
X18636571Y-7348072D01*
X18636571Y-7371668D01*
X18639136Y-7391150D01*
X18639650Y-7395060D01*
X18639650Y-7395060D01*
X18645757Y-7417850D01*
X18645757Y-7417851D01*
X18654786Y-7439648D01*
X18654786Y-7439648D01*
X18666583Y-7460082D01*
X18666584Y-7460082D01*
X18666584Y-7460082D01*
X18680946Y-7478800D01*
X18680947Y-7478801D01*
X18697630Y-7495483D01*
X18697630Y-7495484D01*
X18705402Y-7501447D01*
X18716349Y-7509847D01*
X18736782Y-7521644D01*
X18758581Y-7530674D01*
X18781371Y-7536780D01*
X18804763Y-7539860D01*
X18804764Y-7539860D01*
X18828357Y-7539860D01*
X18828358Y-7539860D01*
X18851750Y-7536780D01*
X18874541Y-7530674D01*
X18896339Y-7521644D01*
X18916772Y-7509847D01*
X18935491Y-7495484D01*
X18952175Y-7478800D01*
X18966538Y-7460082D01*
X18978335Y-7439648D01*
X18987364Y-7417850D01*
X18993471Y-7395060D01*
X18996551Y-7371667D01*
X18996551Y-7348073D01*
X18993471Y-7324680D01*
X18987364Y-7301890D01*
X18978335Y-7280092D01*
X18966538Y-7259658D01*
X18952175Y-7240940D01*
X18952174Y-7240939D01*
X18935491Y-7224256D01*
X18935491Y-7224256D01*
X18916773Y-7209893D01*
X18916773Y-7209893D01*
X18916772Y-7209893D01*
X18896339Y-7198095D01*
X18896339Y-7198095D01*
X18874541Y-7189067D01*
X18874541Y-7189066D01*
X18874541Y-7189066D01*
X18851750Y-7182960D01*
X18847841Y-7182445D01*
X18828358Y-7179880D01*
X18828358Y-7179880D01*
X18804763Y-7179880D01*
X18804763Y-7179880D01*
X18782497Y-7182811D01*
X18781371Y-7182960D01*
X18758581Y-7189066D01*
X18758580Y-7189067D01*
X18736782Y-7198095D01*
X18736782Y-7198095D01*
X18716349Y-7209893D01*
X18716348Y-7209893D01*
X18697630Y-7224256D01*
X18697630Y-7224256D01*
X18680947Y-7240939D01*
X18680946Y-7240940D01*
X18666584Y-7259657D01*
X18666583Y-7259658D01*
X18654786Y-7280091D01*
X18654786Y-7280092D01*
X18645757Y-7301889D01*
X18645757Y-7301890D01*
X18639650Y-7324680D01*
X18639650Y-7324681D01*
X18636571Y-7348072D01*
X14316550Y-7348072D01*
X14313470Y-7324680D01*
X14307363Y-7301890D01*
X14298334Y-7280092D01*
X14286537Y-7259658D01*
X14272174Y-7240940D01*
X14272173Y-7240939D01*
X14255490Y-7224256D01*
X14255490Y-7224256D01*
X14236772Y-7209893D01*
X14236772Y-7209893D01*
X14236771Y-7209893D01*
X14216338Y-7198095D01*
X14216338Y-7198095D01*
X14194541Y-7189067D01*
X14194540Y-7189066D01*
X14194540Y-7189066D01*
X14171749Y-7182960D01*
X14167840Y-7182445D01*
X14148358Y-7179880D01*
X14148357Y-7179880D01*
X14124762Y-7179880D01*
X14124762Y-7179880D01*
X14102496Y-7182811D01*
X14101370Y-7182960D01*
X14078580Y-7189066D01*
X14078579Y-7189067D01*
X14056782Y-7198095D01*
X14056781Y-7198095D01*
X14036348Y-7209893D01*
X14036347Y-7209893D01*
X14017629Y-7224256D01*
X14017629Y-7224256D01*
X14000946Y-7240939D01*
X14000945Y-7240940D01*
X13986583Y-7259657D01*
X13986582Y-7259658D01*
X13974785Y-7280091D01*
X13974785Y-7280092D01*
X13965756Y-7301889D01*
X13965756Y-7301890D01*
X13959649Y-7324680D01*
X13959649Y-7324681D01*
X13956570Y-7348072D01*
X13759100Y-7348072D01*
X13759100Y-7135533D01*
X15163580Y-7135533D01*
X15163580Y-7155207D01*
X15166657Y-7174636D01*
X15172737Y-7193346D01*
X15175157Y-7198095D01*
X15181668Y-7210874D01*
X15193231Y-7226789D01*
X15207141Y-7240699D01*
X15223056Y-7252262D01*
X15231338Y-7256482D01*
X15240584Y-7261193D01*
X15240584Y-7261193D01*
X15240584Y-7261193D01*
X15250613Y-7264452D01*
X15259294Y-7267273D01*
X15278724Y-7270350D01*
X15278724Y-7270350D01*
X15298397Y-7270350D01*
X15317826Y-7267273D01*
X15336536Y-7261193D01*
X15354064Y-7252262D01*
X15369979Y-7240699D01*
X15383890Y-7226789D01*
X15386528Y-7223157D01*
X15392061Y-7218890D01*
X15399023Y-7218293D01*
X15405202Y-7221553D01*
X15406592Y-7223157D01*
X15409231Y-7226789D01*
X15423141Y-7240699D01*
X15439056Y-7252262D01*
X15447337Y-7256482D01*
X15456584Y-7261193D01*
X15456584Y-7261193D01*
X15456584Y-7261193D01*
X15466613Y-7264452D01*
X15475294Y-7267273D01*
X15494723Y-7270350D01*
X15494724Y-7270350D01*
X15514397Y-7270350D01*
X15533826Y-7267273D01*
X15552536Y-7261193D01*
X15570064Y-7252262D01*
X15585979Y-7240699D01*
X15599889Y-7226789D01*
X15602528Y-7223157D01*
X15608061Y-7218890D01*
X15615022Y-7218292D01*
X15621202Y-7221553D01*
X15622591Y-7223156D01*
X15625231Y-7226789D01*
X15639141Y-7240699D01*
X15655056Y-7252262D01*
X15663337Y-7256482D01*
X15672584Y-7261193D01*
X15672584Y-7261193D01*
X15672584Y-7261193D01*
X15682613Y-7264452D01*
X15691294Y-7267273D01*
X15710723Y-7270350D01*
X15710724Y-7270350D01*
X15730397Y-7270350D01*
X15749826Y-7267273D01*
X15768536Y-7261193D01*
X15786064Y-7252262D01*
X15801979Y-7240699D01*
X15815889Y-7226789D01*
X15818528Y-7223157D01*
X15824061Y-7218890D01*
X15831022Y-7218292D01*
X15837202Y-7221553D01*
X15838591Y-7223156D01*
X15841231Y-7226789D01*
X15855141Y-7240699D01*
X15871056Y-7252262D01*
X15879338Y-7256482D01*
X15888584Y-7261193D01*
X15888584Y-7261193D01*
X15888584Y-7261193D01*
X15898613Y-7264452D01*
X15907294Y-7267273D01*
X15926724Y-7270350D01*
X15926724Y-7270350D01*
X15946397Y-7270350D01*
X15965826Y-7267273D01*
X15984536Y-7261193D01*
X16002064Y-7252262D01*
X16017979Y-7240699D01*
X16031890Y-7226789D01*
X16034528Y-7223157D01*
X16040061Y-7218890D01*
X16047023Y-7218293D01*
X16053202Y-7221553D01*
X16054592Y-7223157D01*
X16057231Y-7226789D01*
X16071141Y-7240699D01*
X16087056Y-7252262D01*
X16095337Y-7256482D01*
X16104584Y-7261193D01*
X16104584Y-7261193D01*
X16104584Y-7261193D01*
X16114613Y-7264452D01*
X16123294Y-7267273D01*
X16142723Y-7270350D01*
X16142724Y-7270350D01*
X16162397Y-7270350D01*
X16181826Y-7267273D01*
X16200536Y-7261193D01*
X16218064Y-7252262D01*
X16233979Y-7240699D01*
X16247889Y-7226789D01*
X16250528Y-7223157D01*
X16256061Y-7218890D01*
X16263022Y-7218292D01*
X16269202Y-7221553D01*
X16270591Y-7223156D01*
X16273231Y-7226789D01*
X16287141Y-7240699D01*
X16303056Y-7252262D01*
X16311337Y-7256482D01*
X16320584Y-7261193D01*
X16320584Y-7261193D01*
X16320584Y-7261193D01*
X16330613Y-7264452D01*
X16339294Y-7267273D01*
X16358723Y-7270350D01*
X16358724Y-7270350D01*
X16378397Y-7270350D01*
X16397826Y-7267273D01*
X16416536Y-7261193D01*
X16434064Y-7252262D01*
X16449979Y-7240699D01*
X16463889Y-7226789D01*
X16466528Y-7223157D01*
X16472061Y-7218890D01*
X16479023Y-7218292D01*
X16485202Y-7221553D01*
X16486592Y-7223157D01*
X16489231Y-7226789D01*
X16503141Y-7240699D01*
X16519056Y-7252262D01*
X16527337Y-7256482D01*
X16536584Y-7261193D01*
X16536584Y-7261193D01*
X16536584Y-7261193D01*
X16546613Y-7264452D01*
X16555294Y-7267273D01*
X16574723Y-7270350D01*
X16574724Y-7270350D01*
X16594397Y-7270350D01*
X16613826Y-7267273D01*
X16632536Y-7261193D01*
X16650064Y-7252262D01*
X16665979Y-7240699D01*
X16679889Y-7226789D01*
X16682528Y-7223157D01*
X16688061Y-7218890D01*
X16695022Y-7218292D01*
X16701202Y-7221553D01*
X16702591Y-7223156D01*
X16705231Y-7226789D01*
X16719141Y-7240699D01*
X16735056Y-7252262D01*
X16743338Y-7256482D01*
X16752584Y-7261193D01*
X16752584Y-7261193D01*
X16752584Y-7261193D01*
X16762613Y-7264452D01*
X16771294Y-7267273D01*
X16790724Y-7270350D01*
X16790724Y-7270350D01*
X16810397Y-7270350D01*
X16829826Y-7267273D01*
X16848536Y-7261193D01*
X16866064Y-7252262D01*
X16881979Y-7240699D01*
X16895890Y-7226789D01*
X16898528Y-7223157D01*
X16904061Y-7218890D01*
X16911023Y-7218293D01*
X16917202Y-7221553D01*
X16918592Y-7223157D01*
X16921231Y-7226789D01*
X16935141Y-7240699D01*
X16951056Y-7252262D01*
X16959337Y-7256482D01*
X16968584Y-7261193D01*
X16968584Y-7261193D01*
X16968584Y-7261193D01*
X16978613Y-7264452D01*
X16987294Y-7267273D01*
X17006723Y-7270350D01*
X17006724Y-7270350D01*
X17026397Y-7270350D01*
X17045826Y-7267273D01*
X17064536Y-7261193D01*
X17082064Y-7252262D01*
X17097979Y-7240699D01*
X17111889Y-7226789D01*
X17114528Y-7223157D01*
X17120061Y-7218890D01*
X17127022Y-7218292D01*
X17133202Y-7221553D01*
X17134591Y-7223156D01*
X17137231Y-7226789D01*
X17151141Y-7240699D01*
X17167056Y-7252262D01*
X17175338Y-7256482D01*
X17184584Y-7261193D01*
X17184584Y-7261193D01*
X17184584Y-7261193D01*
X17194613Y-7264452D01*
X17203294Y-7267273D01*
X17222724Y-7270350D01*
X17222724Y-7270350D01*
X17242397Y-7270350D01*
X17261826Y-7267273D01*
X17280536Y-7261193D01*
X17298064Y-7252262D01*
X17313979Y-7240699D01*
X17327890Y-7226789D01*
X17330528Y-7223157D01*
X17336061Y-7218890D01*
X17343023Y-7218292D01*
X17349202Y-7221553D01*
X17350592Y-7223156D01*
X17353231Y-7226789D01*
X17367141Y-7240699D01*
X17383056Y-7252262D01*
X17391338Y-7256482D01*
X17400584Y-7261193D01*
X17400584Y-7261193D01*
X17400585Y-7261193D01*
X17410613Y-7264452D01*
X17419294Y-7267273D01*
X17438724Y-7270350D01*
X17438724Y-7270350D01*
X17458397Y-7270350D01*
X17477826Y-7267273D01*
X17496536Y-7261193D01*
X17514064Y-7252262D01*
X17529979Y-7240699D01*
X17543890Y-7226789D01*
X17546528Y-7223157D01*
X17552061Y-7218890D01*
X17559023Y-7218293D01*
X17565202Y-7221553D01*
X17566592Y-7223157D01*
X17569231Y-7226789D01*
X17583141Y-7240699D01*
X17599056Y-7252262D01*
X17607337Y-7256482D01*
X17616584Y-7261193D01*
X17616584Y-7261193D01*
X17616584Y-7261193D01*
X17626613Y-7264452D01*
X17635294Y-7267273D01*
X17654723Y-7270350D01*
X17654724Y-7270350D01*
X17674397Y-7270350D01*
X17693826Y-7267273D01*
X17712536Y-7261193D01*
X17730064Y-7252262D01*
X17745979Y-7240699D01*
X17759889Y-7226789D01*
X17771453Y-7210874D01*
X17780384Y-7193346D01*
X17786463Y-7174636D01*
X17789540Y-7155207D01*
X17789540Y-7135533D01*
X17786463Y-7116104D01*
X17780383Y-7097394D01*
X17772560Y-7082040D01*
X17771453Y-7079866D01*
X17759889Y-7063951D01*
X17745979Y-7050041D01*
X17730064Y-7038477D01*
X17712536Y-7029547D01*
X17693826Y-7023467D01*
X17674397Y-7020390D01*
X17674396Y-7020390D01*
X17654724Y-7020390D01*
X17654723Y-7020390D01*
X17635294Y-7023467D01*
X17616584Y-7029547D01*
X17599056Y-7038477D01*
X17589976Y-7045075D01*
X17583141Y-7050041D01*
X17583141Y-7050041D01*
X17583141Y-7050041D01*
X17569231Y-7063951D01*
X17566592Y-7067583D01*
X17561059Y-7071849D01*
X17554098Y-7072447D01*
X17547918Y-7069187D01*
X17546528Y-7067583D01*
X17543890Y-7063951D01*
X17543890Y-7063951D01*
X17529979Y-7050041D01*
X17514064Y-7038477D01*
X17496536Y-7029547D01*
X17477826Y-7023467D01*
X17458397Y-7020390D01*
X17458396Y-7020390D01*
X17438724Y-7020390D01*
X17438724Y-7020390D01*
X17419294Y-7023467D01*
X17400584Y-7029547D01*
X17383056Y-7038477D01*
X17373976Y-7045075D01*
X17367141Y-7050041D01*
X17367141Y-7050041D01*
X17367141Y-7050041D01*
X17353231Y-7063951D01*
X17350592Y-7067583D01*
X17345059Y-7071850D01*
X17338097Y-7072447D01*
X17331918Y-7069187D01*
X17330528Y-7067583D01*
X17327890Y-7063951D01*
X17327889Y-7063951D01*
X17313979Y-7050041D01*
X17313979Y-7050041D01*
X17298064Y-7038477D01*
X17280536Y-7029547D01*
X17261826Y-7023467D01*
X17242397Y-7020390D01*
X17242396Y-7020390D01*
X17222724Y-7020390D01*
X17222724Y-7020390D01*
X17203294Y-7023467D01*
X17184584Y-7029547D01*
X17167056Y-7038477D01*
X17157976Y-7045075D01*
X17151141Y-7050041D01*
X17151141Y-7050041D01*
X17151141Y-7050041D01*
X17137231Y-7063951D01*
X17134592Y-7067583D01*
X17129059Y-7071850D01*
X17122097Y-7072447D01*
X17115918Y-7069187D01*
X17114528Y-7067583D01*
X17111890Y-7063951D01*
X17111889Y-7063951D01*
X17097979Y-7050041D01*
X17097979Y-7050041D01*
X17082064Y-7038477D01*
X17064536Y-7029547D01*
X17045826Y-7023467D01*
X17026397Y-7020390D01*
X17026396Y-7020390D01*
X17006724Y-7020390D01*
X17006723Y-7020390D01*
X16987294Y-7023467D01*
X16968584Y-7029547D01*
X16951056Y-7038477D01*
X16941976Y-7045075D01*
X16935141Y-7050041D01*
X16935141Y-7050041D01*
X16935141Y-7050041D01*
X16921231Y-7063951D01*
X16918592Y-7067583D01*
X16913059Y-7071849D01*
X16906098Y-7072447D01*
X16899918Y-7069187D01*
X16898528Y-7067583D01*
X16895890Y-7063951D01*
X16895890Y-7063951D01*
X16881979Y-7050041D01*
X16866064Y-7038477D01*
X16848536Y-7029547D01*
X16829826Y-7023467D01*
X16810397Y-7020390D01*
X16810396Y-7020390D01*
X16790724Y-7020390D01*
X16790724Y-7020390D01*
X16771294Y-7023467D01*
X16752584Y-7029547D01*
X16735056Y-7038477D01*
X16725976Y-7045075D01*
X16719141Y-7050041D01*
X16719141Y-7050041D01*
X16719141Y-7050041D01*
X16705231Y-7063951D01*
X16702592Y-7067583D01*
X16697059Y-7071850D01*
X16690097Y-7072447D01*
X16683918Y-7069187D01*
X16682528Y-7067583D01*
X16679890Y-7063951D01*
X16679889Y-7063951D01*
X16665979Y-7050041D01*
X16665979Y-7050041D01*
X16650064Y-7038477D01*
X16632536Y-7029547D01*
X16613826Y-7023467D01*
X16594397Y-7020390D01*
X16594396Y-7020390D01*
X16574724Y-7020390D01*
X16574723Y-7020390D01*
X16555294Y-7023467D01*
X16536584Y-7029547D01*
X16519056Y-7038477D01*
X16509976Y-7045075D01*
X16503141Y-7050041D01*
X16503141Y-7050041D01*
X16503141Y-7050041D01*
X16489231Y-7063951D01*
X16489230Y-7063952D01*
X16486592Y-7067583D01*
X16481059Y-7071850D01*
X16474097Y-7072447D01*
X16467918Y-7069187D01*
X16466528Y-7067583D01*
X16463890Y-7063952D01*
X16463890Y-7063951D01*
X16463889Y-7063951D01*
X16449979Y-7050041D01*
X16434064Y-7038477D01*
X16416536Y-7029547D01*
X16397826Y-7023467D01*
X16378397Y-7020390D01*
X16378396Y-7020390D01*
X16358724Y-7020390D01*
X16358723Y-7020390D01*
X16339294Y-7023467D01*
X16320584Y-7029547D01*
X16303056Y-7038477D01*
X16293976Y-7045075D01*
X16287141Y-7050041D01*
X16287141Y-7050041D01*
X16287141Y-7050041D01*
X16273231Y-7063951D01*
X16270592Y-7067583D01*
X16265059Y-7071850D01*
X16258097Y-7072447D01*
X16251918Y-7069187D01*
X16250528Y-7067583D01*
X16247890Y-7063951D01*
X16247889Y-7063951D01*
X16233979Y-7050041D01*
X16233979Y-7050041D01*
X16218064Y-7038477D01*
X16200536Y-7029547D01*
X16181826Y-7023467D01*
X16162397Y-7020390D01*
X16162396Y-7020390D01*
X16142724Y-7020390D01*
X16142723Y-7020390D01*
X16123294Y-7023467D01*
X16104584Y-7029547D01*
X16087056Y-7038477D01*
X16077976Y-7045075D01*
X16071141Y-7050041D01*
X16071141Y-7050041D01*
X16071141Y-7050041D01*
X16057231Y-7063951D01*
X16054592Y-7067583D01*
X16049059Y-7071849D01*
X16042097Y-7072447D01*
X16035918Y-7069187D01*
X16034528Y-7067583D01*
X16031890Y-7063951D01*
X16031890Y-7063951D01*
X16017979Y-7050041D01*
X16002064Y-7038477D01*
X15984536Y-7029547D01*
X15965826Y-7023467D01*
X15946397Y-7020390D01*
X15946396Y-7020390D01*
X15926724Y-7020390D01*
X15926724Y-7020390D01*
X15907294Y-7023467D01*
X15888584Y-7029547D01*
X15871056Y-7038477D01*
X15861976Y-7045075D01*
X15855141Y-7050041D01*
X15855141Y-7050041D01*
X15855141Y-7050041D01*
X15841231Y-7063951D01*
X15838592Y-7067583D01*
X15833059Y-7071850D01*
X15826097Y-7072447D01*
X15819918Y-7069187D01*
X15818528Y-7067583D01*
X15815890Y-7063951D01*
X15815889Y-7063951D01*
X15801979Y-7050041D01*
X15801979Y-7050041D01*
X15786064Y-7038477D01*
X15768536Y-7029547D01*
X15749826Y-7023467D01*
X15730397Y-7020390D01*
X15730396Y-7020390D01*
X15710724Y-7020390D01*
X15710723Y-7020390D01*
X15691294Y-7023467D01*
X15672584Y-7029547D01*
X15655056Y-7038477D01*
X15645976Y-7045075D01*
X15639141Y-7050041D01*
X15639141Y-7050041D01*
X15639141Y-7050041D01*
X15625231Y-7063951D01*
X15622592Y-7067583D01*
X15617059Y-7071850D01*
X15610097Y-7072447D01*
X15603918Y-7069187D01*
X15602528Y-7067583D01*
X15599890Y-7063951D01*
X15599889Y-7063951D01*
X15585979Y-7050041D01*
X15585979Y-7050041D01*
X15570064Y-7038477D01*
X15552536Y-7029547D01*
X15533826Y-7023467D01*
X15514397Y-7020390D01*
X15514396Y-7020390D01*
X15494724Y-7020390D01*
X15494723Y-7020390D01*
X15475294Y-7023467D01*
X15456584Y-7029547D01*
X15439056Y-7038477D01*
X15429976Y-7045075D01*
X15423141Y-7050041D01*
X15423141Y-7050041D01*
X15423141Y-7050041D01*
X15409231Y-7063951D01*
X15406592Y-7067583D01*
X15401059Y-7071849D01*
X15394097Y-7072447D01*
X15387918Y-7069187D01*
X15386528Y-7067583D01*
X15383890Y-7063951D01*
X15383890Y-7063951D01*
X15369979Y-7050041D01*
X15354064Y-7038477D01*
X15336536Y-7029547D01*
X15317826Y-7023467D01*
X15298397Y-7020390D01*
X15298396Y-7020390D01*
X15278724Y-7020390D01*
X15278724Y-7020390D01*
X15259294Y-7023467D01*
X15240584Y-7029547D01*
X15223056Y-7038477D01*
X15213976Y-7045075D01*
X15207141Y-7050041D01*
X15207141Y-7050041D01*
X15207141Y-7050041D01*
X15193231Y-7063951D01*
X15193231Y-7063951D01*
X15193231Y-7063951D01*
X15189427Y-7069187D01*
X15181668Y-7079866D01*
X15172737Y-7097394D01*
X15166657Y-7116104D01*
X15163580Y-7135533D01*
X13759100Y-7135533D01*
X13759100Y-6639090D01*
X13761069Y-6632386D01*
X13766349Y-6627810D01*
X13771500Y-6626690D01*
X19158400Y-6626690D01*
X19165104Y-6628658D01*
G37*
%TD.AperFunction*%
%TD*%
M02*
