%TF.GenerationSoftware,KiCad,Pcbnew,10.0.0*%
%TF.CreationDate,2026-03-28T11:54:37-05:00*%
%TF.ProjectId,LINC,4c494e43-2e6b-4696-9361-645f70636258,rev?*%
%TF.SameCoordinates,Original*%
%TF.FileFunction,Soldermask,Top*%
%TF.FilePolarity,Negative*%
%FSLAX45Y45*%
G04 Gerber Fmt 4.5, Leading zero omitted, Abs format (unit mm)*
G04 Created by KiCad (PCBNEW 10.0.0) date 2026-03-28 11:54:37*
%MOMM*%
%LPD*%
G01*
G04 APERTURE LIST*
G04 Aperture macros list*
%AMRoundRect*
0 Rectangle with rounded corners*
0 $1 Rounding radius*
0 $2 $3 $4 $5 $6 $7 $8 $9 X,Y pos of 4 corners*
0 Add a 4 corners polygon primitive as box body*
4,1,4,$2,$3,$4,$5,$6,$7,$8,$9,$2,$3,0*
0 Add four circle primitives for the rounded corners*
1,1,$1+$1,$2,$3*
1,1,$1+$1,$4,$5*
1,1,$1+$1,$6,$7*
1,1,$1+$1,$8,$9*
0 Add four rect primitives between the rounded corners*
20,1,$1+$1,$2,$3,$4,$5,0*
20,1,$1+$1,$4,$5,$6,$7,0*
20,1,$1+$1,$6,$7,$8,$9,0*
20,1,$1+$1,$8,$9,$2,$3,0*%
G04 Aperture macros list end*
%ADD10C,0.000000*%
%ADD11C,1.000000*%
%ADD12RoundRect,0.225000X0.250000X-0.225000X0.250000X0.225000X-0.250000X0.225000X-0.250000X-0.225000X0*%
%ADD13C,0.700000*%
%ADD14O,0.900000X2.400000*%
%ADD15O,0.900000X1.700000*%
%ADD16C,2.100000*%
%ADD17RoundRect,0.075000X0.700000X0.075000X-0.700000X0.075000X-0.700000X-0.075000X0.700000X-0.075000X0*%
%ADD18RoundRect,0.075000X0.075000X0.700000X-0.075000X0.700000X-0.075000X-0.700000X0.075000X-0.700000X0*%
%ADD19RoundRect,0.225000X-0.250000X0.225000X-0.250000X-0.225000X0.250000X-0.225000X0.250000X0.225000X0*%
%ADD20RoundRect,0.100000X-0.637500X-0.100000X0.637500X-0.100000X0.637500X0.100000X-0.637500X0.100000X0*%
%ADD21RoundRect,0.225000X0.225000X0.250000X-0.225000X0.250000X-0.225000X-0.250000X0.225000X-0.250000X0*%
%ADD22RoundRect,0.150000X-0.150000X0.825000X-0.150000X-0.825000X0.150000X-0.825000X0.150000X0.825000X0*%
%ADD23RoundRect,0.218750X-0.256250X0.218750X-0.256250X-0.218750X0.256250X-0.218750X0.256250X0.218750X0*%
%ADD24C,0.500000*%
%ADD25RoundRect,0.055000X-0.245000X-0.055000X0.245000X-0.055000X0.245000X0.055000X-0.245000X0.055000X0*%
%ADD26RoundRect,0.200000X0.200000X-0.250000X0.200000X0.250000X-0.200000X0.250000X-0.200000X-0.250000X0*%
%ADD27RoundRect,0.225000X-0.225000X-0.250000X0.225000X-0.250000X0.225000X0.250000X-0.225000X0.250000X0*%
%ADD28RoundRect,0.200000X0.275000X-0.200000X0.275000X0.200000X-0.275000X0.200000X-0.275000X-0.200000X0*%
%ADD29RoundRect,0.150000X-0.150000X0.512500X-0.150000X-0.512500X0.150000X-0.512500X0.150000X0.512500X0*%
%ADD30RoundRect,0.200000X-0.275000X0.200000X-0.275000X-0.200000X0.275000X-0.200000X0.275000X0.200000X0*%
%ADD31C,3.098800*%
%ADD32C,1.498600*%
%ADD33RoundRect,0.087500X0.087500X-0.425000X0.087500X0.425000X-0.087500X0.425000X-0.087500X-0.425000X0*%
%ADD34RoundRect,0.200000X-0.200000X-0.275000X0.200000X-0.275000X0.200000X0.275000X-0.200000X0.275000X0*%
%ADD35R,0.300000X0.800000*%
%ADD36R,1.800000X1.000000*%
%ADD37C,3.250000*%
%ADD38R,1.500000X1.500000*%
%ADD39C,1.500000*%
%ADD40C,2.300000*%
%ADD41RoundRect,0.250000X-0.400000X0.525000X-0.400000X-0.525000X0.400000X-0.525000X0.400000X0.525000X0*%
%ADD42RoundRect,0.102000X0.368300X1.397000X-0.368300X1.397000X-0.368300X-1.397000X0.368300X-1.397000X0*%
G04 APERTURE END LIST*
D10*
%TO.C,U9*%
G36*
X18603318Y-11220408D02*
G01*
X18604782Y-11221872D01*
X18606550Y-11226140D01*
X18606550Y-11259140D01*
X18608318Y-11263408D01*
X18609782Y-11264872D01*
X18614050Y-11266640D01*
X18627050Y-11266640D01*
X18631318Y-11264872D01*
X18632782Y-11263408D01*
X18634550Y-11259140D01*
X18634550Y-11226140D01*
X18636318Y-11221872D01*
X18637782Y-11220408D01*
X18642050Y-11218640D01*
X18649050Y-11218640D01*
X18653318Y-11220408D01*
X18654782Y-11221872D01*
X18656550Y-11226140D01*
X18656550Y-11259140D01*
X18658318Y-11263408D01*
X18659782Y-11264872D01*
X18664050Y-11266640D01*
X18673050Y-11266640D01*
X18677318Y-11268408D01*
X18678782Y-11269872D01*
X18680550Y-11274140D01*
X18680550Y-11316640D01*
X18678782Y-11320908D01*
X18677318Y-11322372D01*
X18673050Y-11324140D01*
X18659050Y-11324140D01*
X18654248Y-11325115D01*
X18650374Y-11326757D01*
X18646333Y-11329528D01*
X18620267Y-11356451D01*
X18617590Y-11360565D01*
X18615988Y-11364522D01*
X18615050Y-11369340D01*
X18615050Y-11373640D01*
X18613282Y-11377908D01*
X18611818Y-11379372D01*
X18607550Y-11381140D01*
X18580550Y-11381140D01*
X18576282Y-11379372D01*
X18574818Y-11377908D01*
X18573050Y-11373640D01*
X18573050Y-11274140D01*
X18574818Y-11269872D01*
X18578550Y-11266640D01*
X18582782Y-11263408D01*
X18584550Y-11259140D01*
X18584550Y-11251140D01*
X18584550Y-11246140D01*
X18584550Y-11226140D01*
X18586318Y-11221872D01*
X18587782Y-11220408D01*
X18592050Y-11218640D01*
X18599050Y-11218640D01*
X18603318Y-11220408D01*
G37*
G36*
X18611818Y-11443908D02*
G01*
X18613282Y-11445372D01*
X18615050Y-11449640D01*
X18615050Y-11453940D01*
X18615988Y-11458757D01*
X18617590Y-11462715D01*
X18620267Y-11466828D01*
X18646333Y-11493751D01*
X18650374Y-11496523D01*
X18654248Y-11498164D01*
X18659050Y-11499140D01*
X18673050Y-11499140D01*
X18677318Y-11500908D01*
X18678782Y-11502372D01*
X18680550Y-11506640D01*
X18680550Y-11549140D01*
X18678782Y-11553408D01*
X18677318Y-11554872D01*
X18673050Y-11556640D01*
X18664050Y-11556640D01*
X18659782Y-11558408D01*
X18658318Y-11559872D01*
X18656550Y-11564140D01*
X18656550Y-11597140D01*
X18654782Y-11601408D01*
X18653318Y-11602872D01*
X18649050Y-11604640D01*
X18642050Y-11604640D01*
X18637782Y-11602872D01*
X18636318Y-11601408D01*
X18634550Y-11597140D01*
X18634550Y-11564140D01*
X18632782Y-11559872D01*
X18631318Y-11558408D01*
X18627050Y-11556640D01*
X18614050Y-11556640D01*
X18609782Y-11558408D01*
X18608318Y-11559872D01*
X18606550Y-11564140D01*
X18606550Y-11597140D01*
X18604782Y-11601408D01*
X18603318Y-11602872D01*
X18599050Y-11604640D01*
X18592050Y-11604640D01*
X18587782Y-11602872D01*
X18586318Y-11601408D01*
X18584550Y-11597140D01*
X18584550Y-11577140D01*
X18584550Y-11572140D01*
X18584550Y-11564140D01*
X18582782Y-11559872D01*
X18578550Y-11556640D01*
X18574818Y-11553408D01*
X18573050Y-11549140D01*
X18573050Y-11449640D01*
X18574818Y-11445372D01*
X18576282Y-11443908D01*
X18580550Y-11442140D01*
X18607550Y-11442140D01*
X18611818Y-11443908D01*
G37*
G36*
X18361818Y-11220408D02*
G01*
X18363282Y-11221872D01*
X18365050Y-11226140D01*
X18365050Y-11259140D01*
X18366818Y-11263408D01*
X18368282Y-11264872D01*
X18372550Y-11266640D01*
X18385550Y-11266640D01*
X18389818Y-11264872D01*
X18391282Y-11263408D01*
X18393050Y-11259140D01*
X18393050Y-11226140D01*
X18394818Y-11221872D01*
X18396282Y-11220408D01*
X18400550Y-11218640D01*
X18407550Y-11218640D01*
X18411818Y-11220408D01*
X18413282Y-11221872D01*
X18415050Y-11226140D01*
X18415050Y-11259140D01*
X18416818Y-11263408D01*
X18418282Y-11264872D01*
X18422550Y-11266640D01*
X18435550Y-11266640D01*
X18439818Y-11264872D01*
X18441282Y-11263408D01*
X18443050Y-11259140D01*
X18443050Y-11226140D01*
X18444818Y-11221872D01*
X18446282Y-11220408D01*
X18450550Y-11218640D01*
X18457550Y-11218640D01*
X18461818Y-11220408D01*
X18463282Y-11221872D01*
X18465050Y-11226140D01*
X18465050Y-11259140D01*
X18466818Y-11263408D01*
X18468282Y-11264872D01*
X18472550Y-11266640D01*
X18485550Y-11266640D01*
X18489818Y-11264872D01*
X18491282Y-11263408D01*
X18493050Y-11259140D01*
X18493050Y-11226140D01*
X18494818Y-11221872D01*
X18496282Y-11220408D01*
X18500550Y-11218640D01*
X18507550Y-11218640D01*
X18511818Y-11220408D01*
X18513282Y-11221872D01*
X18515050Y-11226140D01*
X18515050Y-11259140D01*
X18516818Y-11263408D01*
X18518282Y-11264872D01*
X18522550Y-11266640D01*
X18530550Y-11266640D01*
X18534818Y-11268408D01*
X18536282Y-11269872D01*
X18538050Y-11274140D01*
X18538050Y-11359140D01*
X18536282Y-11363408D01*
X18534818Y-11364872D01*
X18530550Y-11366640D01*
X18325550Y-11366640D01*
X18321282Y-11364872D01*
X18319818Y-11363408D01*
X18318050Y-11359140D01*
X18318050Y-11274140D01*
X18319818Y-11269872D01*
X18321282Y-11268408D01*
X18325550Y-11266640D01*
X18335550Y-11266640D01*
X18339818Y-11264872D01*
X18341282Y-11263408D01*
X18343050Y-11259140D01*
X18343050Y-11226140D01*
X18344818Y-11221872D01*
X18346282Y-11220408D01*
X18350550Y-11218640D01*
X18357550Y-11218640D01*
X18361818Y-11220408D01*
G37*
G36*
X18534818Y-11463408D02*
G01*
X18536282Y-11464872D01*
X18538050Y-11469140D01*
X18538050Y-11554140D01*
X18536282Y-11558408D01*
X18534818Y-11559872D01*
X18530550Y-11561640D01*
X18522550Y-11561640D01*
X18518282Y-11563408D01*
X18516818Y-11564872D01*
X18515050Y-11569140D01*
X18515050Y-11602140D01*
X18513282Y-11606408D01*
X18511818Y-11607872D01*
X18507550Y-11609640D01*
X18500550Y-11609640D01*
X18496282Y-11607872D01*
X18494818Y-11606408D01*
X18493050Y-11602140D01*
X18493050Y-11569140D01*
X18491282Y-11564872D01*
X18489818Y-11563408D01*
X18485550Y-11561640D01*
X18472550Y-11561640D01*
X18468282Y-11563408D01*
X18466818Y-11564872D01*
X18465050Y-11569140D01*
X18465050Y-11602140D01*
X18463282Y-11606408D01*
X18461818Y-11607872D01*
X18457550Y-11609640D01*
X18450550Y-11609640D01*
X18446282Y-11607872D01*
X18444818Y-11606408D01*
X18443050Y-11602140D01*
X18443050Y-11569140D01*
X18441282Y-11564872D01*
X18439818Y-11563408D01*
X18435550Y-11561640D01*
X18422550Y-11561640D01*
X18418282Y-11563408D01*
X18416818Y-11564872D01*
X18415050Y-11569140D01*
X18415050Y-11602140D01*
X18413282Y-11606408D01*
X18411818Y-11607872D01*
X18407550Y-11609640D01*
X18400550Y-11609640D01*
X18396282Y-11607872D01*
X18394818Y-11606408D01*
X18393050Y-11602140D01*
X18393050Y-11569140D01*
X18391282Y-11564872D01*
X18389818Y-11563408D01*
X18385550Y-11561640D01*
X18372550Y-11561640D01*
X18368282Y-11563408D01*
X18366818Y-11564872D01*
X18365050Y-11569140D01*
X18365050Y-11602140D01*
X18363282Y-11606408D01*
X18361818Y-11607872D01*
X18357550Y-11609640D01*
X18350550Y-11609640D01*
X18346282Y-11607872D01*
X18344818Y-11606408D01*
X18343050Y-11602140D01*
X18343050Y-11569140D01*
X18341282Y-11564872D01*
X18339818Y-11563408D01*
X18335550Y-11561640D01*
X18325550Y-11561640D01*
X18321282Y-11559872D01*
X18319818Y-11558408D01*
X18318050Y-11554140D01*
X18318050Y-11469140D01*
X18319818Y-11464872D01*
X18321282Y-11463408D01*
X18325550Y-11461640D01*
X18530550Y-11461640D01*
X18534818Y-11463408D01*
G37*
%TD*%
D11*
%TO.C,TP1*%
X16176050Y-10560640D03*
%TD*%
D12*
%TO.C,C15*%
X19070000Y-11513500D03*
X19070000Y-11358500D03*
%TD*%
D13*
%TO.C,J4*%
X17180550Y-11757140D03*
X17265550Y-11757140D03*
X17350550Y-11757140D03*
X17435550Y-11757140D03*
X17520550Y-11757140D03*
X17605550Y-11757140D03*
X17690550Y-11757140D03*
X17775550Y-11757140D03*
X17775550Y-11892140D03*
X17690550Y-11892140D03*
X17605550Y-11892140D03*
X17520550Y-11892140D03*
X17435550Y-11892140D03*
X17350550Y-11892140D03*
X17265550Y-11892140D03*
X17180550Y-11892140D03*
D14*
X17045550Y-11855140D03*
D15*
X17045550Y-12193140D03*
D14*
X17910550Y-11855140D03*
D15*
X17910550Y-12193140D03*
%TD*%
D16*
%TO.C,H1*%
X13995050Y-12087640D03*
%TD*%
D17*
%TO.C,U3*%
X16766550Y-10141640D03*
X16766550Y-10091640D03*
X16766550Y-10041640D03*
X16766550Y-9991640D03*
X16766550Y-9941640D03*
X16766550Y-9891640D03*
X16766550Y-9841640D03*
X16766550Y-9791640D03*
X16766550Y-9741640D03*
X16766550Y-9691640D03*
X16766550Y-9641640D03*
X16766550Y-9591640D03*
X16766550Y-9541640D03*
X16766550Y-9491640D03*
X16766550Y-9441640D03*
X16766550Y-9391640D03*
D18*
X16574050Y-9199140D03*
X16524050Y-9199140D03*
X16474050Y-9199140D03*
X16424050Y-9199140D03*
X16374050Y-9199140D03*
X16324050Y-9199140D03*
X16274050Y-9199140D03*
X16224050Y-9199140D03*
X16174050Y-9199140D03*
X16124050Y-9199140D03*
X16074050Y-9199140D03*
X16024050Y-9199140D03*
X15974050Y-9199140D03*
X15924050Y-9199140D03*
X15874050Y-9199140D03*
X15824050Y-9199140D03*
D17*
X15631550Y-9391640D03*
X15631550Y-9441640D03*
X15631550Y-9491640D03*
X15631550Y-9541640D03*
X15631550Y-9591640D03*
X15631550Y-9641640D03*
X15631550Y-9691640D03*
X15631550Y-9741640D03*
X15631550Y-9791640D03*
X15631550Y-9841640D03*
X15631550Y-9891640D03*
X15631550Y-9941640D03*
X15631550Y-9991640D03*
X15631550Y-10041640D03*
X15631550Y-10091640D03*
X15631550Y-10141640D03*
D18*
X15824050Y-10334140D03*
X15874050Y-10334140D03*
X15924050Y-10334140D03*
X15974050Y-10334140D03*
X16024050Y-10334140D03*
X16074050Y-10334140D03*
X16124050Y-10334140D03*
X16174050Y-10334140D03*
X16224050Y-10334140D03*
X16274050Y-10334140D03*
X16324050Y-10334140D03*
X16374050Y-10334140D03*
X16424050Y-10334140D03*
X16474050Y-10334140D03*
X16524050Y-10334140D03*
X16574050Y-10334140D03*
%TD*%
D19*
%TO.C,C1*%
X16544050Y-10514140D03*
X16544050Y-10669140D03*
%TD*%
D20*
%TO.C,U1*%
X17105060Y-8115870D03*
X17105060Y-8180870D03*
X17105060Y-8245870D03*
X17105060Y-8310870D03*
X17105060Y-8375870D03*
X17105060Y-8440870D03*
X17105060Y-8505870D03*
X17105060Y-8570870D03*
X17105060Y-8635870D03*
X17105060Y-8700870D03*
X17105060Y-8765870D03*
X17105060Y-8830870D03*
X17677560Y-8830870D03*
X17677560Y-8765870D03*
X17677560Y-8700870D03*
X17677560Y-8635870D03*
X17677560Y-8570870D03*
X17677560Y-8505870D03*
X17677560Y-8440870D03*
X17677560Y-8375870D03*
X17677560Y-8310870D03*
X17677560Y-8245870D03*
X17677560Y-8180870D03*
X17677560Y-8115870D03*
%TD*%
D21*
%TO.C,C12*%
X18395050Y-11104640D03*
X18240050Y-11104640D03*
%TD*%
D22*
%TO.C,U5*%
X14539550Y-11019140D03*
X14412550Y-11019140D03*
X14285550Y-11019140D03*
X14158550Y-11019140D03*
X14158550Y-11514140D03*
X14285550Y-11514140D03*
X14412550Y-11514140D03*
X14539550Y-11514140D03*
%TD*%
D23*
%TO.C,D2*%
X18317100Y-12039780D03*
X18317100Y-12197280D03*
%TD*%
D21*
%TO.C,C7*%
X17517550Y-10069640D03*
X17362550Y-10069640D03*
%TD*%
D24*
%TO.C,U9*%
X18479050Y-11246640D03*
X18429050Y-11246640D03*
X18379050Y-11246640D03*
X18479050Y-11346640D03*
X18429050Y-11346640D03*
X18379050Y-11346640D03*
X18479050Y-11476640D03*
X18429050Y-11476640D03*
X18379050Y-11476640D03*
X18479050Y-11576640D03*
X18429050Y-11576640D03*
X18379050Y-11576640D03*
D25*
X18685550Y-11461640D03*
X18685550Y-11411640D03*
X18685550Y-11361640D03*
%TD*%
D26*
%TO.C,Y2*%
X17221050Y-9876640D03*
X17221050Y-9736640D03*
X17111050Y-9736640D03*
X17111050Y-9876640D03*
%TD*%
D20*
%TO.C,U2*%
X15806800Y-8108890D03*
X15806800Y-8173890D03*
X15806800Y-8238890D03*
X15806800Y-8303890D03*
X15806800Y-8368890D03*
X15806800Y-8433890D03*
X15806800Y-8498890D03*
X16379300Y-8498890D03*
X16379300Y-8433890D03*
X16379300Y-8368890D03*
X16379300Y-8303890D03*
X16379300Y-8238890D03*
X16379300Y-8173890D03*
X16379300Y-8108890D03*
%TD*%
D27*
%TO.C,C11*%
X18540050Y-11104640D03*
X18695050Y-11104640D03*
%TD*%
D28*
%TO.C,R4*%
X18150150Y-11893669D03*
X18150150Y-11728669D03*
%TD*%
D29*
%TO.C,U8*%
X17576050Y-11312140D03*
X17481050Y-11312140D03*
X17386050Y-11312140D03*
X17386050Y-11539640D03*
X17481050Y-11539640D03*
X17576050Y-11539640D03*
%TD*%
D30*
%TO.C,R3*%
X18919050Y-11544140D03*
X18919050Y-11709140D03*
%TD*%
D31*
%TO.C,J1*%
X18816561Y-7359870D03*
X14136560Y-7359870D03*
D32*
X17664560Y-7574370D03*
X17448560Y-7574370D03*
X17232560Y-7574370D03*
X17016560Y-7574370D03*
X16800560Y-7574370D03*
X16584560Y-7574370D03*
X16368560Y-7574370D03*
X16152560Y-7574370D03*
X15936560Y-7574370D03*
X15720560Y-7574370D03*
X15504560Y-7574370D03*
X15288560Y-7574370D03*
X17664560Y-7145370D03*
X17448560Y-7145370D03*
X17232560Y-7145370D03*
X17016560Y-7145370D03*
X16800560Y-7145370D03*
X16584560Y-7145370D03*
X16368560Y-7145370D03*
X16152560Y-7145370D03*
X15936560Y-7145370D03*
X15720560Y-7145370D03*
X15504560Y-7145370D03*
X15288560Y-7145370D03*
%TD*%
D12*
%TO.C,C16*%
X15880050Y-9021140D03*
X15880050Y-8866140D03*
%TD*%
D23*
%TO.C,D1*%
X18150100Y-12039780D03*
X18150100Y-12197280D03*
%TD*%
D33*
%TO.C,U6*%
X16743050Y-8285140D03*
X16808050Y-8285140D03*
X16873050Y-8285140D03*
X16873050Y-8117640D03*
X16743050Y-8117640D03*
%TD*%
D27*
%TO.C,C14*%
X18539550Y-11717640D03*
X18694550Y-11717640D03*
%TD*%
D30*
%TO.C,R7*%
X16866050Y-11739640D03*
X16866050Y-11904640D03*
%TD*%
D34*
%TO.C,R1*%
X16084050Y-10816640D03*
X16249050Y-10816640D03*
%TD*%
D35*
%TO.C,R8*%
X14647000Y-7949000D03*
X14597000Y-7949000D03*
X14547000Y-7949000D03*
X14497000Y-7949000D03*
X14447000Y-7949000D03*
X14397000Y-7949000D03*
X14347000Y-7949000D03*
X14297000Y-7949000D03*
X14297000Y-8129000D03*
X14347000Y-8129000D03*
X14397000Y-8129000D03*
X14447000Y-8129000D03*
X14497000Y-8129000D03*
X14547000Y-8129000D03*
X14597000Y-8129000D03*
X14647000Y-8129000D03*
%TD*%
D28*
%TO.C,R5*%
X18317150Y-11893669D03*
X18317150Y-11728669D03*
%TD*%
D20*
%TO.C,U7*%
X14881550Y-8107640D03*
X14881550Y-8172640D03*
X14881550Y-8237640D03*
X14881550Y-8302640D03*
X14881550Y-8367640D03*
X14881550Y-8432640D03*
X14881550Y-8497640D03*
X15454050Y-8497640D03*
X15454050Y-8432640D03*
X15454050Y-8367640D03*
X15454050Y-8302640D03*
X15454050Y-8237640D03*
X15454050Y-8172640D03*
X15454050Y-8107640D03*
%TD*%
D12*
%TO.C,C4*%
X16541050Y-9020140D03*
X16541050Y-8865140D03*
%TD*%
D36*
%TO.C,Y1*%
X17152550Y-10071640D03*
X17152550Y-10321640D03*
%TD*%
D12*
%TO.C,C3*%
X15729050Y-9021640D03*
X15729050Y-8866640D03*
%TD*%
D16*
%TO.C,H2*%
X18938050Y-12086640D03*
%TD*%
D19*
%TO.C,C5*%
X16698050Y-10514640D03*
X16698050Y-10669640D03*
%TD*%
D21*
%TO.C,C6*%
X17518550Y-10323640D03*
X17363550Y-10323640D03*
%TD*%
D37*
%TO.C,J3*%
X16284050Y-12064640D03*
X15014050Y-12064640D03*
D38*
X16005050Y-11810640D03*
D39*
X15903450Y-11632640D03*
X15801850Y-11810640D03*
X15700250Y-11632640D03*
X15598650Y-11810640D03*
X15497050Y-11632640D03*
X15395450Y-11810640D03*
X15293850Y-11632640D03*
D40*
X16462050Y-11721640D03*
X14836050Y-11721640D03*
%TD*%
D30*
%TO.C,R2*%
X18919050Y-11244140D03*
X18919050Y-11409140D03*
%TD*%
D21*
%TO.C,C9*%
X17266550Y-9561640D03*
X17111550Y-9561640D03*
%TD*%
D19*
%TO.C,C8*%
X17470050Y-9721140D03*
X17470050Y-9876140D03*
%TD*%
%TO.C,C13*%
X16390050Y-10514640D03*
X16390050Y-10669640D03*
%TD*%
D21*
%TO.C,C10*%
X14586550Y-8616640D03*
X14431550Y-8616640D03*
%TD*%
%TO.C,C2*%
X15451550Y-10109140D03*
X15296550Y-10109140D03*
%TD*%
D41*
%TO.C,U4*%
X14724050Y-8798640D03*
X14724050Y-9594640D03*
X14274050Y-8798640D03*
X14274050Y-9594640D03*
%TD*%
D42*
%TO.C,J2*%
X14753050Y-10033440D03*
X14753050Y-10439840D03*
X14626050Y-10033440D03*
X14626050Y-10439840D03*
X14499050Y-10033440D03*
X14499050Y-10439840D03*
X14372050Y-10033440D03*
X14372050Y-10439840D03*
X14245050Y-10033440D03*
X14245050Y-10439840D03*
%TD*%
D28*
%TO.C,R6*%
X16712050Y-11904140D03*
X16712050Y-11739140D03*
%TD*%
M02*
